<svg width="25" height="25" viewBox="0 0 25 25" fill="none" xmlns="http://www.w3.org/2000/svg">
<g clip-path="url(#clip0_108:906)">
<path d="M7.37001 3.805C7.37001 2.12 6.00001 0.75 4.31501 0.75C2.63001 0.75 1.26001 2.12 1.26001 3.805C1.26001 5.49 4.31501 9.45 4.31501 9.45C4.31501 9.45 7.37001 5.495 7.37001 3.805ZM2.88501 3.805C2.88501 3.015 3.52501 2.375 4.31501 2.375C5.10501 2.375 5.74501 3.015 5.74501 3.805C5.74501 4.595 5.10501 5.235 4.31501 5.235C3.52501 5.235 2.88501 4.595 2.88501 3.805ZM24.25 14.535C24.25 12.005 22.2 9.95 19.665 9.95C17.13 9.95 15.08 12 15.08 14.535C15.08 17.07 19.665 23.005 19.665 23.005C19.665 23.005 24.25 17.065 24.25 14.535ZM17.52 14.535C17.52 13.35 18.48 12.39 19.665 12.39C20.85 12.39 21.81 13.35 21.81 14.535C21.81 15.72 20.85 16.68 19.665 16.68C18.48 16.68 17.52 15.72 17.52 14.535Z" fill="#0097E6"/>
<path d="M6.34495 8.93994H5.06995V9.95994H6.34495V8.93994Z" fill="#0097E6"/>
<path d="M1.785 18.475L0.764995 18.39C0.749995 18.54 0.744995 18.695 0.744995 18.85C0.744995 19.645 0.914995 20.405 1.245 21.12L2.17 20.69C1.9 20.11 1.765 19.495 1.765 18.85C1.77 18.725 1.775 18.6 1.785 18.475ZM3.815 13.98C2.97 14.385 2.24 15.01 1.705 15.78L2.545 16.36C2.98 15.735 3.57 15.23 4.255 14.9L3.815 13.98Z" fill="#0097E6"/>
<path d="M15.83 23.23H13.29V24.25H15.83V23.23Z" fill="#0097E6"/>
<path d="M10.5 8.93994H8.88502V9.95994H10.5C10.74 9.95994 10.975 10.0099 11.195 10.1049L11.6 9.16994C11.255 9.01494 10.885 8.93994 10.5 8.93994ZM3.02502 23.2499C3.79002 23.7949 4.69002 24.1299 5.62502 24.2199L5.72502 23.2049C4.97002 23.1299 4.24002 22.8599 3.62002 22.4199L3.02502 23.2499ZM12.245 11.6449V11.7049C12.245 12.3549 11.885 12.9499 11.305 13.2549L11.78 14.1599C12.695 13.6799 13.27 12.7399 13.27 11.7049V11.6049L12.245 11.6449Z" fill="#0097E6"/>
<path d="M9.04501 13.45H6.505V14.47H9.04501V13.45Z" fill="#0097E6"/>
<path d="M10.75 23.23H8.20996V24.25H10.75V23.23Z" fill="#0097E6"/>
<path d="M19.665 23.23H18.39V24.25H19.665V23.23Z" fill="#0097E6"/>
</g>
<defs>
<clipPath id="clip0_108:906">
<rect width="24" height="24" fill="white" transform="translate(0.5 0.5)"/>
</clipPath>
</defs>
</svg>
