<svg width="25" height="25" viewBox="0 0 25 25" fill="none" xmlns="http://www.w3.org/2000/svg">
<path d="M19.3099 8.56262H16.2499C16.0873 8.55801 15.9306 8.50065 15.8034 8.39918C15.6763 8.29772 15.5855 8.15766 15.5449 8.00012L14.6374 5.11262C14.4895 4.66247 14.2032 4.27052 13.8194 3.99265C13.4355 3.71478 12.9738 3.56519 12.4999 3.56519C12.0261 3.56519 11.5643 3.71478 11.1805 3.99265C10.7967 4.27052 10.5104 4.66247 10.3624 5.11262L9.45494 8.00012C9.41434 8.15766 9.32361 8.29772 9.19644 8.39918C9.06927 8.50065 8.91256 8.55801 8.74994 8.56262H5.68994C5.22025 8.56716 4.76375 8.71858 4.38446 8.99565C4.00517 9.27272 3.7221 9.66156 3.57494 10.1076C3.40487 10.5728 3.3858 11.0798 3.52045 11.5564C3.6551 12.0331 3.93661 12.4552 4.32494 12.7626L6.85244 14.7501C6.99025 14.8617 7.09067 15.0127 7.14027 15.1829C7.18986 15.3532 7.18626 15.5345 7.12994 15.7026L6.22244 18.7026C6.07043 19.1838 6.07494 19.7007 6.23531 20.1791C6.39568 20.6576 6.70366 21.0728 7.11494 21.3651C7.49657 21.6325 7.95399 21.7703 8.41983 21.7582C8.88566 21.746 9.33528 21.5846 9.70244 21.2976L12.0724 19.4676C12.1948 19.3728 12.3451 19.3213 12.4999 19.3213C12.6547 19.3213 12.8051 19.3728 12.9274 19.4676L15.2974 21.2976C15.6636 21.5868 16.1135 21.7497 16.58 21.7619C17.0464 21.774 17.5042 21.6348 17.8849 21.3651C18.2962 21.0728 18.6042 20.6576 18.7646 20.1791C18.9249 19.7007 18.9295 19.1838 18.7774 18.7026L17.8699 15.7026C17.8149 15.535 17.8112 15.3548 17.8593 15.1851C17.9074 15.0154 18.0051 14.8639 18.1399 14.7501L20.6824 12.7326C21.0708 12.4252 21.3523 12.0031 21.4869 11.5264C21.6216 11.0498 21.6025 10.5428 21.4324 10.0776C21.2798 9.63595 20.9934 9.25277 20.6131 8.98128C20.2327 8.70979 19.7772 8.56347 19.3099 8.56262Z" fill="#F7B731"/>
</svg>
