<svg width="25" height="25" viewBox="0 0 25 25" fill="none" xmlns="http://www.w3.org/2000/svg">
<path d="M12.5 14.375C13.5355 14.375 14.375 13.5355 14.375 12.5C14.375 11.4645 13.5355 10.625 12.5 10.625C11.4645 10.625 10.625 11.4645 10.625 12.5C10.625 13.5355 11.4645 14.375 12.5 14.375Z" fill="#30AD4C"/>
<path d="M21.1775 11.4426C20.3593 9.8455 19.1162 8.50522 17.5851 7.56931C16.0541 6.63341 14.2944 6.13818 12.5 6.13818C10.7055 6.13818 8.94587 6.63341 7.41481 7.56931C5.88375 8.50522 4.64067 9.8455 3.82247 11.4426C3.65583 11.7702 3.56897 12.1325 3.56897 12.5001C3.56897 12.8676 3.65583 13.23 3.82247 13.5576C4.64067 15.1546 5.88375 16.4949 7.41481 17.4308C8.94587 18.3667 10.7055 18.862 12.5 18.862C14.2944 18.862 16.0541 18.3667 17.5851 17.4308C19.1162 16.4949 20.3593 15.1546 21.1775 13.5576C21.3441 13.23 21.431 12.8676 21.431 12.5001C21.431 12.1325 21.3441 11.7702 21.1775 11.4426ZM12.5 15.8751C11.8325 15.8751 11.1799 15.6771 10.6249 15.3063C10.0699 14.9354 9.63732 14.4083 9.38187 13.7916C9.12643 13.1749 9.05959 12.4963 9.18982 11.8416C9.32004 11.187 9.64148 10.5856 10.1135 10.1136C10.5855 9.64158 11.1869 9.32014 11.8415 9.18992C12.4962 9.05969 13.1748 9.12653 13.7915 9.38197C14.4082 9.63742 14.9353 10.07 15.3062 10.625C15.677 11.18 15.875 11.8326 15.875 12.5001C15.873 13.3946 15.5168 14.2519 14.8843 14.8844C14.2518 15.5169 13.3945 15.8731 12.5 15.8751Z" fill="#30AD4C"/>
</svg>
