<svg width="25" height="25" viewBox="0 0 25 25" fill="none" xmlns="http://www.w3.org/2000/svg">
<path d="M15.1665 18.5H5.99995C4.06674 18.4997 2.49981 16.9323 2.50012 14.9991C2.50037 13.427 3.5487 12.0479 5.06343 11.627C5.54439 8.34964 8.59114 6.08267 11.8685 6.56362C13.8957 6.8611 15.6308 8.17279 16.4697 10.042C18.7502 10.7591 20.0177 13.1892 19.3006 15.4698C18.733 17.2749 17.0587 18.5022 15.1665 18.5Z" fill="#0097E6"/>
<path d="M22.4719 8.04376C22.3418 7.50696 21.801 7.17737 21.2642 7.30761C21.0503 7.36126 20.8305 7.38879 20.6099 7.38958C18.9538 7.38781 17.6117 6.04571 17.6099 4.38958C17.6107 4.169 17.6383 3.94927 17.6919 3.73528C17.7287 3.5841 17.7296 3.42638 17.6946 3.27471C17.5707 2.73681 17.034 2.4013 16.4961 2.52526C14.4364 2.98717 12.9307 4.69146 12.6647 6.73937C14.3432 7.22515 15.7432 8.42296 16.4697 10.0419C17.612 10.4011 18.4997 11.1902 19.0116 12.1748C20.7135 11.6767 22.0702 10.3044 22.4747 8.50389C22.5096 8.35242 22.5086 8.19483 22.4719 8.04376ZM13 16.4999C12.8687 16.5031 12.7385 16.4757 12.6197 16.4198C12.4986 16.3691 12.3872 16.2981 12.2901 16.2098C12.1019 16.0218 11.9973 15.7659 12 15.4999C12.0017 15.2347 12.1056 14.9804 12.29 14.7899C12.3838 14.6973 12.4961 14.6258 12.6196 14.5799C12.8019 14.4998 13.0047 14.4786 13.1997 14.5193C13.2625 14.5302 13.3233 14.5506 13.3799 14.5799C13.4437 14.6015 13.5044 14.6317 13.5601 14.6697C13.6123 14.7069 13.6624 14.747 13.71 14.7899C13.8926 14.9816 13.9961 15.2352 14 15.4999C14.0025 15.7659 13.898 16.0217 13.71 16.2099C13.6128 16.2982 13.5011 16.3692 13.3799 16.4199C13.2612 16.4757 13.1312 16.5031 13 16.4999ZM9.00003 18.4999C8.45306 18.5052 8.00535 18.0661 8.00003 17.5191C7.99997 17.5127 7.99997 17.5063 8.00003 17.4999C7.99669 17.3688 8.02394 17.2387 8.07962 17.12C8.13035 16.9987 8.20152 16.8871 8.29003 16.7899C8.58004 16.511 9.00698 16.4287 9.37987 16.5799C9.50226 16.6282 9.61429 16.6995 9.70995 16.7899C9.79817 16.8872 9.86918 16.9988 9.91995 17.12C10.0796 17.492 9.99644 17.9238 9.71003 18.2099C9.61276 18.2982 9.50113 18.3692 9.37995 18.4199C9.25976 18.4711 9.13068 18.4983 9.00003 18.4999ZM9.00003 22.4999C8.45288 22.505 8.00516 22.0656 8.00003 21.5185C7.99875 21.3816 8.02585 21.2459 8.07962 21.12C8.13035 20.9987 8.20152 20.8871 8.29003 20.7899C8.58004 20.511 9.00698 20.4287 9.37987 20.5799C9.63103 20.6709 9.82884 20.8687 9.91987 21.1199C10.1352 21.6225 9.90231 22.2046 9.39966 22.4199C9.27344 22.474 9.13734 22.5012 9.00003 22.4999ZM13 20.4999C12.8692 20.4983 12.74 20.4711 12.6197 20.4198C12.4986 20.3691 12.3872 20.2981 12.2901 20.2098C12.004 19.9236 11.9207 19.4921 12.0796 19.12C12.171 18.8691 12.3687 18.6714 12.6196 18.58C12.9926 18.4278 13.4202 18.5102 13.7099 18.79C13.7982 18.8873 13.8692 18.9989 13.9199 19.12C14.0796 19.4921 13.9964 19.9238 13.71 20.2099C13.6128 20.2982 13.5011 20.3692 13.3799 20.4199C13.2598 20.4711 13.1307 20.4983 13 20.4999Z" fill="#FA8231"/>
</svg>
