<svg width="150" height="85" viewBox="0 0 150 85" fill="none" xmlns="http://www.w3.org/2000/svg">
<path d="M120.474 17.9228C120.492 17.973 120.498 18.0268 120.491 18.0798C120.485 18.1329 120.467 18.1837 120.437 18.2284C120.401 18.3024 120.36 18.3736 120.313 18.4411C120.263 18.5226 120.204 18.6109 120.136 18.706C119.865 19.0863 119.478 19.6114 119.05 20.2905C117.947 22.0799 117.06 23.993 116.406 25.9903C115.735 27.9989 115.263 30.0688 114.998 32.1699C114.771 33.7884 114.751 34.8478 114.418 34.9202C114.262 34.9519 114.054 34.721 113.843 34.2411C113.573 33.576 113.4 32.8754 113.33 32.1609C113.103 30.3681 113.291 27.8351 114.172 25.232C115.052 22.6288 116.435 20.4784 117.771 19.2108C118.294 18.6915 118.908 18.2719 119.582 17.9726C119.706 17.925 119.808 17.8888 119.917 17.8617C120.005 17.8413 120.095 17.8292 120.186 17.8254C120.347 17.8254 120.433 17.8571 120.474 17.9228Z" fill="#8C7AE6"/>
<path d="M112.263 19.0364C112.114 18.9866 112.001 18.8101 111.996 18.4886C112.006 18.0554 112.139 17.6339 112.379 17.2731C112.727 16.7215 113.214 16.2711 113.791 15.967C114.512 15.5863 115.324 15.4153 116.136 15.4735C116.924 15.5266 117.685 15.7747 118.353 16.1956C118.881 16.5265 119.33 16.9702 119.668 17.4949C119.898 17.8401 120.042 18.235 120.089 18.6471C120.107 18.9482 120.028 19.1428 119.883 19.2175C119.584 19.3647 119.118 19.0206 118.466 18.6516C117.711 18.1879 116.858 17.9058 115.976 17.8277C115.533 17.7944 115.089 17.8373 114.661 17.9544C114.288 18.0607 113.93 18.2128 113.594 18.4072C112.988 18.7467 112.583 19.1383 112.263 19.0364Z" fill="#8C7AE6"/>
<path d="M125.589 23.6541C125.438 23.7152 125.245 23.6541 125.032 23.4753C124.77 23.232 124.551 22.9457 124.385 22.6287C123.957 21.8885 123.597 20.8721 123.088 20.193C122.878 19.9045 122.615 19.658 122.314 19.4664C122.2 19.398 122.081 19.3404 121.956 19.2944C121.835 19.2552 121.71 19.2316 121.583 19.2242C121.349 19.2102 121.115 19.2277 120.886 19.2763C120.71 19.3319 120.522 19.339 120.342 19.2967C120.197 19.2355 120.091 19.0409 120.159 18.7149C120.221 18.4924 120.326 18.2846 120.47 18.1038C120.613 17.923 120.792 17.7729 120.994 17.6623C121.272 17.4966 121.58 17.3873 121.9 17.3409C122.278 17.2904 122.663 17.3174 123.031 17.4201C123.811 17.6457 124.493 18.1234 124.971 18.7783C125.384 19.3499 125.672 20.0014 125.818 20.691C125.926 21.1794 125.982 21.678 125.983 22.1782C125.991 22.5097 125.96 22.8409 125.89 23.1652C125.836 23.421 125.741 23.593 125.589 23.6541Z" fill="#8C7AE6"/>
<path d="M120.381 25.0237C120.105 24.8426 120.048 24.4148 120.014 23.9054C119.98 23.3961 119.973 22.7917 119.901 22.1625C119.828 21.5332 119.702 20.9424 119.616 20.4376C119.53 19.9328 119.491 19.505 119.72 19.2673C119.948 19.0296 120.435 19.0658 120.996 19.4937C121.693 20.1087 122.138 20.9602 122.244 21.8838C122.349 22.8073 122.109 23.7373 121.569 24.494C121.123 25.0576 120.643 25.2002 120.381 25.0237Z" fill="#8C7AE6"/>
<path d="M123.606 14.7401C123.542 14.9031 123.43 15.0427 123.285 15.1408C123.138 15.2585 122.973 15.3875 122.807 15.5278C122.624 15.6849 122.449 15.8519 122.284 16.0281C122.095 16.233 121.925 16.4542 121.775 16.6891C121.436 17.2233 121.153 17.8843 120.856 18.4117C120.56 18.9391 120.236 19.2877 119.91 19.2515C119.584 19.2153 119.324 18.8282 119.215 18.1491C119.15 17.748 119.15 17.3392 119.215 16.9381C119.3 16.4017 119.492 15.8881 119.781 15.4282C120.46 14.344 121.617 13.8437 122.472 13.8935C122.816 13.8948 123.148 14.0138 123.414 14.2308C123.492 14.2877 123.552 14.3662 123.586 14.4567C123.62 14.5472 123.627 14.6457 123.606 14.7401Z" fill="#8C7AE6"/>
<path d="M126.028 17.1643C125.877 17.2255 125.612 16.938 125.103 16.8542C124.794 16.808 124.481 16.8133 124.174 16.8701C123.759 16.9376 123.35 17.0399 122.952 17.1757C122.219 17.4395 121.524 17.798 120.883 18.2418C120.369 18.5836 120.041 18.8372 119.901 18.7398C119.76 18.6425 119.871 18.2056 120.306 17.6397C120.893 16.9054 121.679 16.3553 122.57 16.0552C123.06 15.8861 123.574 15.7929 124.093 15.779C124.555 15.7581 125.015 15.8613 125.424 16.0778C125.71 16.2306 125.935 16.4766 126.062 16.775C126.139 16.9968 126.101 17.1327 126.028 17.1643Z" fill="#8C7AE6"/>
<path d="M116.345 14.6225C116.327 14.5455 116.381 14.4505 116.519 14.3644C116.716 14.2562 116.94 14.2053 117.164 14.2173C117.527 14.2436 117.88 14.3503 118.196 14.5296C118.513 14.7089 118.786 14.9563 118.995 15.254C119.384 15.7942 119.614 16.4325 119.659 17.0966C119.688 17.5788 119.609 17.8844 119.453 17.9274C119.296 17.9704 119.086 17.7259 118.86 17.3343C118.617 16.8586 118.346 16.3975 118.049 15.9535C117.766 15.5743 117.405 15.2602 116.99 15.0322C116.668 14.8511 116.385 14.7855 116.345 14.6225Z" fill="#8C7AE6"/>
<path d="M115.118 20.9244C115.039 20.9244 114.95 20.8655 114.891 20.7139C114.811 20.4968 114.793 20.2618 114.837 20.0348C114.918 19.6627 115.085 19.3147 115.325 19.0184C115.564 18.7221 115.869 18.4857 116.216 18.328C116.572 18.1596 116.955 18.0561 117.347 18.0224C117.65 17.9955 117.954 18.0092 118.253 18.0632C118.755 18.156 119.041 18.3258 119.034 18.4842C119.027 18.6427 118.726 18.7785 118.278 18.8962C117.743 19.0109 117.221 19.1761 116.718 19.3897C116.279 19.605 115.899 19.9244 115.611 20.32C115.383 20.6188 115.288 20.904 115.118 20.9244Z" fill="#8C7AE6"/>
<path d="M108.207 22.1286C108.198 22.159 108.195 22.1911 108.199 22.2227C108.203 22.2542 108.213 22.2847 108.23 22.3119C108.251 22.3562 108.276 22.3986 108.304 22.4387C108.334 22.4885 108.37 22.5428 108.411 22.5994C108.574 22.8258 108.809 23.1404 109.067 23.5478C109.729 24.6268 110.261 25.7802 110.652 26.984C111.063 28.1929 111.353 29.4394 111.519 30.7054C111.648 31.681 111.666 32.3193 111.867 32.3623C111.962 32.3827 112.094 32.2446 112.214 31.9594C112.376 31.5592 112.481 31.1376 112.524 30.7076C112.656 29.2922 112.479 27.8649 112.005 26.5245C111.485 24.9558 110.647 23.6588 109.837 22.9027C109.521 22.5911 109.151 22.3388 108.746 22.158C108.68 22.1317 108.613 22.109 108.544 22.0901C108.491 22.0777 108.436 22.0709 108.381 22.0697C108.291 22.0652 108.232 22.0856 108.207 22.1286Z" fill="#8C7AE6"/>
<path d="M113.155 22.7963C113.244 22.7669 113.314 22.6537 113.316 22.4658C113.311 22.2049 113.233 21.9507 113.09 21.7324C112.88 21.3998 112.586 21.1282 112.239 20.9447C111.804 20.717 111.315 20.615 110.826 20.6504C110.348 20.683 109.886 20.8348 109.481 21.0918C109.162 21.2917 108.892 21.56 108.689 21.8773C108.55 22.0841 108.463 22.3219 108.436 22.57C108.436 22.751 108.472 22.8688 108.56 22.914C108.739 23.0023 109.013 22.7963 109.414 22.5722C109.867 22.293 110.379 22.1233 110.91 22.0765C111.176 22.0565 111.444 22.0826 111.702 22.1534C111.927 22.2171 112.143 22.3084 112.345 22.4251C112.718 22.622 112.963 22.8574 113.155 22.7963Z" fill="#8C7AE6"/>
<path d="M105.126 25.5783C105.217 25.6145 105.332 25.5783 105.461 25.4697C105.619 25.3227 105.751 25.1506 105.853 24.9604C106.109 24.5076 106.326 23.9033 106.634 23.4935C106.76 23.3189 106.918 23.1699 107.1 23.0544C107.168 23.0133 107.24 22.9784 107.315 22.9503C107.389 22.9274 107.465 22.9137 107.541 22.9095C107.682 22.9014 107.822 22.9113 107.96 22.939C108.066 22.9735 108.18 22.9782 108.288 22.9525C108.374 22.9163 108.438 22.7986 108.397 22.6017C108.36 22.4677 108.297 22.3425 108.21 22.2336C108.124 22.1247 108.017 22.0343 107.895 21.9679C107.725 21.8674 107.537 21.8012 107.342 21.7732C107.115 21.744 106.884 21.7609 106.663 21.823C106.193 21.9595 105.782 22.2496 105.495 22.647C105.247 22.9913 105.072 23.3837 104.984 23.7991C104.918 24.0964 104.885 24.4001 104.886 24.7046C104.881 24.9037 104.899 25.1028 104.941 25.2976C104.949 25.3552 104.97 25.4103 105.002 25.4588C105.034 25.5073 105.076 25.5482 105.126 25.5783Z" fill="#8C7AE6"/>
<path d="M108.264 26.4045C108.431 26.2935 108.465 26.0355 108.49 25.7254C108.515 25.4153 108.515 25.0463 108.558 24.6751C108.601 24.3038 108.678 23.9394 108.73 23.6361C108.782 23.3327 108.805 23.0747 108.667 22.9298C108.529 22.7849 108.234 22.8098 107.897 23.0724C107.477 23.4431 107.209 23.9562 107.146 24.5127C107.082 25.0692 107.227 25.6295 107.553 26.0853C107.815 26.4226 108.105 26.5109 108.264 26.4045Z" fill="#8C7AE6"/>
<path d="M106.312 20.2066C106.352 20.3045 106.42 20.3887 106.507 20.4489C106.595 20.519 106.695 20.5982 106.794 20.6752C106.906 20.7689 107.011 20.8694 107.109 20.9763C107.224 21.0993 107.327 21.2327 107.417 21.3747C107.623 21.6961 107.793 22.0945 107.972 22.4114C108.15 22.7283 108.345 22.9411 108.542 22.9185C108.739 22.8958 108.895 22.6604 108.963 22.2552C109.003 22.0139 109.003 21.7677 108.963 21.5263C108.912 21.2048 108.796 20.8969 108.623 20.6209C108.456 20.3398 108.218 20.1068 107.934 19.9446C107.649 19.7824 107.328 19.6964 107 19.6951C106.794 19.6983 106.594 19.7699 106.432 19.8988C106.385 19.933 106.348 19.9803 106.327 20.0349C106.305 20.0896 106.3 20.1492 106.312 20.2066Z" fill="#8C7AE6"/>
<path d="M104.861 21.6691C104.952 21.7053 105.113 21.5332 105.418 21.4812C105.604 21.4498 105.794 21.4498 105.98 21.4812C106.23 21.523 106.476 21.5851 106.715 21.6668C107.156 21.8255 107.575 22.0408 107.96 22.3074C108.27 22.5134 108.47 22.6673 108.553 22.6085C108.637 22.5496 108.571 22.287 108.309 21.9452C107.956 21.5054 107.485 21.1755 106.951 20.9945C106.654 20.8934 106.345 20.8377 106.032 20.8293C105.753 20.8156 105.477 20.8774 105.23 21.0081C105.059 21.1007 104.923 21.2482 104.846 21.4269C104.796 21.5672 104.818 21.6487 104.861 21.6691Z" fill="#8C7AE6"/>
<path d="M110.695 20.1365C110.695 20.0889 110.674 20.0323 110.591 19.9803C110.472 19.9151 110.337 19.8845 110.201 19.892C109.983 19.9077 109.77 19.972 109.58 20.08C109.389 20.1881 109.225 20.3373 109.099 20.5167C108.864 20.8416 108.725 21.2259 108.698 21.6259C108.68 21.9179 108.73 22.1013 108.823 22.1284C108.916 22.1556 109.049 22.0062 109.18 21.7685C109.328 21.4827 109.491 21.2053 109.669 20.9378C109.84 20.7094 110.058 20.5203 110.308 20.3832C110.5 20.2745 110.67 20.2338 110.695 20.1365Z" fill="#8C7AE6"/>
<path d="M111.435 23.9348C111.482 23.9348 111.535 23.8986 111.578 23.8057C111.627 23.6734 111.638 23.5298 111.609 23.3915C111.56 23.1673 111.46 22.9576 111.316 22.7792C111.171 22.6007 110.987 22.4585 110.778 22.3638C110.565 22.2618 110.335 22.1989 110.099 22.1782C109.916 22.1623 109.731 22.1707 109.549 22.2031C109.248 22.2597 109.076 22.3616 109.079 22.4589C109.081 22.5562 109.264 22.6332 109.531 22.7056C109.853 22.775 110.167 22.8743 110.471 23.0022C110.74 23.1305 110.973 23.3234 111.15 23.5635C111.276 23.7492 111.333 23.9212 111.435 23.9348Z" fill="#8C7AE6"/>
<path d="M11.6307 59.4418C9.85831 59.5097 8.1923 61.7982 7.15104 61.8842C6.10977 61.9702 4.22192 60.7366 3.07654 60.5396C1.93115 60.3427 0.00708008 60.4966 0.00708008 60.4966C2.37708 53.8756 5.66611 46.3581 12.4773 44.5676C18.6864 42.931 24.8027 46.8855 30.9189 48.839C40.4963 51.8972 51.0085 49.998 60.4138 46.4441C69.8191 42.8903 78.5498 37.7451 87.894 34.0373C97.2382 30.3295 107.63 28.0885 117.346 30.6736C124.689 32.6248 131.113 37.2177 136.36 42.7024C141.607 48.1871 145.831 54.5773 150.001 60.9312C150.001 60.9312 147.9 62.2283 146.721 61.8955C145.541 61.5628 144.799 60.2431 142.999 60.2431C141.2 60.2431 137.146 62.7331 135.704 62.4252C134.262 62.1174 133.666 61.9159 132.695 61.2934C131.724 60.6709 130.871 59.5866 129.334 59.6636" fill="#8C7AE6"/>
<path d="M88.2035 74.8956C87.9975 75.0382 88.0677 75.3846 88.2691 75.5317C88.4881 75.653 88.7367 75.7103 88.9867 75.6969C89.2378 75.6829 89.485 75.7636 89.6794 75.9233C89.8899 76.1497 89.8921 76.5277 90.1457 76.6974C90.3992 76.8672 90.6799 76.7586 90.9108 76.8921C90.9965 76.9556 91.0687 77.0355 91.1231 77.1273C91.1775 77.219 91.213 77.3207 91.2277 77.4263C91.2554 77.638 91.3271 77.8416 91.4382 78.0239C91.4976 78.1127 91.5897 78.1744 91.6944 78.1956C91.7992 78.2168 91.908 78.1958 91.9973 78.1371C92.1829 77.9696 92.0765 77.6685 92.0788 77.4195C92.0788 76.9215 92.5519 76.5752 92.8326 76.1655C93.0392 75.8626 93.1497 75.5045 93.1498 75.1378C93.1499 74.7712 93.0395 74.413 92.833 74.11C92.6265 73.8071 92.3336 73.5733 91.9923 73.4393C91.651 73.3052 91.2773 73.2771 90.9198 73.3586C89.9035 73.585 89.2357 74.6466 88.2216 74.8956" fill="#8C7AE6"/>
<path d="M89.3059 75.7375C89.2436 75.7684 89.1869 75.8098 89.1384 75.8597C89.085 75.9209 89.0422 75.9905 89.0116 76.0657C88.9754 76.1562 88.946 76.2626 88.8962 76.3826C88.8448 76.5185 88.7512 76.6343 88.6291 76.7131C88.4925 76.797 88.3435 76.8589 88.1877 76.8964C88.0256 76.9358 87.8695 76.9967 87.7236 77.0775C87.6523 77.1242 87.5915 77.1854 87.5455 77.2572C87.4995 77.329 87.4692 77.4097 87.4565 77.494C87.4301 77.6812 87.3807 77.8645 87.3094 78.0396C87.2648 78.1281 87.1957 78.202 87.1102 78.2523C87.03 78.2961 86.9426 78.3252 86.8521 78.3384C86.7 78.3516 86.5488 78.3743 86.3994 78.4063C86.2771 78.4451 86.1676 78.5162 86.0825 78.6122C85.9558 78.7543 85.8822 78.9359 85.8743 79.1261C85.8743 79.2596 85.8969 79.3343 85.8878 79.3366C85.8483 79.2736 85.8279 79.2005 85.829 79.1261C85.8188 78.9196 85.8867 78.7167 86.0191 78.5579C86.111 78.4453 86.2325 78.3606 86.37 78.3135C86.5224 78.2746 86.6775 78.2473 86.834 78.232C86.9114 78.2243 86.9857 78.1981 87.0508 78.1556C87.1158 78.113 87.1696 78.0553 87.2075 77.9875C87.2709 77.8194 87.3157 77.6448 87.3411 77.4669C87.3616 77.3687 87.3984 77.2746 87.4497 77.1884C87.5037 77.1044 87.5756 77.0333 87.6603 76.9802C87.8159 76.8946 87.9827 76.8313 88.156 76.7923C88.3033 76.7591 88.445 76.7049 88.577 76.6316C88.6862 76.5652 88.7717 76.4663 88.8215 76.3486C88.8713 76.24 88.9075 76.1223 88.9528 76.0385C88.9902 75.9591 89.0416 75.8871 89.1044 75.8257C89.2154 75.7261 89.3082 75.7307 89.3059 75.7375Z" fill="#8C7AE6"/>
<path d="M91.1711 76.892C91.1091 76.9236 91.0526 76.9649 91.0036 77.0143C90.9505 77.0765 90.9077 77.1468 90.8768 77.2225C90.8406 77.3108 90.8112 77.4172 90.7637 77.5372C90.711 77.6723 90.6177 77.7878 90.4966 77.8676C90.356 77.9522 90.2033 78.0148 90.0438 78.0533C89.882 78.0922 89.7259 78.1523 89.5798 78.2321C89.509 78.2794 89.4487 78.3408 89.4027 78.4124C89.3568 78.4841 89.3261 78.5645 89.3127 78.6486C89.2863 78.8358 89.2368 79.019 89.1655 79.1941C89.121 79.2827 89.0518 79.3566 88.9663 79.4069C88.8869 79.4506 88.8003 79.4797 88.7106 79.4929C88.5585 79.5072 88.4074 79.5299 88.2578 79.5608C88.1357 79.5985 88.0266 79.6699 87.9432 79.7668C87.8152 79.9083 87.7407 80.0901 87.7327 80.2807C87.7327 80.4142 87.7553 80.4889 87.7463 80.4934C87.7065 80.4297 87.6861 80.3558 87.6874 80.2807C87.6785 80.0739 87.7472 79.8713 87.8798 79.7125C87.9708 79.5999 88.0916 79.5152 88.2284 79.468C88.3811 79.4304 88.5361 79.4032 88.6925 79.3865C88.77 79.3795 88.8446 79.3535 88.9097 79.3109C88.9748 79.2682 89.0285 79.2103 89.0659 79.1421C89.1304 78.9741 89.176 78.7995 89.2018 78.6214C89.2223 78.5232 89.259 78.4292 89.3104 78.343C89.3639 78.2586 89.4359 78.1874 89.5209 78.1347C89.6766 78.0494 89.8435 77.9862 90.0167 77.9469C90.1631 77.9133 90.3041 77.8591 90.4354 77.7862C90.545 77.7203 90.6306 77.6212 90.6799 77.5032C90.7297 77.3945 90.7659 77.2768 90.8112 77.1954C90.8482 77.1157 90.8997 77.0436 90.9629 76.9826C91.0806 76.8807 91.1734 76.8875 91.1711 76.892Z" fill="#8C7AE6"/>
<path d="M90.1434 76.6997C90.1434 76.6997 90.1547 76.7223 90.1434 76.7676C90.1365 76.8366 90.1052 76.9008 90.0551 76.9487C89.8459 77.0727 89.6157 77.1571 89.376 77.1977C89.3081 77.2181 89.2175 77.2317 89.1496 77.2566C89.0803 77.2898 89.0221 77.3425 88.9821 77.4082C88.8967 77.5734 88.8211 77.7434 88.7558 77.9175C88.7026 78.0177 88.6247 78.1027 88.5294 78.1643C88.4373 78.2262 88.3367 78.2742 88.2306 78.3069C88.0182 78.3634 87.8113 78.4392 87.6126 78.5332C87.526 78.5904 87.4536 78.6666 87.401 78.7561C87.3485 78.8455 87.3171 78.9459 87.3093 79.0493C87.2937 79.2694 87.2099 79.4791 87.0694 79.6492C86.9071 79.7674 86.711 79.8301 86.5103 79.828C86.3535 79.8323 86.2013 79.881 86.0711 79.9684C85.9797 80.0369 85.9039 80.1239 85.8485 80.2237C85.7931 80.3236 85.7594 80.4341 85.7497 80.5478C85.7461 80.6333 85.7499 80.7189 85.761 80.8036C85.761 80.8036 85.7474 80.7833 85.7316 80.7403C85.7118 80.6773 85.7018 80.6116 85.7022 80.5456C85.7046 80.4215 85.7344 80.2995 85.7896 80.1883C85.8448 80.0772 85.9239 79.9796 86.0213 79.9027C86.1604 79.8002 86.3264 79.7404 86.4989 79.7307C86.677 79.7306 86.8504 79.6743 86.9947 79.57C87.1154 79.4135 87.1857 79.224 87.1961 79.0267C87.2148 78.9131 87.249 78.8026 87.298 78.6985C87.3547 78.5872 87.4429 78.4951 87.5515 78.4336C87.7565 78.3358 87.9712 78.2599 88.1921 78.2073C88.2856 78.1847 88.3737 78.1438 88.4514 78.0871C88.5291 78.0304 88.5948 77.9589 88.6448 77.8768C88.7083 77.6997 88.7839 77.5273 88.8712 77.3607C88.9235 77.2819 88.9974 77.2198 89.084 77.1819C89.1621 77.1586 89.2415 77.1397 89.3217 77.1253C89.5518 77.0926 89.7755 77.0246 89.9849 76.9238C90.0647 76.8724 90.1215 76.7921 90.1434 76.6997Z" fill="#8C7AE6"/>
<path d="M59.682 77.7907C59.4557 77.9514 59.5326 78.343 59.7567 78.506C60.0008 78.645 60.2799 78.7102 60.5603 78.6939C60.8418 78.6782 61.1187 78.7705 61.3345 78.9519C61.5608 79.2009 61.5608 79.631 61.8551 79.8234C62.1018 79.9887 62.4527 79.8913 62.7108 80.0498C62.807 80.1216 62.8879 80.2118 62.9489 80.3152C63.0099 80.4185 63.0498 80.533 63.0661 80.6519C63.0933 80.8916 63.1704 81.1229 63.2925 81.331C63.3589 81.4302 63.4618 81.4992 63.5788 81.523C63.6958 81.5467 63.8175 81.5233 63.9173 81.4577C64.1255 81.2676 64.0055 80.9303 64.0078 80.6474C64.0078 80.0883 64.5375 79.6989 64.8521 79.2371C65.0777 78.8919 65.1978 78.4883 65.1978 78.0759C65.1978 77.6635 65.0777 77.26 64.8521 76.9147C64.6178 76.5784 64.2893 76.3189 63.9079 76.1687C63.5265 76.0184 63.1092 75.9842 62.7085 76.0704C61.5767 76.3352 60.8229 77.5213 59.6888 77.802" fill="#8C7AE6"/>
<path d="M60.9247 78.7392C60.8539 78.7732 60.7896 78.8191 60.7346 78.875C60.6758 78.9428 60.6277 79.0191 60.5919 79.1014C60.5512 79.201 60.5173 79.3278 60.4629 79.4568C60.4056 79.6086 60.3018 79.7385 60.1664 79.828C60.013 79.9207 59.8467 79.9902 59.6729 80.034C59.4906 80.0769 59.3153 80.1455 59.1523 80.2377C59.0715 80.291 59.0027 80.3607 58.9505 80.4421C58.8983 80.5236 58.8637 80.6152 58.849 80.7108C58.82 80.9212 58.7653 81.1273 58.686 81.3243C58.6326 81.419 58.5543 81.4973 58.4596 81.5506C58.3717 81.601 58.2748 81.6341 58.1744 81.648C58.0031 81.6635 57.833 81.69 57.6651 81.7272C57.528 81.7685 57.405 81.8468 57.3097 81.9536C57.1695 82.1156 57.0896 82.3211 57.0834 82.5353C57.0834 82.687 57.1128 82.7617 57.1015 82.7753C57.0901 82.7888 57.0879 82.7571 57.072 82.7164C57.0534 82.6576 57.042 82.5968 57.0381 82.5353C57.029 82.304 57.1055 82.0775 57.2531 81.8992C57.3546 81.7737 57.4896 81.6795 57.6425 81.6276C57.8127 81.5839 57.986 81.5528 58.1608 81.5348C58.2488 81.5265 58.3333 81.4967 58.4071 81.4482C58.4809 81.3997 58.5417 81.3338 58.5841 81.2564C58.657 81.0666 58.7079 80.8692 58.7358 80.6678C58.7592 80.5581 58.7997 80.4527 58.8558 80.3555C58.9142 80.2647 58.9914 80.1875 59.0821 80.1291C59.2553 80.0331 59.4413 79.9622 59.6344 79.9186C59.7997 79.8792 59.9589 79.8175 60.1075 79.7352C60.2303 79.6585 60.3261 79.5453 60.3814 79.4115C60.438 79.2893 60.4765 79.1671 60.5263 79.0629C60.5681 78.9741 60.6256 78.8936 60.6961 78.8252C60.8251 78.7302 60.927 78.7347 60.9247 78.7392Z" fill="#8C7AE6"/>
<path d="M63.0118 80.0409C62.941 80.0748 62.8767 80.1208 62.8217 80.1767C62.7629 80.2444 62.7148 80.3208 62.679 80.403C62.6383 80.5026 62.6044 80.6294 62.55 80.7584C62.4927 80.9103 62.3889 81.0402 62.2535 81.1297C62.0995 81.2229 61.9324 81.2923 61.7578 81.3357C61.5763 81.379 61.4018 81.4475 61.2394 81.5394C61.1586 81.5927 61.0898 81.6623 61.0376 81.7438C60.9854 81.8253 60.9508 81.9168 60.9361 82.0125C60.9055 82.2225 60.8508 82.4284 60.7731 82.6259C60.7201 82.7209 60.6417 82.7993 60.5467 82.8523C60.4593 82.902 60.3633 82.935 60.2638 82.9496C60.0925 82.9651 59.9224 82.9916 59.7545 83.0288C59.6174 83.0701 59.4944 83.1484 59.3991 83.2552C59.2589 83.4173 59.1789 83.6227 59.1727 83.8369C59.1727 83.9886 59.1999 84.0633 59.1908 84.0769C59.1818 84.0905 59.1772 84.0565 59.1614 84.018C59.1427 83.9593 59.1313 83.8985 59.1274 83.8369C59.1183 83.6057 59.1949 83.3792 59.3425 83.2009C59.4439 83.0748 59.5789 82.9798 59.7318 82.927C59.9024 82.8851 60.0756 82.8548 60.2502 82.8364C60.3383 82.8277 60.4229 82.7975 60.4967 82.7486C60.5704 82.6997 60.6311 82.6335 60.6735 82.5557C60.7418 82.3708 60.7889 82.1786 60.8138 81.983C60.8369 81.8732 60.8774 81.7677 60.9338 81.6707C60.9916 81.5794 61.0689 81.5021 61.1602 81.4443C61.3334 81.3483 61.5193 81.2774 61.7125 81.2338C61.8772 81.1948 62.0356 81.1331 62.1833 81.0504C62.3067 80.9738 62.4033 80.8607 62.4595 80.7267C62.5161 80.6045 62.5546 80.4823 62.6043 80.3781C62.6453 80.2889 62.703 80.2082 62.7741 80.1405C62.9122 80.0318 63.0141 80.0363 63.0118 80.0409Z" fill="#8C7AE6"/>
<path d="M61.8619 79.8235C61.8619 79.8235 61.8732 79.8484 61.8619 79.9004C61.8536 79.9773 61.8183 80.0487 61.7623 80.1019C61.6677 80.1735 61.56 80.2258 61.4453 80.2558C61.3186 80.2988 61.1715 80.3396 61.0062 80.3803C60.9292 80.403 60.8296 80.4166 60.7595 80.446C60.6808 80.4838 60.6148 80.5435 60.5693 80.618C60.473 80.8047 60.389 80.9975 60.3181 81.1952C60.2598 81.3035 60.1777 81.3971 60.0781 81.4691C59.9744 81.538 59.8617 81.5921 59.7431 81.6299C59.505 81.6903 59.2731 81.7729 59.0504 81.8766C58.9522 81.9419 58.8702 82.029 58.811 82.131C58.7517 82.2331 58.7167 82.3474 58.7086 82.4651C58.6946 82.7142 58.6009 82.9523 58.4415 83.1442C58.2622 83.2767 58.0443 83.3467 57.8213 83.3434C57.6447 83.35 57.4736 83.4065 57.3278 83.5064C57.2254 83.5842 57.1405 83.6826 57.0785 83.7953C57.0165 83.908 56.9788 84.0324 56.9679 84.1606C56.9639 84.2574 56.9692 84.3545 56.9838 84.4503C56.9838 84.4503 56.9679 84.4277 56.9521 84.3801C56.9296 84.3069 56.9196 84.2303 56.9227 84.1538C56.9252 84.015 56.9584 83.8785 57.0198 83.7541C57.0812 83.6297 57.1694 83.5203 57.278 83.4339C57.4335 83.3207 57.618 83.2539 57.81 83.2415C58.0108 83.2419 58.2066 83.1785 58.3691 83.0605C58.5051 82.8837 58.5841 82.6697 58.5955 82.447C58.6154 82.3185 58.6535 82.1935 58.7086 82.0758C58.7727 81.9525 58.8709 81.8503 58.9916 81.7815C59.2208 81.6718 59.4604 81.5854 59.7069 81.5235C59.8136 81.4983 59.9142 81.4521 60.0028 81.3876C60.0914 81.3231 60.1663 81.2415 60.223 81.1477C60.2987 80.9483 60.3872 80.754 60.4878 80.566C60.5441 80.4805 60.6223 80.4117 60.7142 80.3668C60.8183 80.3305 60.8953 80.326 60.979 80.3034C61.2368 80.2672 61.4874 80.1908 61.7215 80.077C61.7979 80.0127 61.8479 79.9224 61.8619 79.8235Z" fill="#8C7AE6"/>
<path d="M72.9852 72.6727C72.6343 72.9149 72.7588 73.5125 73.1006 73.766C73.4424 74.0195 73.8997 74.0286 74.3252 74.0512C74.7508 74.0738 75.2148 74.1327 75.5091 74.4451C75.8668 74.8254 75.8713 75.4841 76.3036 75.7761C76.6816 76.0296 77.2091 75.8825 77.612 76.1111C77.9266 76.2944 78.0647 76.6747 78.153 77.0324C78.2007 77.3972 78.3241 77.748 78.5152 78.0623C78.7415 78.3543 79.1943 78.5037 79.4682 78.257C79.7851 77.9673 79.6017 77.4512 79.6062 77.0188C79.6062 76.1632 80.4143 75.5678 80.8965 74.8616C81.241 74.3346 81.4244 73.7187 81.4244 73.0892C81.4244 72.4596 81.241 71.8437 80.8965 71.3168C80.5383 70.8029 80.0365 70.4062 79.4538 70.1763C78.8712 69.9463 78.2336 69.8935 77.621 70.0243C75.8826 70.4272 74.7395 72.2448 73.0078 72.6704" fill="#F7B731"/>
<path d="M74.873 74.1191C74.7606 74.1639 74.6588 74.2318 74.5742 74.3183C74.4794 74.425 74.4029 74.5466 74.3478 74.6782C74.2822 74.8299 74.2301 75.0177 74.1464 75.2169C74.0585 75.4453 73.8998 75.6397 73.6936 75.7715C73.4606 75.9108 73.2081 76.0146 72.9444 76.0794C72.6622 76.1467 72.391 76.2534 72.1385 76.3963C72.0128 76.4745 71.9067 76.5806 71.8284 76.7064C71.7521 76.8404 71.6971 76.9855 71.6654 77.1365C71.6209 77.4547 71.5381 77.7663 71.4187 78.0646C71.3452 78.2091 71.2332 78.3305 71.095 78.4154C70.9632 78.4894 70.819 78.5385 70.6695 78.5603C70.4059 78.5842 70.1442 78.6258 69.8862 78.6848C69.6714 78.7539 69.4801 78.8817 69.3339 79.0538C69.1155 79.3054 68.9928 79.626 68.9876 79.9592C68.9935 80.0812 69.0056 80.2029 69.0238 80.3236C69.0238 80.3236 69.008 80.2942 68.9876 80.2354C68.96 80.1465 68.944 80.0544 68.9401 79.9615C68.9299 79.6134 69.0474 79.2736 69.2705 79.0062C69.4246 78.8113 69.6323 78.6657 69.8681 78.5875C70.1295 78.5231 70.395 78.477 70.6627 78.4494C70.7987 78.4274 70.9298 78.3814 71.0497 78.3136C71.1702 78.2401 71.2675 78.1342 71.3304 78.008C71.4408 77.716 71.5167 77.4121 71.5568 77.1025C71.5913 76.9393 71.6517 76.7827 71.7356 76.6385C71.8223 76.4975 71.9409 76.3788 72.082 76.2921C72.3446 76.1455 72.6265 76.0365 72.9195 75.9685C73.1752 75.91 73.4209 75.8139 73.6484 75.6832C73.8395 75.5632 73.9877 75.3857 74.0717 75.1762C74.1577 74.986 74.2165 74.8004 74.298 74.6442C74.36 74.5091 74.445 74.3858 74.5493 74.2798C74.6172 74.214 74.6982 74.1631 74.787 74.1304C74.8146 74.1211 74.8438 74.1173 74.873 74.1191Z" fill="#F7B731"/>
<path d="M78.0624 76.109C77.9482 76.1516 77.8453 76.2197 77.7614 76.3082C77.6669 76.4142 77.5904 76.535 77.535 76.6658C77.4694 76.8197 77.4173 77.0054 77.3358 77.2045C77.247 77.4324 77.0885 77.6264 76.8831 77.7591C76.6496 77.8996 76.3962 78.0042 76.1316 78.0692C75.8499 78.1368 75.5787 78.2427 75.3257 78.3839C75.2011 78.4628 75.0959 78.5688 75.0179 78.694C74.9408 78.8279 74.8851 78.973 74.8526 79.1241C74.8086 79.4429 74.7265 79.7552 74.6082 80.0544C74.5344 80.1989 74.4214 80.3197 74.2822 80.403C74.1506 80.4773 74.0063 80.5264 73.8567 80.5479C73.5934 80.5743 73.3319 80.6158 73.0734 80.6724C72.8593 80.7428 72.6688 80.8714 72.5234 81.0436C72.3041 81.2949 72.1806 81.6156 72.1748 81.9491C72.1793 82.0713 72.1922 82.1931 72.2133 82.3135C72.195 82.2859 72.182 82.2553 72.1748 82.223C72.1488 82.1338 72.1336 82.0419 72.1295 81.9491C72.1183 81.6008 72.236 81.2607 72.46 80.9938C72.6118 80.8045 72.8144 80.6624 73.044 80.5841C73.3053 80.5198 73.5708 80.4736 73.8385 80.446C73.975 80.4258 74.1064 80.3797 74.2256 80.3102C74.3455 80.2362 74.4427 80.1304 74.5063 80.0046C74.6156 79.7123 74.6915 79.4086 74.7327 79.0992C74.7672 78.936 74.8276 78.7793 74.9115 78.6351C74.9995 78.4951 75.1178 78.3768 75.2578 78.2888C75.5202 78.1421 75.8022 78.0339 76.0954 77.9674C76.3501 77.9068 76.5948 77.81 76.822 77.6799C77.0131 77.5602 77.1619 77.3837 77.2475 77.1751C77.3336 76.9827 77.3902 76.7971 77.4739 76.6409C77.5353 76.5061 77.6204 76.3834 77.7252 76.2787C77.7888 76.2125 77.866 76.1607 77.9515 76.1271C77.986 76.1105 78.0245 76.1042 78.0624 76.109Z" fill="#F7B731"/>
<path d="M76.3036 75.7761C76.3134 75.8148 76.3134 75.8552 76.3036 75.8938C76.2891 76.008 76.2355 76.1135 76.152 76.1926C76.0074 76.2986 75.8437 76.3754 75.6698 76.419C75.4729 76.4824 75.2488 76.5435 74.9907 76.6046C74.8708 76.6386 74.7214 76.6589 74.6082 76.7042C74.4836 76.7645 74.3785 76.8586 74.3049 76.9758C74.1351 77.2158 74.0785 77.5417 73.92 77.8564C73.8338 78.0186 73.7105 78.1582 73.5601 78.2638C73.4038 78.3674 73.2339 78.4489 73.0553 78.506C72.6879 78.5972 72.3307 78.7254 71.9892 78.8886C71.8295 78.9813 71.6998 79.118 71.6157 79.2825C71.5391 79.4488 71.4851 79.6247 71.455 79.8054C71.4241 79.9868 71.3841 80.1667 71.335 80.3441C71.2865 80.5223 71.192 80.6847 71.0611 80.8149C70.9295 80.9306 70.7692 81.0088 70.5971 81.0413C70.4415 81.0729 70.2843 81.0956 70.1262 81.1092C69.8514 81.1184 69.5854 81.2081 69.3611 81.3672C69.1801 81.5038 69.0361 81.6836 68.9424 81.8901C68.8695 82.0453 68.8258 82.2126 68.8133 82.3836C68.8077 82.5317 68.8199 82.6798 68.8496 82.825C68.8306 82.7908 68.8161 82.7543 68.8065 82.7164C68.7782 82.6078 68.7653 82.4958 68.7681 82.3836C68.7718 82.2041 68.811 82.0272 68.8835 81.863C68.9757 81.6423 69.123 81.449 69.3113 81.3016C69.4198 81.2138 69.5433 81.1463 69.6758 81.1024C69.8186 81.0568 69.9657 81.0265 70.1149 81.0119C70.4092 80.9711 70.751 80.9553 70.9864 80.7312C71.2218 80.5071 71.2739 80.1404 71.3418 79.7782C71.373 79.5865 71.4301 79.3999 71.5116 79.2236C71.6057 79.0405 71.7502 78.8881 71.9281 78.7845C72.2761 78.6153 72.6411 78.4833 73.0169 78.3906C73.1868 78.3384 73.3484 78.2621 73.4967 78.1642C73.6328 78.0694 73.7445 77.9437 73.8227 77.7975C73.9766 77.5078 74.0491 77.1728 74.2234 76.9147C74.3094 76.784 74.4301 76.6798 74.572 76.6137C74.6384 76.588 74.7075 76.5697 74.7779 76.5593L74.9704 76.5163C75.2216 76.462 75.448 76.4054 75.6494 76.3488C75.8173 76.3121 75.977 76.2445 76.1203 76.1496C76.2012 76.0793 76.2575 75.9849 76.281 75.8803C76.3014 75.8169 76.2991 75.7761 76.3036 75.7761Z" fill="#F7B731"/>
<path d="M147.881 61.8934C147.815 61.933 147.745 61.9634 147.671 61.984C147.457 62.0431 147.233 62.0532 147.014 62.0134C146.671 61.9492 146.344 61.8152 146.055 61.6195C145.71 61.3932 145.362 61.0989 144.936 60.8295C144.471 60.54 143.94 60.3726 143.393 60.3428C142.762 60.3169 142.133 60.402 141.532 60.5941C140.242 60.954 138.99 61.7802 137.498 62.2533C136.772 62.505 135.996 62.5825 135.234 62.4797C134.536 62.3478 133.869 62.0859 133.267 61.7078C132.686 61.366 132.163 60.997 131.658 60.6824C131.197 60.381 130.703 60.1348 130.184 59.949C129.757 59.7964 129.311 59.7057 128.858 59.6796C128.515 59.6628 128.173 59.7073 127.846 59.8109C127.571 59.9071 127.311 60.0436 127.076 60.2161C127.076 60.2161 127.088 60.2025 127.117 60.1776L127.251 60.069C127.429 59.9406 127.625 59.8392 127.832 59.7679C128.163 59.6533 128.511 59.6011 128.86 59.614C129.323 59.6328 129.78 59.719 130.218 59.8698C130.745 60.053 131.248 60.2985 131.717 60.6009C132.226 60.9133 132.751 61.28 133.329 61.6127C133.92 61.9815 134.575 62.2371 135.259 62.3665C136.001 62.4617 136.755 62.3842 137.462 62.1402C138.931 61.6761 140.178 60.8499 141.5 60.4877C142.113 60.2947 142.755 60.2119 143.397 60.2432C143.96 60.2774 144.506 60.4542 144.982 60.7571C145.412 61.0378 145.753 61.3456 146.091 61.5629C146.372 61.7576 146.689 61.8946 147.023 61.9659C147.235 62.0106 147.453 62.0106 147.664 61.9659C147.807 61.9228 147.877 61.8866 147.881 61.8934Z" fill="#0097E6"/>
<path d="M0.00412236 61.8369C-0.00137412 61.7805 -0.00137412 61.7236 0.00412236 61.6671C0.0268269 61.508 0.0790286 61.3544 0.158048 61.2144C0.317794 60.9606 0.53215 60.7455 0.785506 60.585C1.03886 60.4244 1.32484 60.3224 1.6226 60.2863C2.03302 60.2364 2.44939 60.2766 2.84269 60.4041C3.28993 60.5471 3.72269 60.732 4.13521 60.9564C4.58384 61.2034 5.04724 61.4227 5.5228 61.6128C6.02347 61.8206 6.56852 61.8984 7.10733 61.8392C7.6415 61.7293 8.1336 61.4703 8.52662 61.0922C8.90423 60.7396 9.30016 60.4071 9.71275 60.0962C10.456 59.605 11.3455 59.3844 12.2321 59.4714C12.5698 59.5021 12.9018 59.5782 13.2191 59.6978C13.4555 59.7841 13.683 59.8933 13.8982 60.0238C14.084 60.1357 14.2557 60.2694 14.4097 60.4222C14.4097 60.4335 14.2309 60.275 13.8755 60.0645C13.6592 59.9422 13.4319 59.8407 13.1964 59.7612C12.8828 59.6532 12.5563 59.587 12.2254 59.5642C11.3604 59.4923 10.4964 59.7148 9.77386 60.1958C9.37321 60.472 9.01103 60.8409 8.60131 61.1918C8.3902 61.3743 8.1629 61.5372 7.92223 61.6785C7.67223 61.8219 7.39852 61.9192 7.11412 61.9659C6.55302 62.0323 5.98427 61.9544 5.46169 61.7396C4.98279 61.5461 4.51635 61.323 4.06504 61.0718C3.65998 60.8477 3.23483 60.6621 2.79515 60.5172C2.41556 60.3879 2.01211 60.3438 1.61355 60.3882C1.32545 60.4188 1.04759 60.5123 0.799602 60.6621C0.551616 60.8119 0.339561 61.0144 0.17842 61.2552C0.0819239 61.4354 0.0226504 61.6333 0.00412236 61.8369Z" fill="#0097E6"/>
<path d="M134.218 65.5154C134.218 65.5154 134.116 65.5561 133.913 65.6286L133.532 65.7644L132.989 65.8866C132.88 65.9127 132.768 65.9301 132.656 65.9387L132.287 65.9794C132.151 65.994 132.014 65.9993 131.878 65.9953H131.425C130.715 65.9498 130.011 65.8377 129.322 65.6602C128.463 65.4264 127.618 65.1469 126.789 64.8227C125.884 64.4786 124.899 64.0735 123.826 63.6909C122.685 63.2784 121.505 62.9849 120.304 62.8149C118.954 62.6297 117.59 62.5698 116.229 62.6361C113.368 62.7606 110.28 63.3853 107 64.13C105.357 64.499 103.659 64.8906 101.896 65.2256C100.083 65.5861 98.2476 65.8198 96.4023 65.9251C94.4605 65.9981 92.5161 65.8996 90.5916 65.6308C88.6245 65.3705 86.6371 64.9721 84.6224 64.5398C82.6078 64.1074 80.5728 63.6479 78.4699 63.2857C76.3518 62.8871 74.205 62.66 72.0504 62.6066C67.6771 62.5387 63.4486 63.211 59.3741 63.786C57.3369 64.078 55.3268 64.3519 53.3484 64.5284C51.4157 64.7102 49.4739 64.7782 47.5332 64.7322C43.7394 64.6326 40.1629 64.1731 36.8218 63.7565C33.4807 63.34 30.366 62.9416 27.507 62.79C24.9359 62.6271 22.3558 62.6756 19.7926 62.9349C19.2267 62.9847 18.6835 63.0729 18.1606 63.1454C17.6377 63.2178 17.1397 63.3242 16.6621 63.4102C16.1844 63.4962 15.7317 63.6139 15.3039 63.7249C14.8761 63.8358 14.4664 63.9512 14.0838 64.0667C12.9085 64.4261 11.7602 64.8686 10.6477 65.3909L9.79201 65.8255L9.5 65.9704C9.5 65.9704 9.59507 65.916 9.78748 65.8142L10.6363 65.3614C11.747 64.8303 12.8946 64.3802 14.0702 64.0146C14.4528 63.8946 14.8625 63.7882 15.2903 63.6683C15.7181 63.5483 16.1777 63.4623 16.6485 63.3491C17.1193 63.2359 17.6264 63.159 18.1493 63.0775C18.6722 62.996 19.2154 62.9145 19.7836 62.8511C22.3499 62.584 24.934 62.5295 27.5093 62.6881C30.3728 62.8353 33.4897 63.2223 36.8308 63.6411C40.1719 64.0599 43.7484 64.5103 47.5332 64.6054C49.4702 64.6495 51.4081 64.5808 53.3371 64.3994C55.311 64.2206 57.3165 63.9467 59.356 63.6547C63.4305 63.0775 67.6703 62.4029 72.0571 62.4686C74.2178 62.5218 76.3706 62.7489 78.4948 63.1476C80.5932 63.5166 82.6418 63.9784 84.6541 64.4107C86.6665 64.8431 88.6539 65.2392 90.6165 65.5018C92.5342 65.7701 94.4717 65.8694 96.4068 65.7983C98.2466 65.6948 100.077 65.4634 101.885 65.1057C103.646 64.7729 105.344 64.3836 106.989 64.0169C110.271 63.2744 113.364 62.6587 116.234 62.5342C117.595 62.4705 118.959 62.5334 120.308 62.7221C121.514 62.8952 122.699 63.1926 123.844 63.6094C124.917 63.992 125.895 64.3994 126.805 64.7412C127.631 65.0666 128.473 65.3492 129.329 65.5878C130.015 65.7666 130.716 65.8818 131.423 65.9319H131.875C132.011 65.9373 132.147 65.9336 132.283 65.9206L132.652 65.8821C132.763 65.8751 132.874 65.8592 132.982 65.8345L133.525 65.7168L133.906 65.5878C134.112 65.5471 134.218 65.5154 134.218 65.5154Z" fill="#0097E6"/>
<path d="M125.012 82.5941C124.826 82.3997 124.623 82.2224 124.405 82.0644C123.787 81.6663 123.067 81.4556 122.332 81.4578C121.826 81.4468 121.321 81.4946 120.827 81.6004C120.259 81.7271 119.704 81.9005 119.165 82.1188C118.59 82.3451 117.993 82.5919 117.354 82.8182C116.698 83.0665 116.014 83.2315 115.317 83.3094C114.618 83.3698 113.914 83.3116 113.234 83.1374C112.578 82.9835 111.962 82.7752 111.374 82.5919C110.821 82.4093 110.257 82.2648 109.685 82.1595C109.186 82.0786 108.679 82.0618 108.175 82.1097C107.761 82.1498 107.354 82.2505 106.969 82.4085C106.679 82.5301 106.411 82.6975 106.174 82.9042C105.978 83.0878 105.802 83.2928 105.651 83.5154C105.651 83.5154 105.651 83.4973 105.674 83.4679L105.755 83.3321C105.798 83.2587 105.849 83.1897 105.905 83.1261C105.973 83.0345 106.049 82.9489 106.131 82.8703C106.368 82.6532 106.639 82.4765 106.933 82.3474C107.322 82.1798 107.734 82.0715 108.155 82.026C108.666 81.9721 109.182 81.9843 109.69 82.0622C110.267 82.1639 110.837 82.3068 111.394 82.49C111.985 82.6688 112.598 82.8748 113.25 83.0242C113.915 83.1924 114.604 83.249 115.288 83.1917C115.972 83.1134 116.644 82.9515 117.289 82.7096C117.918 82.4832 118.515 82.2342 119.099 82.0305C119.643 81.8104 120.205 81.6385 120.779 81.5167C121.281 81.4132 121.794 81.3691 122.307 81.3854C123.056 81.3909 123.786 81.6186 124.405 82.0395C124.502 82.1065 124.592 82.1823 124.675 82.2659C124.74 82.3211 124.8 82.3825 124.854 82.4493L124.953 82.5692C125.003 82.5783 125.014 82.5941 125.012 82.5941Z" fill="#0097E6"/>
<path d="M46.9265 83.6469C46.7422 83.4527 46.5415 83.2747 46.3266 83.1149C45.7087 82.7164 44.9885 82.5057 44.2532 82.5083C43.7476 82.4972 43.2424 82.545 42.7479 82.6509C42.18 82.7749 41.624 82.9483 41.0864 83.1693C40.5092 83.3956 39.9138 83.6424 39.2755 83.8665C38.6196 84.1147 37.9352 84.2798 37.2383 84.3577C36.5402 84.4186 35.8369 84.3612 35.158 84.1879C34.5015 84.0317 33.8858 83.8235 33.2973 83.6424C32.7449 83.4593 32.1807 83.3141 31.6086 83.2078C31.1095 83.1279 30.6022 83.1112 30.0988 83.158C29.684 83.1985 29.2775 83.2999 28.8923 83.459C28.6022 83.5797 28.3338 83.7472 28.0978 83.9547C27.9015 84.1383 27.7254 84.3425 27.5726 84.5637C27.5801 84.5474 27.5884 84.5315 27.5975 84.5161L27.6768 84.3826C27.7211 84.3088 27.7719 84.2392 27.8284 84.1743C27.8965 84.0835 27.9722 83.9987 28.0548 83.9208C28.2901 83.7031 28.5602 83.5264 28.8538 83.3979C29.2438 83.2304 29.6565 83.122 30.0785 83.0765C30.5894 83.0229 31.1051 83.0343 31.6132 83.1104C32.1906 83.2134 32.7601 83.3564 33.3177 83.5382C33.9085 83.7193 34.5219 83.9231 35.1738 84.0747C35.8389 84.2431 36.5274 84.2997 37.2111 84.2422C37.8955 84.1637 38.5676 84.001 39.2121 83.7578C39.8437 83.5314 40.4413 83.2847 41.023 83.0674C41.5679 82.8484 42.1306 82.6764 42.7049 82.5536C43.2073 82.4507 43.7202 82.4074 44.2328 82.4245C44.9813 82.4296 45.7116 82.6564 46.3312 83.0765C46.4273 83.144 46.5175 83.2197 46.6005 83.3028C46.6646 83.3578 46.7237 83.4184 46.7771 83.4839L46.879 83.6062C46.8966 83.6175 46.9126 83.6312 46.9265 83.6469Z" fill="#0097E6"/>
<path d="M123.862 73.757L123.588 73.8566L122.785 74.1351C122.076 74.3773 121.026 74.7395 119.668 75.1627C118.309 75.586 116.641 76.0818 114.667 76.5051C112.432 77.0107 110.145 77.2508 107.854 77.2204C106.521 77.198 105.193 77.0387 103.893 76.745C102.486 76.4167 101.111 75.9622 99.7863 75.3868C98.4078 74.8074 97.0157 74.1351 95.567 73.4764C94.0897 72.7779 92.5611 72.1937 90.9945 71.7289C90.5938 71.6044 90.1796 71.5251 89.7676 71.4255C89.5616 71.3803 89.3488 71.3531 89.1406 71.3169C88.9312 71.2751 88.7196 71.2456 88.5068 71.2286C88.0789 71.1946 87.6511 71.1448 87.2165 71.1245H85.9104C84.1218 71.2272 82.3492 71.5201 80.6226 71.9982C77.0891 72.9172 73.5602 74.3546 69.7414 75.1039C69.2661 75.2012 68.7839 75.2623 68.3086 75.3416C67.8332 75.4208 67.3488 75.4389 66.8712 75.4887C66.3936 75.5385 65.9114 75.5091 65.4361 75.5204C64.9607 75.5317 64.4853 75.4615 64.0122 75.4344C62.1596 75.2222 60.3333 74.8226 58.5615 74.2415C55.071 73.1436 51.8114 71.7515 48.5427 70.9841C48.133 70.8958 47.7278 70.794 47.3226 70.7193L46.1048 70.5178C45.3068 70.4149 44.5032 70.362 43.6986 70.3594C42.1583 70.4103 40.6298 70.6475 39.1465 71.0656C37.7046 71.4504 36.3373 71.9099 35.029 72.3695L31.2714 73.7027C29.1218 74.4777 26.9301 75.1306 24.7069 75.6585C23.7245 75.8848 22.7964 76.0524 21.943 76.1927C21.5152 76.2493 21.1055 76.3149 20.7139 76.3579C20.3223 76.4009 19.9488 76.4462 19.5934 76.4711C18.5056 76.5619 17.4139 76.5982 16.3225 76.5798L15.4714 76.5458L15.1816 76.53C15.1816 76.53 15.2812 76.53 15.4736 76.53L16.3225 76.5526C17.0695 76.5526 18.1741 76.5526 19.5889 76.4236C19.9443 76.3964 20.3155 76.3466 20.7071 76.3059C21.0987 76.2651 21.5062 76.1927 21.934 76.1361C22.7851 75.9912 23.7109 75.8282 24.6911 75.5928C26.9138 75.0578 29.1053 74.4003 31.2555 73.6235L35.0086 72.288C36.317 71.8352 37.6842 71.3621 39.1306 70.9751C40.6212 70.5533 42.1572 70.3132 43.7054 70.2598C44.5153 70.2611 45.3243 70.3141 46.1275 70.4182L47.3521 70.6174C47.7595 70.6944 48.1647 70.794 48.5767 70.8823C51.8589 71.6587 55.123 73.0417 58.6045 74.1351C60.3706 74.713 62.1908 75.1104 64.0371 75.3212C64.5057 75.3484 64.9788 75.3959 65.4519 75.4072C65.925 75.4185 66.4004 75.4072 66.8757 75.3755C67.3511 75.3438 67.8287 75.2963 68.3063 75.2284C68.7839 75.1605 69.2593 75.0903 69.7324 75.002C73.5353 74.255 77.0642 72.8199 80.5977 71.9009C82.3324 71.4205 84.1134 71.1269 85.9104 71.0249H87.2256C87.6624 71.043 88.0925 71.095 88.5226 71.129C88.7376 71.1477 88.9515 71.178 89.1632 71.2195C89.3737 71.2558 89.5865 71.2852 89.7948 71.3305C90.209 71.4301 90.6255 71.5093 91.0284 71.636C92.6016 72.0979 94.1364 72.6814 95.619 73.3813C97.0677 74.04 98.4576 74.7146 99.8339 75.294C101.153 75.8678 102.521 76.3224 103.922 76.6522C105.216 76.9475 106.538 77.1083 107.865 77.1321C110.148 77.1678 112.428 76.9345 114.656 76.4372C116.63 76.0207 118.298 75.5317 119.656 75.1129C121.014 74.6942 122.06 74.3433 122.771 74.1079L123.584 73.834L123.862 73.757Z" fill="#0097E6"/>
<path d="M29.5307 52.2256V46.0414H43.7552V32.8083C43.7552 32.8083 35.7149 27.7355 22.2328 31.3234L24.9491 23.7788L81.7205 21.7981L109.536 40.6766L89.1428 56.5558L29.5307 56.0601V52.2256Z" fill="#EBECF0"/>
<path d="M55.2023 39.6308C55.6957 39.6308 106.514 38.6212 106.514 38.6212L94.2473 30.2957H81.2338C81.2338 30.2957 66.9051 30.4383 62.2059 34.1257C56.9317 38.2658 55.2023 39.6308 55.2023 39.6308Z" fill="#263238"/>
<path d="M51.8543 22.8394L27.3643 14.1924L18.0337 15.2427L32.969 23.4981L51.8543 22.8394Z" fill="#EBECF0"/>
<path d="M32.9691 23.4981L51.9042 22.7465L30.6466 22.2146L32.9691 23.4981Z" fill="#EBECF0"/>
<g opacity="0.2">
<path opacity="0.2" d="M32.9691 23.4981L51.9042 22.7465L30.6466 22.2146L32.9691 23.4981Z" fill="black"/>
</g>
<path d="M43.7551 46.0415H47.2094V34.7325L43.7551 32.8062V46.0415Z" fill="#EBECF0"/>
<g opacity="0.2">
<path opacity="0.2" d="M43.7551 46.0415H47.2094V34.7325L43.7551 32.8062V46.0415Z" fill="black"/>
</g>
<path d="M22.2328 31.3233L23.222 31.0744L26.3209 23.7312L24.9559 23.7787" fill="#EBECF0"/>
<g opacity="0.2">
<path opacity="0.2" d="M22.2328 31.3233L23.222 31.0744L26.3209 23.7312L24.9559 23.7787" fill="black"/>
</g>
<path d="M83.5584 30.2957L77.3041 39.1984L80.0181 39.1464L86.6913 30.2957H83.5584Z" fill="#FAFAFA"/>
<path d="M87.882 30.2957L81.2089 39.1215L81.9966 39.1056L88.5905 30.2957H87.882Z" fill="#FAFAFA"/>
<path d="M50.8312 50.8878C50.7738 50.8875 50.7174 50.8728 50.6672 50.845C50.6171 50.8172 50.5747 50.7772 50.544 50.7287C50.5134 50.6802 50.4954 50.6248 50.4918 50.5675C50.4881 50.5103 50.499 50.4531 50.5233 50.4011L54.8242 41.3919C54.8619 41.3131 54.9283 41.2516 55.0098 41.2199C55.0981 41.1859 64.0642 37.7928 79.2417 35.0697C93.2354 32.5593 115.534 30.1191 142.279 32.7562C142.334 32.7619 142.387 32.7812 142.434 32.8123C142.48 32.8434 142.518 32.8854 142.544 32.9346C142.57 32.9838 142.584 33.0387 142.584 33.0945C142.584 33.1502 142.57 33.2051 142.544 33.2542L138.293 41.1769C138.25 41.2564 138.177 41.3158 138.091 41.3419C138.005 41.368 137.911 41.3587 137.832 41.3161C137.752 41.2735 137.693 41.201 137.667 41.1146C137.641 41.0282 137.65 40.935 137.693 40.8554L141.704 33.3855C115.265 30.8254 93.2286 33.2497 79.3753 35.7374C65.2255 38.2749 56.5128 41.3897 55.381 41.8084L51.1367 50.6931C51.1094 50.7511 51.0662 50.8001 51.0121 50.8346C50.958 50.869 50.8953 50.8875 50.8312 50.8878Z" fill="#455A64"/>
<path d="M134.629 32.908L130.319 42.4741L130.525 42.5669L134.835 33.0008L134.629 32.908Z" fill="#455A64"/>
<path d="M125.1 31.9371L120.806 41.5322L121.012 41.6247L125.306 32.0295L125.1 31.9371Z" fill="#455A64"/>
<path d="M116.261 32.0364L111.966 41.6316L112.173 41.7241L116.467 32.1289L116.261 32.0364Z" fill="#455A64"/>
<path d="M98.2136 33.2484L93.9194 42.8435L94.126 42.936L98.4202 33.3408L98.2136 33.2484Z" fill="#455A64"/>
<path d="M107.47 32.0626L103.176 41.6577L103.383 41.7502L107.677 32.155L107.47 32.0626Z" fill="#455A64"/>
<path d="M89.3312 34.0897L85.0371 43.6848L85.2437 43.7773L89.5379 34.1821L89.3312 34.0897Z" fill="#455A64"/>
<path d="M80.1418 35.4105L75.8477 45.0056L76.0543 45.0981L80.3484 35.5029L80.1418 35.4105Z" fill="#455A64"/>
<path d="M70.8457 37.5906L66.5549 47.1873L66.7616 47.2796L71.0524 37.683L70.8457 37.5906Z" fill="#455A64"/>
<path d="M29.6732 62.8124C36.5252 63.3941 43.3341 64.7953 50.2065 64.5961C58.0793 64.3697 65.8525 62.0359 73.7163 62.5294C81.1862 62.998 88.3958 65.9995 95.8725 65.8139C105.047 65.5876 114.249 60.5918 123.036 63.2787C123.914 63.548 124.801 63.8921 125.691 64.2407L140.303 40.6539C140.303 40.6539 68.4059 37.4554 46.553 53.072H10.1473L12.8637 64.4014C18.1288 62.4683 24.0255 62.3347 29.6732 62.8124Z" fill="#EBECF0"/>
<g opacity="0.1">
<path opacity="0.1" d="M29.6732 62.8124C36.5252 63.3941 43.3341 64.7953 50.2065 64.5961C58.0793 64.3697 65.8525 62.0359 73.7163 62.5294C81.1862 62.998 88.3958 65.9995 95.8725 65.8139C105.047 65.5876 114.249 60.5918 123.036 63.2787C123.914 63.548 124.801 63.8921 125.691 64.2407L140.303 40.6539C140.303 40.6539 68.4059 37.4554 46.553 53.072H10.1473L12.8637 64.4014C18.1288 62.4683 24.0255 62.3347 29.6732 62.8124Z" fill="black"/>
</g>
<path d="M96.1804 65.8005C105.355 65.5742 114.556 60.5784 123.344 63.263C124.143 63.5075 124.951 63.8153 125.759 64.1322L133.023 52.3818C133.023 52.3818 108.35 61.1941 84.8782 64.3541C88.6244 65.1599 92.3685 65.8933 96.1804 65.8005Z" fill="#EBECF0"/>
<path d="M15.5098 63.6476C13.7691 63.5209 12.7482 63.4552 12.6395 63.4869L12.8795 64.4874C13.7407 64.161 14.6187 63.8807 15.5098 63.6476Z" fill="#EBECF0"/>
<g opacity="0.3">
<path opacity="0.3" d="M96.1804 65.8005C105.355 65.5742 114.556 60.5784 123.344 63.263C124.143 63.5075 124.951 63.8153 125.759 64.1322L133.023 52.3818C133.023 52.3818 108.35 61.1941 84.8782 64.3541C88.6244 65.1599 92.3685 65.8933 96.1804 65.8005Z" fill="black"/>
<path opacity="0.3" d="M15.5098 63.6479C13.7691 63.5211 12.7482 63.4555 12.6395 63.4872L12.8795 64.4877C13.7407 64.1612 14.6187 63.8809 15.5098 63.6479Z" fill="black"/>
</g>
<path d="M83.2642 53.5338C85.5882 53.5338 87.4723 51.6346 87.4723 49.2918C87.4723 46.949 85.5882 45.0498 83.2642 45.0498C80.9402 45.0498 79.0562 46.949 79.0562 49.2918C79.0562 51.6346 80.9402 53.5338 83.2642 53.5338Z" fill="#263238"/>
<path d="M85.6161 45.6431L79.9933 52.6784L80.7765 53.3416L86.44 46.2678L85.6161 45.6431Z" fill="#455A64"/>
<path d="M81.6254 53.7854L86.9086 46.7886L87.1282 47.1032L81.9083 53.9393L81.6254 53.7854Z" fill="#455A64"/>
<path d="M103.761 53.5338C106.085 53.5338 107.969 51.6346 107.969 49.2918C107.969 46.949 106.085 45.0498 103.761 45.0498C101.437 45.0498 99.5532 46.949 99.5532 49.2918C99.5532 51.6346 101.437 53.5338 103.761 53.5338Z" fill="#263238"/>
<path d="M106.113 45.6431L100.488 52.6784L101.271 53.3416L106.937 46.2678L106.113 45.6431Z" fill="#455A64"/>
<path d="M102.12 53.7854L107.403 46.7886L107.625 47.1032L102.403 53.9393L102.12 53.7854Z" fill="#455A64"/>
<path d="M85.6161 45.6431L79.9933 52.6784L80.7765 53.3416L86.44 46.2678L85.6161 45.6431Z" fill="#FAFAFA"/>
<path d="M81.6254 53.7854L86.9086 46.7886L87.1282 47.1032L81.9083 53.9393L81.6254 53.7854Z" fill="#FAFAFA"/>
<path d="M122.678 53.5338C125.002 53.5338 126.886 51.6346 126.886 49.2918C126.886 46.949 125.002 45.0498 122.678 45.0498C120.354 45.0498 118.47 46.949 118.47 49.2918C118.47 51.6346 120.354 53.5338 122.678 53.5338Z" fill="#263238"/>
<path d="M125.03 45.6431L119.407 52.6784L120.188 53.3416L125.854 46.2678L125.03 45.6431Z" fill="#455A64"/>
<path d="M121.039 53.7854L126.32 46.7886L126.542 47.1032L121.322 53.9393L121.039 53.7854Z" fill="#455A64"/>
<path d="M125.03 45.6431L119.407 52.6784L120.188 53.3416L125.854 46.2678L125.03 45.6431Z" fill="#FAFAFA"/>
<path d="M121.039 53.7854L126.32 46.7886L126.542 47.1032L121.322 53.9393L121.039 53.7854Z" fill="#FAFAFA"/>
<path d="M106.113 45.6431L100.488 52.6784L101.271 53.3416L106.937 46.2678L106.113 45.6431Z" fill="#FAFAFA"/>
<path d="M102.12 53.7854L107.403 46.7886L107.625 47.1032L102.403 53.9393L102.12 53.7854Z" fill="#FAFAFA"/>
<path d="M43.7732 60.1278C43.7732 60.7775 38.662 61.3049 32.3601 61.3049C26.0582 61.3049 20.9447 60.7775 20.9447 60.1278C20.9447 59.4782 26.0559 58.9485 32.3601 58.9485C38.6642 58.9485 43.7732 59.4759 43.7732 60.1278Z" fill="#EBECF0"/>
<g opacity="0.2">
<path opacity="0.2" d="M43.7732 60.1278C43.7732 60.7775 38.662 61.3049 32.3601 61.3049C26.0582 61.3049 20.9447 60.7775 20.9447 60.1278C20.9447 59.4782 26.0559 58.9485 32.3601 58.9485C38.6642 58.9485 43.7732 59.4759 43.7732 60.1278Z" fill="black"/>
</g>
<path d="M99.1052 10.298C99.5628 8.37261 98.3729 6.44081 96.4476 5.98319C94.5222 5.52557 92.5904 6.71542 92.1328 8.64078C91.6752 10.5661 92.865 12.4979 94.7904 12.9555C96.7157 13.4132 98.6475 12.2233 99.1052 10.298Z" fill="#F7B731"/>
<path d="M95.8726 18.0564C95.807 18.0564 95.7549 17.0627 95.7549 15.8358C95.7549 14.609 95.807 13.6152 95.8726 13.6152C95.9382 13.6152 95.9903 14.609 95.9903 15.8358C95.9903 17.0627 95.936 18.0564 95.8726 18.0564Z" fill="#F7B731"/>
<path d="M104.332 8.84354C104.332 8.90918 103.426 8.96125 102.294 8.96125C101.163 8.96125 100.257 8.90918 100.257 8.84354C100.257 8.77789 101.163 8.72583 102.294 8.72583C103.426 8.72583 104.332 8.78016 104.332 8.84354Z" fill="#F7B731"/>
<path d="M95.3247 1.47998C95.3904 1.47998 95.4424 2.31299 95.4424 3.33614C95.4424 4.35929 95.3904 5.1923 95.3247 5.1923C95.2591 5.1923 95.207 4.36156 95.207 3.33614C95.207 2.31072 95.2591 1.47998 95.3247 1.47998Z" fill="#F7B731"/>
<path d="M90.5779 9.69681C90.5779 9.76245 89.6929 9.81452 88.5996 9.81452C87.5062 9.81452 86.6189 9.77377 86.6189 9.69681C86.6189 9.61985 87.5062 9.5791 88.5973 9.5791C89.6884 9.5791 90.5779 9.63117 90.5779 9.69681Z" fill="#F7B731"/>
<path d="M92.4635 12.678C92.5111 12.7233 92.0696 13.2394 91.4834 13.8257C90.8971 14.4119 90.381 14.8533 90.3335 14.8081C90.2859 14.7628 90.7273 14.249 91.3159 13.6604C91.9044 13.0719 92.4182 12.6327 92.4635 12.678Z" fill="#F7B731"/>
<path d="M101.47 14.6247C101.425 14.6722 100.898 14.2195 100.291 13.6128C99.6844 13.0062 99.234 12.481 99.2793 12.4358C99.3245 12.3905 99.8542 12.8409 100.459 13.4476C101.063 14.0542 101.516 14.5794 101.47 14.6247Z" fill="#F7B731"/>
<path d="M101.045 3.8546C101.09 3.89987 100.692 4.37296 100.155 4.9117C99.6189 5.45044 99.1435 5.84884 99.0983 5.8013C99.053 5.75377 99.4491 5.28294 99.9878 4.7442C100.527 4.20546 101 3.80933 101.045 3.8546Z" fill="#F7B731"/>
<path d="M92.2779 6.41006C92.2304 6.45533 91.8388 6.13842 91.4019 5.70155C90.965 5.26467 90.6481 4.87306 90.6956 4.82779C90.7432 4.78252 91.1325 5.09942 91.5694 5.5363C92.0063 5.97318 92.3277 6.36478 92.2779 6.41006Z" fill="#F7B731"/>
<path d="M70.1307 6.40325C69.9044 6.38062 69.755 7.60976 69.635 7.32681C69.515 7.04386 69.9926 5.84641 69.7527 5.83282C69.4426 5.81471 69.3113 7.10497 69.3 7.21363C69.2887 7.32228 69.1234 7.29738 69.1461 7.20004C69.18 7.06196 69.4856 5.59062 69.18 5.57251C69.0125 5.57251 69.0216 5.86452 69.0216 5.86452C69.0216 5.86452 68.8359 7.26343 68.6911 7.24758C68.5462 7.23173 68.6277 6.41004 68.6752 6.13388C68.7228 5.85772 68.6096 5.7287 68.4715 5.80793C68.3787 5.86225 68.2134 6.71337 68.175 6.97821C68.1365 7.24305 68.0369 8.00589 67.7834 7.59618C67.5298 7.18646 67.179 6.96689 67.0432 6.97368C67.0123 6.9787 66.9838 6.99312 66.9615 7.01496C66.9391 7.0368 66.9241 7.06501 66.9184 7.09572C66.9127 7.12643 66.9166 7.15815 66.9297 7.18655C66.9427 7.21494 66.9641 7.23863 66.9911 7.25437C67.1178 7.35628 67.2291 7.47598 67.3216 7.60976C67.3983 7.7167 67.4557 7.8362 67.4914 7.96288C67.5502 8.1485 67.5887 8.30695 67.6159 8.42919C67.3555 8.82758 64.5057 12.9881 61.3841 9.16486C59.9241 7.37661 58.824 7.26116 58.3192 7.34039V7.32454L57.5428 7.45583L55.2792 8.24357C54.9412 8.35884 54.614 8.50351 54.3013 8.67592C54.3013 8.67592 52.2754 9.25314 52.6624 12.9768C53.0043 16.259 52.6806 21.1892 52.5991 22.33C52.0874 22.6382 51.5052 22.8097 50.9081 22.828C50.9081 22.828 50.6433 23.1291 51.0802 23.1019C51.5171 23.0747 53.5702 23.1811 53.921 22.7465C53.921 22.7465 55.2792 22.9729 55.8813 22.7284C55.8813 22.7284 55.0008 22.7058 54.8332 22.4839C54.8157 22.4573 54.802 22.4284 54.7925 22.3979L55.0189 12.6644L60.0328 11.1976C60.9608 12.2615 62.2443 13.1149 63.9579 13.0085C68.0097 12.7821 69.3113 9.22371 69.4675 8.74609C69.7056 8.21679 69.9149 7.675 70.0945 7.12308C70.2779 6.42815 70.2167 6.41005 70.1307 6.40325Z" fill="#B78876"/>
<path d="M57.7986 5.59735C58.4931 5.15643 59.0169 4.49222 59.2836 3.71402C59.1266 3.76079 58.9627 3.77994 58.7992 3.77061C58.7171 3.76526 58.6375 3.73974 58.5676 3.69631C58.4978 3.65287 58.4397 3.59287 58.3985 3.52162C58.347 3.36372 58.3384 3.19498 58.3736 3.03268C58.3922 2.94995 58.3873 2.86365 58.3593 2.78361C58.3312 2.70357 58.2813 2.633 58.2152 2.57996C58.0409 2.47809 57.8145 2.60486 57.6176 2.55732C57.2984 2.47809 57.2622 2.04122 57.0539 1.78543C56.9661 1.6903 56.8575 1.61671 56.7365 1.57038C56.6156 1.52406 56.4857 1.50624 56.3567 1.51832C56.0992 1.54567 55.8473 1.61207 55.6097 1.71526L57.7986 5.59735Z" fill="#263238"/>
<path d="M53.844 1.25122C52.7258 1.72432 52.8005 2.67956 52.4858 3.26357C52.3705 3.42953 52.3162 3.63026 52.3319 3.83174C52.3817 4.0581 52.6217 4.22334 52.7031 4.45197C52.8956 4.98618 52.1531 5.52039 52.3274 6.06139C52.4066 6.31265 52.6556 6.45979 52.8322 6.65446C53.0087 6.84913 53.0857 7.20452 52.8593 7.33354L55.012 7.00079C55.012 7.00079 54.1609 1.62472 53.7512 1.66093" fill="#263238"/>
<path d="M54.9962 12.6779L56.0194 14.8759L57.5201 19.0908C59.3446 19.1813 62.4412 18.0336 64.6301 17.3365L61.2891 14.4209L60.8137 12.3475C61.0315 11.7892 61.0315 11.1695 60.8137 10.6113C60.7311 10.4005 60.5945 10.2151 60.4178 10.0737C60.241 9.93227 60.0302 9.83976 59.8064 9.80542C59.734 9.80542 58.3803 10.2944 58.6022 11.5688C58.6022 11.5688 57.6967 10.7765 56.6736 11.3085C56.0394 11.6519 55.4763 12.1128 55.0143 12.6666" fill="#8C7AE6"/>
<path d="M57.7104 7.41281C57.5295 7.00265 57.3745 6.58154 57.2463 6.15198C57.2463 6.15198 58.1223 5.67209 57.7964 4.73948C57.4704 3.80688 56.5378 1.73567 56.5378 1.73567L54.5277 1.62476L53.4774 3.69596L55.4558 8.22318L57.7104 7.41281Z" fill="#B78876"/>
<path d="M56.8705 3.33605C56.8803 3.35919 56.8829 3.3847 56.8782 3.40935C56.8734 3.434 56.8614 3.45669 56.8438 3.47452C56.8261 3.49235 56.8035 3.50454 56.7789 3.50952C56.7543 3.51451 56.7288 3.51208 56.7055 3.50254C56.6823 3.49299 56.6624 3.47677 56.6485 3.45592C56.6345 3.43507 56.627 3.41053 56.627 3.38542C56.6269 3.36032 56.6344 3.33577 56.6483 3.31489C56.6622 3.29401 56.6821 3.27774 56.7053 3.26814C56.7206 3.2615 56.737 3.25799 56.7537 3.25782C56.7703 3.25765 56.7869 3.26082 56.8023 3.26716C56.8177 3.27349 56.8317 3.28285 56.8434 3.29468C56.8551 3.30652 56.8643 3.32059 56.8705 3.33605Z" fill="#263238"/>
<path d="M57.0562 3.15958C57.0562 3.18222 56.9294 3.14374 56.8026 3.18901C56.6759 3.23429 56.6057 3.33615 56.5763 3.32483C56.5468 3.31351 56.5763 3.28635 56.6012 3.23881C56.6418 3.1805 56.6996 3.13622 56.7664 3.11205C56.834 3.08928 56.9071 3.08928 56.9747 3.11205C57.0358 3.12563 57.0607 3.15053 57.0562 3.15958Z" fill="#263238"/>
<path d="M55.5485 3.89981C55.5613 3.93074 55.5614 3.96547 55.5486 3.99642C55.5359 4.02738 55.5115 4.05205 55.4806 4.06505C55.4654 4.07169 55.4489 4.0752 55.4322 4.07537C55.4156 4.07554 55.3991 4.07237 55.3837 4.06604C55.3682 4.0597 55.3543 4.05034 55.3425 4.03851C55.3308 4.02667 55.3216 4.01261 55.3154 3.99714C55.3106 3.96911 55.3154 3.9403 55.329 3.91532C55.3426 3.89035 55.3642 3.87066 55.3903 3.85943C55.4164 3.8482 55.4455 3.84608 55.473 3.8534C55.5005 3.86072 55.5247 3.87707 55.5418 3.89981H55.5485Z" fill="#263238"/>
<path d="M55.6685 3.74129C55.6685 3.76393 55.5418 3.72545 55.415 3.77072C55.2882 3.81599 55.2181 3.91786 55.1886 3.90654C55.1592 3.89522 55.1886 3.86579 55.2113 3.82052C55.2516 3.76094 55.3105 3.71637 55.3788 3.69376C55.4466 3.67239 55.5193 3.67239 55.587 3.69376C55.6482 3.70734 55.673 3.73224 55.6685 3.74129Z" fill="#263238"/>
<path d="M56.5627 4.61046C56.6216 4.56441 56.6863 4.52635 56.7551 4.49728C56.7868 4.48143 56.8162 4.46559 56.8117 4.43842C56.8072 4.41126 56.7845 4.37957 56.7529 4.34788L56.5582 4.12152C56.3845 3.93549 56.2263 3.73563 56.0851 3.52393C56.2718 3.69684 56.4451 3.88376 56.6035 4.08304L56.7936 4.3094C56.8294 4.34315 56.8533 4.38765 56.8615 4.43616C56.8615 4.49954 56.8004 4.52218 56.7732 4.5335C56.7063 4.56734 56.6357 4.59318 56.5627 4.61046Z" fill="#263238"/>
<path d="M56.1801 4.90245C56.4177 4.93226 56.6589 4.9169 56.8908 4.85718C56.8716 4.93964 56.8252 5.01324 56.7591 5.06619C56.693 5.11913 56.6111 5.14836 56.5264 5.14918C56.4483 5.15884 56.3693 5.13886 56.3052 5.09318C56.2411 5.0475 56.1965 4.97945 56.1801 4.90245Z" fill="white"/>
<path d="M57.2463 6.1521C56.8069 6.31457 56.3303 6.34834 55.8723 6.24943C55.8723 6.24943 56.4246 6.80176 57.321 6.38299L57.2463 6.1521Z" fill="#A36957"/>
<path d="M53.8486 4.51322C53.7393 4.51227 53.6306 4.52987 53.5272 4.56528C53.4767 4.58348 53.4314 4.61387 53.3955 4.65376C53.3596 4.69364 53.3341 4.74178 53.3212 4.79391C53.3174 4.8344 53.3216 4.87526 53.3336 4.91411C53.3457 4.95296 53.3653 4.98904 53.3914 5.02027C53.4327 5.06945 53.4841 5.10927 53.542 5.13707C53.5999 5.16487 53.6631 5.18003 53.7273 5.18153C53.7916 5.18303 53.8554 5.17084 53.9146 5.14576C53.9737 5.12069 54.0269 5.08331 54.0705 5.03611" fill="#B78876"/>
<path d="M57.4342 18.267C57.4342 18.267 57.4998 23.0568 61.4974 22.9458L61.4159 17.855L57.4342 18.267Z" fill="#8C7AE6"/>
<path d="M84.98 17.1486C84.8487 16.7411 84.4956 18.0993 84.3621 18.6448C82.7775 18.4479 78.2141 17.9522 73.9789 18.1038C69.5309 18.2645 66.475 18.5294 64.4898 19.2356L61.8799 22.9117L73.7865 20.9854L84.9234 21.2253C84.9234 21.2253 85.143 17.6534 84.98 17.1486Z" fill="#B78876"/>
<path d="M66.1853 18.7876L64.7207 22.4818L62.4503 22.8644L66.1853 18.7876Z" fill="#A36957"/>
<path d="M76.4303 21.092L74.8662 21.058L72.4554 18.1538L73.9789 18.104L76.4303 21.092Z" fill="#A36957"/>
<path d="M57.1716 2.19526C57.1286 2.22695 56.0398 2.72494 56.0398 2.72494L55.6074 2.06171L55.8564 2.84944L54.1429 3.64623L54.3511 6.07735L52.9771 3.49683C52.9771 3.49683 52.7825 1.11778 54.6952 0.972908C56.608 0.828037 57.1716 2.19526 57.1716 2.19526Z" fill="#263238"/>
<path d="M56.8863 12.7346C56.9089 12.7539 56.928 12.7769 56.9429 12.8025C56.989 12.8719 57.0234 12.9484 57.0448 13.0289C57.0818 13.1419 57.0956 13.2612 57.0855 13.3797C57.0811 13.4511 57.0658 13.5213 57.0403 13.588C57.0251 13.6278 56.999 13.6625 56.9649 13.6881C56.9309 13.7138 56.8903 13.7293 56.8479 13.7329C56.8051 13.7279 56.7649 13.7097 56.7329 13.6809C56.7009 13.6521 56.6786 13.6141 56.669 13.5722C56.6478 13.504 56.6371 13.433 56.6373 13.3616C56.6367 13.2419 56.6605 13.1232 56.7075 13.013C56.7377 12.9393 56.7789 12.8706 56.8298 12.8093C56.8682 12.7663 56.8931 12.7482 56.8954 12.7505C56.836 12.8378 56.7859 12.9311 56.746 13.0289C56.7064 13.1344 56.6879 13.2467 56.6917 13.3594C56.6923 13.4255 56.703 13.4911 56.7234 13.554C56.7437 13.6152 56.7867 13.674 56.8479 13.674C56.9837 13.674 57.0199 13.4929 57.0312 13.3752C57.0423 13.263 57.0339 13.1496 57.0063 13.0402C56.9757 12.9349 56.9355 12.8326 56.8863 12.7346Z" fill="white"/>
<path d="M56.8591 12.7369C56.8591 12.7369 56.8591 12.7029 56.8591 12.6486C56.8746 12.5697 56.9013 12.4935 56.9384 12.4222C56.9951 12.3163 57.072 12.2225 57.1647 12.1461C57.2179 12.0984 57.2782 12.0595 57.3435 12.0306C57.3824 12.0134 57.4252 12.0075 57.4673 12.0135C57.5093 12.0195 57.5488 12.0372 57.5812 12.0646C57.6074 12.0986 57.6227 12.1396 57.6251 12.1825C57.6276 12.2253 57.617 12.2678 57.5948 12.3045C57.5606 12.3667 57.5179 12.4238 57.468 12.4743C57.3845 12.5605 57.2834 12.6277 57.1715 12.6712C57.0997 12.7026 57.0232 12.7217 56.9451 12.7278C56.9167 12.7333 56.8875 12.7333 56.8591 12.7278C56.9621 12.7072 57.0629 12.6769 57.1602 12.6373C57.2627 12.59 57.355 12.5231 57.4318 12.4404C57.4773 12.393 57.5161 12.3397 57.5473 12.2819C57.5652 12.2564 57.5748 12.2259 57.5748 12.1947C57.5748 12.1636 57.5652 12.1331 57.5473 12.1076C57.4477 12.0148 57.2983 12.1076 57.2077 12.1891C57.1172 12.2597 57.0404 12.3464 56.9814 12.4449C56.9327 12.5387 56.8918 12.6364 56.8591 12.7369Z" fill="white"/>
<path d="M56.866 12.7324C56.8376 12.7237 56.8114 12.709 56.7891 12.6894C56.7254 12.6429 56.669 12.5872 56.6216 12.5242C56.548 12.4299 56.4934 12.3223 56.4608 12.2073C56.4411 12.1381 56.432 12.0664 56.4337 11.9945C56.4332 11.952 56.4454 11.9103 56.4688 11.8748C56.4922 11.8393 56.5257 11.8116 56.565 11.7953C56.6072 11.7838 56.652 11.7861 56.6927 11.802C56.7335 11.8179 56.7681 11.8465 56.7913 11.8836C56.8343 11.9401 56.8686 12.0026 56.8932 12.0692C56.9357 12.1811 56.9542 12.3006 56.9475 12.4201C56.9433 12.4973 56.9281 12.5735 56.9022 12.6464C56.894 12.6753 56.8802 12.7022 56.8615 12.7257C56.8865 12.6232 56.9017 12.5186 56.9068 12.4133C56.907 12.3001 56.8855 12.1879 56.8434 12.0828C56.8193 12.0223 56.7873 11.9652 56.7483 11.913C56.7319 11.8863 56.7077 11.8653 56.6789 11.8528C56.6502 11.8403 56.6183 11.8368 56.5876 11.8428C56.4631 11.8949 56.488 12.0692 56.5174 12.1846C56.5458 12.2947 56.5933 12.3989 56.6578 12.4925C56.7213 12.5774 56.7909 12.6576 56.866 12.7324Z" fill="white"/>
<path d="M56.857 12.7573C56.8375 12.7794 56.8136 12.7972 56.7868 12.8094C56.7157 12.8485 56.6395 12.8774 56.5604 12.8954C56.4442 12.9241 56.3234 12.9295 56.2051 12.9112C56.1344 12.9026 56.0657 12.8828 56.0013 12.8524C55.9632 12.8342 55.9308 12.8057 55.908 12.7701C55.8852 12.7345 55.8729 12.6932 55.8723 12.6509C55.8824 12.6076 55.906 12.5686 55.9398 12.5397C55.9736 12.5107 56.0158 12.4934 56.0602 12.4902C56.1297 12.4728 56.2017 12.4674 56.273 12.4744C56.3922 12.4804 56.5088 12.5121 56.6148 12.5672C56.6866 12.6025 56.7524 12.6491 56.8094 12.7052C56.8318 12.7242 56.8502 12.7472 56.8638 12.7732C56.7801 12.7086 56.6907 12.6518 56.5967 12.6034C56.4927 12.5586 56.3815 12.5325 56.2684 12.5264C56.2031 12.5247 56.1377 12.5308 56.0738 12.5445C56.0127 12.5626 55.9493 12.6011 55.9447 12.6622C55.9447 12.7981 56.1145 12.8456 56.23 12.866C56.3416 12.8843 56.4556 12.8843 56.5672 12.866C56.6666 12.8376 56.7635 12.8013 56.857 12.7573Z" fill="white"/>
<path d="M56.8365 12.7686C56.8598 12.7491 56.8868 12.7345 56.9158 12.7256C56.9926 12.6948 57.0734 12.675 57.1557 12.6667C57.2787 12.654 57.403 12.664 57.5224 12.6962C57.5949 12.7154 57.6627 12.7493 57.7216 12.7958C57.755 12.8224 57.7809 12.8573 57.7968 12.897C57.8127 12.9367 57.818 12.9798 57.8122 13.0221C57.7999 13.0611 57.7796 13.0971 57.7527 13.1279C57.7258 13.1586 57.6927 13.1834 57.6556 13.2006C57.6186 13.2179 57.5783 13.2272 57.5375 13.228C57.4966 13.2289 57.456 13.2212 57.4183 13.2055C57.3023 13.1619 57.1961 13.0958 57.1059 13.0108C57.0456 12.9557 56.9882 12.8975 56.9339 12.8365C56.8954 12.7912 56.8773 12.7663 56.8818 12.7618C56.8864 12.7573 56.9746 12.8501 57.1331 12.9882C57.2222 13.0644 57.3241 13.1242 57.4341 13.1647C57.4647 13.177 57.4974 13.183 57.5303 13.1823C57.5633 13.1816 57.5957 13.1743 57.6257 13.1608C57.6557 13.1472 57.6827 13.1278 57.705 13.1036C57.7273 13.0794 57.7445 13.0509 57.7556 13.0199C57.7782 12.8773 57.6288 12.7935 57.5066 12.7528C57.3938 12.7183 57.2757 12.7045 57.158 12.712C57.0496 12.7229 56.9422 12.7419 56.8365 12.7686Z" fill="white"/>
<path d="M59.0141 14.98C59.0141 14.98 59.039 15.0004 59.0707 15.0479C59.1168 15.1173 59.1512 15.1938 59.1726 15.2743C59.2096 15.3873 59.2234 15.5066 59.2133 15.6251C59.2089 15.6964 59.1936 15.7666 59.1681 15.8334C59.1529 15.8732 59.1268 15.9079 59.0927 15.9335C59.0587 15.9591 59.0181 15.9746 58.9757 15.9782C58.9329 15.9732 58.8927 15.9551 58.8607 15.9263C58.8287 15.8975 58.8064 15.8595 58.7968 15.8175C58.7756 15.7494 58.7649 15.6784 58.7652 15.607C58.7645 15.4872 58.7883 15.3686 58.8353 15.2584C58.8655 15.1847 58.9067 15.116 58.9576 15.0547C58.996 15.0117 59.0209 14.9936 59.0232 14.9958C58.9638 15.0831 58.9137 15.1765 58.8738 15.2743C58.8342 15.3798 58.8157 15.4921 58.8195 15.6047C58.8201 15.6709 58.8308 15.7365 58.8512 15.7994C58.8715 15.8605 58.9145 15.9194 58.9757 15.9194C59.1115 15.9194 59.1477 15.7383 59.159 15.6206C59.1702 15.5083 59.1617 15.395 59.1341 15.2856C59.1035 15.1803 59.0633 15.078 59.0141 14.98Z" fill="white"/>
<path d="M58.9869 14.9802C58.9869 14.9802 58.9869 14.9485 58.9869 14.8942C59.0024 14.8154 59.0291 14.7391 59.0662 14.6678C59.1229 14.5619 59.1998 14.4681 59.2925 14.3917C59.3457 14.344 59.406 14.3051 59.4714 14.2762C59.5102 14.259 59.553 14.2531 59.5951 14.2591C59.6371 14.2651 59.6766 14.2828 59.709 14.3102C59.7352 14.3442 59.7505 14.3852 59.7529 14.4281C59.7554 14.4709 59.7448 14.5134 59.7226 14.5501C59.6884 14.6123 59.6457 14.6694 59.5959 14.7199C59.5123 14.8061 59.4112 14.8733 59.2993 14.9168C59.2276 14.9482 59.151 14.9673 59.073 14.9734C59.0445 14.9789 59.0153 14.9789 58.9869 14.9734C59.0899 14.9528 59.1907 14.9225 59.288 14.8829C59.3905 14.8356 59.4828 14.7687 59.5596 14.686C59.6051 14.6386 59.6439 14.5853 59.6751 14.5275C59.693 14.502 59.7026 14.4715 59.7026 14.4404C59.7026 14.4092 59.693 14.3787 59.6751 14.3532C59.5755 14.2604 59.4261 14.3532 59.3355 14.4347C59.245 14.5053 59.1682 14.592 59.1092 14.6905C59.0613 14.7839 59.0204 14.8807 58.9869 14.9802Z" fill="white"/>
<path d="M59.0029 14.98C58.9745 14.9713 58.9482 14.9566 58.9259 14.937C58.8622 14.8905 58.8058 14.8348 58.7584 14.7717C58.6849 14.6775 58.6303 14.5699 58.5977 14.4548C58.5779 14.3857 58.5688 14.314 58.5705 14.2421C58.57 14.1995 58.5822 14.1578 58.6056 14.1223C58.629 14.0868 58.6625 14.0591 58.7018 14.0429C58.744 14.0313 58.7888 14.0337 58.8296 14.0496C58.8704 14.0655 58.9049 14.0941 58.9282 14.1311C58.9711 14.1876 59.0054 14.2502 59.03 14.3168C59.0725 14.4286 59.091 14.5482 59.0844 14.6676C59.0801 14.7448 59.0649 14.8211 59.0391 14.894C59.0309 14.9228 59.017 14.9498 58.9983 14.9732C59.0234 14.8708 59.0385 14.7662 59.0436 14.6608C59.0438 14.5476 59.0223 14.4354 58.9802 14.3303C58.9561 14.2698 58.9242 14.2127 58.8852 14.1606C58.8685 14.1341 58.8442 14.1133 58.8156 14.1008C58.7869 14.0883 58.7552 14.0847 58.7244 14.0904C58.5999 14.1425 58.6248 14.3168 58.6543 14.4322C58.6756 14.5458 58.717 14.6546 58.7765 14.7536C58.8463 14.8345 58.922 14.9102 59.0029 14.98Z" fill="white"/>
<path d="M58.9847 15.0095C58.9652 15.0316 58.9413 15.0493 58.9145 15.0615C58.8434 15.1006 58.7672 15.1296 58.6881 15.1475C58.5719 15.1763 58.4511 15.1817 58.3328 15.1634C58.2624 15.1537 58.1937 15.1339 58.129 15.1045C58.0909 15.0864 58.0585 15.0579 58.0357 15.0222C58.0129 14.9866 58.0005 14.9454 58 14.9031C58.0079 14.8608 58.0286 14.822 58.0594 14.792C58.0902 14.762 58.1296 14.7423 58.172 14.7356C58.2415 14.7182 58.3135 14.7128 58.3848 14.7197C58.5041 14.7258 58.6207 14.7575 58.7266 14.8125C58.7985 14.8478 58.8642 14.8944 58.9213 14.9506C58.9436 14.9695 58.9621 14.9926 58.9756 15.0185C58.8926 14.953 58.8031 14.8961 58.7085 14.8487C58.6045 14.8039 58.4934 14.7779 58.3803 14.7718C58.3149 14.7701 58.2496 14.7761 58.1856 14.7899C58.1245 14.808 58.0611 14.8465 58.0566 14.9076C58.0566 15.0434 58.2264 15.091 58.3418 15.1113C58.4535 15.1296 58.5674 15.1296 58.6791 15.1113C58.7835 15.0855 58.8857 15.0514 58.9847 15.0095Z" fill="white"/>
<path d="M58.9644 15.0208C58.9876 15.0013 59.0146 14.9866 59.0436 14.9778C59.1204 14.9469 59.2012 14.9271 59.2835 14.9189C59.4065 14.905 59.531 14.915 59.6502 14.9483C59.7227 14.9676 59.7905 15.0015 59.8494 15.0479C59.8828 15.0746 59.9087 15.1095 59.9246 15.1491C59.9405 15.1888 59.9458 15.2319 59.94 15.2743C59.9274 15.3131 59.907 15.3489 59.88 15.3794C59.853 15.4099 59.82 15.4346 59.783 15.4518C59.746 15.469 59.7059 15.4784 59.6652 15.4794C59.6244 15.4804 59.5839 15.473 59.5461 15.4576C59.4301 15.4141 59.3239 15.3479 59.2337 15.263C59.1734 15.2079 59.116 15.1497 59.0617 15.0887C59.0232 15.0434 59.0051 15.0185 59.0096 15.014C59.0142 15.0094 59.1024 15.1023 59.2609 15.2403C59.3501 15.3158 59.452 15.3749 59.562 15.4146C59.5923 15.4273 59.625 15.4336 59.6579 15.4332C59.6908 15.4329 59.7233 15.4258 59.7533 15.4125C59.7834 15.3991 59.8105 15.3798 59.8328 15.3556C59.8552 15.3315 59.8724 15.303 59.8834 15.272C59.906 15.1294 59.7566 15.0457 59.6344 15.0049C59.5216 14.9705 59.4035 14.9567 59.2858 14.9642C59.1774 14.9751 59.07 14.994 58.9644 15.0208Z" fill="white"/>
<path d="M61.7191 16.5376C61.7191 16.5376 61.744 16.558 61.7757 16.6032C61.8208 16.6732 61.8551 16.7495 61.8776 16.8296C61.9123 16.9439 61.9261 17.0635 61.9183 17.1827C61.9137 17.254 61.8984 17.3242 61.8731 17.391C61.8574 17.4307 61.8308 17.4652 61.7963 17.4904C61.7619 17.5156 61.721 17.5306 61.6784 17.5336C61.6361 17.5289 61.5963 17.5111 61.5647 17.4827C61.533 17.4543 61.511 17.4167 61.5018 17.3751C61.4807 17.3062 61.47 17.2345 61.4701 17.1624C61.469 17.0435 61.4921 16.9256 61.538 16.816C61.5692 16.7423 61.6111 16.6736 61.6625 16.6123C61.6988 16.5693 61.7259 16.5512 61.7282 16.5534C61.6687 16.6403 61.6179 16.7328 61.5765 16.8296C61.5388 16.9364 61.5211 17.0492 61.5245 17.1624C61.5252 17.2276 61.5351 17.2923 61.5539 17.3548C61.5765 17.4159 61.6195 17.4747 61.6806 17.4747C61.8165 17.4747 61.8527 17.2959 61.864 17.1782C61.8755 17.0651 61.8663 16.9508 61.8368 16.8409C61.8072 16.7363 61.7678 16.6348 61.7191 16.5376Z" fill="white"/>
<path d="M61.6852 16.5374C61.6852 16.5374 61.6852 16.5057 61.6852 16.4514C61.6992 16.3721 61.7259 16.2957 61.7644 16.225C61.8216 16.1187 61.8984 16.0243 61.9908 15.9466C62.0446 15.8987 62.1058 15.8598 62.1719 15.8311C62.2109 15.8142 62.2539 15.8087 62.2959 15.8151C62.3379 15.8215 62.3773 15.8396 62.4095 15.8674C62.4334 15.8997 62.4474 15.9384 62.4498 15.9785C62.4523 16.0187 62.443 16.0587 62.4231 16.0937C62.3889 16.1571 62.3454 16.2151 62.2941 16.2658C62.2113 16.3518 62.111 16.419 61.9998 16.4627C61.9277 16.493 61.8514 16.5121 61.7735 16.5193C61.7169 16.5193 61.6852 16.5193 61.6852 16.5193C61.789 16.4992 61.8906 16.4689 61.9885 16.4287C62.0903 16.3813 62.1825 16.3152 62.2601 16.2341C62.3056 16.1859 62.3444 16.1318 62.3756 16.0733C62.393 16.048 62.4023 16.018 62.4023 15.9873C62.4023 15.9566 62.393 15.9266 62.3756 15.9013C62.276 15.8085 62.1266 15.9013 62.036 15.9828C61.9455 16.0534 61.8687 16.1401 61.8097 16.2386C61.7588 16.334 61.7171 16.4341 61.6852 16.5374Z" fill="white"/>
<path d="M61.6919 16.5353C61.6633 16.5271 61.637 16.5124 61.615 16.4923C61.5511 16.4444 61.494 16.388 61.4452 16.3248C61.3724 16.2304 61.3186 16.1227 61.2868 16.0079C61.2673 15.9394 61.2574 15.8685 61.2573 15.7973C61.2583 15.7546 61.2713 15.7129 61.295 15.6773C61.3186 15.6416 61.3519 15.6134 61.3909 15.5959C61.4331 15.5851 61.4777 15.5878 61.5183 15.6036C61.5589 15.6194 61.5935 15.6476 61.6172 15.6842C61.6602 15.7414 61.6946 15.8048 61.7191 15.872C61.7617 15.9839 61.7803 16.1034 61.7734 16.2229C61.7692 16.3001 61.754 16.3764 61.7282 16.4493C61.7202 16.4775 61.7063 16.5037 61.6874 16.5262C61.7129 16.4246 61.728 16.3207 61.7327 16.2161C61.7329 16.1029 61.7114 15.9907 61.6693 15.8856C61.6454 15.8238 61.6126 15.7659 61.572 15.7136C61.5554 15.6877 61.5314 15.6675 61.5031 15.6554C61.4749 15.6433 61.4437 15.6399 61.4135 15.6457C61.289 15.6977 61.3139 15.872 61.3433 15.9875C61.3717 16.0968 61.4192 16.2003 61.4837 16.2931C61.546 16.3796 61.6157 16.4607 61.6919 16.5353Z" fill="white"/>
<path d="M61.6829 16.5647C61.6621 16.5853 61.6385 16.6028 61.6127 16.6167C61.5417 16.6558 61.4655 16.6848 61.3864 16.7028C61.2701 16.7315 61.1493 16.7369 61.031 16.7186C60.9605 16.7092 60.8919 16.6894 60.8273 16.6597C60.7887 16.6414 60.7562 16.6125 60.7334 16.5765C60.7105 16.5404 60.6984 16.4987 60.6982 16.456C60.7058 16.4142 60.7262 16.3758 60.7566 16.3462C60.7871 16.3166 60.826 16.2972 60.868 16.2908C60.9376 16.2738 61.0094 16.2677 61.0808 16.2727C61.2005 16.2805 61.3175 16.3121 61.4249 16.3655C61.496 16.4009 61.5609 16.4475 61.6173 16.5036C61.658 16.5443 61.6761 16.5692 61.6716 16.5715C61.589 16.5071 61.5003 16.451 61.4068 16.404C61.3035 16.357 61.1919 16.3309 61.0785 16.327C61.0131 16.323 60.9474 16.3291 60.8839 16.3451C60.8205 16.3609 60.7594 16.4017 60.7548 16.4628C60.7548 16.5986 60.9223 16.6462 61.04 16.6665C61.1516 16.6861 61.2657 16.6861 61.3773 16.6665C61.4815 16.64 61.5836 16.6059 61.6829 16.5647Z" fill="white"/>
<path d="M61.6626 16.5647C61.6859 16.5452 61.7128 16.5306 61.7418 16.5217C61.8186 16.4909 61.8994 16.471 61.9818 16.4628C62.1047 16.4478 62.2295 16.4578 62.3485 16.4922C62.4217 16.5096 62.4899 16.5437 62.5477 16.5918C62.5811 16.6185 62.607 16.6534 62.6228 16.6931C62.6387 16.7327 62.644 16.7759 62.6382 16.8182C62.6257 16.857 62.6052 16.8928 62.5782 16.9233C62.5512 16.9539 62.5182 16.9785 62.4812 16.9957C62.4443 17.0129 62.4042 17.0223 62.3634 17.0233C62.3226 17.0243 62.2821 17.0169 62.2443 17.0016C62.1278 16.9581 62.0215 16.891 61.932 16.8046C61.8711 16.7501 61.8136 16.6919 61.7599 16.6303C61.7378 16.6095 61.7194 16.585 61.7056 16.5579C61.7056 16.5579 61.8007 16.6462 61.9591 16.7729C62.0476 16.85 62.1497 16.9099 62.2602 16.9495C62.2906 16.9618 62.3232 16.9679 62.356 16.9674C62.3888 16.9668 62.4212 16.9597 62.4512 16.9464C62.4812 16.9331 62.5082 16.9139 62.5306 16.8899C62.553 16.8659 62.5704 16.8377 62.5816 16.8069C62.6043 16.6643 62.4549 16.5692 62.3326 16.5398C62.2198 16.5053 62.1017 16.4915 61.984 16.499C61.8752 16.5116 61.7676 16.5335 61.6626 16.5647Z" fill="white"/>
<path d="M58.9259 18.26C58.9259 18.26 58.9508 18.2781 58.9825 18.3257C59.0274 18.3916 59.0618 18.4641 59.0843 18.5407C59.1213 18.6537 59.1352 18.7731 59.1251 18.8916C59.1204 18.9636 59.1052 19.0345 59.0798 19.1021C59.0643 19.1415 59.038 19.1757 59.004 19.2009C58.97 19.2261 58.9296 19.2413 58.8874 19.2447C58.8445 19.24 58.8042 19.222 58.7721 19.1931C58.74 19.1643 58.7178 19.1261 58.7086 19.084C58.6873 19.0158 58.6767 18.9448 58.6769 18.8734C58.6762 18.7537 58.7001 18.635 58.7471 18.5249C58.7766 18.4515 58.8179 18.3834 58.8693 18.3234C58.9078 18.2804 58.9327 18.26 58.9349 18.2623C58.8755 18.3496 58.8254 18.4429 58.7856 18.5407C58.7459 18.6462 58.7274 18.7585 58.7312 18.8712C58.7318 18.9373 58.7425 19.003 58.7629 19.0659C58.7833 19.127 58.8263 19.1858 58.8874 19.1858C59.0232 19.1858 59.0594 19.007 59.0708 18.887C59.0819 18.7748 59.0735 18.6614 59.0459 18.552C59.0148 18.4512 58.9747 18.3535 58.9259 18.26Z" fill="white"/>
<path d="M58.8987 18.2601C58.8987 18.2601 58.8987 18.2284 58.8987 18.1718C58.9141 18.0929 58.9408 18.0167 58.9779 17.9454C59.0347 17.8395 59.1116 17.7457 59.2043 17.6693C59.2574 17.6216 59.3178 17.5827 59.3831 17.5538C59.4219 17.5366 59.4648 17.5307 59.5068 17.5367C59.5488 17.5427 59.5883 17.5604 59.6208 17.5878C59.647 17.6218 59.6623 17.6628 59.6647 17.7057C59.6671 17.7485 59.6565 17.791 59.6344 17.8277C59.5995 17.8902 59.5569 17.948 59.5076 17.9998C59.4228 18.0844 59.322 18.1513 59.2111 18.1967C59.1389 18.2265 59.0625 18.2448 58.9847 18.251C58.9563 18.2565 58.9271 18.2565 58.8987 18.251C59.0017 18.2304 59.1025 18.2001 59.1997 18.1605C59.3022 18.1131 59.3945 18.0462 59.4714 17.9635C59.5173 17.9166 59.5562 17.8632 59.5868 17.8051C59.6041 17.7793 59.6134 17.749 59.6134 17.7179C59.6134 17.6869 59.6041 17.6566 59.5868 17.6308C59.4872 17.5402 59.3378 17.6308 59.2473 17.7123C59.1573 17.7835 59.0806 17.8701 59.0209 17.9681C58.9727 18.0621 58.9319 18.1597 58.8987 18.2601Z" fill="white"/>
<path d="M58.9055 18.2555C58.9055 18.2555 58.8761 18.2555 58.8285 18.2148C58.7654 18.1667 58.7091 18.1104 58.661 18.0473C58.5875 17.953 58.5329 17.8454 58.5003 17.7304C58.4804 17.6612 58.4712 17.5895 58.4731 17.5176C58.4726 17.4751 58.4848 17.4334 58.5082 17.3979C58.5316 17.3623 58.5651 17.3347 58.6044 17.3184C58.6466 17.3072 58.6913 17.3097 58.732 17.3256C58.7727 17.3415 58.8073 17.3699 58.8308 17.4067C58.8738 17.464 58.9081 17.5273 58.9327 17.5945C59.0006 17.7833 59.0006 17.9898 58.9327 18.1786C58.9239 18.2065 58.9101 18.2326 58.8919 18.2555C58.917 18.1531 58.9321 18.0485 58.9372 17.9431C58.9374 17.8299 58.9159 17.7178 58.8738 17.6127C58.8497 17.5521 58.8178 17.495 58.7787 17.4429C58.7618 17.4167 58.7376 17.396 58.709 17.3835C58.6804 17.3711 58.6487 17.3673 58.618 17.3727C58.4935 17.4248 58.5184 17.5991 58.5478 17.7168C58.5767 17.826 58.6242 17.9293 58.6882 18.0224C58.7533 18.1066 58.826 18.1847 58.9055 18.2555Z" fill="white"/>
<path d="M58.8964 18.2805C58.8964 18.2805 58.8738 18.3054 58.8262 18.3326C58.7553 18.3726 58.6791 18.4023 58.5999 18.4209C58.4833 18.4473 58.363 18.4527 58.2445 18.4367C58.1738 18.4272 58.105 18.4065 58.0408 18.3756C58.0026 18.3574 57.9703 18.3289 57.9475 18.2933C57.9247 18.2577 57.9123 18.2164 57.9117 18.1741C57.9196 18.1319 57.9404 18.0931 57.9712 18.0631C58.002 18.0331 58.0413 18.0134 58.0838 18.0066C58.1535 17.9903 58.2252 17.985 58.2966 17.9908C58.4157 17.9979 58.532 18.0295 58.6384 18.0836C58.7098 18.1197 58.7754 18.1662 58.833 18.2217C58.8554 18.2406 58.8738 18.2636 58.8874 18.2896C58.803 18.226 58.7137 18.1692 58.6203 18.1198C58.5165 18.0746 58.4051 18.0493 58.292 18.0451C58.2267 18.0415 58.1612 18.0468 58.0974 18.061C58.0362 18.0791 57.9729 18.1198 57.9683 18.1787C57.9683 18.3145 58.1381 18.362 58.2536 18.3824C58.365 18.403 58.4793 18.403 58.5908 18.3824C58.6957 18.3584 58.7981 18.3243 58.8964 18.2805Z" fill="white"/>
<path d="M58.8761 18.2941C58.8761 18.2941 58.901 18.2715 58.9553 18.2488C59.1491 18.1734 59.3623 18.1638 59.562 18.2217C59.6347 18.2391 59.7027 18.2723 59.7612 18.319C59.7946 18.3457 59.8205 18.3806 59.8364 18.4202C59.8522 18.4599 59.8575 18.503 59.8517 18.5454C59.8395 18.5844 59.8192 18.6204 59.7923 18.6511C59.7653 18.6818 59.7322 18.7066 59.6952 18.7239C59.6581 18.7411 59.6179 18.7505 59.577 18.7513C59.5362 18.7521 59.4956 18.7444 59.4578 18.7287C59.3419 18.6852 59.2357 18.619 59.1455 18.5341C59.0851 18.479 59.0277 18.4208 58.9734 18.3598C58.935 18.3145 58.9168 18.2896 58.9214 18.2873C58.9259 18.2851 59.0142 18.3733 59.1726 18.5137C59.2617 18.5899 59.3637 18.6497 59.4737 18.6902C59.5042 18.7025 59.537 18.7085 59.5699 18.7078C59.6028 18.7071 59.6352 18.6998 59.6653 18.6863C59.6953 18.6727 59.7223 18.6533 59.7446 18.6291C59.7669 18.6049 59.7841 18.5764 59.7951 18.5454C59.8178 18.405 59.6684 18.319 59.5461 18.2783C59.4331 18.2449 59.3152 18.2312 59.1975 18.2375C59.0888 18.2463 58.9812 18.2652 58.8761 18.2941Z" fill="white"/>
<path d="M59.7883 11.8381C59.7883 11.8381 59.8132 11.8585 59.8448 11.906C59.8909 11.9754 59.9253 12.0519 59.9467 12.1324C59.9815 12.2459 59.9953 12.3648 59.9875 12.4833C59.9833 12.5548 59.9673 12.6252 59.9399 12.6915C59.9244 12.7309 59.8981 12.7651 59.8641 12.7903C59.8301 12.8156 59.7897 12.8307 59.7475 12.8341C59.705 12.8293 59.6651 12.8114 59.6331 12.7831C59.6011 12.7547 59.5786 12.7172 59.5687 12.6757C59.5481 12.6074 59.5382 12.5364 59.5393 12.4652C59.5379 12.3455 59.561 12.2269 59.6072 12.1166C59.6388 12.0431 59.6808 11.9745 59.7317 11.9128C59.7488 11.8893 59.7703 11.8693 59.795 11.854C59.7367 11.9419 59.6866 12.0351 59.6456 12.1324C59.6079 12.2384 59.5903 12.3505 59.5936 12.4629C59.5943 12.5281 59.6042 12.5929 59.623 12.6553C59.6456 12.7187 59.6887 12.7775 59.7498 12.7775C59.8856 12.7775 59.9218 12.5964 59.9331 12.4787C59.9447 12.3663 59.9355 12.2528 59.906 12.1437C59.8752 12.0388 59.8359 11.9366 59.7883 11.8381Z" fill="white"/>
<path d="M59.7589 11.8382C59.7544 11.8097 59.7544 11.7806 59.7589 11.7521C59.7753 11.6732 59.8027 11.597 59.8404 11.5258C59.8968 11.419 59.9737 11.3244 60.0667 11.2474C60.1206 11.1995 60.1817 11.1605 60.2478 11.1319C60.2851 11.1157 60.3262 11.1105 60.3663 11.1169C60.4064 11.1233 60.4438 11.1411 60.4742 11.1681C60.4989 11.2001 60.5134 11.2388 60.5158 11.2792C60.5183 11.3196 60.5085 11.3598 60.4877 11.3945C60.4556 11.4586 60.4127 11.5168 60.361 11.5665C60.2778 11.6521 60.1776 11.7192 60.0667 11.7635C59.9945 11.7936 59.9182 11.8127 59.8404 11.82C59.8112 11.8254 59.7813 11.8254 59.7521 11.82C59.8559 11.8 59.9575 11.7696 60.0554 11.7295C60.1574 11.6814 60.2495 11.6146 60.327 11.5326C60.3725 11.4852 60.4113 11.4319 60.4425 11.3741C60.4598 11.3484 60.469 11.318 60.469 11.287C60.469 11.2559 60.4598 11.2256 60.4425 11.1998C60.3429 11.107 60.1935 11.1998 60.1029 11.2813C60.0119 11.3514 59.9351 11.4382 59.8766 11.5371C59.8292 11.6341 59.7899 11.7348 59.7589 11.8382Z" fill="white"/>
<path d="M59.768 11.8359C59.7394 11.8277 59.713 11.813 59.691 11.7929C59.6266 11.7456 59.5694 11.6892 59.5213 11.6254C59.4484 11.531 59.3946 11.4234 59.3628 11.3085C59.3432 11.24 59.3333 11.1692 59.3334 11.098C59.3343 11.0552 59.3474 11.0136 59.371 10.9779C59.3946 10.9423 59.4279 10.914 59.4669 10.8965C59.5092 10.8864 59.5535 10.8894 59.594 10.9052C59.6344 10.9209 59.6691 10.9487 59.6933 10.9848C59.7358 11.0424 59.7701 11.1056 59.7952 11.1727C59.8366 11.2848 59.8551 11.4041 59.8495 11.5235C59.8457 11.601 59.8297 11.6774 59.8019 11.7499C59.7944 11.7786 59.7813 11.8055 59.7635 11.8291C59.7871 11.7264 59.8023 11.6219 59.8087 11.5167C59.8078 11.4036 59.7863 11.2917 59.7454 11.1863C59.7219 11.125 59.689 11.0677 59.648 11.0165C59.6319 10.99 59.6081 10.9691 59.5798 10.9565C59.5515 10.944 59.52 10.9404 59.4896 10.9463C59.3651 10.9984 59.39 11.1727 59.4194 11.2881C59.4478 11.3982 59.4953 11.5024 59.5597 11.596C59.6224 11.6815 59.6921 11.7618 59.768 11.8359Z" fill="white"/>
<path d="M59.7566 11.8608C59.7566 11.8608 59.7363 11.8857 59.6887 11.9129C59.6177 11.952 59.5415 11.9809 59.4624 11.9989C59.3461 12.0276 59.2253 12.033 59.107 12.0147C59.0365 12.0054 58.9679 11.9855 58.9033 11.9559C58.8647 11.938 58.8319 11.9097 58.8087 11.874C58.7854 11.8384 58.7727 11.7969 58.772 11.7544C58.7802 11.7123 58.801 11.6737 58.8318 11.6437C58.8625 11.6138 58.9017 11.594 58.944 11.5869C59.0136 11.57 59.0853 11.5638 59.1568 11.5688C59.2762 11.576 59.3926 11.6084 59.4986 11.6639C59.5705 11.6981 59.6363 11.744 59.6933 11.7997C59.7156 11.8186 59.734 11.8417 59.7476 11.8676C59.665 11.8033 59.5763 11.7472 59.4827 11.7001C59.3791 11.6541 59.2678 11.628 59.1545 11.6231C59.0891 11.6213 59.0238 11.6274 58.9598 11.6412C58.8965 11.6594 58.8353 11.6978 58.8308 11.759C58.8308 11.8948 58.9983 11.9423 59.116 11.9627C59.2276 11.9822 59.3417 11.9822 59.4533 11.9627C59.5572 11.9377 59.6587 11.9037 59.7566 11.8608Z" fill="white"/>
<path d="M59.7385 11.8721C59.7618 11.8526 59.7887 11.838 59.8178 11.8291C59.8944 11.7977 59.9752 11.7778 60.0577 11.7702C60.1807 11.7563 60.3052 11.7663 60.4244 11.7996C60.4973 11.818 60.5652 11.8519 60.6236 11.8992C60.657 11.9259 60.6829 11.9608 60.6988 12.0005C60.7146 12.0401 60.7199 12.0833 60.7141 12.1256C60.7016 12.1644 60.6812 12.2002 60.6542 12.2307C60.6271 12.2613 60.5941 12.2859 60.5572 12.3031C60.5202 12.3203 60.4801 12.3297 60.4393 12.3307C60.3986 12.3317 60.358 12.3243 60.3203 12.309C60.2037 12.2655 60.0974 12.1984 60.0079 12.112C59.9465 12.0581 59.889 11.9999 59.8359 11.9377C59.8137 11.9169 59.7953 11.8924 59.7815 11.8653C59.7815 11.8653 59.8766 11.9536 60.0351 12.0803C60.1232 12.1578 60.2254 12.2178 60.3361 12.2569C60.3665 12.2692 60.3991 12.2753 60.4319 12.2748C60.4647 12.2742 60.4971 12.2671 60.5271 12.2538C60.5571 12.2405 60.5841 12.2213 60.6065 12.1973C60.6289 12.1733 60.6463 12.1451 60.6576 12.1143C60.6802 11.9717 60.5308 11.8879 60.4086 11.8472C60.2957 11.8128 60.1777 11.799 60.06 11.8064C59.9513 11.8203 59.8439 11.8423 59.7385 11.8721Z" fill="white"/>
<path d="M79.6787 21.4856C79.6787 21.4856 74.0196 11.4035 71.4504 10.1178C68.8813 8.83203 60.0668 18.1604 60.0668 18.1604C56.5876 22.382 60.6508 23.2444 62.2579 22.8755C63.0841 22.6853 69.6735 14.2896 70.3888 14.2738C71.1041 14.2579 77.3381 22.2236 77.3381 22.2236C77.3381 22.2236 80.9259 22.2688 81.4239 22.0787C81.9219 21.8885 79.6787 21.4856 79.6787 21.4856Z" fill="#B78876"/>
<path d="M53.6992 1.41201C53.76 1.21188 53.7875 1.00311 53.7807 0.794049C53.7744 0.582568 53.6943 0.379943 53.5543 0.221355C53.4388 0.107 53.2898 0.0324087 53.1291 0.00839554C52.9683 -0.0156176 52.8041 0.0121954 52.6602 0.087802C52.5192 0.168586 52.4047 0.288641 52.3308 0.433334C52.2568 0.578027 52.2266 0.741109 52.2437 0.902702C52.2648 1.06423 52.3277 1.21746 52.4262 1.34726C52.5246 1.47706 52.6552 1.57896 52.805 1.6429C52.9559 1.70356 53.1188 1.72857 53.2809 1.71601C53.4431 1.70345 53.6002 1.65364 53.7399 1.57047" fill="#263238"/>
</svg>
