<svg width="150" height="104" viewBox="0 0 150 104" fill="none" xmlns="http://www.w3.org/2000/svg">
<path d="M89.7202 98.3367C89.878 97.5508 90.1944 96.8208 90.6428 96.2078C91.0913 95.5948 91.6588 95.1167 92.2976 94.8137C92.4489 95.5661 92.3906 96.3554 92.1312 97.0662C91.8719 97.777 91.4251 98.3718 90.8563 98.7637C91.3837 99.1094 91.8187 99.6201 92.1126 100.239C92.4064 100.857 92.5475 101.56 92.5201 102.267C91.8473 102.216 91.2042 101.924 90.6782 101.43C90.1521 100.936 89.7688 100.264 89.5803 99.506" fill="#EBECF0"/>
<path d="M84.6312 102.657C84.7373 102.954 84.8953 103.222 85.0949 103.443C85.2946 103.665 85.5315 103.835 85.7906 103.943C85.9174 104.011 86.0616 104.019 86.1933 103.965C86.2246 103.95 86.2526 103.927 86.2755 103.898C86.2984 103.869 86.3156 103.835 86.3259 103.797C86.3362 103.76 86.3394 103.72 86.3352 103.681C86.3309 103.642 86.3194 103.604 86.3014 103.57C86.502 103.746 86.7513 103.829 87.0009 103.801C87.0616 103.791 87.1198 103.766 87.1722 103.729C87.2246 103.691 87.27 103.642 87.3058 103.584C87.3416 103.525 87.367 103.459 87.3805 103.389C87.394 103.319 87.3954 103.246 87.3845 103.176C87.6706 103.268 88.0331 103.332 88.209 103.054C88.2615 102.954 88.2873 102.837 88.2831 102.72C88.279 102.602 88.2451 102.489 88.1857 102.394C88.0653 102.206 87.913 102.05 87.7385 101.934" fill="#EBECF0"/>
<path d="M83.5227 95.8938C84.3382 94.396 85.5403 93.2418 86.9542 92.5992C87.0353 92.5466 87.1265 92.519 87.2192 92.519C87.3119 92.519 87.403 92.5466 87.4841 92.5992C87.5356 92.6573 87.5722 92.7311 87.5898 92.8123C87.6074 92.8934 87.6053 92.9787 87.5837 93.0585C87.5376 93.2165 87.4656 93.3624 87.3718 93.4881C87.4894 93.4123 87.6206 93.3703 87.7547 93.3656C87.8889 93.3608 88.022 93.3935 88.1433 93.4607C88.3722 93.6246 88.4337 94.0814 88.2027 94.2403C88.2501 94.1991 88.3047 94.1707 88.3626 94.1571C88.4205 94.1435 88.4802 94.145 88.5375 94.1617C88.5948 94.1783 88.6483 94.2095 88.6941 94.2531C88.7399 94.2968 88.7769 94.3518 88.8025 94.4141C88.8455 94.5462 88.8564 94.6897 88.8339 94.8287C88.8115 94.9676 88.7566 95.0965 88.6753 95.2011C88.5107 95.4087 88.3135 95.5772 88.0946 95.6977" fill="#EBECF0"/>
<path d="M80.8605 99.1213C80.8605 99.1213 82.855 95.0422 86.0512 95.0422C89.2475 95.0422 90.0169 98.8731 90.0169 98.8731C90.0169 98.8731 88.8766 102.173 86.0576 102.729C83.2386 103.285 80.8605 99.1213 80.8605 99.1213Z" fill="#F5F5F5"/>
<path d="M84.3239 98.7515C84.7614 99.3356 85.247 99.8679 85.7736 100.34C86.0053 100.593 86.3052 100.744 86.6214 100.765C86.7595 100.749 86.8924 100.696 87.0101 100.609C87.1277 100.523 87.2268 100.407 87.2997 100.268C87.4443 99.9916 87.5267 99.6765 87.5392 99.3523C87.5737 98.8165 87.4966 98.2789 87.3145 97.7857C87.2751 97.6454 87.2102 97.5168 87.1242 97.4088C87.0382 97.3008 86.9332 97.2159 86.8164 97.1601C86.5388 97.0682 86.259 97.2643 86.0195 97.453L84.3239 98.7862" fill="#EBECF0"/>
<path d="M83.2154 97.1003C83.2154 97.1003 83.2621 97.1426 83.3278 97.2394C83.4174 97.3767 83.4955 97.5239 83.5609 97.6788C83.7819 98.1938 83.8789 98.7697 83.8416 99.3444C83.8042 99.9192 83.6339 100.471 83.349 100.941C83.2635 101.082 83.167 101.213 83.0607 101.333C83.0242 101.38 82.9812 101.42 82.9335 101.45C82.9187 101.433 83.0883 101.249 83.2833 100.889C83.5425 100.423 83.6977 99.8885 83.7347 99.3342C83.7718 98.7798 83.6894 98.2234 83.4952 97.7161C83.3426 97.3263 83.2006 97.1128 83.2154 97.1003Z" fill="#EBECF0"/>
<path d="M82.7808 97.9644C82.8547 97.978 82.9223 98.0211 82.9721 98.0865C83.0219 98.1518 83.051 98.2353 83.0543 98.3228C83.0576 98.4103 83.035 98.4964 82.9903 98.5667C82.9456 98.6369 82.8815 98.6868 82.8089 98.7081C82.7364 98.7293 82.6598 98.7205 82.5922 98.6832C82.5245 98.6459 82.4699 98.5824 82.4377 98.5033C82.4054 98.4243 82.3975 98.3346 82.4152 98.2495C82.433 98.1644 82.4753 98.0891 82.535 98.0364" fill="#EBECF0"/>
<path d="M37.5053 93.1453C38.1685 93.7729 38.8927 94.3062 39.663 94.7342C40.4451 95.1265 41.3417 95.2928 42.1535 94.9825C42.3654 94.9055 42.5944 94.7541 42.624 94.4984C42.6622 94.193 42.3994 93.9646 42.1662 93.8206C41.1237 93.1841 39.995 92.7641 38.83 92.5792C39.4644 92.4229 40.0586 92.0944 40.5647 91.6201C41.0709 91.1457 41.475 90.5388 41.7444 89.8482C41.8673 89.528 41.9564 89.1034 41.7444 88.8552C41.6727 88.7776 41.5873 88.7195 41.4942 88.6852C41.4012 88.6509 41.3027 88.6411 41.2061 88.6565C40.6698 88.6988 40.2077 89.1009 39.8029 89.5131C38.8032 90.5269 37.9267 91.6964 37.198 92.9889" fill="#EBECF0"/>
<path d="M28.0415 89.9899L30.1886 88.54C30.315 88.4375 30.4602 88.3712 30.6125 88.3464C30.6902 88.3364 30.7684 88.3578 30.8343 88.407C30.9002 88.4562 30.9498 88.5303 30.9749 88.617C30.9983 88.7535 30.9389 88.895 30.9495 89.0341C30.9707 89.3121 31.259 89.4586 31.4963 89.4363C31.7337 89.4139 31.9605 89.2824 32.2 89.2675C32.3314 89.2675 32.4925 89.3146 32.5243 89.4661C32.5561 89.6175 32.4777 89.7143 32.4501 89.8261C32.3654 90.1712 32.6621 90.5113 32.9609 90.5535C33.2679 90.5619 33.5708 90.4709 33.8363 90.2903C34.1025 90.1101 34.4098 90.0311 34.7159 90.0644C35.0148 90.1339 35.2776 90.5187 35.1504 90.844C35.4463 90.7184 35.7676 90.7002 36.0724 90.7918C36.3649 90.9209 36.6405 91.5366 36.4582 91.8445C33.7134 90.8018 30.7693 90.0594 27.8846 89.9999" fill="#EBECF0"/>
<path d="M27.4905 94.7169C27.6674 95.127 27.9236 95.483 28.2388 95.7565C28.5539 96.03 28.9193 96.2136 29.3057 96.2924C29.6921 96.3713 30.0889 96.3433 30.4645 96.2107C30.8401 96.0781 31.184 95.8446 31.4689 95.5287C31.5467 95.4181 31.6474 95.3326 31.7614 95.2805C31.9733 95.2159 32.1725 95.4195 32.3654 95.5536C32.5229 95.6604 32.6991 95.7235 32.8806 95.7381C33.0621 95.7528 33.244 95.7185 33.4125 95.638C33.597 95.509 33.8017 95.4246 34.0144 95.3897C34.1886 95.4198 34.3555 95.4925 34.504 95.6032C34.8395 95.7954 35.2149 95.8712 35.5859 95.8215C35.957 95.7718 36.3081 95.5987 36.5978 95.3228C36.8876 95.0468 37.1039 94.6795 37.2211 94.2642C37.3383 93.8488 37.3516 93.4029 37.2594 92.979" fill="#EBECF0"/>
<path d="M22.2297 92.6961C23.8809 90.7794 26.2929 89.9651 28.618 89.9651C30.9432 89.9651 33.2259 90.6603 35.4642 91.4051C36.365 91.703 37.3442 92.0779 37.838 93.0089C35.2162 94.3471 32.3272 94.8808 29.4765 94.9404C28.2033 94.9953 26.9291 94.8736 25.6804 94.578C24.428 94.2799 23.2515 93.6469 22.2425 92.7283" fill="#EBEBEB"/>
<path d="M25.2565 91.5415C25.3679 91.5581 25.4705 91.6212 25.5453 91.7193C25.6202 91.8173 25.6623 91.9438 25.664 92.0753C25.6656 92.2069 25.6267 92.3347 25.5543 92.4353C25.482 92.5359 25.381 92.6025 25.2701 92.6229C25.1591 92.6433 25.0456 92.6162 24.9504 92.5464C24.8552 92.4766 24.7847 92.3689 24.7518 92.2431C24.719 92.1173 24.726 91.9818 24.7716 91.8616C24.8172 91.7414 24.8983 91.6445 25 91.5887" fill="#EBECF0"/>
<path d="M26.1149 94.0541C26.1001 94.0392 26.2294 93.8878 26.3756 93.5973C26.5659 93.224 26.6715 92.8001 26.6827 92.3656C26.6938 91.9311 26.61 91.5005 26.4392 91.1146C26.3078 90.8142 26.187 90.6553 26.2018 90.6404C26.3309 90.7536 26.4354 90.9007 26.507 91.0699C26.7082 91.4634 26.8089 91.9162 26.7973 92.3746C26.7856 92.8331 26.6621 93.2781 26.4413 93.6569C26.3586 93.8156 26.2471 93.9511 26.1149 94.0541Z" fill="#EBECF0"/>
<path d="M26.933 92.4774C27.6367 93.0851 28.4409 93.5138 29.2942 93.7362C29.6201 93.8338 29.9587 93.8591 30.2925 93.8107C30.6283 93.7587 30.9331 93.5535 31.1403 93.2396C31.3448 93.3579 31.5807 93.3775 31.7974 93.2943C32.075 93.1329 32.1195 92.6711 32.0093 92.3359C31.7974 91.7376 31.223 91.4049 30.6698 91.3677C30.1151 91.3723 29.566 91.4977 29.0505 91.7376C28.3192 92.0182 27.6685 92.1969 26.9309 92.4824" fill="#EBECF0"/>
<path d="M134.57 78.8848C134.952 79.2477 135.37 79.5561 135.814 79.8034C136.264 80.0506 136.773 80.1034 137.253 79.9524C137.374 79.9052 137.507 79.8208 137.527 79.6718C137.546 79.5229 137.395 79.364 137.262 79.2796C136.659 78.9112 136.006 78.6676 135.333 78.5596C135.701 78.4709 136.047 78.2818 136.342 78.0075C136.636 77.7331 136.872 77.3813 137.028 76.9806C137.074 76.8941 137.099 76.7944 137.099 76.6926C137.099 76.5908 137.074 76.4911 137.028 76.4046C136.987 76.3603 136.937 76.3272 136.883 76.3075C136.83 76.2877 136.773 76.2819 136.717 76.2904C136.408 76.3515 136.124 76.5253 135.905 76.7869C135.33 77.3736 134.824 78.0484 134.402 78.793" fill="#EBECF0"/>
<path d="M129.101 77.0625L130.341 76.2258C130.416 76.1657 130.502 76.1266 130.591 76.1116C130.637 76.1081 130.682 76.1216 130.72 76.1502C130.758 76.1788 130.787 76.221 130.803 76.2705C130.818 76.3475 130.782 76.4294 130.788 76.5188C130.801 76.6802 130.967 76.7671 131.104 76.7522C131.242 76.7373 131.373 76.6628 131.511 76.6553C131.588 76.6553 131.679 76.6827 131.698 76.7695C131.717 76.8564 131.672 76.9086 131.655 76.9781C131.607 77.1767 131.776 77.3728 131.95 77.3977C132.127 77.4015 132.302 77.3492 132.457 77.2462C132.61 77.1414 132.787 77.0954 132.963 77.1146C133.137 77.1544 133.287 77.3778 133.215 77.5665C133.386 77.4937 133.572 77.4833 133.747 77.5367C133.917 77.6112 134.076 77.9712 133.97 78.145C132.373 77.5077 130.705 77.148 129.019 77.0774" fill="#EBECF0"/>
<path d="M128.783 79.7935C128.886 80.0296 129.035 80.2344 129.217 80.3914C129.4 80.5484 129.611 80.6534 129.834 80.698C130.057 80.7426 130.286 80.7256 130.502 80.6483C130.719 80.571 130.917 80.4356 131.081 80.2528C131.126 80.19 131.185 80.1421 131.251 80.1137C131.376 80.0765 131.488 80.1932 131.598 80.2701C131.689 80.3318 131.791 80.3683 131.896 80.3769C132.001 80.3855 132.107 80.366 132.204 80.3198C132.311 80.2442 132.429 80.1944 132.552 80.1733C132.652 80.1904 132.749 80.2327 132.834 80.2974C133.028 80.4077 133.245 80.4508 133.459 80.4217C133.673 80.3926 133.875 80.2925 134.043 80.1332C134.21 79.9739 134.335 79.7619 134.402 79.5223C134.47 79.2827 134.478 79.0253 134.426 78.7805" fill="#EBECF0"/>
<path d="M125.744 78.6265C126.698 77.5167 128.09 77.0499 129.434 77.045C130.778 77.04 132.096 77.4472 133.389 77.8767C133.91 78.0505 134.474 78.2665 134.76 78.8027C133.228 79.5429 131.587 79.9225 129.93 79.9199C129.195 79.9514 128.459 79.8814 127.738 79.7114C127.014 79.5401 126.335 79.1737 125.752 78.6414" fill="#EBEBEB"/>
<path d="M127.493 77.9587C127.557 77.9683 127.616 78.0048 127.659 78.0614C127.702 78.118 127.727 78.191 127.728 78.2669C127.729 78.3429 127.706 78.4166 127.664 78.4747C127.623 78.5327 127.564 78.5712 127.5 78.583C127.436 78.5948 127.371 78.5791 127.316 78.5388C127.261 78.4986 127.22 78.4365 127.201 78.3639C127.182 78.2913 127.186 78.2131 127.212 78.1437C127.239 78.0743 127.286 78.0183 127.344 77.986" fill="#EBECF0"/>
<path d="M127.989 79.4111C127.976 79.3962 128.046 79.3044 128.124 79.1356C128.228 78.9198 128.287 78.6781 128.296 78.4305C128.299 78.1832 128.254 77.9385 128.162 77.7154C128.09 77.5417 128.027 77.4473 128.039 77.4324C128.052 77.4175 128.137 77.497 128.23 77.6807C128.352 77.9096 128.413 78.1753 128.406 78.4447C128.399 78.714 128.325 78.9751 128.192 79.1951C128.088 79.3515 127.997 79.4211 127.989 79.4111Z" fill="#EBECF0"/>
<path d="M128.461 78.4999C128.867 78.8503 129.332 79.0972 129.824 79.2249C130.013 79.2818 130.209 79.2969 130.403 79.2696C130.499 79.2552 130.592 79.2187 130.677 79.162C130.761 79.1053 130.835 79.0297 130.894 78.9394C131.012 79.0074 131.149 79.019 131.274 78.9716C131.347 78.9113 131.399 78.8221 131.42 78.7203C131.442 78.6186 131.431 78.5112 131.39 78.418C131.318 78.2507 131.207 78.11 131.07 78.0115C130.934 77.913 130.777 77.8603 130.617 77.8594C130.297 77.8613 129.979 77.9338 129.682 78.0729C129.258 78.2343 128.885 78.3361 128.461 78.4999Z" fill="#EBECF0"/>
<path d="M134.674 30.1541C134.674 29.963 135.223 17.4551 135.223 17.4551L136.058 23.1132L134.674 30.1541Z" fill="#F5F5F5"/>
<path d="M134.47 43.8984C134.51 43.7544 135.405 41.4728 135.405 41.4728L139.343 35.6235L136.908 42.0438L134.47 43.8984Z" fill="#F5F5F5"/>
<path d="M134.023 47.2748L133.012 44.4694L133.211 40.425L134.023 45.6114V47.2748Z" fill="#F5F5F5"/>
<path d="M133.766 54.3532C133.741 54.3532 133.94 48.0521 134.207 41.1725C134.474 34.2929 134.707 28.7192 134.733 28.7192C134.758 28.7192 134.559 34.2979 134.294 41.1775C134.029 48.057 133.79 54.3557 133.766 54.3532Z" fill="#EBECF0"/>
<path d="M132.683 23.2149C132.603 23.0734 132.359 18.4133 132.471 18.031C132.584 17.6486 133.894 12.5144 133.894 12.5144L133.529 20.1239L132.683 23.2149Z" fill="#EBEBEB"/>
<path d="M132.552 29.1537C132.552 29.1537 132.959 27.1104 133.281 26.8721C133.603 26.6338 137.906 22.8278 137.906 22.8278L140.097 22.3064L138.23 23.3988L132.552 29.1537Z" fill="#EBEBEB"/>
<path d="M130.719 22.7881L131.897 31.1101L132.382 31.7755L132.552 29.5882L130.719 22.7881Z" fill="#EBEBEB"/>
<path d="M128.347 29.9158L130.822 35.7179L132.285 36.4304L131.108 33.7664L128.347 29.9158Z" fill="#EBEBEB"/>
<path d="M132.056 39.9657C132.136 39.8217 133.518 35.7451 133.518 35.7451L137.122 32.7957H138.665L137.577 33.0812L132.056 39.9657Z" fill="#EBEBEB"/>
<path d="M129.841 40.2266L131.058 43.7967L132.056 44.0301V43.2133L129.841 40.2266Z" fill="#EBEBEB"/>
<path d="M131.638 53.8094C131.613 53.8094 131.85 46.8082 132.158 38.1684C132.465 29.5286 132.741 22.5273 132.764 22.5273C132.787 22.5273 132.552 29.5311 132.245 38.1684C131.937 46.8057 131.662 53.8119 131.638 53.8094Z" fill="#EBECF0"/>
<path d="M86.3544 52.9554C85.4706 53.1739 84.5867 53.514 83.3764 53.6307L83.3192 33.9627C83.3192 33.4912 83.4791 33.0391 83.7637 32.7057C84.0483 32.3723 84.4343 32.1851 84.8368 32.1851C85.0361 32.1851 85.2334 32.231 85.4176 32.3204C85.6017 32.4097 85.769 32.5406 85.9099 32.7057C86.0508 32.8708 86.1626 33.0667 86.2389 33.2824C86.3151 33.4981 86.3544 33.7292 86.3544 33.9627V52.9554Z" fill="#EBECF0"/>
<path d="M94.468 40.3681H80.3115C80.1148 40.3681 79.9261 40.2765 79.787 40.1136C79.6479 39.9506 79.5697 39.7296 79.5697 39.4991C79.5697 39.2684 79.6478 39.0472 79.7869 38.8838C79.9259 38.7204 80.1146 38.6283 80.3115 38.6277H94.468V40.3681Z" fill="#EBECF0"/>
<path d="M110.24 38.6277H94.9216V40.3681H110.24V38.6277Z" fill="#EBECF0"/>
<path d="M126.176 38.6277H110.858V40.3681H126.176V38.6277Z" fill="#EBECF0"/>
<path d="M142.111 38.6277H126.793V40.3681H142.111V38.6277Z" fill="#EBECF0"/>
<path d="M150 38.6277H142.533V40.3681H150V38.6277Z" fill="#EBECF0"/>
<path d="M119.69 54.9788C119.305 55.1178 117.764 55.0558 116.655 55.016V33.9627C116.655 33.7291 116.694 33.4978 116.77 33.282C116.846 33.0662 116.958 32.8701 117.099 32.705C117.24 32.5399 117.408 32.4089 117.592 32.3197C117.776 32.2305 117.974 32.1847 118.173 32.1851C118.575 32.1851 118.961 32.3723 119.246 32.7057C119.531 33.0391 119.69 33.4912 119.69 33.9627V54.9788Z" fill="#EBECF0"/>
<path d="M119.69 38.6275C119.69 38.6846 119.01 38.7467 118.171 38.7318C117.331 38.7169 116.655 38.6871 116.655 38.63C116.655 38.5729 117.334 38.5133 118.173 38.5282C119.012 38.5431 119.69 38.5729 119.69 38.6275Z" fill="#EBEBEB"/>
<path d="M119.83 37.272C119.849 37.3217 119.169 37.7189 118.27 38.0168C117.372 38.3147 116.619 38.4041 116.613 38.352C116.607 38.2998 117.338 38.1186 118.224 37.8207C119.11 37.5228 119.809 37.2174 119.83 37.272Z" fill="#EBEBEB"/>
<path d="M119.724 37.1156C119.724 37.1703 119.05 37.2944 118.205 37.3019C117.359 37.3093 116.679 37.2025 116.683 37.1479C116.687 37.0933 117.367 37.1082 118.205 37.0983C119.042 37.0883 119.72 37.0536 119.724 37.1156Z" fill="#EBEBEB"/>
<path d="M119.724 36.6315C119.724 36.6861 119.048 36.7804 118.209 36.8375C117.37 36.8946 116.687 36.8996 116.685 36.8375C116.683 36.7755 117.359 36.6886 118.198 36.629C119.038 36.5694 119.722 36.5744 119.724 36.6315Z" fill="#EBEBEB"/>
<path d="M119.718 40.3953C119.718 40.4524 119.027 40.3953 118.184 40.4176C117.34 40.44 116.655 40.4896 116.649 40.4176C116.643 40.3456 117.327 40.2116 118.181 40.2016C119.036 40.1917 119.724 40.3407 119.718 40.3953Z" fill="#EBEBEB"/>
<path d="M119.758 40.9862C119.775 41.0333 119.099 41.3536 118.209 41.4256C117.319 41.4976 116.609 41.2965 116.622 41.2468C116.634 41.1972 117.332 41.2965 118.196 41.222C119.061 41.1475 119.744 40.9266 119.758 40.9862Z" fill="#EBEBEB"/>
<path d="M119.847 41.8973C119.847 41.9519 119.135 41.9891 118.26 41.9792C117.384 41.9693 116.674 41.9146 116.674 41.8575C116.674 41.8004 117.384 41.7657 118.262 41.7756C119.139 41.7855 119.847 41.8402 119.847 41.8973Z" fill="#EBEBEB"/>
<path d="M86.2166 38.5433C86.2166 38.6004 85.5808 38.6624 84.7753 38.6475C83.9699 38.6327 83.3362 38.6029 83.3362 38.5458C83.3362 38.4887 83.972 38.4291 84.7775 38.444C85.5829 38.4589 86.2145 38.4936 86.2166 38.5433Z" fill="#EBEBEB"/>
<path d="M86.3565 37.1951C86.3756 37.2422 85.7333 37.6395 84.8728 37.9399C84.0123 38.2403 83.3001 38.3297 83.2937 38.275C83.2874 38.2204 83.9826 38.0441 84.8219 37.7462C85.6613 37.4483 86.3353 37.1404 86.3565 37.1951Z" fill="#EBEBEB"/>
<path d="M86.2569 37.0388C86.2569 37.0934 85.621 37.2176 84.8135 37.225C84.0059 37.2325 83.3637 37.1232 83.3679 37.0686C83.3722 37.014 84.0186 37.0289 84.8113 37.0189C85.6041 37.009 86.2505 36.9817 86.2569 37.0388Z" fill="#EBEBEB"/>
<path d="M86.2569 36.5571C86.2569 36.6142 85.6211 36.7086 84.8178 36.7657C84.0145 36.8228 83.3722 36.8278 83.3701 36.7657C83.368 36.7036 84.006 36.6167 84.8072 36.5571C85.6084 36.4976 86.2527 36.4976 86.2569 36.5571Z" fill="#EBEBEB"/>
<path d="M86.3543 40.4276C86.3543 40.4847 85.6846 40.5542 84.8579 40.584C84.0313 40.6138 83.3531 40.584 83.3594 40.5368C83.3658 40.4897 84.025 40.4077 84.8431 40.378C85.6612 40.3482 86.3522 40.3705 86.3543 40.4276Z" fill="#EBEBEB"/>
<path d="M86.2887 40.9092C86.3056 40.9564 85.6655 41.2767 84.8177 41.3487C83.9699 41.4207 83.298 41.2196 83.3086 41.1699C83.3192 41.1203 83.9847 41.2196 84.805 41.1451C85.6253 41.0706 86.2738 40.8497 86.2887 40.9092Z" fill="#EBEBEB"/>
<path d="M86.3714 41.8204C86.3714 41.875 85.6974 41.9122 84.8644 41.9023C84.0314 41.8924 83.3595 41.8377 83.3595 41.7806C83.3595 41.7235 84.0356 41.6888 84.8665 41.6987C85.6974 41.7086 86.3735 41.7707 86.3714 41.8204Z" fill="#EBEBEB"/>
<path d="M78.9614 55.7856C80.5783 54.3361 82.4526 53.3308 84.4458 52.8439C86.439 52.357 88.5002 52.4011 90.4769 52.9727C93.1963 53.7821 95.7397 55.5994 98.5312 55.6739C102.573 55.7757 106.21 52.2304 110.248 52.4091C113.446 52.5506 116.331 55.0234 119.529 55.078C122.543 55.1302 125.341 53.0273 128.353 52.9876C131.78 52.9454 134.985 55.5721 138.398 55.1972C140.176 55.0036 141.806 54.008 143.521 53.4246C145.235 52.8411 148.044 53.9211 149.39 55.2866" fill="white"/>
<path d="M149.39 55.2841L149.239 55.1501C149.144 55.0557 148.989 54.9341 148.788 54.7777C148.183 54.3393 147.533 53.9915 146.855 53.7424C146.367 53.5556 145.865 53.4235 145.356 53.3476C144.753 53.2482 144.14 53.2828 143.548 53.4494C142.912 53.6654 142.257 53.946 141.558 54.2563C140.821 54.5916 140.066 54.8662 139.296 55.0781C138.442 55.2886 137.564 55.3305 136.698 55.2022C135.763 55.0538 134.841 54.8096 133.942 54.4723C133.008 54.1446 132.052 53.7672 131.049 53.4792C130.022 53.1528 128.958 53.0171 127.895 53.077C126.782 53.2052 125.684 53.4792 124.623 53.8938C123.51 54.3274 122.378 54.6871 121.231 54.9713C120.636 55.0963 120.031 55.1528 119.426 55.1402C118.811 55.1149 118.201 55.0176 117.603 54.8497C116.395 54.5244 115.229 53.9832 114.038 53.4941C113.442 53.2458 112.847 53.0174 112.242 52.8436C111.646 52.6575 111.036 52.5403 110.42 52.4936C109.195 52.3918 107.993 52.6872 106.855 53.0745C105.716 53.4618 104.642 53.9782 103.554 54.4326C102.507 54.9144 101.424 55.2849 100.32 55.5399C99.2624 55.772 98.1772 55.772 97.1195 55.5399C96.1302 55.3084 95.16 54.9761 94.22 54.5468C93.3065 54.1471 92.4332 53.7374 91.5748 53.4047C90.7565 53.0756 89.9134 52.8379 89.0568 52.6947C88.2778 52.5738 87.4917 52.5273 86.7062 52.5557C86.0054 52.5925 85.3077 52.6879 84.6185 52.8412C82.8122 53.2499 81.0946 54.0799 79.5676 55.2817L79.1162 55.6739C79.0144 55.7583 78.9614 55.7981 78.9614 55.7981C78.9614 55.7981 79.0102 55.7509 79.1098 55.664L79.5549 55.2742C81.0753 54.0479 82.7956 53.2027 84.6079 52.7915C86.0732 52.4449 87.5776 52.3878 89.0589 52.6227C89.9237 52.7639 90.7753 53 91.6024 53.3278C92.4629 53.658 93.3383 54.0726 94.2518 54.4624C95.1866 54.8918 96.1519 55.2242 97.1365 55.4555C98.183 55.6839 99.2566 55.6839 100.303 55.4555C101.401 55.1988 102.477 54.8291 103.518 54.3507C104.593 53.8864 105.68 53.3576 106.827 52.9678C107.974 52.578 109.186 52.2776 110.43 52.3794C111.053 52.4265 111.671 52.5446 112.274 52.7319C112.883 52.9107 113.48 53.1416 114.078 53.3874C115.271 53.8839 116.435 54.4177 117.63 54.7404C118.804 55.0835 120.028 55.1242 121.217 54.8596C122.359 54.5783 123.487 54.2211 124.595 53.7896C125.663 53.3638 126.769 53.0799 127.891 52.943C128.963 52.8819 130.036 53.0201 131.07 53.3526C132.079 53.6505 133.035 54.0304 133.966 54.3606C134.858 54.6979 135.775 54.943 136.704 55.093C137.561 55.2233 138.43 55.1847 139.275 54.9788C140.043 54.7768 140.797 54.5113 141.532 54.1843C142.234 53.8839 142.895 53.5984 143.531 53.3849C144.131 53.2181 144.752 53.1861 145.362 53.2905C145.874 53.3698 146.378 53.507 146.867 53.7002C147.547 53.954 148.197 54.3104 148.798 54.7603C148.953 54.879 149.102 55.0074 149.245 55.1451C149.343 55.2345 149.39 55.2841 149.39 55.2841Z" fill="#EBECF0"/>
<path d="M19.5654 15.2058H39.434C39.434 15.2058 37.6769 11.4618 32.5625 12.0056C27.6875 12.5269 27.4289 10.1634 24.9469 9.87291C22.465 9.58243 20.3921 11.7995 19.5654 15.2058Z" fill="#EBEBEB"/>
<path d="M104.854 9.4732H126.755C126.755 9.4732 124.818 5.34445 119.18 5.94527C113.796 6.51629 113.523 3.91442 110.788 3.59415C108.054 3.27388 105.767 5.73176 104.854 9.4732Z" fill="#F5F5F5"/>
<path d="M120.066 23.8729C120.066 23.9077 97.0708 23.9375 68.7092 23.9375C40.3476 23.9375 17.3463 23.9077 17.3463 23.8729C17.3463 23.8381 40.3391 23.8083 68.7092 23.8083C97.0792 23.8083 120.066 23.8381 120.066 23.8729Z" fill="#EBECF0"/>
<path d="M63.5629 25.745C63.5629 25.7797 60.3391 25.8095 56.3565 25.8095C52.3738 25.8095 49.15 25.7797 49.15 25.745C49.15 25.7102 52.3717 25.6804 56.3565 25.6804C60.3412 25.6804 63.5629 25.7102 63.5629 25.745Z" fill="#EBECF0"/>
<path d="M60.2395 27.4405C60.2395 27.4778 58.5036 27.5076 56.3629 27.5076C54.2221 27.5076 52.4862 27.4778 52.4862 27.4405C52.4862 27.4033 54.2221 27.376 56.3629 27.376C58.5036 27.376 60.2395 27.4058 60.2395 27.4405Z" fill="#EBECF0"/>
<path d="M35.1314 35.0527L35.6571 43.7422C35.6979 44.4265 35.9588 45.0672 36.3872 45.5349C36.8156 46.0026 37.3796 46.2625 37.9652 46.2621C38.2817 46.2619 38.5948 46.1856 38.8852 46.038C39.1755 45.8904 39.4369 45.6747 39.6533 45.404C39.8696 45.1334 40.0363 44.8137 40.1429 44.4647C40.2496 44.1156 40.294 43.7447 40.2734 43.3747C40.2268 42.548 40.1844 41.8702 40.1844 41.8702C40.1844 41.8702 41.9818 41.5425 42.003 39.4396C42.0157 38.2231 41.8376 35.4673 41.685 33.3545C41.6351 32.6654 41.366 32.0235 40.931 31.5558C40.496 31.0882 39.927 30.829 39.3366 30.8296H38.2514C37.8076 30.8599 37.3736 30.994 36.9749 31.2241C36.5762 31.4542 36.2209 31.7757 35.93 32.1694C35.6391 32.5631 35.4186 33.0211 35.2814 33.5163C35.1443 34.0115 35.0933 34.534 35.1314 35.0527Z" fill="#FFBE9D"/>
<path d="M40.1887 41.8428C39.3629 41.8579 38.5517 41.5867 37.8572 41.0632C37.8572 41.0632 38.4104 42.5777 40.2035 42.3865L40.1887 41.8428Z" fill="#EB996E"/>
<path d="M41.2144 35.8794C41.2156 35.9576 41.1904 36.0331 41.1445 36.0898C41.0985 36.1465 41.0353 36.1797 40.9686 36.1823C40.9359 36.1857 40.9029 36.1813 40.8717 36.1694C40.8405 36.1575 40.8116 36.1383 40.7869 36.1131C40.7621 36.0878 40.742 36.0569 40.7277 36.0223C40.7134 35.9877 40.7052 35.9501 40.7036 35.9117C40.703 35.8337 40.7283 35.7585 40.7742 35.7019C40.8201 35.6454 40.883 35.612 40.9495 35.6088C40.9822 35.6054 41.0151 35.6098 41.0464 35.6217C41.0776 35.6336 41.1064 35.6527 41.1312 35.678C41.1559 35.7033 41.176 35.7341 41.1903 35.7687C41.2047 35.8033 41.2128 35.841 41.2144 35.8794Z" fill="#263238"/>
<path d="M41.3734 35.4647C41.3416 35.5045 41.1487 35.3356 40.8711 35.3381C40.5934 35.3406 40.3942 35.4995 40.3645 35.4598C40.3348 35.4201 40.3815 35.3729 40.4705 35.2959C40.5901 35.1993 40.7322 35.1482 40.8774 35.1494C41.0205 35.1502 41.1597 35.2032 41.2759 35.3009C41.3607 35.3778 41.3904 35.4474 41.3734 35.4647Z" fill="#263238"/>
<path d="M38.616 35.9663C38.6166 36.0448 38.5909 36.1203 38.5446 36.1769C38.4983 36.2335 38.4349 36.2666 38.368 36.2692C38.3353 36.2726 38.3023 36.2682 38.2711 36.2563C38.2399 36.2445 38.211 36.2253 38.1863 36.2C38.1616 36.1747 38.1414 36.1439 38.1271 36.1093C38.1128 36.0747 38.1046 36.037 38.103 35.9986C38.1024 35.9202 38.1281 35.8446 38.1744 35.788C38.2207 35.7314 38.2841 35.6983 38.351 35.6957C38.3837 35.6927 38.4165 35.6973 38.4476 35.7093C38.4787 35.7214 38.5074 35.7406 38.5321 35.7658C38.5568 35.791 38.5769 35.8217 38.5913 35.8561C38.6057 35.8906 38.6141 35.9281 38.616 35.9663Z" fill="#263238"/>
<path d="M38.6604 35.5268C38.6287 35.564 38.4337 35.3977 38.1581 35.3977C37.8826 35.3977 37.6812 35.5591 37.6494 35.5218C37.6176 35.4846 37.6685 35.4325 37.7554 35.358C37.8744 35.2598 38.0168 35.2077 38.1624 35.209C38.3061 35.2093 38.4462 35.2622 38.563 35.3605C38.6477 35.4374 38.6774 35.5094 38.6604 35.5268Z" fill="#263238"/>
<path d="M39.663 37.9253C39.8077 37.8696 39.9581 37.837 40.1102 37.8284C40.1823 37.8284 40.248 37.8036 40.2607 37.749C40.2673 37.6626 40.251 37.5759 40.2141 37.5007C40.1462 37.3021 40.0784 37.0911 40.0021 36.8726C39.8098 36.339 39.6532 35.7886 39.5337 35.2266C39.7634 35.7405 39.9576 36.2752 40.1144 36.8254C40.1844 37.0439 40.2501 37.2549 40.3137 37.456C40.3583 37.556 40.3711 37.6713 40.3497 37.7813C40.3403 37.8105 40.3249 37.8366 40.305 37.8573C40.285 37.8781 40.2611 37.8929 40.2353 37.9004C40.196 37.9135 40.1553 37.9202 40.1144 37.9203C39.9647 37.9429 39.8131 37.9445 39.663 37.9253Z" fill="#263238"/>
<path d="M38.8512 38.1485C38.8957 38.1485 38.8957 38.4961 39.1522 38.7443C39.4086 38.9926 39.7287 38.9554 39.7308 39.005C39.7329 39.0547 39.6587 39.0721 39.5188 39.077C39.3438 39.0794 39.1736 39.01 39.0377 38.8809C38.9072 38.7578 38.8234 38.5794 38.8046 38.3843C38.7961 38.2329 38.83 38.146 38.8512 38.1485Z" fill="#263238"/>
<path d="M38.724 34.2581C38.6964 34.3475 38.4209 34.3052 38.0881 34.3499C37.7554 34.3946 37.5031 34.4989 37.4523 34.4219C37.4311 34.3822 37.4777 34.3003 37.5837 34.2159C37.7245 34.1116 37.8838 34.0462 38.0494 34.0247C38.215 34.0032 38.3827 34.0261 38.5396 34.0917C38.6837 34.1488 38.7431 34.2184 38.724 34.2581Z" fill="#263238"/>
<path d="M41.2674 34.5287C41.2187 34.6032 41.0279 34.5287 40.799 34.5287C40.5701 34.5287 40.3751 34.5784 40.3327 34.5014C40.3136 34.4642 40.3327 34.3897 40.4281 34.3202C40.5419 34.2375 40.674 34.196 40.8078 34.2008C40.9417 34.2057 41.0713 34.2567 41.1805 34.3475C41.2674 34.4195 41.295 34.494 41.2674 34.5287Z" fill="#263238"/>
<path d="M35.7376 36.6315C35.7079 36.6166 34.504 36.2045 34.5421 37.642C34.5803 39.0795 35.8139 38.7394 35.8139 38.6972C35.8139 38.6549 35.7376 36.6315 35.7376 36.6315Z" fill="#FFBE9D"/>
<path d="M35.4174 38.166C35.4174 38.166 35.3963 38.1858 35.3623 38.2057C35.3105 38.2293 35.2531 38.2293 35.2013 38.2057C35.1207 38.1495 35.0542 38.0694 35.0084 37.9735C34.9626 37.8776 34.9392 37.7693 34.9405 37.6595C34.9348 37.5358 34.9522 37.4121 34.9914 37.297C35.0018 37.2515 35.0216 37.2096 35.0489 37.175C35.0762 37.1404 35.1103 37.1141 35.1483 37.0984C35.1726 37.0905 35.1985 37.0926 35.2216 37.1044C35.2447 37.1161 35.2637 37.1368 35.2754 37.163C35.2924 37.2027 35.286 37.2325 35.2924 37.235C35.2988 37.2375 35.3178 37.2077 35.3072 37.1506C35.2993 37.1149 35.2814 37.0834 35.2564 37.0612C35.2394 37.0469 35.2201 37.0367 35.1998 37.0312C35.1794 37.0257 35.1583 37.0249 35.1377 37.0289C35.0887 37.0436 35.0437 37.0725 35.0066 37.1128C34.9696 37.1531 34.9418 37.2037 34.9257 37.2598C34.8769 37.3867 34.8551 37.5255 34.8621 37.6645C34.8553 37.7954 34.8824 37.9256 34.9399 38.0382C34.9974 38.1507 35.0826 38.2403 35.1843 38.2951C35.2176 38.3055 35.2524 38.3068 35.2862 38.2991C35.32 38.2913 35.3518 38.2747 35.3793 38.2504C35.4174 38.2007 35.4217 38.1685 35.4174 38.166Z" fill="#EB996E"/>
<path d="M35.0551 36.5845C35.1721 36.574 35.2892 36.6017 35.3936 36.6643C35.4979 36.727 35.5855 36.8222 35.6465 36.9395C35.7249 37.1431 35.744 37.3765 35.8224 37.5826C35.8547 37.6889 35.916 37.7798 35.9968 37.8413C36.0777 37.9028 36.1735 37.9314 36.2696 37.9227C36.3333 37.8988 36.3906 37.8557 36.4356 37.7978C36.4806 37.7398 36.5118 37.669 36.5261 37.5925C36.5515 37.4392 36.5515 37.2815 36.5261 37.1282C36.454 36.4579 36.3332 35.7925 36.3141 35.1147C36.2677 34.435 36.3938 33.7544 36.6766 33.1584C36.8215 32.8641 37.0315 32.6209 37.2843 32.4545C37.5372 32.288 37.8237 32.2044 38.1136 32.2125C38.4951 32.2497 38.8449 32.4831 39.2243 32.5451C39.4506 32.5788 39.6804 32.5515 39.8964 32.4655C40.1123 32.3794 40.3087 32.2369 40.4706 32.0486C40.5108 32.0014 40.7037 31.8525 40.7037 31.8525C40.6975 31.693 40.6526 31.5388 40.5744 31.4081C39.822 30.5937 38.4655 30.3653 37.4735 30.6632C36.9679 30.8085 36.4954 31.0812 36.0891 31.4624C35.6827 31.8436 35.3523 32.3241 35.1208 32.8704C34.6969 33.9603 34.8199 35.4772 35.0551 36.5944" fill="#263238"/>
<path d="M41.1233 32.4706C40.515 30.8345 39.7838 29.2009 37.9843 28.5455C37.3484 28.3121 36.1064 28.0862 35.5404 28.5082C35.178 28.7789 34.93 29.2133 34.6015 29.541C34.2179 29.9259 33.7325 30.1493 33.3298 30.5167C33.2145 30.6117 33.1212 30.7389 33.0585 30.8867C33.0285 30.9617 33.0173 31.0452 33.0264 31.1275C33.0354 31.2097 33.0641 31.2872 33.1093 31.3509C33.1971 31.4361 33.3052 31.4872 33.4188 31.4974C33.8862 31.5938 34.3601 31.6395 34.8346 31.634C34.7221 31.6962 34.6323 31.8037 34.5817 31.9369C34.5311 32.0701 34.5231 32.2202 34.559 32.3598C34.595 32.4994 34.6726 32.6192 34.7776 32.6974C34.8827 32.7756 35.0082 32.807 35.1314 32.7859C34.9978 33.4885 34.8368 33.5506 35.0318 34.2334C35.0318 34.2334 36.7783 32.4408 38.2407 32.1528C39.2097 31.9986 40.196 32.1073 41.1233 32.4706Z" fill="#30AD4C"/>
<path d="M41.5175 31.4529C41.4948 31.2534 41.4224 31.0662 41.3093 30.9147C41.1962 30.7633 41.0474 30.6542 40.8817 30.6013C39.7413 30.2512 38.4951 30.4896 37.5434 30.8322C35.3051 31.6316 34.6121 33.2404 34.6121 33.6674C34.6121 34.308 34.9575 36.031 34.9575 36.031C36.9965 31.2542 41.7083 33.0319 41.7083 33.0319L41.5175 31.4529Z" fill="#30AD4C"/>
<path d="M40.9241 30.5563C40.9241 30.5812 40.5426 30.4819 39.9258 30.4223C39.124 30.3417 38.3163 30.4257 37.5392 30.6706C37.1164 30.8179 36.7111 31.0273 36.3331 31.2937L36.0852 31.4849C36.0046 31.5469 35.9347 31.6189 35.8626 31.6835C35.7307 31.8049 35.6054 31.9359 35.4874 32.0758C35.3151 32.2775 35.155 32.4932 35.0084 32.7213C34.9596 32.8109 34.9028 32.8941 34.8389 32.9695C34.8757 32.8731 34.9212 32.7816 34.9745 32.6964C35.1078 32.4526 35.2603 32.224 35.4302 32.0137C35.5473 31.8674 35.6726 31.7306 35.8054 31.6041C35.8774 31.537 35.9474 31.4601 36.0279 31.393L36.2802 31.1944C36.6636 30.9162 37.077 30.6991 37.5095 30.5489C38.2986 30.2965 39.1219 30.2249 39.9342 30.3379C40.1789 30.3657 40.4217 30.4122 40.6613 30.4769C40.7512 30.4911 40.8395 30.5177 40.9241 30.5563Z" fill="#263238"/>
<path d="M36.8334 30.4299C36.5069 30.6453 36.1708 30.8401 35.8266 31.0134C35.2734 31.3336 34.8579 31.6638 34.8389 31.634C35.111 31.3215 35.4291 31.0692 35.7778 30.8892C36.1096 30.679 36.4649 30.5244 36.8334 30.4299Z" fill="#263238"/>
<path d="M37.6643 33.151C37.7478 33.3091 37.8615 33.4424 37.9965 33.5402C38.1316 33.638 38.2841 33.6977 38.4422 33.7145C38.6003 33.7314 38.7596 33.705 38.9075 33.6373C39.0553 33.5697 39.1877 33.4627 39.2942 33.3248C39.3419 33.4609 39.4245 33.5763 39.5306 33.655C39.6367 33.7337 39.7611 33.7719 39.8865 33.7643C40.0119 33.7567 40.1322 33.7036 40.2308 33.6124C40.3293 33.5212 40.4013 33.3964 40.4367 33.2553C40.5655 33.4209 40.722 33.5535 40.8966 33.645C40.9845 33.689 41.0817 33.7004 41.1753 33.6778C41.2689 33.6552 41.3543 33.5996 41.4201 33.5184C41.4727 33.4224 41.4978 33.3092 41.4917 33.1954C41.4856 33.0815 41.4486 32.9729 41.3862 32.8853C41.2587 32.7121 41.0941 32.5818 40.9093 32.508C40.3509 32.2202 39.7372 32.1114 39.131 32.1927C38.5216 32.2774 37.9632 32.6328 37.571 33.1857" fill="#263238"/>
<g opacity="0.2">
<path opacity="0.2" d="M34.8389 31.6341C35.0805 31.2492 35.1674 30.9116 35.4493 30.569C35.7238 30.2132 36.0699 29.9435 36.4561 29.7845C36.5116 29.7604 36.5708 29.7503 36.6299 29.7547C36.6596 29.7583 36.6879 29.7713 36.7117 29.7923C36.7356 29.8133 36.7542 29.8415 36.7655 29.8738C36.7696 29.8903 36.7707 29.9077 36.7686 29.9247C36.7666 29.9417 36.7615 29.958 36.7537 29.9725C36.7459 29.9871 36.7355 29.9995 36.7233 30.009C36.7111 30.0186 36.6973 30.0249 36.6829 30.0278C36.8666 29.9533 37.0613 29.9237 37.2551 29.9409C37.3024 29.9403 37.3483 29.9597 37.3844 29.9955C37.4021 30.0247 37.4107 30.0601 37.4087 30.0957C37.4068 30.1314 37.3945 30.1653 37.3738 30.1916C37.3324 30.244 37.2808 30.2841 37.2234 30.3083C36.3989 30.7428 35.6634 31.1971 34.8389 31.6341Z" fill="black"/>
</g>
<path d="M35.6973 34.7398C35.6973 34.7398 35.674 34.7199 35.638 34.6777C35.5869 34.6168 35.5402 34.5512 35.4981 34.4816C35.3541 34.2559 35.2425 34.0044 35.1674 33.7367C35.0916 33.4693 35.0529 33.1893 35.053 32.9075C35.053 32.8245 35.0572 32.7416 35.0657 32.6592C35.0672 32.6278 35.0729 32.5968 35.0827 32.5674C35.0827 32.5674 35.0827 32.699 35.0827 32.9125C35.092 33.1902 35.1341 33.4651 35.2077 33.7293C35.2815 33.9938 35.3871 34.2446 35.5214 34.4741C35.6253 34.6355 35.7016 34.7348 35.6973 34.7398Z" fill="#263238"/>
<path d="M36.7211 33.5778C36.7211 33.5778 36.7063 33.4537 36.6723 33.2576C36.6317 32.9989 36.5603 32.7482 36.4604 32.5127C36.3568 32.2801 36.2263 32.0654 36.0725 31.8747C35.9559 31.7282 35.8712 31.6512 35.8754 31.6438C35.8984 31.6558 35.9199 31.6717 35.939 31.691C35.9941 31.7399 36.0465 31.793 36.0958 31.8499C36.4225 32.2256 36.6385 32.7134 36.7126 33.2427C36.7256 33.3246 36.7327 33.4076 36.7338 33.4909C36.7253 33.5455 36.7253 33.5778 36.7211 33.5778Z" fill="#263238"/>
<path d="M38.1602 32.8976C38.1602 32.8976 38.1454 32.7635 38.1136 32.5475C38.0716 32.2662 38.0071 31.9903 37.9207 31.7232C37.832 31.4579 37.7212 31.2035 37.59 30.9635C37.4904 30.7798 37.4183 30.6706 37.4247 30.6656C37.4311 30.6607 37.4459 30.688 37.4819 30.7351C37.518 30.7823 37.5625 30.8518 37.6176 30.9437C37.7576 31.1812 37.8735 31.437 37.9631 31.7059C38.0521 31.9753 38.1133 32.2561 38.1454 32.5425C38.1545 32.6249 38.1601 32.7078 38.1623 32.7908C38.1644 32.8628 38.1644 32.8976 38.1602 32.8976Z" fill="#263238"/>
<path d="M39.7265 32.503C39.7265 32.503 39.7265 32.3788 39.7265 32.1777C39.7294 31.918 39.7166 31.6583 39.6884 31.4007C39.6582 31.1438 39.6122 30.8899 39.5506 30.6409C39.5196 30.5384 39.4934 30.434 39.4722 30.3281C39.4861 30.3529 39.4975 30.3796 39.5061 30.4076C39.5273 30.4572 39.5506 30.5342 39.5803 30.6285C39.6511 30.8782 39.7021 31.135 39.7329 31.3957C39.7626 31.6557 39.7704 31.9184 39.7562 32.1802C39.7562 32.2795 39.7435 32.3615 39.7371 32.4161C39.7308 32.4707 39.7308 32.503 39.7265 32.503Z" fill="#263238"/>
<path d="M40.922 32.8902C40.922 32.8902 40.9474 32.7636 40.9813 32.5575C41.0678 32.02 41.049 31.4665 40.9262 30.9388C40.8775 30.7352 40.8372 30.616 40.8436 30.6111C40.8581 30.6368 40.8702 30.6643 40.8796 30.693C40.9094 30.7738 40.9349 30.8568 40.9559 30.9413C41.0984 31.4712 41.1174 32.036 41.011 32.5774C40.9957 32.6615 40.9758 32.7444 40.9517 32.8257C40.9432 32.8481 40.9333 32.8697 40.922 32.8902Z" fill="#263238"/>
<path d="M37.2658 30.708C37.2077 30.6588 37.1452 30.6172 37.0793 30.5839C36.8992 30.4944 36.6967 30.489 36.5134 30.569H36.4922V30.5442C36.4699 30.4165 36.4143 30.3001 36.333 30.2112C36.2517 30.1222 36.1489 30.0651 36.0386 30.0476C35.7707 30.0225 35.5014 30.0675 35.2502 30.1792L33.6838 30.6757L33.2133 30.8471L33.084 30.8843H33.0374C33.051 30.8745 33.0661 30.8678 33.0819 30.8644L33.209 30.8173L33.6817 30.6534L35.2459 30.132C35.5031 30.0205 35.7782 29.9773 36.0513 30.0054C36.1683 30.0246 36.2774 30.0858 36.3635 30.1804C36.4497 30.2751 36.5087 30.3987 36.5325 30.5342L36.5092 30.5169C36.7001 30.4366 36.9105 30.4482 37.0942 30.5491C37.1604 30.5871 37.2189 30.6413 37.2658 30.708Z" fill="#263238"/>
<path d="M38.972 30.3056C38.9449 30.2886 38.9187 30.2695 38.8936 30.2485C38.8427 30.2112 38.7686 30.1566 38.6689 30.097C38.3894 29.9267 38.0855 29.8182 37.7724 29.7768H37.7575V29.7594C37.734 29.5817 37.666 29.4162 37.5623 29.2837C37.4586 29.1511 37.3237 29.0575 37.1747 29.0146C36.8237 28.9184 36.4568 28.9382 36.1149 29.0717C35.7037 29.225 35.31 29.4368 34.9428 29.7023C34.5994 29.9357 34.2921 30.1541 34.0208 30.3155C33.8086 30.4426 33.589 30.5522 33.3637 30.6432C33.2832 30.673 33.2175 30.6904 33.1751 30.7028L33.1094 30.7202C33.1299 30.7092 33.1512 30.7001 33.173 30.6929L33.3574 30.6234C33.5795 30.5261 33.7961 30.4125 34.0059 30.2832C34.273 30.1194 34.5782 29.8959 34.9237 29.6601C35.2925 29.3912 35.6884 29.1769 36.1022 29.022C36.4551 28.8835 36.8342 28.8646 37.1959 28.9674C37.3519 29.0134 37.4927 29.1129 37.6003 29.253C37.7079 29.3932 37.7774 29.5678 37.7999 29.7544L37.7851 29.7346C38.1013 29.7804 38.407 29.8967 38.6859 30.0772C38.7874 30.1422 38.8832 30.2187 38.972 30.3056Z" fill="#263238"/>
<path d="M40.1928 43.1389L35.5447 41.967C34.4362 42.0567 33.3503 42.377 32.3378 42.913C30.6951 43.7943 27.5942 48.1093 26.7782 53.5588C26.3543 56.4462 26.0258 60.7164 25.8774 62.8317C25.8774 62.8317 24.5909 64.5696 25.7566 65.0264L25.8032 65.3815L36.4221 62.4022L37.732 55.1279L39.3874 50.5721L42.5519 55.8081C42.8782 56.346 43.3099 56.7845 43.8107 57.0869C44.3115 57.3893 44.8668 57.5467 45.4302 57.546H45.6231C46.2333 57.5536 46.8289 57.3269 47.3187 56.9005L53.1729 50.9172L52.1661 48.9857L45.5404 52.6948L42.0516 45.5595C41.7341 44.9135 41.3306 44.331 40.8562 43.834L40.1928 43.1389Z" fill="#30AD4C"/>
<path d="M35.3328 41.5227C32.7464 41.6156 30.1738 42.0031 27.6515 42.6796C27.3737 42.7166 27.116 42.868 26.9245 43.1067C26.6808 43.494 26.8355 44.0352 26.9987 44.4746C27.3442 45.3957 27.7999 46.4037 28.6265 46.6843C29.2624 46.8978 29.9364 46.6073 30.5341 46.2796C32.4264 45.2347 34.128 43.7702 35.5447 41.9671" fill="#30AD4C"/>
<path d="M40.5659 47.0492C40.5956 47.0616 40.1695 48.3923 39.6163 50.0284C39.0631 51.6646 38.5905 52.968 38.5566 52.9531C38.5227 52.9382 38.9529 51.6099 39.5061 49.9738C40.0593 48.3377 40.5383 47.0343 40.5659 47.0492Z" fill="#263238"/>
<path d="M35.4197 42.4039V41.0632L40.3667 42.2624L40.4642 43.9258L35.4197 42.4039Z" fill="#30AD4C"/>
<path d="M33.6902 42.4387C33.6902 42.4611 33.3362 42.5703 32.7915 42.8484C32.4724 43.0111 32.163 43.1986 31.8652 43.4095C31.136 43.9268 30.485 44.582 29.9386 45.3485C29.7153 45.6633 29.51 45.9951 29.3239 46.3415C29.0081 46.9324 28.8618 47.3346 28.8428 47.3346C28.8637 47.2357 28.8943 47.1399 28.9339 47.0491C28.9726 46.9379 29.0165 46.8294 29.0653 46.7239C29.1204 46.5997 29.1777 46.4557 29.2582 46.3068C29.4375 45.9516 29.6387 45.6122 29.8602 45.2913C30.136 44.9029 30.4372 44.5402 30.761 44.2064C31.0933 43.8802 31.4477 43.5863 31.8207 43.3275C32.1239 43.1176 32.4407 42.9358 32.7682 42.7838C32.9038 42.7143 33.0352 42.6671 33.1476 42.6224C33.2434 42.5822 33.341 42.5482 33.4401 42.5207C33.5201 42.481 33.6042 42.4535 33.6902 42.4387Z" fill="#263238"/>
<path d="M36.2187 41.9274C36.189 41.9274 36.153 41.7859 36.1381 41.6071C36.1233 41.4284 36.1381 41.2769 36.1678 41.2744C36.1975 41.272 36.2356 41.4135 36.2484 41.5947C36.2611 41.776 36.2484 41.9249 36.2187 41.9274Z" fill="#263238"/>
<path d="M37.2403 42.2028C37.2106 42.2028 37.1852 42.0563 37.1852 41.8775C37.1852 41.6988 37.2106 41.5498 37.2403 41.5498C37.27 41.5498 37.2954 41.6963 37.2954 41.8775C37.2954 42.0588 37.2678 42.2028 37.2403 42.2028Z" fill="#263238"/>
<path d="M38.4019 42.5605C38.3701 42.5605 38.3362 42.3917 38.3235 42.1781C38.3108 41.9646 38.3235 41.7908 38.3553 41.7884C38.3871 41.7859 38.421 41.9572 38.4337 42.1707C38.4464 42.3842 38.4316 42.558 38.4019 42.5605Z" fill="#263238"/>
<path d="M39.5379 42.8359C39.5083 42.8359 39.4722 42.6646 39.4574 42.4461C39.4426 42.2277 39.4574 42.0489 39.485 42.0464C39.5125 42.0439 39.5528 42.2177 39.5676 42.4362C39.5825 42.6547 39.5719 42.8334 39.5379 42.8359Z" fill="#263238"/>
<g opacity="0.3">
<path opacity="0.3" d="M39.3959 50.5794L40.8796 53.0175C40.8796 53.0175 40.4217 47.5059 40.4027 47.5555C40.3836 47.6052 39.3959 50.5794 39.3959 50.5794Z" fill="black"/>
</g>
<g opacity="0.3">
<path opacity="0.3" d="M27.3357 45.2887C28.0797 45.4849 28.8554 45.1671 29.5252 44.7376C30.195 44.3081 30.8181 43.7668 31.5345 43.459C30.7482 44.1666 29.9385 44.9064 29.4658 45.9293C29.3408 46.2024 29.3047 46.617 29.0695 46.761C28.7223 46.7745 28.381 46.6532 28.0987 46.4159C27.8868 46.2247 27.4014 45.7257 27.3357 45.2887Z" fill="black"/>
</g>
<path d="M34.3005 59.2913C34.2119 59.3832 34.1169 59.4662 34.0165 59.5395C33.83 59.6935 33.5523 59.897 33.2026 60.1379C31.3714 61.3856 29.3596 62.2272 27.2679 62.6206C26.8673 62.6951 26.543 62.7422 26.3162 62.7621C26.1997 62.7812 26.082 62.7886 25.9644 62.7844C26.0782 62.7484 26.1945 62.7243 26.312 62.7124C26.5239 62.6777 26.8588 62.6156 27.2552 62.5312C28.289 62.3084 29.306 61.9896 30.2967 61.5778C31.2859 61.1604 32.2455 60.6523 33.1666 60.0584C33.5205 59.83 33.8024 59.6364 33.9953 59.4973C34.0919 59.4187 34.194 59.3497 34.3005 59.2913Z" fill="#263238"/>
<path d="M35.5702 62.2456L46.8228 57.2802C47.8269 57.1887 48.8275 57.5026 49.6582 58.1697C50.4888 58.8369 51.0994 59.8171 51.3883 60.9472L53.1857 67.9857L47.7173 68.7007L46.9479 64.5645C46.9479 64.5645 37.7893 69.654 37.5625 69.4877C37.4778 69.4256 33.9084 68.4425 33.9148 67.1266C33.9275 64.9866 35.5702 62.2456 35.5702 62.2456Z" fill="#263238"/>
<path d="M25.7651 65.0263L42.5498 58.0598C43.5539 57.9682 44.5545 58.2821 45.3851 58.9493C46.2158 59.6164 46.8263 60.5966 47.1153 61.7267L48.9105 68.7627L43.4421 69.4802L42.0962 65.6271L32.925 70.0959C32.197 70.4499 31.4097 70.6047 30.623 70.5485C29.8363 70.4924 29.0709 70.2268 28.385 69.7719C27.6991 69.3171 27.1108 68.685 26.6649 67.9237C26.219 67.1624 25.9272 66.2921 25.8118 65.3788L25.7651 65.0263Z" fill="#263238"/>
<path d="M48.8109 69.1948C48.795 69.1571 48.7836 69.117 48.7769 69.0756C48.7579 68.9838 48.7324 68.8696 48.7028 68.733C48.6349 68.4177 48.5438 67.9882 48.4336 67.4718C48.2004 66.4067 47.8592 64.9444 47.4226 63.348C47.23 62.5964 46.9913 61.8621 46.7083 61.1508C46.4748 60.5723 46.1722 60.0356 45.8096 59.557C45.5641 59.2355 45.2841 58.9526 44.9766 58.7153C44.7647 58.549 44.6248 58.467 44.629 58.467C44.664 58.4745 44.6976 58.4888 44.7286 58.5093C44.8219 58.5572 44.9125 58.6119 44.9999 58.6731C45.3211 58.8968 45.6131 59.1736 45.8668 59.4949C46.2433 59.972 46.5575 60.5116 46.7994 61.0962C47.0896 61.8111 47.3333 62.5505 47.5285 63.3083C47.9652 64.9072 48.2958 66.3794 48.5078 67.4495C48.6159 67.9857 48.6943 68.4202 48.7452 68.7231C48.7663 68.8621 48.7854 68.9714 48.8003 69.0707C48.809 69.1112 48.8126 69.153 48.8109 69.1948Z" fill="#455A64"/>
<path d="M43.3976 71.0122C43.353 70.8508 42.448 66.6327 42.448 66.6327L48.4739 64.304L49.1097 70.7168L43.3976 71.0122Z" fill="#30AD4C"/>
<path d="M47.6261 70.0886C47.5795 69.9247 46.6744 65.7091 46.6744 65.7091L52.6897 63.3704L53.3489 69.7906L47.6261 70.0886Z" fill="#30AD4C"/>
<path d="M49.2348 70.7216C49.2052 70.7216 49.0229 69.3139 48.8215 67.5686C48.6202 65.8232 48.4867 64.4056 48.5163 64.4006C48.546 64.3957 48.7283 65.8059 48.9402 67.5512C49.1522 69.2965 49.2666 70.7167 49.2348 70.7216Z" fill="#263238"/>
<path d="M44.1437 64.5746C44.1564 64.6093 42.2467 65.5677 39.8792 66.6923C37.5116 67.817 35.5828 68.7257 35.5701 68.6934C35.5574 68.6611 37.4777 67.7003 39.8368 66.5731C42.1958 65.446 44.1331 64.5423 44.1437 64.5746Z" fill="#455A64"/>
<path d="M43.7007 65.5751C43.4118 65.6802 43.1109 65.7329 42.8084 65.7315C42.508 65.7705 42.2043 65.7562 41.9076 65.6893C42.2027 65.6274 42.5022 65.5983 42.802 65.6024C43.1003 65.562 43.4011 65.5528 43.7007 65.5751Z" fill="#455A64"/>
<path d="M42.6367 66.732C42.5026 66.5842 42.3946 66.4071 42.3187 66.2106C42.2113 66.036 42.1355 65.8375 42.0962 65.6272C42.2303 65.775 42.3383 65.9521 42.4141 66.1486C42.5216 66.3232 42.5973 66.5217 42.6367 66.732Z" fill="#455A64"/>
<g opacity="0.3">
<path opacity="0.3" d="M48.5164 64.9941L50.0085 67.3626L48.811 67.4768L48.5164 64.9941Z" fill="black"/>
</g>
<path d="M52.7744 50.8377L53.5268 51.0586C54.2242 51.1902 54.6099 51.2945 54.8473 51.1406C55.1652 50.9345 54.877 50.5472 54.877 50.5472C54.877 50.5472 55.4153 50.5 55.4471 50.1351C55.4482 50.0579 55.4283 49.9823 55.3901 49.9193C55.352 49.8564 55.2977 49.8093 55.2352 49.785C55.2352 49.785 55.7142 49.7205 55.8477 49.5367C56.03 49.2885 55.7587 49.0402 55.7587 49.0402C56.4476 48.7919 56.4878 48.3525 56.3607 48.2681C56.2335 48.1837 55.7142 48.2929 55.7142 48.2929C55.2903 48.2929 54.1436 48.3575 54.6926 47.7964C55.2415 47.2353 55.4811 46.555 55.4365 46.3067C55.4204 46.2544 55.3909 46.2092 55.352 46.1773C55.3131 46.1453 55.2668 46.1282 55.2193 46.1282C55.1718 46.1282 55.1255 46.1453 55.0866 46.1773C55.0477 46.2092 55.0182 46.2544 55.002 46.3067C54.8801 46.5577 54.7289 46.7875 54.5527 46.9895C54.4165 47.1596 54.2567 47.3015 54.08 47.4091C53.8681 47.5307 53.6943 47.6251 53.5395 47.702L52.2678 49.1693L52.7744 50.8377Z" fill="#FFBE9D"/>
<path d="M110.789 30.0202C98.7071 27.468 86.7042 29.4616 75.229 34.5263C63.6908 39.6419 53.5423 48.3039 45.85 59.6017L45.354 58.6731C53.0321 47.3585 63.1847 38.6931 74.7321 33.5983C86.2795 28.5036 98.7898 27.1701 110.933 29.7397L110.789 30.0202Z" fill="#263238"/>
<path d="M53.0224 55.1104C54.0092 55.1104 54.8091 54.1734 54.8091 53.0175C54.8091 51.8616 54.0092 50.9246 53.0224 50.9246C52.0356 50.9246 51.2356 51.8616 51.2356 53.0175C51.2356 54.1734 52.0356 55.1104 53.0224 55.1104Z" fill="#263238"/>
<path d="M52.5603 55.1104C53.5471 55.1104 54.3471 54.1734 54.3471 53.0175C54.3471 51.8616 53.5471 50.9246 52.5603 50.9246C51.5735 50.9246 50.7736 51.8616 50.7736 53.0175C50.7736 54.1734 51.5735 55.1104 52.5603 55.1104Z" fill="#455A64"/>
<path d="M52.663 52.9033L49.7196 54.4978L49.8086 54.7231L52.7519 53.1286L52.663 52.9033Z" fill="#EBECF0"/>
<path d="M109.775 88.694C109.775 88.694 109.775 88.5922 109.775 88.3986C109.775 88.2049 109.775 87.902 109.775 87.5321C109.775 86.7699 109.792 85.6452 109.805 84.1929C109.835 81.2806 109.877 77.0576 109.93 71.7942C110.047 61.2651 110.21 46.5774 110.392 29.9457L110.473 30.0028C109.254 30.7253 107.982 31.4676 106.585 31.8673C105.882 32.0633 105.163 32.169 104.44 32.1826C103.709 32.2093 102.978 32.1478 102.257 31.9989C101.162 31.7355 100.099 31.3188 99.0886 30.7576C98.0797 30.2287 97.1068 29.6379 96.1213 29.1115H96.1742C93.9572 30.8866 91.4775 32.1629 88.8618 32.8753C87.603 33.2079 86.313 33.3505 85.0233 33.2998C83.7709 33.2476 82.5337 32.961 81.3586 32.4508L81.4201 32.4284C80.5032 34.076 79.3254 35.5028 77.9504 36.6316C76.6549 37.7024 75.2177 38.516 73.6965 39.0399C70.9477 40.0173 68.0059 39.9565 65.2883 38.8661L65.3413 38.8264C65.1845 40.3915 64.8086 41.9156 64.2285 43.3374C63.7155 44.6052 63.0495 45.78 62.251 46.8256C61.5513 47.7317 60.7606 48.5353 59.8962 49.219C59.1865 49.8163 58.4205 50.3161 57.6134 50.7086C56.9612 51.0096 56.2722 51.1873 55.5723 51.2349C55.0609 51.2632 54.5484 51.2425 54.0399 51.1729C53.6287 51.1158 53.3171 51.0562 53.1094 51.009C52.9017 50.9618 52.7936 50.937 52.7936 50.937C52.7936 50.937 52.9017 50.9544 53.1094 50.9966C53.3171 51.0388 53.6329 51.0934 54.0441 51.148C54.5516 51.2118 55.0626 51.2276 55.5723 51.1952C56.2668 51.1435 56.95 50.9634 57.5965 50.6614C58.3998 50.2623 59.1614 49.7567 59.8665 49.1544C60.7214 48.4708 61.5041 47.6707 62.198 46.771C62.9896 45.7273 63.6505 44.557 64.1607 43.2952C64.7333 41.8802 65.1035 40.3646 65.2565 38.809V38.7519L65.3031 38.7693C68.0056 39.8482 70.9295 39.9038 73.6605 38.9281C75.1702 38.4078 76.5967 37.6 77.8826 36.5373C79.247 35.4155 80.4155 33.998 81.3247 32.3614L81.3459 32.3192L81.3841 32.3366C82.549 32.8415 83.7756 33.124 85.017 33.1732C86.2989 33.2239 87.581 33.0821 88.8322 32.7512C91.434 32.0394 93.9006 30.7683 96.1064 29.0023L96.1319 28.9824L96.1594 28.9973C97.1492 29.5261 98.1221 30.1145 99.1268 30.6433C100.129 31.2025 101.184 31.6192 102.27 31.8847C102.983 32.0317 103.708 32.0924 104.432 32.0659C105.146 32.0528 105.857 31.9487 106.552 31.7556C107.931 31.3584 109.197 30.621 110.413 29.901L110.494 29.8539V29.9581C110.295 46.5923 110.121 61.2775 109.994 71.8066C109.928 77.07 109.873 81.2931 109.835 84.2053C109.816 85.6577 109.799 86.7823 109.788 87.5445C109.788 87.9244 109.775 88.2148 109.773 88.411C109.771 88.6071 109.775 88.694 109.775 88.694Z" fill="#EBECF0"/>
<path d="M56.3501 48.3103C55.7142 48.2929 55.1144 48.2482 54.4828 48.2705C54.3803 48.2681 54.2783 48.2875 54.1818 48.3276C54.1334 48.3487 54.0904 48.3839 54.057 48.43C54.0236 48.4761 54.0009 48.5315 53.991 48.5908C53.9897 48.6651 54.0082 48.738 54.0439 48.7994C54.0796 48.8608 54.1308 48.9076 54.1903 48.9334C54.3108 48.9773 54.4374 48.9942 54.5633 48.9831C55.0487 48.9831 55.7863 49.07 55.7863 49.07" fill="#FFBE9D"/>
<path d="M55.8922 49.0253C55.2564 49.0079 54.6587 48.9608 54.027 48.9856C53.924 48.9821 53.8213 49.0006 53.7239 49.0402C53.6679 49.0592 53.6186 49.099 53.5836 49.1536C53.5485 49.2083 53.5295 49.2748 53.5295 49.3431C53.5295 49.4114 53.5485 49.4779 53.5836 49.5326C53.6186 49.5872 53.6679 49.627 53.7239 49.646C53.8452 49.69 53.9725 49.7069 54.0991 49.6956C54.5824 49.7105 55.3199 49.7825 55.3199 49.7825" fill="#FFBE9D"/>
<path d="M55.2776 49.7155C54.7434 49.7006 54.239 49.6633 53.7091 49.6832C53.6226 49.68 53.5363 49.6961 53.4548 49.7304C53.4068 49.7452 53.3643 49.7782 53.3341 49.8242C53.3038 49.8702 53.2874 49.9267 53.2874 49.9848C53.2874 50.043 53.3038 50.0994 53.3341 50.1455C53.3643 50.1915 53.4068 50.2245 53.4548 50.2393C53.5562 50.2759 53.6626 50.2902 53.7685 50.2815C54.1754 50.2815 54.7964 50.3535 54.7964 50.3535" fill="#FFBE9D"/>
<path d="M55.8478 49.0701C55.5798 49.1119 55.3082 49.1119 55.0402 49.0701C54.7689 49.0712 54.4987 49.0294 54.2369 48.946C54.5056 48.9041 54.7779 48.9041 55.0466 48.946C55.3173 48.9433 55.587 48.985 55.8478 49.0701Z" fill="#EB996E"/>
<path d="M55.3412 49.8817C55.0878 49.9295 54.829 49.9211 54.5782 49.8569C54.3246 49.8337 54.0735 49.783 53.8279 49.7055C54.0818 49.6561 54.3415 49.6637 54.593 49.7278C54.8462 49.7495 55.0969 49.801 55.3412 49.8817Z" fill="#EB996E"/>
<path d="M55.0212 50.5747C54.7679 50.624 54.509 50.6165 54.2581 50.5523C54.0042 50.5308 53.7528 50.4793 53.5078 50.3984C53.7612 50.3506 54.0201 50.3591 54.2708 50.4232C54.5244 50.4465 54.7756 50.4972 55.0212 50.5747Z" fill="#EB996E"/>
<path d="M47.571 53.8492L49.5592 52.6327C49.8701 52.4523 50.2278 52.416 50.5606 52.5311C50.8934 52.6462 51.1769 52.9041 51.3544 53.2534L51.4244 53.3875L51.0598 56.1706L48.262 56.9452L47.571 53.8492Z" fill="#FFBE9D"/>
<path d="M32.5773 49.7155C33.2598 52.0939 34.2157 55.4257 34.8537 57.6453C35.0636 58.3764 35.4201 59.0379 35.8933 59.5744C36.3664 60.1109 36.9424 60.5067 37.5731 60.7288C38.3237 60.9917 39.1227 60.9995 39.877 60.7511L48.3149 57.1338L47.571 53.8045L39.0822 55.3339L37.6345 48.0372C37.551 47.6158 37.3927 47.2197 37.1699 46.8748C36.947 46.5298 36.6646 46.2437 36.3411 46.035C36.0176 45.8263 35.6602 45.6998 35.2922 45.6636C34.9242 45.6275 34.5538 45.6825 34.2051 45.8251C33.5512 46.092 33.0136 46.6502 32.7089 47.3786C32.4041 48.1069 32.3568 48.9466 32.5773 49.7155Z" fill="#30AD4C"/>
<path d="M40.5744 60.4284C40.5329 60.466 40.4881 60.4984 40.4409 60.5252C40.3854 60.5622 40.328 60.5954 40.2692 60.6245C40.1908 60.6679 40.1101 60.7052 40.0276 60.7362C39.4997 60.9466 38.9367 61.007 38.3849 60.9125C37.5632 60.7762 36.7919 60.3679 36.1615 59.7357C35.3987 58.9593 34.7903 57.9966 34.379 56.9153C33.9749 55.8377 33.6557 54.7192 33.4252 53.5736C33.1963 52.5284 33.0119 51.5875 32.8487 50.7855C32.6855 49.9836 32.5647 49.3605 32.4735 48.9012C32.4332 48.6901 32.4015 48.5188 32.376 48.3897C32.3619 48.3306 32.3534 48.2698 32.3506 48.2085C32.3701 48.2649 32.3857 48.323 32.3972 48.3823L32.5138 48.8912L32.925 50.7632C33.0967 51.5552 33.2895 52.5011 33.5227 53.5438C33.7576 54.6783 34.0767 55.7865 34.4765 56.8558C34.8809 57.9233 35.4782 58.8754 36.2272 59.6463C36.8415 60.2695 37.5927 60.6781 38.3955 60.8256C38.937 60.9258 39.4908 60.8799 40.0149 60.6915C40.3837 60.55 40.5681 60.4135 40.5744 60.4284Z" fill="#263238"/>
<path d="M34.6143 44.7352C34.6366 44.7242 34.6602 44.7167 34.6842 44.7128L34.8962 44.6607C34.9428 44.6607 34.9958 44.6334 35.053 44.6259H35.2438C35.3178 44.6185 35.3923 44.6185 35.4663 44.6259L35.7185 44.6731C36.1431 44.8003 36.5173 45.0949 36.7783 45.5073C37.1107 46.048 37.3286 46.6734 37.4142 47.3321C37.8105 49.1792 38.3023 51.4782 38.8343 53.9683C38.9318 54.4301 39.0293 54.8845 39.1204 55.3165L39.0589 55.2693L45.1929 54.1471L47.0178 53.8268L47.5117 53.7449L47.6834 53.725C47.6281 53.746 47.5714 53.7609 47.5138 53.7697L47.0242 53.874L45.2035 54.2315L39.0759 55.3959H39.0271L39.0144 55.3388C38.9233 54.9068 38.8258 54.4525 38.7262 53.9882C38.2026 51.5055 37.7173 49.1966 37.3273 47.347C37.2443 46.7035 37.0346 46.0915 36.7147 45.5594C36.4667 45.1557 36.1086 44.8632 35.6995 44.7302L35.4557 44.6781C35.3852 44.6712 35.3143 44.6712 35.2438 44.6781H35.0551C34.9979 44.6781 34.947 44.6954 34.9004 44.7029L34.6884 44.7401C34.6636 44.742 34.6387 44.7403 34.6143 44.7352Z" fill="#263238"/>
<g opacity="0.3">
<path opacity="0.3" d="M32.4925 48.8963C32.4268 48.8963 32.6854 52.0022 32.5816 53.5886C32.4777 55.1751 32.4374 56.8162 32.9419 58.3058C33.4463 59.7954 34.3132 60.9573 35.6718 60.9201L36.9139 60.4235C36.9139 60.4235 36.2314 59.778 35.9961 59.5173C34.8028 58.1941 34.3153 56.5108 33.7876 54.6885C33.2275 52.7986 32.7945 50.8603 32.4925 48.8914" fill="black"/>
</g>
<path d="M12.2064 71.4815L10.1377 63.8298H20.1907L19.4319 72.065L12.2064 71.4815Z" fill="#EBEBEB"/>
<path d="M2.08984 66.2751C2.08984 66.2751 9.37047 80.2974 16.7507 82.7503L64.8283 82.1644C64.8283 82.1644 76.4858 71.6154 78.7346 58.8816H77.0877L76.4943 61.1731C76.4943 61.1731 69.4213 65.925 46.3798 67.6778C23.3383 69.4306 5.58073 68.2613 5.58073 68.2613L4.08433 65.925L2.08984 66.2751Z" fill="#30AD4C"/>
<g opacity="0.4">
<path opacity="0.4" d="M2.08984 66.2751C2.08984 66.2751 9.37047 80.2974 16.7507 82.7503L64.8283 82.1644C64.8283 82.1644 76.4858 71.6154 78.7346 58.8816H77.0877L76.4943 61.1731C76.4943 61.1731 69.4213 65.925 46.3798 67.6778C23.3383 69.4306 5.58073 68.2613 5.58073 68.2613L4.08433 65.925L2.08984 66.2751Z" fill="black"/>
</g>
<path d="M19.4362 82.2761C19.1921 82.3015 18.9462 82.289 18.705 82.2389C18.0457 82.1005 17.4149 81.8166 16.8461 81.4022C16.0105 80.7876 15.2123 80.1057 14.4574 79.3614C13.5926 78.5421 12.6664 77.6037 11.7317 76.5709C10.1373 74.8077 8.64999 72.9162 7.28063 70.9103C6.7571 70.1382 6.34803 69.5001 6.07461 69.0532L5.76304 68.5343C5.72428 68.4756 5.68955 68.4133 5.65918 68.3481C5.70336 68.4013 5.74376 68.4586 5.77999 68.5195L6.10852 69.016C6.39466 69.4529 6.81009 70.0836 7.33998 70.8457C8.72445 72.8324 10.2161 74.7132 11.8059 76.4765C12.7363 77.5069 13.6583 78.4453 14.5189 79.2671C15.2706 80.0137 16.0636 80.7012 16.8928 81.3253C17.4519 81.7392 18.07 82.0319 18.7177 82.1892C18.8947 82.2285 19.0739 82.2525 19.2539 82.2612L19.4362 82.2761Z" fill="#263238"/>
<path d="M77.1641 59.1499C77.1608 59.1746 77.1551 59.1987 77.1471 59.2219L77.0856 59.4255C77.0263 59.6117 76.9458 59.8724 76.8398 60.2051C76.7868 60.3739 76.7274 60.5626 76.6617 60.7661C76.596 60.9697 76.5134 61.1907 76.4286 61.4265C76.259 61.9007 76.0767 62.4445 75.8415 63.0279L75.4833 63.949C75.3561 64.2668 75.212 64.592 75.07 64.9421C74.7881 65.6248 74.4532 66.3349 74.1077 67.0846C73.3934 68.5743 72.5562 70.1756 71.5981 71.8018C70.6401 73.4279 69.6355 74.8878 68.6901 76.1862C68.2069 76.8243 67.7533 77.44 67.3018 77.9837C67.0772 78.2568 66.8673 78.5299 66.6554 78.7782L66.0407 79.4907C65.655 79.95 65.2819 80.3373 64.9619 80.6874L64.5125 81.169L64.1225 81.5613L63.582 82.1L63.44 82.2366L63.3892 82.2813L63.4337 82.2267L63.5693 82.0802L64.095 81.4943L64.4765 81.0946L64.9195 80.598C65.2353 80.243 65.6041 79.8532 65.9792 79.3889L66.5875 78.6714C66.7995 78.4232 67.0115 78.1476 67.2234 77.872C67.6706 77.3258 68.12 76.7126 68.599 76.072C69.5401 74.7711 70.5299 73.3013 71.4943 71.6925C72.4587 70.0837 73.2874 68.4799 74.0059 67.0002C74.3536 66.2554 74.6906 65.5454 74.9746 64.8651C75.1187 64.5274 75.265 64.2022 75.3985 63.8844L75.7652 62.9683C76.0047 62.3898 76.1891 61.8486 76.365 61.3794L76.6066 60.7239C76.6745 60.5204 76.738 60.3342 76.7953 60.1653C76.9076 59.8376 76.9945 59.5794 77.0581 59.3957L77.1302 59.1971C77.1404 59.1803 77.1517 59.1645 77.1641 59.1499Z" fill="#263238"/>
<path d="M66.8736 78.4207L66.738 78.4381L66.3395 78.4753C65.9898 78.5076 65.4726 78.5448 64.8071 78.592C63.476 78.6814 61.5472 78.7757 59.1649 78.8204C56.7825 78.8651 53.9402 78.8527 50.7906 78.8552H40.5362L21.9054 78.8229L16.259 78.7981L14.7244 78.7856H14.326H14.1903C14.1903 78.7856 14.2348 78.7856 14.326 78.7856H14.7244L16.259 78.7732L21.9054 78.7558H40.5362L50.7906 78.7683C53.9423 78.7683 56.7804 78.7956 59.1628 78.7683C61.5451 78.7409 63.4739 78.6541 64.805 78.5821L66.3374 78.4877L66.738 78.4629C66.827 78.4182 66.8736 78.4207 66.8736 78.4207Z" fill="#263238"/>
<path d="M71.7062 71.4814L71.5473 71.5162L71.0831 71.6031L69.29 71.9333C68.9021 72.0127 68.4655 72.0624 67.9886 72.1269L66.4392 72.3305C66.1615 72.3628 65.8733 72.41 65.5765 72.4373L64.6545 72.5242L62.6516 72.7104C57.0305 73.1672 49.2454 73.3211 40.6507 73.274L28.5354 73.2069C24.8114 73.1846 21.4582 73.2069 18.6414 73.2268C17.234 73.2268 15.9602 73.2715 14.841 73.2889C13.7219 73.3062 12.7596 73.3385 11.9733 73.3658L10.1611 73.4229H9.68843C9.58245 73.4229 9.52734 73.4229 9.52734 73.4229C9.52734 73.4229 9.58245 73.4229 9.68843 73.4229L10.159 73.3981L11.9712 73.3186C12.7596 73.2814 13.7219 73.2417 14.841 73.2193C15.9602 73.197 17.2319 73.1473 18.6414 73.1374C21.4561 73.0952 24.8114 73.0753 28.5354 73.0902L40.6507 73.1473C49.2433 73.1945 57.0263 73.0555 62.6473 72.621L64.6503 72.4447L65.5702 72.3628C65.869 72.3355 66.1552 72.2933 66.4328 72.261L67.9843 72.0674C68.4591 72.0078 68.8957 71.9606 69.2836 71.8861L71.0788 71.5808L71.5452 71.5038L71.7062 71.4814Z" fill="#263238"/>
<path d="M37.5434 78.8005C37.5033 78.5325 37.4841 78.2607 37.4862 77.9886C37.4713 77.4921 37.4735 76.792 37.4862 76.0273C37.4989 75.2626 37.5116 74.6072 37.5222 74.0684C37.5144 73.7976 37.5208 73.5265 37.5413 73.2566C37.5843 73.5242 37.6041 73.7962 37.6006 74.0684C37.6155 74.565 37.6133 75.2651 37.6006 76.0298C37.5879 76.7944 37.5773 77.4499 37.5667 77.9886C37.574 78.2596 37.5662 78.5307 37.5434 78.8005Z" fill="#263238"/>
<path d="M51.8206 82.1794C51.8009 81.1596 51.8547 80.1397 51.9817 79.1306C52.0017 80.1504 51.9478 81.1703 51.8206 82.1794Z" fill="#263238"/>
<path d="M55.7376 66.5085C55.7673 66.5085 55.7715 67.9485 55.7376 69.7212C55.7037 71.4938 55.6656 72.9313 55.6338 72.9288C55.602 72.9263 55.5999 71.4913 55.6338 69.7187C55.6677 67.946 55.708 66.5085 55.7376 66.5085Z" fill="#263238"/>
<path d="M25.3052 68.3557C25.3206 69.1748 25.3008 69.9943 25.2458 70.8111C25.2254 71.6291 25.1688 72.4454 25.0763 73.2566C25.0582 72.4383 25.0781 71.6195 25.1356 70.8037C25.1537 69.9847 25.2104 69.1674 25.3052 68.3557Z" fill="#263238"/>
<path d="M5.00635 83.3363C6.47519 81.2409 9.14369 80.9728 11.4243 81.4346C13.7049 81.8963 15.9368 82.9242 18.2471 82.7901C21.9796 82.5816 25.4409 79.3938 29.1225 80.1386C31.4243 80.6053 33.4782 82.5841 35.8075 82.373C38.5396 82.1248 40.5341 78.9816 43.2429 78.4826C46.9033 77.8098 50.0615 82.1595 53.7664 82.0602C56.9118 81.9733 59.6566 78.6713 62.7723 79.1927C65.0678 79.5775 66.8228 81.9634 69.1077 82.4326C70.9983 82.8199 72.8656 81.8318 74.699 81.1739C76.5324 80.516 81.6214 79.8853 83.1984 84.2549" fill="white"/>
<path d="M5.02332 83.3563C7.35482 80.2778 11.1022 81.328 14.061 82.1572C15.5447 82.5718 17.0517 82.9492 18.5842 82.7928C19.9555 82.6562 21.276 82.1398 22.5668 81.6085C24.0505 81.0002 25.5532 80.3076 27.1301 80.1189C28.8788 79.9029 30.3879 80.536 31.9712 81.3131C34.2497 82.4328 36.1721 82.8374 38.4019 81.3801C39.5676 80.6179 40.6295 79.6422 41.861 79.0215C43.2811 78.304 44.7266 78.3462 46.1742 78.9197C48.493 79.8383 50.549 81.7649 53.0394 82.0653C55.7546 82.393 57.9928 80.2455 60.4981 79.4535C62.2064 78.9123 63.7219 79.3517 65.2374 80.3498C66.3417 81.0747 67.4036 81.9586 68.6287 82.3508C71.3841 83.2223 73.9275 81.0871 76.6172 80.8016C79.1925 80.5285 82.003 81.2982 83.1624 84.2774C83.1772 84.3146 83.2238 84.2774 83.209 84.2451C81.3777 79.528 76.401 80.5211 73.0203 81.7848C71.0598 82.5296 69.2327 82.7779 67.3357 81.6805C66.1022 80.9655 64.9936 79.9426 63.6795 79.4287C61.0047 78.3835 58.6053 80.3721 56.1912 81.4148C54.6885 82.1183 53.023 82.1833 51.4837 81.5986C50.1081 81.0698 48.8512 80.2107 47.5434 79.5056C45.3179 78.309 43.2429 77.9962 41.0365 79.4113C39.8241 80.1909 38.7325 81.2162 37.4523 81.8468C35.797 82.6612 34.2179 82.3136 32.6049 81.5564C31.3014 80.9431 30.0276 80.1884 28.6096 80.032C27.1513 79.8731 25.7122 80.2927 24.3366 80.819C22.7045 81.4446 21.1064 82.254 19.4065 82.5991C17.1916 83.051 15.0742 82.3632 12.9335 81.7773C10.2565 81.0325 6.99873 80.6427 4.97457 83.3141C4.95337 83.3439 4.98941 83.3886 5.01272 83.3563H5.02332Z" fill="#263238"/>
<path d="M110.445 89.4809C110.418 89.499 110.389 89.5124 110.358 89.5207C110.301 89.5405 110.218 89.5728 110.108 89.6051C109.796 89.6983 109.479 89.7671 109.159 89.8111C108.1 89.9606 107.027 89.8678 105.998 89.538C105.705 89.4519 105.421 89.3295 105.151 89.1731C104.883 89.0256 104.668 88.7736 104.542 88.4605C104.444 88.1678 104.444 87.8421 104.542 87.5494C104.624 87.2994 104.753 87.0744 104.919 86.8915C105.163 86.6393 105.442 86.4377 105.744 86.2956C105.848 86.2435 105.931 86.2063 105.986 86.1814C106.041 86.1566 106.073 86.1467 106.075 86.1516C105.974 86.2235 105.869 86.2873 105.761 86.3428C105.473 86.4981 105.208 86.705 104.975 86.956C104.82 87.1325 104.702 87.3483 104.629 87.5866C104.54 87.8532 104.54 88.1493 104.629 88.4159C104.748 88.7011 104.948 88.9292 105.195 89.0614C105.463 89.2132 105.743 89.3314 106.032 89.4139C107.048 89.7386 108.106 89.8421 109.154 89.7193C109.472 89.684 109.789 89.6293 110.102 89.5554C110.215 89.5215 110.329 89.4966 110.445 89.4809Z" fill="#263238"/>
<path d="M109.686 91.3826C109.625 91.4036 109.563 91.4185 109.5 91.4273C109.377 91.4497 109.197 91.4894 108.961 91.5217C108.3 91.626 107.634 91.6865 106.967 91.7029C105.975 91.7304 104.983 91.6699 103.999 91.5217C103.446 91.4348 102.868 91.3181 102.272 91.1642C101.653 91.0244 101.048 90.8098 100.466 90.5236C99.8833 90.2083 99.3217 89.759 99.0461 89.0837C98.9164 88.7542 98.87 88.388 98.9126 88.0285C98.9603 87.6881 99.0718 87.3642 99.239 87.0801C99.5505 86.5713 99.9349 86.1295 100.375 85.7742C100.746 85.4516 101.136 85.1588 101.541 84.8978C102.126 84.5183 102.742 84.2097 103.381 83.9767C103.605 83.8923 103.783 83.8377 103.904 83.8054C103.965 83.7835 104.027 83.7685 104.091 83.7607C104.032 83.7889 103.972 83.8122 103.91 83.8303C103.792 83.8725 103.616 83.9345 103.393 84.0239C102.764 84.2741 102.157 84.5933 101.579 84.9773C101.18 85.2407 100.796 85.5352 100.43 85.8586C100.002 86.2106 99.6275 86.6455 99.3238 87.1447C99.1672 87.4157 99.0623 87.7231 99.0164 88.0459C98.9772 88.3844 99.0213 88.7289 99.1436 89.039C99.4001 89.6671 99.9406 90.1065 100.513 90.4144C101.087 90.6967 101.684 90.9097 102.295 91.05C102.887 91.2039 103.463 91.3206 104.014 91.41C104.991 91.5634 105.977 91.6331 106.963 91.6185C107.81 91.6185 108.484 91.5391 108.953 91.4795C109.188 91.4546 109.377 91.4249 109.491 91.4075C109.556 91.3933 109.621 91.385 109.686 91.3826Z" fill="#263238"/>
<path d="M112.923 88.1306C113.005 88.0714 113.091 88.0216 113.181 87.9816C113.42 87.8595 113.651 87.7202 113.874 87.5645C114.205 87.3408 114.477 87.0154 114.661 86.6236C114.767 86.3947 114.824 86.1392 114.828 85.8788C114.83 85.603 114.755 85.3341 114.616 85.1116C114.316 84.6944 113.898 84.4177 113.438 84.332C113.057 84.2648 112.672 84.2391 112.287 84.2551C112.024 84.2619 111.762 84.2503 111.501 84.2203C111.404 84.2149 111.308 84.194 111.217 84.1582C111.312 84.1546 111.408 84.1588 111.503 84.1706C111.687 84.1706 111.954 84.1706 112.285 84.1706C112.676 84.1419 113.069 84.1594 113.457 84.2228C113.687 84.2672 113.911 84.3508 114.12 84.4711C114.35 84.6029 114.55 84.7949 114.705 85.0321C114.86 85.2763 114.944 85.5721 114.945 85.8763C114.939 86.1563 114.876 86.4305 114.76 86.6757C114.561 87.0835 114.267 87.4167 113.913 87.6365C113.683 87.7886 113.442 87.9182 113.194 88.0238C113.107 88.0712 113.016 88.1071 112.923 88.1306Z" fill="#263238"/>
<path d="M115.174 89.8931C115.218 89.863 115.265 89.8381 115.314 89.8187L115.723 89.625C116.225 89.3985 116.711 89.1236 117.175 88.8032C117.489 88.5778 117.779 88.3076 118.037 87.9988C118.331 87.6408 118.562 87.2192 118.718 86.7575C118.895 86.2533 118.933 85.6971 118.828 85.1661C118.7 84.5997 118.426 84.0938 118.042 83.7186C117.657 83.3391 117.221 83.0363 116.753 82.8224C116.315 82.6212 115.863 82.465 115.403 82.3556C114.622 82.1597 113.825 82.0706 113.027 82.09C112.489 82.1003 111.952 82.1593 111.422 82.2663C111.234 82.3035 111.087 82.3358 110.998 82.3606L110.846 82.3879C110.893 82.3638 110.942 82.3455 110.992 82.3333C111.089 82.301 111.234 82.2613 111.416 82.2166C111.947 82.0904 112.485 82.0173 113.027 81.9981C113.832 81.9682 114.638 82.0515 115.426 82.2464C116.306 82.4649 117.304 82.8125 118.116 83.6268C118.517 84.0204 118.804 84.5506 118.936 85.1437C119.043 85.7004 119 86.282 118.815 86.8096C118.651 87.2821 118.411 87.713 118.107 88.0783C117.841 88.3913 117.542 88.6633 117.217 88.8876C116.745 89.2045 116.248 89.4688 115.733 89.6771C115.553 89.7541 115.413 89.8112 115.309 89.8484C115.266 89.8688 115.22 89.8838 115.174 89.8931Z" fill="#263238"/>
<path d="M59.8916 12.1817C61.8061 9.93907 61.8061 6.30312 59.8916 4.06053C57.9771 1.81795 54.873 1.81795 52.9584 4.06053C51.0439 6.30312 51.0439 9.93907 52.9584 12.1817C54.873 14.4242 57.9771 14.4242 59.8916 12.1817Z" fill="#FA8231"/>
<g opacity="0.4">
<path opacity="0.4" d="M59.8916 12.1817C61.8061 9.93907 61.8061 6.30312 59.8916 4.06053C57.9771 1.81795 54.873 1.81795 52.9584 4.06053C51.0439 6.30312 51.0439 9.93907 52.9584 12.1817C54.873 14.4242 57.9771 14.4242 59.8916 12.1817Z" fill="white"/>
</g>
<path d="M141.482 68.8323C141.338 68.8903 141.193 68.9384 141.045 68.9763C140.619 69.0877 140.184 69.1418 139.748 69.1377C139.057 69.1247 138.37 69.0189 137.7 68.8224C136.817 68.5597 135.951 68.2279 135.106 67.8293C134.088 67.3376 133.043 66.923 131.98 66.588C130.752 66.2318 129.473 66.1945 128.232 66.4787C127.563 66.6377 126.903 66.8467 126.257 67.1044C125.598 67.37 124.93 67.6704 124.254 67.9882C122.904 68.6139 121.498 69.2917 119.977 69.6641C118.49 70.0006 116.964 70.0099 115.475 69.6914C114.095 69.4022 112.73 69.0184 111.388 68.5419C110.102 68.1124 108.877 67.7102 107.711 67.447C106.632 67.1837 105.531 67.0654 104.43 67.0945C102.406 67.1838 100.839 67.9485 99.9173 68.6958C99.5603 68.9834 99.2274 69.3101 98.9232 69.6715L98.6943 69.9645C98.6434 70.0315 98.6138 70.0638 98.6138 70.0638C98.6138 70.0638 98.6371 70.0265 98.6858 69.957L98.8978 69.6541C99.1978 69.2852 99.5287 68.9525 99.8855 68.661C100.805 67.8964 102.38 67.1118 104.419 67.01C105.526 66.9699 106.634 67.0798 107.719 67.3378C108.891 67.586 110.121 67.9957 111.407 68.4202C112.746 68.8919 114.107 69.2732 115.483 69.5623C116.96 69.8762 118.473 69.8661 119.947 69.5325C121.454 69.1626 122.853 68.4897 124.205 67.8641C124.881 67.5488 125.551 67.2484 126.217 66.9827C126.867 66.7229 127.531 66.5139 128.205 66.3571C129.46 66.0729 130.753 66.1145 131.992 66.4787C133.059 66.822 134.105 67.2449 135.125 67.7449C135.966 68.1443 136.828 68.4785 137.707 68.7455C138.371 68.9461 139.053 69.0585 139.739 69.0806C140.172 69.0878 140.605 69.042 141.03 68.9441C141.178 68.9143 141.287 68.8721 141.361 68.8547C141.435 68.8373 141.482 68.8323 141.482 68.8323Z" fill="#263238"/>
<path d="M124.462 42.2673C124.602 42.1159 126.543 36.0432 126.49 35.5144C126.437 34.9856 126.164 27.9719 126.164 27.9719L124.585 37.7885L124.462 42.2673Z" fill="#30AD4C"/>
<path d="M123.563 47.8484C123.563 47.8484 123.597 45.0976 123.251 44.678C122.906 44.2585 118.453 37.8282 118.453 37.8282L115.805 36.3535L117.887 38.434L123.563 47.8484Z" fill="#30AD4C"/>
<path d="M127.192 42.3989L123.455 52.5557L122.656 53.2235L123.029 50.3759L127.192 42.3989Z" fill="#30AD4C"/>
<path d="M128.33 52.27L123.62 58.74L121.568 59.1074L123.783 56.153L128.33 52.27Z" fill="#30AD4C"/>
<path d="M117.624 53.5662L119.216 61.8609L120.884 63.3083L120.102 59.4849L117.624 53.5662Z" fill="#30AD4C"/>
<path d="M123.908 63.708L121.399 67.802L120.066 67.73L120.286 66.6897L123.908 63.708Z" fill="#30AD4C"/>
<path d="M119.674 70.1755C119.712 70.1755 120.882 63.6261 122.287 55.5275C123.692 47.4289 124.799 40.8522 124.76 40.8423C124.722 40.8324 123.55 47.3917 122.145 55.4903C120.74 63.5889 119.633 70.1655 119.674 70.1755Z" fill="#263238"/>
<path d="M6.63205 27.6938C6.61509 27.4828 4.75625 13.6218 4.75625 13.6218L4.38745 20.0421L6.63205 27.6938Z" fill="#30AD4C"/>
<g opacity="0.3">
<path opacity="0.3" d="M6.63205 27.6938C6.61509 27.4828 4.75625 13.6218 4.75625 13.6218L4.38745 20.0421L6.63205 27.6938Z" fill="black"/>
</g>
<path d="M8.23011 42.9799C8.16864 42.826 6.95838 40.4054 6.95838 40.4054L1.97534 34.427L5.33058 41.247L8.23011 42.9799Z" fill="#30AD4C"/>
<path d="M9.06315 46.6815L9.91097 43.4167L9.2857 38.9404L8.89783 44.8269L9.06315 46.6815Z" fill="#30AD4C"/>
<path d="M9.98089 53.7251C10.0084 53.7251 9.23269 47.5332 8.25134 39.9088C7.26999 32.2844 6.45185 26.1025 6.4243 26.1074C6.39674 26.1124 7.17249 32.2968 8.15596 39.9262C9.13943 47.5555 9.95545 53.73 9.98089 53.7251Z" fill="#263238"/>
<path d="M8.35733 19.8758C8.43363 19.707 8.24075 14.4809 8.06695 14.0737C7.89315 13.6666 5.93469 8.11523 5.93469 8.11523L7.09832 16.5415L8.35733 19.8758Z" fill="#30AD4C"/>
<path d="M9.19455 26.2563C9.19455 26.2563 8.5375 24.0218 8.15598 23.8108C7.77446 23.5998 2.60066 19.9403 2.60066 19.9403L0.105957 19.6572L2.29544 20.6205L9.19455 26.2563Z" fill="#30AD4C"/>
<path d="M10.5893 18.7461L10.106 28.1779L9.62912 28.9873L9.22217 26.5741L10.5893 18.7461Z" fill="#30AD4C"/>
<path d="M14.0738 26.5146L11.8928 33.3173L10.335 34.3128L11.382 31.1821L14.0738 26.5146Z" fill="#30AD4C"/>
<path d="M10.6953 38.3371C10.5914 38.1906 8.64568 33.8236 8.64568 33.8236L4.32393 31.0305L2.60498 31.2415L3.85763 31.4377L10.6953 38.3371Z" fill="#30AD4C"/>
<path d="M13.4634 37.9995L12.4651 42.1432L11.3756 42.5404L11.293 41.6292L13.4634 37.9995Z" fill="#30AD4C"/>
<path d="M12.3738 53.6356C12.3993 53.6356 11.4434 45.8622 10.2352 36.2864C9.02709 26.7106 8.02666 18.9447 8.00123 18.9497C7.97579 18.9547 8.93171 26.7231 10.1377 36.3088C11.3437 45.8945 12.3463 53.6406 12.3738 53.6356Z" fill="#263238"/>
<g opacity="0.3">
<path opacity="0.3" d="M8.23011 42.9799C8.16864 42.826 6.95838 40.4054 6.95838 40.4054L1.97534 34.427L5.33058 41.247L8.23011 42.9799Z" fill="black"/>
</g>
<g opacity="0.3">
<path opacity="0.3" d="M9.06315 46.6815L9.91097 43.4167L9.2857 38.9404L8.89783 44.8269L9.06315 46.6815Z" fill="black"/>
</g>
<path d="M19.8071 52.0665C19.6062 51.8482 19.3826 51.6606 19.1416 51.5079C18.4557 51.1507 17.6914 51.0544 16.9563 51.2323C16.4487 51.3342 15.9544 51.5119 15.4854 51.7611C14.9746 52.0243 14.4489 52.3545 13.8851 52.6872C13.3008 53.0502 12.6846 53.3382 12.0475 53.5462C11.3534 53.7458 10.631 53.7712 9.92793 53.6207C9.22968 53.4662 8.54803 53.2222 7.8953 52.8932C7.25943 52.5854 6.66384 52.2527 6.09156 51.9498C5.09246 51.3731 4.01773 50.9971 2.91225 50.8376C2.4889 50.7881 2.06205 50.7973 1.64053 50.8649C1.32272 50.9219 1.01227 51.0253 0.716405 51.1727C0.529124 51.264 0.350177 51.3771 0.182281 51.5104L0.0487494 51.6122C0.0169562 51.6345 0.00211954 51.6444 0 51.642L0.0402718 51.5998L0.169563 51.488C0.334714 51.3455 0.512342 51.224 0.699449 51.1256C0.996681 50.9678 1.31018 50.8559 1.63205 50.7929C2.05845 50.7169 2.4911 50.701 2.92073 50.7457C4.03417 50.8956 5.11781 51.2659 6.12548 51.8406C6.70199 52.141 7.29758 52.4712 7.92921 52.7766C8.57536 53.1009 9.24985 53.3415 9.94065 53.4941C10.6296 53.6407 11.3371 53.617 12.0178 53.4245C12.6485 53.2193 13.2588 52.9364 13.8385 52.5804C14.4002 52.2527 14.9301 51.9225 15.4451 51.6643C15.9233 51.415 16.427 51.239 16.9436 51.1405C17.6922 50.9645 18.4692 51.0741 19.1607 51.4533C19.3421 51.5675 19.5102 51.7085 19.6609 51.8729L19.7711 52.0094C19.7854 52.0263 19.7975 52.0455 19.8071 52.0665Z" fill="#263238"/>
<path d="M90.017 3.21188C89.9647 3.23525 89.9108 3.25352 89.8559 3.2665C89.7499 3.30374 89.591 3.34098 89.3917 3.4105C86.9243 4.21213 84.7157 5.8539 83.0458 8.12764L83.0013 8.18971L82.9589 8.12516L82.6855 7.7031C81.9805 6.66474 81.1314 5.77261 80.1739 5.06398C78.862 4.09088 77.3811 3.47337 75.8394 3.25657C75.6274 3.22182 75.4473 3.21437 75.3328 3.19947C75.2731 3.19529 75.2137 3.187 75.1548 3.17464C75.214 3.16867 75.2736 3.16867 75.3328 3.17464C75.4494 3.17464 75.6232 3.17464 75.8436 3.2094C76.4684 3.27666 77.086 3.41552 77.6876 3.62401C78.584 3.93314 79.4398 4.38509 80.2311 4.96716C81.2028 5.67603 82.0632 6.57548 82.7745 7.62614L83.0501 8.05316H82.9653C84.2447 6.28943 85.8621 4.90527 87.6855 4.0138C88.2357 3.7465 88.8026 3.52904 89.3812 3.36333C89.5931 3.29878 89.7436 3.26899 89.8517 3.24168C89.906 3.22633 89.9613 3.21637 90.017 3.21188Z" fill="#263238"/>
<path d="M96.5875 12.0403C96.5875 12.0403 96.4688 11.9683 96.2484 11.8591C95.9364 11.7063 95.603 11.6221 95.2649 11.6108C94.7652 11.5941 94.2725 11.7514 93.8491 12.0626C93.3292 12.4437 92.9388 13.0248 92.7448 13.7062L92.7045 13.8502L92.6431 13.7161L92.6091 13.6416C92.3129 13.0013 91.8431 12.4947 91.2738 12.2017C90.8072 11.9649 90.2932 11.8858 89.7902 11.9733C89.451 12.0321 89.1232 12.1598 88.8215 12.3506C88.6096 12.4872 88.5015 12.5865 88.4951 12.5766C88.5158 12.5462 88.5401 12.5195 88.5672 12.4971C88.6413 12.4275 88.7192 12.3637 88.8003 12.3059C89.1003 12.0942 89.4319 11.951 89.7774 11.8839C90.2954 11.7796 90.8281 11.852 91.312 12.0924C91.907 12.3895 92.3981 12.9148 92.7045 13.582L92.7384 13.6565H92.6367C92.839 12.9461 93.2488 12.3421 93.794 11.9509C94.2358 11.6333 94.7492 11.4793 95.2671 11.509C95.6119 11.5265 95.9504 11.6236 96.2632 11.7945C96.3481 11.8396 96.4296 11.8927 96.507 11.9534C96.5375 11.9773 96.5647 12.0066 96.5875 12.0403Z" fill="#263238"/>
<path d="M83.8024 51.9498C85.427 51.9655 87.0221 51.4403 88.4018 50.4353C88.1041 50.5572 87.7867 50.5988 87.4734 50.557C87.8971 50.4103 88.2618 50.0906 88.5014 49.6558C87.0657 49.9467 85.6083 50.0648 84.1521 50.0083" fill="#263238"/>
<path d="M77.2615 54.3284V58.4546L75.3984 59.1994C75.3984 59.1994 76.0343 59.3956 75.9326 59.7705C75.9326 59.7705 76.4985 59.6091 76.6341 60.1826L77.5816 58.8767V54.3284H77.2615Z" fill="#263238"/>
<path d="M77.8507 56.2375C77.875 56.336 77.8726 56.441 77.8439 56.5379C77.8152 56.6348 77.7616 56.7189 77.6904 56.7787C77.6192 56.8385 77.534 56.8709 77.4464 56.8717C77.3589 56.8724 77.2733 56.8413 77.2014 56.7828C77.1295 56.7242 77.0748 56.641 77.045 56.5445C77.0151 56.4481 77.0114 56.3432 77.0345 56.2443C77.0576 56.1453 77.1063 56.0571 77.1739 55.9919C77.2415 55.9267 77.3247 55.8876 77.412 55.88C77.5104 55.861 77.6113 55.8878 77.6933 55.9545C77.7752 56.0213 77.8317 56.1228 77.8507 56.2375Z" fill="#263238"/>
<path d="M79.0144 54.3284V58.4546L77.1492 59.1994C77.1492 59.1994 77.785 59.3956 77.6833 59.7705C77.6833 59.7705 78.2492 59.6091 78.387 60.1826L79.3344 58.8767V54.3284H79.0144Z" fill="#263238"/>
<path d="M79.6014 56.2374C79.6258 56.3361 79.6234 56.4412 79.5946 56.5382C79.5659 56.6352 79.5121 56.7194 79.4408 56.7791C79.3695 56.8389 79.2842 56.8713 79.1965 56.8718C79.1088 56.8724 79.0232 56.8411 78.9513 56.7823C78.8794 56.7234 78.8249 56.6399 78.7953 56.5433C78.7656 56.4467 78.7622 56.3416 78.7857 56.2427C78.8091 56.1437 78.8581 56.0557 78.926 55.9907C78.9939 55.9258 79.0773 55.887 79.1648 55.8799C79.263 55.861 79.3636 55.8879 79.4452 55.9546C79.5268 56.0214 79.5828 56.1229 79.6014 56.2374Z" fill="#263238"/>
<path d="M72.6706 43.9236C72.6706 43.9236 73.3785 43.6753 73.6159 43.3699C73.8533 43.0645 74.6248 42.0119 75.6358 42.2924C76.6469 42.573 77.3569 43.4742 77.3315 44.3779C77.306 45.2816 77.3315 46.3938 77.3315 46.3938L85.5828 50.0459C85.5828 50.0459 82.9695 54.1498 79.7944 54.2889C79.7944 54.2889 79.4976 54.8102 79.1585 54.7854C78.8194 54.7606 78.4294 54.2889 78.4294 54.2889C78.4294 54.2889 76.1445 54.6364 74.6291 53.4894C73.1136 52.3424 71.8101 50.9844 71.8991 48.6904C71.9881 46.3963 73.6965 44.8645 73.6965 44.8645L72.6706 43.9236Z" fill="#FAFAFA"/>
<path d="M72.6706 43.9233L73.7176 44.8468L73.7367 44.8642L73.7176 44.8816C73.1829 45.4015 72.7376 46.036 72.4056 46.7511C72.1882 47.2199 72.0405 47.7287 71.969 48.2556C71.8913 48.8586 71.9252 49.4742 72.0686 50.0605C72.2332 50.7086 72.5233 51.3033 72.9164 51.7984C73.3525 52.3405 73.8429 52.819 74.3768 53.2235C74.6501 53.4489 74.9428 53.6403 75.25 53.7945C75.5728 53.943 75.9072 54.0544 76.2484 54.1272C76.9625 54.2768 77.6911 54.3069 78.4124 54.2166H78.4378L78.4569 54.2364C78.6358 54.4553 78.8611 54.6146 79.1097 54.6982C79.3556 54.7503 79.5866 54.4921 79.7456 54.2464L79.7625 54.2191H79.7901C81.0237 54.1446 82.2382 53.4991 83.2831 52.5755C84.1269 51.8372 84.8844 50.9725 85.5362 50.0034L85.5616 50.1002L77.3124 46.4382H77.2848V46.4035C77.27 45.7083 77.2678 45.043 77.2848 44.4173C77.295 44.1179 77.2334 43.8212 77.1068 43.5608C76.9858 43.3151 76.827 43.0979 76.6383 42.9203C76.2976 42.5975 75.8905 42.3852 75.4578 42.3045C75.0857 42.2618 74.7122 42.3677 74.398 42.6049C74.1453 42.7887 73.9163 43.0136 73.7176 43.2728C73.5739 43.4735 73.3895 43.6288 73.1814 43.7246C73.016 43.8091 72.8846 43.8587 72.7977 43.8935C72.7533 43.9107 72.708 43.9248 72.6621 43.9357L72.7935 43.8786C72.8804 43.8413 73.0055 43.7842 73.1687 43.6973C73.3712 43.5986 73.5496 43.4425 73.6879 43.243C73.8869 42.9767 74.1175 42.7451 74.3726 42.5553C74.6931 42.3082 75.0754 42.1945 75.4578 42.2325C75.9037 42.3114 76.324 42.5263 76.6765 42.8557C76.873 43.0389 77.0384 43.2638 77.164 43.5186C77.2998 43.7915 77.3667 44.1041 77.3569 44.4198C77.3399 45.0479 77.3463 45.7108 77.3569 46.406L77.3293 46.3588L85.5955 49.9984L85.6655 50.0282L85.621 50.0953C84.9643 51.0748 84.2004 51.9488 83.3488 52.6947C82.289 53.6257 81.0597 54.2861 79.7943 54.3606L79.8367 54.3333C79.7527 54.4759 79.6488 54.6009 79.5294 54.7032C79.47 54.7577 79.4019 54.7978 79.3291 54.8212C79.2564 54.8447 79.1803 54.851 79.1055 54.8397C78.8358 54.7514 78.5913 54.5799 78.3976 54.3432L78.4421 54.3606C77.7092 54.4511 76.9691 54.4185 76.2441 54.2637C75.8972 54.1885 75.5573 54.0746 75.2289 53.9236C74.915 53.7638 74.616 53.5666 74.3365 53.3352C73.7985 52.9235 73.3046 52.4375 72.8656 51.8878C72.4621 51.3744 72.166 50.7582 72.0008 50.0878C71.8574 49.4878 71.8256 48.8588 71.9075 48.2432C71.9843 47.7076 72.1384 47.1913 72.3632 46.7163C72.7017 45.9963 73.1576 45.3612 73.7049 44.8468V44.8816C73.3672 44.5688 73.1107 44.3288 72.9355 44.1616L72.7426 43.9828L72.6706 43.9233Z" fill="#263238"/>
<path d="M85.0848 49.4026C84.1574 48.0548 82.9101 47.0587 81.5001 46.54C80.0902 46.0213 78.5807 46.0032 77.1619 46.4879L77.2255 46.4606C76.4477 46.5832 75.7044 46.9136 75.053 47.4264C74.7774 47.6448 74.4956 47.9527 74.5061 48.34C74.5167 48.7273 74.7584 48.9681 74.9936 49.1841C76.4094 50.4939 78.1397 51.2518 79.9418 51.3516C81.7439 51.4513 83.5275 50.8879 85.0424 49.7403C85.0918 49.7118 85.1298 49.6619 85.1484 49.6012C85.151 49.5647 85.1466 49.5279 85.1356 49.4936C85.1246 49.4592 85.1072 49.4282 85.0848 49.4026Z" fill="#EBEBEB"/>
<path d="M75.1801 43.7692C75.1742 43.8464 75.1438 43.9182 75.095 43.9705C75.0461 44.0228 74.9824 44.0518 74.9162 44.0518C74.85 44.0518 74.7862 44.0228 74.7374 43.9705C74.6886 43.9182 74.6582 43.8464 74.6523 43.7692C74.649 43.7263 74.6534 43.683 74.6652 43.6422C74.6769 43.6014 74.6958 43.5639 74.7206 43.5321C74.7455 43.5003 74.7757 43.4749 74.8093 43.4575C74.843 43.4401 74.8794 43.4312 74.9162 43.4312C74.953 43.4312 74.9894 43.4401 75.023 43.4575C75.0567 43.4749 75.0869 43.5003 75.1117 43.5321C75.1365 43.5639 75.1554 43.6014 75.1672 43.6422C75.179 43.683 75.1834 43.7263 75.1801 43.7692Z" fill="#263238"/>
<path d="M81.7337 48.618C81.7337 48.618 81.7062 48.6503 81.6447 48.695C81.5547 48.756 81.4595 48.8059 81.3607 48.8439C81.0061 48.9799 80.6237 48.9799 80.2691 48.8439L80.2988 48.7347C80.3498 48.7584 80.395 48.7964 80.4306 48.8454C80.4661 48.8943 80.4908 48.9527 80.5025 49.0155C80.5142 49.0783 80.5126 49.1435 80.4978 49.2053C80.483 49.2672 80.4554 49.3238 80.4175 49.3703C80.3349 49.46 80.2318 49.5196 80.1207 49.5416C80.0096 49.5637 79.8955 49.5473 79.7922 49.4944C79.6796 49.4439 79.5711 49.3816 79.468 49.3082L79.54 49.2164C79.5836 49.3064 79.6075 49.4077 79.6097 49.5112C79.6119 49.6147 79.5924 49.7172 79.5527 49.8097C79.4849 49.9786 79.3654 50.1115 79.2178 50.1821C78.975 50.2868 78.7071 50.2779 78.4696 50.1573C78.3197 50.082 78.1775 49.987 78.0457 49.8743C77.9525 49.7973 77.9037 49.7501 77.908 49.7427C77.9644 49.7645 78.0179 49.7954 78.0669 49.8345C78.2048 49.9331 78.3503 50.0162 78.5014 50.0828C78.7217 50.1825 78.9658 50.1825 79.1861 50.0828C79.31 50.0212 79.4092 49.9067 79.4637 49.7625C79.496 49.6897 79.5129 49.6088 79.5129 49.5267C79.5129 49.4446 79.496 49.3637 79.4637 49.2908L79.3493 49.0773L79.5358 49.2015C79.6341 49.2696 79.7369 49.3285 79.8431 49.3777C79.9265 49.4219 80.0188 49.4372 80.1094 49.4218C80.1999 49.4064 80.2847 49.3609 80.3539 49.2908C80.3797 49.2594 80.3988 49.2213 80.4095 49.1796C80.4203 49.1378 80.4225 49.0937 80.4158 49.0508C80.4092 49.0079 80.394 48.9675 80.3714 48.9328C80.3489 48.8982 80.3196 48.8703 80.2861 48.8514L80.3158 48.7397C80.653 48.8703 81.0155 48.8824 81.3586 48.7744C81.5939 48.6975 81.7253 48.6031 81.7337 48.618Z" fill="#263238"/>
<path d="M84.7795 49.8444C84.7795 49.8444 84.7689 49.8643 84.7435 49.8916C84.7181 49.9189 84.6799 49.9636 84.6269 50.0157C84.4714 50.1636 84.3039 50.2934 84.1267 50.403C83.483 50.8027 82.7446 50.9423 82.0262 50.8002L82.0496 50.696C82.2517 50.7783 82.4286 50.9286 82.5582 51.128L82.6049 51.1975L82.5286 51.2198C81.8954 51.391 81.2359 51.3773 80.6083 51.1801L80.2903 51.0808L80.621 51.056C80.6626 51.0552 80.7033 51.0707 80.7366 51.0999C80.77 51.1291 80.7942 51.1704 80.8054 51.2173C80.8313 51.2973 80.8313 51.3856 80.8054 51.4656C80.768 51.5407 80.7123 51.6009 80.6455 51.6386C80.5786 51.6762 80.5036 51.6894 80.4302 51.6766C78.9787 51.3765 77.5748 50.8181 76.2674 50.0207C75.7694 49.7153 75.3794 49.4397 75.1165 49.2361C74.983 49.1368 74.8855 49.0524 74.8156 48.9879C74.7803 48.9605 74.7469 48.9298 74.7159 48.896C74.7561 48.9126 74.7939 48.936 74.8283 48.9655L75.1399 49.184C75.4069 49.3727 75.8033 49.6358 76.3035 49.9288C76.891 50.2716 77.4962 50.5709 78.1157 50.8251C78.8697 51.14 79.6455 51.3784 80.4345 51.5376C80.5468 51.5376 80.674 51.5004 80.7036 51.406C80.7333 51.3117 80.7036 51.1577 80.6295 51.1577L80.6422 51.0336C81.2537 51.2257 81.8958 51.2419 82.5137 51.0808L82.4841 51.1726C82.3667 50.9905 82.207 50.8517 82.0241 50.7729L82.0496 50.6686C82.7495 50.8116 83.4701 50.6908 84.1076 50.3236C84.3425 50.1857 84.5672 50.0255 84.7795 49.8444Z" fill="#263238"/>
<path d="M75.2733 43.2603C75.2335 43.2819 75.19 43.2929 75.1461 43.2926C75.1081 43.2977 75.0697 43.2977 75.0317 43.2926C74.9939 43.2819 74.9575 43.2652 74.9236 43.2429C74.8825 43.2239 74.8461 43.1932 74.8176 43.1536C74.8032 43.1265 74.7981 43.0941 74.8032 43.0628C74.8083 43.0315 74.8233 43.0037 74.8452 42.9847C74.8795 42.9497 74.9206 42.9249 74.9648 42.9124C75.0091 42.8999 75.0553 42.9 75.0995 42.9127C75.1452 42.9208 75.1885 42.9421 75.2255 42.9746C75.2625 43.0071 75.292 43.0498 75.3115 43.0989C75.323 43.1267 75.3254 43.1584 75.3184 43.1881C75.3114 43.2178 75.2954 43.2435 75.2733 43.2603Z" fill="#263238"/>
<path d="M72.6706 43.9233C72.6706 43.9233 70.5998 43.7694 70.2776 45.9343L70.5828 45.7406C70.741 45.6391 70.9159 45.5782 71.0957 45.5619L73.2725 45.2913L73.7134 44.8642L72.6706 43.9233Z" fill="#30AD4C"/>
<path d="M72.5858 44.1442C72.5858 44.179 72.4671 44.2187 72.3188 44.246C72.1704 44.2733 72.0432 44.2808 72.0369 44.246C72.0305 44.2112 72.145 44.1467 72.2997 44.1194C72.4544 44.0921 72.5837 44.1095 72.5858 44.1442Z" fill="#263238"/>
<path d="M73.4844 45.1049C73.3261 45.1576 73.1634 45.19 72.9991 45.2018C72.6981 45.244 72.2805 45.2961 71.8185 45.3433C71.5875 45.3706 71.3649 45.383 71.172 45.4178C70.9998 45.441 70.8321 45.4981 70.676 45.5866C70.5365 45.6791 70.4112 45.7983 70.3051 45.9391C70.2924 45.9391 70.3624 45.6909 70.6379 45.5071C70.7986 45.4029 70.9736 45.3323 71.1551 45.2986C71.3564 45.2589 71.579 45.2415 71.8079 45.2142C72.2699 45.167 72.6875 45.1298 72.9927 45.1099C73.1558 45.0849 73.321 45.0833 73.4844 45.1049Z" fill="#263238"/>
</svg>
