<svg width="120" height="104" viewBox="0 0 120 104" fill="none" xmlns="http://www.w3.org/2000/svg">
<path d="M119.648 91.3936H0.352417V91.4633H119.648V91.3936Z" fill="#E0E0E0"/>
<path d="M91.272 93.5151H87.0132V93.5849H91.272V93.5151Z" fill="#E0E0E0"/>
<path d="M104.249 93.4817H93.8536V93.5515H104.249V93.4817Z" fill="#E0E0E0"/>
<path d="M74.2368 94.7043H58.7356V94.7741H74.2368V94.7043Z" fill="#E0E0E0"/>
<path d="M57.3612 94.7043H54.6842V94.7741H57.3612V94.7043Z" fill="#E0E0E0"/>
<path d="M32.9869 93.4119H22.9661V93.4817H32.9869V93.4119Z" fill="#E0E0E0"/>
<path d="M41.4258 93.4119H34.311V93.4817H41.4258V93.4119Z" fill="#E0E0E0"/>
<path d="M24.808 94.6709H16.3118V94.7407H24.808V94.6709Z" fill="#E0E0E0"/>
<path d="M56.8984 78.9435H10.829C10.4681 78.9428 10.1221 78.7745 9.86717 78.4757C9.6122 78.1768 9.46899 77.7718 9.46899 77.3496V1.57999C9.47214 1.16015 9.61673 0.758723 9.87136 0.462891C10.126 0.167059 10.4701 0.000719198 10.829 0H56.8984C57.2597 0 57.6062 0.167933 57.8617 0.466856C58.1172 0.765778 58.2607 1.1712 58.2607 1.59394V77.3496C58.2607 77.7723 58.1172 78.1777 57.8617 78.4767C57.6062 78.7756 57.2597 78.9435 56.8984 78.9435ZM10.829 0.0558301C10.4839 0.0565696 10.1531 0.217476 9.90935 0.503231C9.66556 0.788985 9.52864 1.17624 9.52864 1.57999V77.3496C9.52864 77.7533 9.66556 78.1406 9.90935 78.4263C10.1531 78.7121 10.4839 78.873 10.829 78.8737H56.8984C57.2437 78.873 57.5747 78.7122 57.8189 78.4265C58.063 78.1408 58.2005 77.7536 58.2011 77.3496V1.57999C58.2005 1.17598 58.063 0.788735 57.8189 0.50306C57.5747 0.217385 57.2437 0.0565681 56.8984 0.0558301H10.829Z" fill="#E0E0E0"/>
<path d="M108.508 78.9435H62.4361C62.075 78.9428 61.7288 78.7746 61.4735 78.4759C61.2181 78.1771 61.0744 77.7721 61.0737 77.3496V1.57999C61.0775 1.1599 61.2226 0.758471 61.4776 0.462716C61.7326 0.166962 62.077 0.000711354 62.4361 0H108.508C108.866 0.00145283 109.21 0.168118 109.464 0.463871C109.718 0.759624 109.862 1.16064 109.865 1.57999V77.3496C109.865 77.7713 109.723 78.1759 109.468 78.4747C109.214 78.7735 108.868 78.942 108.508 78.9435ZM62.4361 0.0558301C62.0908 0.0565681 61.7598 0.217385 61.5156 0.50306C61.2715 0.788735 61.134 1.17598 61.1334 1.57999V77.3496C61.134 77.7536 61.2715 78.1408 61.5156 78.4265C61.7598 78.7122 62.0908 78.873 62.4361 78.8737H108.508C108.853 78.873 109.184 78.7122 109.428 78.4265C109.673 78.1408 109.81 77.7536 109.811 77.3496V1.57999C109.81 1.17598 109.673 0.788735 109.428 0.50306C109.184 0.217385 108.853 0.0565681 108.508 0.0558301H62.4361Z" fill="#E0E0E0"/>
<path d="M68.4533 10.4402C67.2604 7.41138 68.2147 5.25635 71.1351 5.25635C72.9698 5.25635 75.246 6.0938 77.4625 7.48954C77.713 6.70234 78.4169 6.23058 79.5525 6.23058C81.5495 6.23058 84.3029 7.68774 86.4717 9.74507C86.9942 9.28727 87.7505 9.00533 88.7216 8.96066C90.6303 8.86854 92.947 9.70599 94.9607 11.0682C95.0786 10.9373 95.2176 10.835 95.3695 10.7675C95.5215 10.6999 95.6834 10.6683 95.8459 10.6746C96.9482 10.6216 98.437 11.4674 99.1861 12.5645C99.2315 12.6315 99.272 12.6985 99.3126 12.7655H66.9669C65.9457 11.688 67.0743 10.4932 68.4533 10.4402Z" fill="#F5F5F5"/>
<path d="M17.2327 23.602C17.3515 23.5875 17.471 23.58 17.5905 23.5797C17.4784 22.1281 18.1226 21.2013 19.4993 21.2013C20.4894 21.2013 21.7062 21.6842 22.9445 22.5049C22.589 19.6855 23.7342 17.8655 26.2943 17.8655C28.3701 17.8655 30.9945 19.0574 33.5904 21.0003C33.8171 19.8837 34.5806 19.2305 35.8642 19.2305C38.1212 19.2305 41.3255 21.2795 43.8975 24.1687C44.4534 23.5238 45.2861 23.1247 46.3836 23.0521C48.5309 22.9209 51.1984 24.0961 53.5628 26.0139C53.6741 25.8346 53.8213 25.6901 53.9914 25.5927C54.1615 25.4954 54.3494 25.4483 54.5387 25.4556C55.7149 25.383 57.3325 26.441 58.2726 27.8562H15.343C14.3338 25.7207 15.145 23.8449 17.2327 23.602Z" fill="#F5F5F5"/>
<path d="M77.5031 70.9849H99.8113V56.751H77.5031V70.9849Z" fill="#E6E6E6"/>
<path d="M77.5055 56.7483H69.8109V70.9821H77.5055V56.7483Z" fill="#E0E0E0"/>
<path d="M77.2049 91.3936H77.8062V44.8593H77.2049V91.3936Z" fill="#F5F5F5"/>
<path d="M69.5103 91.3936H70.1116V44.8593H69.5103V91.3936Z" fill="#F5F5F5"/>
<path d="M99.5107 91.3936H100.112V44.8593H99.5107V91.3936Z" fill="#F5F5F5"/>
<path d="M100.114 44.8565H77.2048L84.8063 38.8547L100.114 44.8565Z" fill="#E6E6E6"/>
<path d="M69.5103 44.8565H77.2048L84.8063 38.8547L69.5103 44.8565Z" fill="#E0E0E0"/>
<path d="M18.2157 91.3935H22.3028C24.4501 87.0276 25.6263 75.334 22.6249 62.6243C22.1116 60.452 21.4902 58.3165 20.7639 56.229C19.6353 74.0778 14.7395 86.098 18.2157 91.3935Z" fill="#F0F0F0"/>
<path d="M25.7791 91.3935H21.6825C19.7737 88.1665 19.2226 79.524 22.9064 70.1307C23.5483 68.4974 24.2849 66.9175 25.111 65.4019C25.29 78.5973 29.5416 87.4798 25.7791 91.3935Z" fill="#F0F0F0"/>
<path d="M27.8619 77.6372C31.0423 71.8672 30.682 88.8729 36.5299 81.3164C43.7114 72.0318 54.0185 68.9221 49.514 76.0265C45.0094 83.1308 47.6911 85.5957 59.0576 77.6372C67.3056 71.8672 52.0979 89.1661 56.2637 88.5101C60.4295 87.8541 66.7235 86.5058 61.3361 91.3937H26.3993C26.3993 91.3937 24.6886 83.41 27.8619 77.6372Z" fill="#EBEBEB"/>
<path d="M98.2247 91.3935C98.2247 91.3935 98.8832 84.5711 94.1448 81.0649C95.4976 86.0115 94.1138 91.3935 94.1138 91.3935H98.2247Z" fill="#EBEBEB"/>
<path d="M95.5906 91.3936C95.5906 91.3936 96.9291 85.8106 101.765 82.9521C100.266 85.4637 99.2996 88.3577 98.9475 91.3936H95.5906Z" fill="#EBEBEB"/>
<path d="M62.4432 91.3936C62.4432 91.3936 62.6818 88.0717 65.2753 86.3689C64.6305 87.9311 64.3443 89.6628 64.445 91.3936H62.4432Z" fill="#F5F5F5"/>
<path d="M60.9543 91.3937C60.9543 91.3937 61.1285 85.8107 64.2946 83.7925C62.8822 86.6538 62.9633 91.3937 62.9633 91.3937H60.9543Z" fill="#F5F5F5"/>
<path d="M13.2029 91.3937C13.2029 91.3937 13.3293 90.0147 14.6988 89.3057C14.3617 89.927 14.2075 90.6603 14.2598 91.3937H13.2029Z" fill="#F5F5F5"/>
<path d="M106.303 91.3936C106.205 90.423 106.32 89.4392 106.637 88.5351C106.955 87.6309 107.464 86.8364 108.117 86.2266C107.387 87.6056 107.162 90.5841 107.501 91.3936H106.303Z" fill="#EBEBEB"/>
<path d="M26.4184 91.3937C26.8956 88.2309 26.2728 80.7162 20.9738 75.8813C23.1616 80.0239 23.8368 88.9651 22.8252 91.3937H26.4184Z" fill="#FAFAFA"/>
<path d="M13.9903 91.3936C13.9903 91.3936 13.8972 89.0795 12.2295 88.2393C12.9763 89.4284 12.9333 91.3936 12.9333 91.3936H13.9903Z" fill="#F5F5F5"/>
<path d="M60.0001 104C85.5489 104 106.26 102.585 106.26 100.84C106.26 99.0949 85.5489 97.6802 60.0001 97.6802C34.4512 97.6802 13.7397 99.0949 13.7397 100.84C13.7397 102.585 34.4512 104 60.0001 104Z" fill="#F5F5F5"/>
<path d="M68.6322 28.814C68.6322 28.814 50.4015 53.1754 59.3916 99.2211H68.2314C68.394 99.2212 68.5543 99.1758 68.6989 99.0888C68.8435 99.0018 68.9683 98.8756 69.0628 98.7208C69.1573 98.5659 69.2189 98.3869 69.2423 98.1987C69.2658 98.0104 69.2505 97.8183 69.1977 97.6383C66.8666 89.7105 57.4709 53.7895 70.8678 30.6843C69.5722 29.6933 68.6322 28.814 68.6322 28.814Z" fill="#30AD4C"/>
<path opacity="0.3" d="M68.6322 28.814C68.6322 28.814 50.4015 53.1754 59.3916 99.2211H68.2314C68.394 99.2212 68.5543 99.1758 68.6989 99.0888C68.8435 99.0018 68.9683 98.8756 69.0628 98.7208C69.1573 98.5659 69.2189 98.3869 69.2423 98.1987C69.2658 98.0104 69.2505 97.8183 69.1977 97.6383C66.8666 89.7105 57.4709 53.7895 70.8678 30.6843C69.5722 29.6933 68.6322 28.814 68.6322 28.814Z" fill="#F5F5F5"/>
<g style="mix-blend-mode:multiply">
<g style="mix-blend-mode:multiply">
<path d="M67.3725 38.3385C67.2651 38.6344 67.1625 38.9303 67.0671 39.229C65.7584 39.0687 64.4367 39.1355 63.1447 39.4272C63.2854 39.0754 63.4238 38.7321 63.5646 38.3999C64.826 38.1827 66.1064 38.162 67.3725 38.3385Z" fill="#30AD4C"/>
</g>
<g style="mix-blend-mode:multiply">
<path d="M65.8717 43.3605C65.7977 43.6564 65.7262 43.9495 65.6594 44.2482C64.4425 43.5559 63.0635 43.4107 61.6892 43.4107C61.7918 43.1009 61.8944 42.7966 62.0018 42.4951C63.3522 42.5342 64.6692 42.7101 65.8717 43.3605Z" fill="#30AD4C"/>
</g>
<g style="mix-blend-mode:multiply">
<path d="M64.7718 48.882C64.7217 49.1863 64.6764 49.4905 64.6334 49.7948C63.1041 49.1974 61.5174 48.8262 59.9785 49.1946C60.062 48.8624 60.1503 48.533 60.241 48.2064C61.7393 47.9692 63.2734 48.3125 64.7718 48.882Z" fill="#30AD4C"/>
</g>
<g style="mix-blend-mode:multiply">
<path d="M64.0299 55.481C64.0084 55.7908 63.9893 56.1035 63.9726 56.4161C62.2047 55.7952 60.3468 55.6052 58.5137 55.8578C58.5685 55.5368 58.6282 55.2241 58.6902 54.9115C60.4849 54.7097 62.296 54.9028 64.0299 55.481Z" fill="#30AD4C"/>
</g>
<g style="mix-blend-mode:multiply">
<path d="M63.8175 62.7389C61.7134 62.298 59.5527 62.3932 57.4829 63.0181C57.5187 62.6831 57.5545 62.3509 57.595 62.0243C59.6328 61.4561 61.7477 61.3754 63.8127 61.787C63.8175 62.1025 63.8175 62.4235 63.8175 62.7389Z" fill="#30AD4C"/>
</g>
<g style="mix-blend-mode:multiply">
<path d="M64.3066 71.8895C61.7856 71.9593 59.2897 72.4925 56.9103 73.4695C56.9103 73.1401 56.9103 72.8163 56.9222 72.4925C59.2792 71.5635 61.7416 71.0517 64.2278 70.9739C64.2517 71.2809 64.2779 71.5852 64.3066 71.8895Z" fill="#30AD4C"/>
</g>
<g style="mix-blend-mode:multiply">
<path d="M65.6499 82.0868C62.8213 81.8089 59.974 81.9486 57.1752 82.5027C57.1537 82.1928 57.1322 81.8774 57.1132 81.5703C59.88 81.0359 62.6919 80.8944 65.4877 81.1488C65.5473 81.4671 65.5974 81.7909 65.6499 82.0868Z" fill="#30AD4C"/>
</g>
</g>
<g opacity="0.1">
<path opacity="0.1" d="M67.3725 38.3385C67.2651 38.6344 67.1625 38.9303 67.0671 39.229C65.7584 39.0687 64.4367 39.1355 63.1447 39.4272C63.2854 39.0754 63.4238 38.7321 63.5646 38.3999C64.826 38.1827 66.1064 38.162 67.3725 38.3385Z" fill="black"/>
<path opacity="0.1" d="M65.8717 43.3605C65.7977 43.6564 65.7262 43.9495 65.6594 44.2482C64.4425 43.5559 63.0635 43.4107 61.6892 43.4107C61.7918 43.1009 61.8944 42.7966 62.0018 42.4951C63.3522 42.5342 64.6692 42.7101 65.8717 43.3605Z" fill="black"/>
<path opacity="0.1" d="M64.7718 48.882C64.7217 49.1863 64.6764 49.4905 64.6334 49.7948C63.1041 49.1974 61.5174 48.8262 59.9785 49.1946C60.062 48.8624 60.1503 48.533 60.241 48.2064C61.7393 47.9692 63.2734 48.3125 64.7718 48.882Z" fill="black"/>
<path opacity="0.1" d="M64.0299 55.481C64.0084 55.7908 63.9893 56.1035 63.9726 56.4161C62.2047 55.7952 60.3468 55.6052 58.5137 55.8578C58.5685 55.5368 58.6282 55.2241 58.6902 54.9115C60.4849 54.7097 62.296 54.9028 64.0299 55.481Z" fill="black"/>
<path opacity="0.1" d="M63.8175 62.7389C61.7134 62.298 59.5527 62.3932 57.4829 63.0181C57.5187 62.6831 57.5545 62.3509 57.595 62.0243C59.6328 61.4561 61.7477 61.3754 63.8127 61.787C63.8175 62.1025 63.8175 62.4235 63.8175 62.7389Z" fill="black"/>
<path opacity="0.1" d="M64.3066 71.8895C61.7856 71.9593 59.2897 72.4925 56.9103 73.4695C56.9103 73.1401 56.9103 72.8163 56.9222 72.4925C59.2792 71.5635 61.7416 71.0517 64.2278 70.9739C64.2517 71.2809 64.2779 71.5852 64.3066 71.8895Z" fill="black"/>
<path opacity="0.1" d="M65.6499 82.0868C62.8213 81.8089 59.974 81.9486 57.1752 82.5027C57.1537 82.1928 57.1322 81.8774 57.1132 81.5703C59.88 81.0359 62.6919 80.8944 65.4877 81.1488C65.5473 81.4671 65.5974 81.7909 65.6499 82.0868Z" fill="black"/>
</g>
<path d="M53.0976 90.8856C53.1191 88.0535 52.9948 85.2224 52.7254 82.4078C52.6992 82.0979 52.6681 81.7853 52.63 81.4699C52.3092 78.4392 51.7907 75.4417 51.0791 72.5036C51.0075 72.2021 50.9312 71.8978 50.8405 71.5935C50.3427 69.6703 49.7492 67.7829 49.063 65.9408C48.9533 65.6616 48.8459 65.3825 48.7314 65.0894C48.1142 63.5211 47.4195 61.9962 46.6509 60.5225C46.5125 60.2629 46.3741 60.0005 46.231 59.7408C45.4272 58.2664 44.5434 56.8538 43.585 55.5117C43.418 55.28 43.251 55.0511 43.0792 54.8194C42.2274 53.6736 41.3209 52.585 40.364 51.559C40.1541 51.3356 39.9393 51.1123 39.7222 50.8918C37.7417 48.892 35.5818 47.1492 33.2803 45.694C34.1778 44.9727 35.1142 44.32 36.0837 43.74C36.6086 43.9075 39.8868 45.521 44.0216 49.323C44.3079 49.5854 44.5966 49.8562 44.8901 50.1409C45.6297 50.8583 46.3932 51.6371 47.1662 52.4913C47.3834 52.7342 47.6052 52.9771 47.8224 53.2311C49.0075 54.5877 50.1327 56.0141 51.1936 57.5049C51.4108 57.8119 51.6279 58.1274 51.8498 58.4484C52.6562 59.6431 53.4603 60.9216 54.2357 62.2923C54.3931 62.5714 54.5458 62.8506 54.7129 63.1297C55.8585 65.2096 56.8944 67.3696 57.8145 69.5976C57.9434 69.9047 58.0698 70.2145 58.1915 70.5272C59.3928 73.5663 60.3962 76.7073 61.193 79.9234C61.2741 80.2332 61.3504 80.5431 61.4316 80.8557C62.0516 83.4561 62.5533 86.0931 62.9347 88.7557C62.9752 89.0599 63.0206 89.367 63.0611 89.6769C63.4834 92.8393 63.7582 96.0263 63.8843 99.2238H53.7513C53.6071 99.2242 53.4644 99.1887 53.3327 99.1198C53.201 99.0508 53.0833 98.95 52.9875 98.8238C52.8916 98.6977 52.8197 98.5491 52.7766 98.3881C52.7335 98.227 52.7201 98.057 52.7373 97.8894C52.8638 96.6277 53.0332 94.5396 53.0833 91.8626C53.0809 91.5444 53.0952 91.2205 53.0976 90.8856Z" fill="#30AD4C"/>
<path opacity="0.3" d="M53.0976 90.8856C53.1191 88.0535 52.9948 85.2224 52.7254 82.4078C52.6992 82.0979 52.6681 81.7853 52.63 81.4699C52.3092 78.4392 51.7907 75.4417 51.0791 72.5036C51.0075 72.2021 50.9312 71.8978 50.8405 71.5935C50.3427 69.6703 49.7492 67.7829 49.063 65.9408C48.9533 65.6616 48.8459 65.3825 48.7314 65.0894C48.1142 63.5211 47.4195 61.9962 46.6509 60.5225C46.5125 60.2629 46.3741 60.0005 46.231 59.7408C45.4272 58.2664 44.5434 56.8538 43.585 55.5117C43.418 55.28 43.251 55.0511 43.0792 54.8194C42.2274 53.6736 41.3209 52.585 40.364 51.559C40.1541 51.3356 39.9393 51.1123 39.7222 50.8918C37.7417 48.892 35.5818 47.1492 33.2803 45.694C34.1778 44.9727 35.1142 44.32 36.0837 43.74C36.6086 43.9075 39.8868 45.521 44.0216 49.323C44.3079 49.5854 44.5966 49.8562 44.8901 50.1409C45.6297 50.8583 46.3932 51.6371 47.1662 52.4913C47.3834 52.7342 47.6052 52.9771 47.8224 53.2311C49.0075 54.5877 50.1327 56.0141 51.1936 57.5049C51.4108 57.8119 51.6279 58.1274 51.8498 58.4484C52.6562 59.6431 53.4603 60.9216 54.2357 62.2923C54.3931 62.5714 54.5458 62.8506 54.7129 63.1297C55.8585 65.2096 56.8944 67.3696 57.8145 69.5976C57.9434 69.9047 58.0698 70.2145 58.1915 70.5272C59.3928 73.5663 60.3962 76.7073 61.193 79.9234C61.2741 80.2332 61.3504 80.5431 61.4316 80.8557C62.0516 83.4561 62.5533 86.0931 62.9347 88.7557C62.9752 89.0599 63.0206 89.367 63.0611 89.6769C63.4834 92.8393 63.7582 96.0263 63.8843 99.2238H53.7513C53.6071 99.2242 53.4644 99.1887 53.3327 99.1198C53.201 99.0508 53.0833 98.95 52.9875 98.8238C52.8916 98.6977 52.8197 98.5491 52.7766 98.3881C52.7335 98.227 52.7201 98.057 52.7373 97.8894C52.8638 96.6277 53.0332 94.5396 53.0833 91.8626C53.0809 91.5444 53.0952 91.2205 53.0976 90.8856Z" fill="#F5F5F5"/>
<g style="mix-blend-mode:multiply">
<g style="mix-blend-mode:multiply">
<path d="M44.8972 50.1326C43.3267 50.2962 41.7927 50.7789 40.364 51.5591C40.154 51.3357 39.9393 51.1124 39.7222 50.8919C41.0785 50.1064 42.5316 49.5742 44.0287 49.3147C44.315 49.5771 44.6037 49.8479 44.8972 50.1326Z" fill="#30AD4C"/>
</g>
<g style="mix-blend-mode:multiply">
<path d="M47.8319 53.2229C46.3169 53.7421 44.7732 54.3116 43.5993 55.5119C43.4323 55.2802 43.2653 55.0513 43.0935 54.8196C44.2435 53.6584 45.6822 53.0163 47.1758 52.4832C47.3905 52.726 47.6124 52.9689 47.8319 53.2229Z" fill="#30AD4C"/>
</g>
<g style="mix-blend-mode:multiply">
<path d="M51.8498 58.4485C49.9411 58.2783 48.2232 59.2553 46.6628 60.5226C46.5245 60.263 46.3861 60.0006 46.2429 59.741C47.758 58.5267 49.3947 57.5832 51.1937 57.5078C51.4108 57.8121 51.6279 58.1275 51.8498 58.4485Z" fill="#30AD4C"/>
</g>
<g style="mix-blend-mode:multiply">
<path d="M54.708 63.1241C52.6708 63.5462 50.7436 64.5098 49.0749 65.9408C48.9652 65.6616 48.8578 65.3825 48.7433 65.0893C50.3867 63.7226 52.2557 62.7719 54.2309 62.2979C54.3979 62.5658 54.5506 62.8422 54.708 63.1241Z" fill="#30AD4C"/>
</g>
<g style="mix-blend-mode:multiply">
<path d="M58.1844 70.5216C55.7123 70.4839 53.2708 71.165 51.0792 72.5036C51.0076 72.2021 50.9312 71.8978 50.8406 71.5935C52.9945 70.3033 55.3758 69.618 57.7955 69.592C57.9363 69.8991 58.0627 70.209 58.1844 70.5216Z" fill="#30AD4C"/>
</g>
<g style="mix-blend-mode:multiply">
<path d="M61.4316 80.8557C58.4719 80.7432 55.5198 81.2693 52.723 82.4078C52.6968 82.0979 52.6657 81.7853 52.6276 81.4698C55.3842 80.3757 58.2827 79.8524 61.193 79.9234C61.2836 80.2332 61.36 80.5431 61.4316 80.8557Z" fill="#30AD4C"/>
</g>
<g style="mix-blend-mode:multiply">
<path d="M63.0634 89.677C59.6611 89.8165 56.296 90.5533 53.0808 91.8627C53.0808 91.5445 53.0927 91.2207 53.0951 90.8857C56.2712 89.6281 59.5862 88.9154 62.937 88.7698C62.9775 89.0489 63.0229 89.3672 63.0634 89.677Z" fill="#30AD4C"/>
</g>
</g>
<g opacity="0.1">
<path opacity="0.1" d="M44.8972 50.1326C43.3267 50.2962 41.7927 50.7789 40.364 51.5591C40.154 51.3357 39.9393 51.1124 39.7222 50.8919C41.0785 50.1064 42.5316 49.5742 44.0287 49.3147C44.315 49.5771 44.6037 49.8479 44.8972 50.1326Z" fill="black"/>
<path opacity="0.1" d="M47.8319 53.2229C46.3169 53.7421 44.7732 54.3116 43.5993 55.5119C43.4323 55.2802 43.2653 55.0513 43.0935 54.8196C44.2435 53.6584 45.6822 53.0163 47.1758 52.4832C47.3905 52.726 47.6124 52.9689 47.8319 53.2229Z" fill="black"/>
<path opacity="0.1" d="M51.8498 58.4485C49.9411 58.2783 48.2232 59.2553 46.6628 60.5226C46.5245 60.263 46.3861 60.0006 46.2429 59.741C47.758 58.5267 49.3947 57.5832 51.1937 57.5078C51.4108 57.8121 51.6279 58.1275 51.8498 58.4485Z" fill="black"/>
<path opacity="0.1" d="M54.708 63.1241C52.6708 63.5462 50.7436 64.5098 49.0749 65.9408C48.9652 65.6616 48.8578 65.3825 48.7433 65.0893C50.3867 63.7226 52.2557 62.7719 54.2309 62.2979C54.3979 62.5658 54.5506 62.8422 54.708 63.1241Z" fill="black"/>
<path opacity="0.1" d="M58.1844 70.5216C55.7123 70.4839 53.2708 71.165 51.0792 72.5036C51.0076 72.2021 50.9312 71.8978 50.8406 71.5935C52.9945 70.3033 55.3758 69.618 57.7955 69.592C57.9363 69.8991 58.0627 70.209 58.1844 70.5216Z" fill="black"/>
<path opacity="0.1" d="M61.4316 80.8557C58.4719 80.7432 55.5198 81.2693 52.723 82.4078C52.6968 82.0979 52.6657 81.7853 52.6276 81.4698C55.3842 80.3757 58.2827 79.8524 61.193 79.9234C61.2836 80.2332 61.36 80.5431 61.4316 80.8557Z" fill="black"/>
<path opacity="0.1" d="M63.0634 89.677C59.6611 89.8165 56.296 90.5533 53.0808 91.8627C53.0808 91.5445 53.0927 91.2207 53.0951 90.8857C56.2712 89.6281 59.5862 88.9154 62.937 88.7698C62.9775 89.0489 63.0229 89.3672 63.0634 89.677Z" fill="black"/>
</g>
<path d="M82.251 27.6192C87.9771 24.3196 93.0376 23.1304 96.3278 22.3153C90.1483 16.4057 81.9408 18.9125 78.0685 20.6404C80.5617 16.1266 83.1433 12.8857 84.9351 10.591C77.1857 10.0048 71.8365 17.2125 69.441 21.316C66.4825 18.8511 58.2679 13.0978 50.5208 17.6312C53.5724 19.2642 58.2869 21.7263 63.2496 26.416C59.6946 26.8403 50.1725 28.8642 46.9133 38.3301C50.9264 36.9037 57.6165 34.436 66.4777 35.106L66.9287 35.145C75.1457 36.0634 79.7147 40.4154 82.387 42.7212C82.2796 39.7733 81.0676 37.4592 79.6145 35.7201C87.2494 37.5653 92.6201 41.2193 95.9651 43.4442C94.5503 33.3669 85.6366 28.9479 82.251 27.6192Z" fill="#30AD4C"/>
<path opacity="0.3" d="M82.251 27.6192C87.9771 24.3196 93.0376 23.1304 96.3278 22.3153C90.1483 16.4057 81.9408 18.9125 78.0685 20.6404C80.5617 16.1266 83.1433 12.8857 84.9351 10.591C77.1857 10.0048 71.8365 17.2125 69.441 21.316C66.4825 18.8511 58.2679 13.0978 50.5208 17.6312C53.5724 19.2642 58.2869 21.7263 63.2496 26.416C59.6946 26.8403 50.1725 28.8642 46.9133 38.3301C50.9264 36.9037 57.6165 34.436 66.4777 35.106L66.9287 35.145C75.1457 36.0634 79.7147 40.4154 82.387 42.7212C82.2796 39.7733 81.0676 37.4592 79.6145 35.7201C87.2494 37.5653 92.6201 41.2193 95.9651 43.4442C94.5503 33.3669 85.6366 28.9479 82.251 27.6192Z" fill="black"/>
<path d="M49.4042 44.9237C46.3335 40.4852 40.9533 41.2306 38.9897 41.6884C40.9891 38.2241 43.1675 36.0021 44.5704 34.5394C39.7866 33.6014 36.2006 38.2604 34.9623 40.1447C33.1037 38.4112 29.2362 35.5806 25.1658 37.3839C26.9599 38.556 28.6614 39.9124 30.2502 41.4371C27.9358 41.2641 23.1927 41.4986 20.7065 45.8477C22.5747 45.6495 25.4497 45.3145 28.9785 45.9817C27.3537 47.3412 23.2022 51.4195 23.8679 57.0807C25.3447 55.2495 27.7116 52.2598 31.5338 49.8061C30.914 51.1085 30.7351 52.6359 31.0327 54.0854C32.1398 52.3379 33.9769 49.1277 38.2549 47.0564L38.4791 46.9531C43.1317 44.8958 47.0565 44.9433 49.4042 44.9237Z" fill="#30AD4C"/>
<path opacity="0.3" d="M49.4042 44.9237C46.3335 40.4852 40.9533 41.2306 38.9897 41.6884C40.9891 38.2241 43.1675 36.0021 44.5704 34.5394C39.7866 33.6014 36.2006 38.2604 34.9623 40.1447C33.1037 38.4112 29.2362 35.5806 25.1658 37.3839C26.9599 38.556 28.6614 39.9124 30.2502 41.4371C27.9358 41.2641 23.1927 41.4986 20.7065 45.8477C22.5747 45.6495 25.4497 45.3145 28.9785 45.9817C27.3537 47.3412 23.2022 51.4195 23.8679 57.0807C25.3447 55.2495 27.7116 52.2598 31.5338 49.8061C30.914 51.1085 30.7351 52.6359 31.0327 54.0854C32.1398 52.3379 33.9769 49.1277 38.2549 47.0564L38.4791 46.9531C43.1317 44.8958 47.0565 44.9433 49.4042 44.9237Z" fill="black"/>
<path d="M93.3311 96.0862H97.3084L95.3185 98.4143L93.3311 96.0862Z" fill="#30AD4C"/>
<path d="M94.1255 100.98H96.5138L95.3184 100.681L94.1255 100.98Z" fill="#30AD4C"/>
<path d="M95.4474 98.0288H95.1897V100.831H95.4474V98.0288Z" fill="#30AD4C"/>
<g opacity="0.6">
<path opacity="0.6" d="M93.3311 96.0862H97.3084L95.3185 98.4143L93.3311 96.0862Z" fill="#F5F5F5"/>
<path opacity="0.6" d="M94.1255 100.98H96.5138L95.3184 100.681L94.1255 100.98Z" fill="#F5F5F5"/>
<path opacity="0.6" d="M95.4474 98.0291H95.1897V100.832H95.4474V98.0291Z" fill="#F5F5F5"/>
</g>
<g style="mix-blend-mode:multiply">
<path d="M95.3185 97.987L96.0892 97.0881H94.5479L95.3185 97.987Z" fill="#30AD4C"/>
</g>
<path opacity="0.3" d="M95.3185 97.987L96.0892 97.0881H94.5479L95.3185 97.987Z" fill="#F5F5F5"/>
<path d="M95.6621 97.4232C95.6518 97.4258 95.6413 97.4258 95.6311 97.4232C95.6237 97.4183 95.6172 97.4117 95.612 97.4038C95.6068 97.396 95.603 97.387 95.6007 97.3774C95.5985 97.3678 95.598 97.3578 95.5991 97.3479C95.6002 97.338 95.6029 97.3285 95.6072 97.3199L96.4065 95.6087C96.4147 95.591 96.4286 95.5778 96.4452 95.572C96.4617 95.5662 96.4796 95.5684 96.4947 95.578C96.5099 95.5877 96.5212 95.604 96.5262 95.6233C96.5311 95.6427 96.5292 95.6636 96.521 95.6813L95.7193 97.3925C95.7128 97.4029 95.7042 97.4112 95.6941 97.4166C95.6841 97.422 95.6731 97.4243 95.6621 97.4232Z" fill="#30AD4C"/>
<path opacity="0.3" d="M95.6621 97.4232C95.6518 97.4258 95.6413 97.4258 95.6311 97.4232C95.6237 97.4183 95.6172 97.4117 95.612 97.4038C95.6068 97.396 95.603 97.387 95.6007 97.3774C95.5985 97.3678 95.598 97.3578 95.5991 97.3479C95.6002 97.338 95.6029 97.3285 95.6072 97.3199L96.4065 95.6087C96.4147 95.591 96.4286 95.5778 96.4452 95.572C96.4617 95.5662 96.4796 95.5684 96.4947 95.578C96.5099 95.5877 96.5212 95.604 96.5262 95.6233C96.5311 95.6427 96.5292 95.6636 96.521 95.6813L95.7193 97.3925C95.7128 97.4029 95.7042 97.4112 95.6941 97.4166C95.6841 97.422 95.6731 97.4243 95.6621 97.4232Z" fill="#F5F5F5"/>
<path d="M27.3847 99.0787C27.3038 99.0762 27.2244 99.0515 27.1531 99.0066C27.0818 98.9618 27.0205 98.8979 26.9741 98.8203C26.9277 98.7426 26.8975 98.6533 26.8859 98.5596C26.8744 98.4658 26.8818 98.3701 26.9075 98.2803L28.0552 94.3722C28.1983 93.7944 30.6797 84.3452 36.9093 80.5124C39.9012 78.6728 43.2582 78.4551 46.8871 79.862C58.578 84.3954 70.4026 86.6593 77.6963 72.6655C77.7719 72.5398 77.8854 72.4524 78.014 72.421C78.1426 72.3896 78.2766 72.4165 78.3888 72.4964C78.5011 72.5762 78.5832 72.703 78.6185 72.8511C78.6538 72.9991 78.6397 73.1573 78.5791 73.2936C75.1386 79.8927 70.5434 83.5049 64.5285 84.3396C59.7567 85.004 54.2142 83.9739 46.5626 81.0093C43.2224 79.7085 40.1207 79.8927 37.3888 81.5816C31.4718 85.2105 29.0644 94.629 29.0382 94.7239V94.7519L27.8882 98.66C27.8549 98.7845 27.7876 98.8929 27.6967 98.9685C27.6058 99.0441 27.4962 99.0828 27.3847 99.0787Z" fill="#30AD4C"/>
<path opacity="0.3" d="M27.3847 99.0787C27.3038 99.0762 27.2244 99.0515 27.1531 99.0066C27.0818 98.9618 27.0205 98.8979 26.9741 98.8203C26.9277 98.7426 26.8975 98.6533 26.8859 98.5596C26.8744 98.4658 26.8818 98.3701 26.9075 98.2803L28.0552 94.3722C28.1983 93.7944 30.6797 84.3452 36.9093 80.5124C39.9012 78.6728 43.2582 78.4551 46.8871 79.862C58.578 84.3954 70.4026 86.6593 77.6963 72.6655C77.7719 72.5398 77.8854 72.4524 78.014 72.421C78.1426 72.3896 78.2766 72.4165 78.3888 72.4964C78.5011 72.5762 78.5832 72.703 78.6185 72.8511C78.6538 72.9991 78.6397 73.1573 78.5791 73.2936C75.1386 79.8927 70.5434 83.5049 64.5285 84.3396C59.7567 85.004 54.2142 83.9739 46.5626 81.0093C43.2224 79.7085 40.1207 79.8927 37.3888 81.5816C31.4718 85.2105 29.0644 94.629 29.0382 94.7239V94.7519L27.8882 98.66C27.8549 98.7845 27.7876 98.8929 27.6967 98.9685C27.6058 99.0441 27.4962 99.0828 27.3847 99.0787Z" fill="black"/>
<path d="M79.0419 73.2937C78.7808 73.2054 78.5025 73.2172 78.2475 73.3271C77.9925 73.4371 77.7743 73.6396 77.6247 73.905C70.3787 86.7654 59.0719 85.2301 46.7129 80.4371C35.9024 76.2499 30.6868 88.0747 29.0882 92.7476C29.015 92.9598 28.9845 93.1889 28.9992 93.417C29.0138 93.6452 29.0731 93.8664 29.1726 94.0634C29.272 94.2605 29.4089 94.4281 29.5726 94.5533C29.7363 94.6785 29.9224 94.7579 30.1165 94.7854L44.4916 96.84C44.4916 96.84 50.1987 81.9669 62.226 88.6748C74.2534 95.3828 87.6765 92.5271 94.901 78.6757L79.0419 73.2937Z" fill="#30AD4C"/>
<path opacity="0.3" d="M79.0419 73.2937C78.7808 73.2054 78.5025 73.2172 78.2475 73.3271C77.9925 73.4371 77.7743 73.6396 77.6247 73.905C70.3787 86.7654 59.0719 85.2301 46.7129 80.4371C35.9024 76.2499 30.6868 88.0747 29.0882 92.7476C29.015 92.9598 28.9845 93.1889 28.9992 93.417C29.0138 93.6452 29.0731 93.8664 29.1726 94.0634C29.272 94.2605 29.4089 94.4281 29.5726 94.5533C29.7363 94.6785 29.9224 94.7579 30.1165 94.7854L44.4916 96.84C44.4916 96.84 50.1987 81.9669 62.226 88.6748C74.2534 95.3828 87.6765 92.5271 94.901 78.6757L79.0419 73.2937Z" fill="#F5F5F5"/>
<path d="M43.3298 101.432C43.2488 101.429 43.1695 101.405 43.0982 101.36C43.0269 101.315 42.9655 101.251 42.9191 101.174C42.8727 101.096 42.8425 101.007 42.831 100.913C42.8194 100.819 42.8268 100.723 42.8526 100.634L43.43 98.6628C44.2644 95.7631 45.6448 93.1196 47.4693 90.9276C50.3992 87.4689 55.3786 84.175 62.4647 88.1361C74.9383 95.0953 87.8007 91.1677 94.474 78.3658C94.5093 78.2982 94.5556 78.2394 94.6103 78.1927C94.665 78.146 94.727 78.1123 94.7928 78.0936C94.8586 78.075 94.9269 78.0717 94.9938 78.0839C95.0607 78.0961 95.1249 78.1236 95.1827 78.1649C95.2405 78.2061 95.2908 78.2603 95.3307 78.3242C95.3706 78.3882 95.3994 78.4608 95.4153 78.5378C95.4313 78.6148 95.4341 78.6947 95.4237 78.7729C95.4132 78.8512 95.3897 78.9263 95.3544 78.9939C88.3924 92.3485 74.9836 96.4603 62.009 89.222C55.4669 85.5707 50.8836 88.5967 48.1923 91.7762C46.4759 93.8382 45.1777 96.3253 44.3939 99.0536L43.8165 101.024C43.7824 101.144 43.7169 101.247 43.6296 101.32C43.5422 101.394 43.4373 101.433 43.3298 101.432Z" fill="#30AD4C"/>
<path opacity="0.3" d="M43.3298 101.432C43.2488 101.429 43.1695 101.405 43.0982 101.36C43.0269 101.315 42.9655 101.251 42.9191 101.174C42.8727 101.096 42.8425 101.007 42.831 100.913C42.8194 100.819 42.8268 100.723 42.8526 100.634L43.43 98.6628C44.2644 95.7631 45.6448 93.1196 47.4693 90.9276C50.3992 87.4689 55.3786 84.175 62.4647 88.1361C74.9383 95.0953 87.8007 91.1677 94.474 78.3658C94.5093 78.2982 94.5556 78.2394 94.6103 78.1927C94.665 78.146 94.727 78.1123 94.7928 78.0936C94.8586 78.075 94.9269 78.0717 94.9938 78.0839C95.0607 78.0961 95.1249 78.1236 95.1827 78.1649C95.2405 78.2061 95.2908 78.2603 95.3307 78.3242C95.3706 78.3882 95.3994 78.4608 95.4153 78.5378C95.4313 78.6148 95.4341 78.6947 95.4237 78.7729C95.4132 78.8512 95.3897 78.9263 95.3544 78.9939C88.3924 92.3485 74.9836 96.4603 62.009 89.222C55.4669 85.5707 50.8836 88.5967 48.1923 91.7762C46.4759 93.8382 45.1777 96.3253 44.3939 99.0536L43.8165 101.024C43.7824 101.144 43.7169 101.247 43.6296 101.32C43.5422 101.394 43.4373 101.433 43.3298 101.432Z" fill="black"/>
<path d="M91.055 101.432C90.9725 101.432 90.8912 101.409 90.8178 101.364C90.7444 101.32 90.681 101.256 90.6327 101.178L83.9641 90.1376C83.8867 90.0069 83.8566 89.8457 83.8803 89.6892C83.9041 89.5326 83.9797 89.3933 84.0907 89.3016C84.2018 89.21 84.3393 89.1734 84.4733 89.1998C84.6073 89.2262 84.727 89.3134 84.8063 89.4426L91.4869 100.48C91.5408 100.571 91.5725 100.677 91.5786 100.787C91.5847 100.897 91.565 101.007 91.5215 101.105C91.478 101.203 91.4125 101.286 91.3319 101.343C91.2514 101.401 91.1589 101.431 91.0646 101.432H91.055Z" fill="#30AD4C"/>
<path opacity="0.3" d="M91.055 101.432C90.9725 101.432 90.8912 101.409 90.8178 101.364C90.7444 101.32 90.681 101.256 90.6327 101.178L83.9641 90.1376C83.8867 90.0069 83.8566 89.8457 83.8803 89.6892C83.9041 89.5326 83.9797 89.3933 84.0907 89.3016C84.2018 89.21 84.3393 89.1734 84.4733 89.1998C84.6073 89.2262 84.727 89.3134 84.8063 89.4426L91.4869 100.48C91.5408 100.571 91.5725 100.677 91.5786 100.787C91.5847 100.897 91.565 101.007 91.5215 101.105C91.478 101.203 91.4125 101.286 91.3319 101.343C91.2514 101.401 91.1589 101.431 91.0646 101.432H91.055Z" fill="black"/>
<path d="M93.794 80.7107C93.6348 79.7654 93.3809 78.8453 93.0377 77.9695C92.7094 77.1277 92.3389 76.3093 91.9282 75.5185C91.5199 74.7349 91.0738 73.979 90.5921 73.2546L89.7737 73.9162C90.1316 74.6616 90.4895 75.4488 90.7949 76.2332C91.1145 77.0085 91.3942 77.8055 91.6323 78.6199C91.8721 79.3921 92.0401 80.1923 92.1334 81.0066C92.1995 81.5412 92.1743 82.0858 92.0594 82.6089C91.5652 82.78 91.0613 82.9106 90.5515 82.9997C89.9153 83.1093 89.2738 83.1718 88.6309 83.1868C87.9813 83.1946 87.332 83.1564 86.6864 83.0723C86.3619 83.0332 86.0398 82.9802 85.7201 82.916C85.5602 82.8853 85.4028 82.849 85.2429 82.8127C85.083 82.7764 84.9184 82.7318 84.8039 82.6983L84.2504 84.9566C84.4699 85.0292 84.6345 85.0738 84.823 85.1241C85.0115 85.1743 85.188 85.2106 85.3717 85.2469C85.7368 85.3223 86.1018 85.3809 86.4693 85.4284C87.2034 85.5116 87.9415 85.5377 88.6786 85.5065C89.0484 85.4898 89.4182 85.4591 89.788 85.4116C90.1579 85.3641 90.5229 85.2944 90.8879 85.2078C91.6199 85.036 92.3383 84.7923 93.0353 84.4792L93.3812 84.3229L93.5315 83.9684C93.7485 83.4449 93.8711 82.8748 93.8918 82.2935C93.9135 81.7632 93.8807 81.2318 93.794 80.7107Z" fill="#E4897B"/>
<path d="M90.3512 74.9099L88.2396 73.4863L90.2843 71.8672C90.2843 71.8672 91.055 73.1206 90.9524 74.2651L90.3512 74.9099Z" fill="#E4897B"/>
<path d="M87.2566 71.9956L88.9673 71.1274L90.2843 71.8672L88.2396 73.4863L87.2566 71.9956Z" fill="#E4897B"/>
<path d="M75.5299 76.0516C75.4512 75.9232 75.4059 75.845 75.351 75.7445L75.1983 75.4654C75.1005 75.2756 75.0074 75.0829 74.9215 74.8903C74.7466 74.5032 74.5875 74.1078 74.4444 73.7039C74.1649 72.8932 73.9562 72.0515 73.8216 71.1916C73.7543 70.7576 73.7073 70.3196 73.6809 69.8796C73.6606 69.437 73.6606 68.9934 73.6809 68.5508C73.705 68.1078 73.752 67.6669 73.8216 67.2305C73.8526 67.0099 73.9027 66.795 73.9433 66.5773L74.0197 66.259L74.0578 66.0971V66.058L74.0769 65.9966L74.1127 65.8738C74.2265 65.5245 74.4126 65.2137 74.6543 64.9694C74.8824 64.743 75.1517 64.5807 75.4417 64.4948C75.8848 64.3702 76.3447 64.3503 76.7945 64.4362C77.5341 64.5797 78.2555 64.831 78.9418 65.1843C80.2348 65.8325 81.471 66.6263 82.6328 67.5543L82.127 68.5564C81.5281 68.2298 80.9101 67.906 80.2922 67.6157C79.6742 67.3254 79.0563 67.0434 78.436 66.8229C77.8499 66.595 77.2443 66.4434 76.6298 66.3707C76.4022 66.343 76.1722 66.3667 75.9522 66.4405C75.9193 66.4465 75.8888 66.4646 75.8652 66.4922C75.8417 66.5198 75.8262 66.5555 75.821 66.594L75.7327 67.0434C75.7089 67.2193 75.6755 67.3924 75.6588 67.5682C75.6186 67.9181 75.5963 68.2705 75.592 68.6234C75.5917 69.3341 75.6524 70.0429 75.7733 70.7394C75.901 71.4446 76.0847 72.1343 76.3221 72.7995C76.439 73.1317 76.5606 73.4611 76.7133 73.7793C76.7825 73.9412 76.8589 74.0948 76.9352 74.2483L77.0498 74.4744L77.1524 74.6642L75.5299 76.0516Z" fill="#E4897B"/>
<path d="M81.7356 68.2439L83.5322 69.9634L84.0094 67.1273C84.0094 67.1273 82.6589 66.569 81.8 67.1273L81.7356 68.2439Z" fill="#E4897B"/>
<path d="M85.608 69.8908L85.6223 67.7106L84.0023 67.1272L83.5322 69.9634L85.608 69.8908Z" fill="#E4897B"/>
<path d="M86.3714 66.0359C85.262 66.1364 82.511 66.2564 81.4493 70.1143C80.3876 73.9721 75.7231 73.4082 77.1332 76.4984C79.4285 81.5008 82.7711 82.4778 86.0684 81.3361C89.3657 80.1944 93.4767 75.8703 90.7687 70.3655C88.0607 64.8607 86.3714 66.0359 86.3714 66.0359Z" fill="#263238"/>
<path d="M77.9611 78.0838C78.696 74.8541 76.7109 71.8616 76.7109 71.8616L72.4163 74.293C72.4163 74.293 73.8478 77.7823 74.9763 78.5249C76.1645 79.3009 77.5841 79.742 77.9611 78.0838Z" fill="#30AD4C"/>
<path opacity="0.6" d="M77.9611 78.0838C78.696 74.8541 76.7109 71.8616 76.7109 71.8616L72.4163 74.293C72.4163 74.293 73.8478 77.7823 74.9763 78.5249C76.1645 79.3009 77.5841 79.742 77.9611 78.0838Z" fill="#F5F5F5"/>
<path d="M61.6487 83.2034C61.3743 83.0471 61.0403 82.8685 60.7301 82.7038L59.7757 82.2041C59.1363 81.8719 58.4897 81.5509 57.8408 81.2438C56.5452 80.6213 55.2354 80.0463 53.9183 79.5326C52.6177 79.0189 51.2949 78.5856 49.9554 78.2346C49.2945 78.0587 48.636 77.9219 47.9822 77.8158L47.7436 77.7768C47.684 77.7768 47.7102 77.7768 47.7126 77.7768C47.6718 77.7661 47.6294 77.7661 47.5885 77.7768C47.3723 77.8374 47.1626 77.9264 46.9634 78.042C46.4089 78.3601 45.8788 78.7337 45.3792 79.1586C44.8376 79.6024 44.3008 80.0993 43.7663 80.6101C42.6903 81.6374 41.65 82.7624 40.6122 83.9041C38.5531 86.2015 36.5346 88.6496 34.5615 91.0727L32.8604 89.4899C34.5339 86.6393 36.3462 83.9038 38.2883 81.2968C39.2617 79.982 40.2877 78.7119 41.39 77.4753C41.9411 76.8584 42.5185 76.2582 43.1341 75.6748C43.7823 75.0512 44.4761 74.4954 45.2074 74.0138C45.6503 73.7278 46.1193 73.5012 46.6055 73.3383C46.9168 73.235 47.2369 73.1723 47.5599 73.1512C47.6545 73.1455 47.7493 73.1455 47.8438 73.1512H48.0824L48.3783 73.1764C49.1704 73.2434 49.953 73.3494 50.7189 73.4946C52.2339 73.7914 53.7319 74.197 55.2043 74.7089C56.6645 75.2058 58.0889 75.792 59.499 76.4368C60.198 76.7635 60.8947 77.1012 61.5819 77.4613C61.9254 77.6428 62.2666 77.827 62.6102 78.0196C62.9538 78.2122 63.2806 78.4021 63.6552 78.6282L61.6487 83.2034Z" fill="#E4897B"/>
<path d="M32.9176 88.5967L35.4729 89.9422C35.517 89.9671 35.5534 90.0073 35.5773 90.0572C35.6012 90.1071 35.6114 90.1644 35.6065 90.2214L35.251 92.8817C35.2429 92.9446 35.2223 93.0043 35.1909 93.0562C35.1594 93.1081 35.1181 93.1507 35.0701 93.1805C35.0221 93.2103 34.9688 93.2266 34.9145 93.2281C34.8601 93.2295 34.8062 93.216 34.7572 93.1887C33.8529 92.7253 33.4282 92.4937 32.3044 91.9019L28.8687 90.0902C27.9358 89.5989 28.153 88.3929 28.5896 88.4962C30.4983 88.9596 31.7318 88.8675 32.4929 88.5604C32.6332 88.5079 32.7854 88.5209 32.9176 88.5967Z" fill="#263238"/>
<path d="M67.6827 85.7297C64.4654 83.6314 61.0589 81.9574 57.5259 80.7385C57.7215 78.5053 57.9625 76.5234 57.6714 75.1555C60.2687 75.6535 62.7786 76.6465 65.1011 78.095L67.6827 85.7297Z" fill="#263238"/>
<path d="M57.2634 74.5974C57.2634 74.5974 57.5903 77.4922 57.0415 81.7939C57.5199 82.0446 58.0166 82.2445 58.5255 82.3913C58.5518 82.3913 59.7185 79.3625 58.9789 75.1334C58.4266 74.878 57.851 74.6981 57.2634 74.5974Z" fill="#30AD4C"/>
<path opacity="0.4" d="M57.2634 74.5974C57.2634 74.5974 57.5903 77.4922 57.0415 81.7939C57.5199 82.0446 58.0166 82.2445 58.5255 82.3913C58.5518 82.3913 59.7185 79.3625 58.9789 75.1334C58.4266 74.878 57.851 74.6981 57.2634 74.5974Z" fill="#F5F5F5"/>
<path d="M32.3451 88.7474H32.2926C31.9371 88.6609 31.4504 88.5437 31.3573 88.2673C31.3417 88.2128 31.3386 88.1545 31.3482 88.0982C31.3579 88.0419 31.3799 87.9895 31.4122 87.9463C31.4303 87.9129 31.4553 87.8854 31.4849 87.8664C31.5145 87.8473 31.5478 87.8374 31.5816 87.8374C31.8894 87.8374 32.3427 88.5911 32.3928 88.6749C32.3984 88.6829 32.4019 88.6926 32.4028 88.7029C32.4037 88.7132 32.4021 88.7236 32.398 88.7328C32.3939 88.742 32.3877 88.7496 32.38 88.7547C32.3723 88.7598 32.3634 88.7621 32.3546 88.7614L32.3451 88.7474ZM31.572 87.9323C31.5529 87.9319 31.5341 87.9374 31.5173 87.9482C31.5006 87.959 31.4866 87.9747 31.4766 87.9937C31.4541 88.0227 31.4384 88.0579 31.4309 88.096C31.4234 88.1342 31.4243 88.1739 31.4337 88.2115C31.5028 88.4208 31.9251 88.5353 32.2377 88.6106C32.0707 88.3538 31.7605 87.9351 31.572 87.9323Z" fill="#FAFAFA"/>
<path d="M32.345 88.7474C32.3324 88.7472 32.3204 88.7411 32.3116 88.7306C32.0849 88.4515 31.7103 87.5917 31.8487 87.3349C31.8774 87.2818 31.9394 87.226 32.073 87.2762C32.5979 87.4689 32.3999 88.6525 32.3903 88.7027C32.3892 88.7125 32.3857 88.7217 32.3802 88.7291C32.3747 88.7365 32.3674 88.7419 32.3593 88.7446L32.345 88.7474ZM31.98 87.3739C31.9418 87.3739 31.9298 87.3935 31.9275 87.4019C31.8392 87.5666 32.0849 88.2393 32.3164 88.5771C32.3498 88.2979 32.4046 87.5191 32.0444 87.3879C32.0237 87.379 32.0019 87.3743 31.98 87.3739Z" fill="#FAFAFA"/>
<path d="M63.7006 86.6231L63.2473 86.3914L62.7701 86.1542C62.4456 85.9951 62.1188 85.8387 61.7895 85.688C61.1334 85.3809 60.4725 85.085 59.8044 84.8087C58.4755 84.2504 57.1298 83.7451 55.7818 83.318C54.4518 82.8918 53.0992 82.5682 51.7329 82.3494C51.0625 82.2489 50.3992 82.1791 49.7479 82.1567H49.5093H49.4091C49.416 82.1593 49.4235 82.1593 49.4305 82.1567C49.4305 82.1567 49.4091 82.1567 49.3351 82.1763C49.13 82.2608 48.9345 82.3742 48.7529 82.5141C48.2273 82.9101 47.733 83.3604 47.2761 83.8596C46.7774 84.3872 46.2907 84.9762 45.8063 85.5624C44.8329 86.7571 43.8976 88.0468 42.9838 89.3532C41.1538 91.9744 39.3835 94.7296 37.6561 97.4765L35.8022 96.1533C37.1849 93.0342 38.7183 90.0098 40.3951 87.0949C41.235 85.6294 42.1344 84.2001 43.1031 82.7904C43.5946 82.087 44.11 81.3947 44.6707 80.7219C45.2545 79.997 45.8934 79.3354 46.5794 78.7455C47.002 78.3877 47.4603 78.0915 47.9441 77.8634C48.2573 77.7177 48.584 77.6155 48.9176 77.5591L49.2158 77.5229H49.3924L49.7001 77.5061C50.5132 77.4737 51.3273 77.4933 52.1385 77.5647C53.7112 77.7193 55.2719 78.0104 56.8077 78.4357C58.3143 78.8466 59.8013 79.3507 61.2622 79.9459C61.978 80.2446 62.7081 80.5572 63.4095 80.895C63.7651 81.0653 64.1253 81.2383 64.476 81.4198L65.0081 81.6989L65.5616 82.0032L63.7006 86.6231Z" fill="#E4897B"/>
<path d="M36.2245 95.0701L38.7822 95.9076C38.8266 95.9214 38.8652 95.9537 38.8906 95.9984C38.9161 96.0431 38.9268 96.0972 38.9206 96.1504L38.651 98.6097C38.6422 98.6713 38.6224 98.7301 38.593 98.7823C38.5636 98.8344 38.5252 98.8787 38.4802 98.9124C38.4353 98.9461 38.3847 98.9683 38.332 98.9777C38.2792 98.9872 38.2253 98.9835 38.1738 98.967C37.2862 98.66 36.8711 98.459 35.7449 98.0933C35.053 97.8672 32.6433 97.1944 31.6889 96.8846C30.7345 96.5747 30.9445 95.4525 31.3668 95.4888C33.2564 95.6172 35.0602 95.5195 35.7998 95.1232C35.9316 95.0474 36.082 95.0287 36.2245 95.0701Z" fill="#263238"/>
<path d="M85.9109 83.6166C82.9047 87.3432 77.4314 86.8156 71.951 87.734C70.83 87.9123 69.7205 88.1781 68.6298 88.5296C67.9498 86.5114 66.4992 82.232 65.1011 78.0866C66.1676 78.5361 67.4679 78.4663 68.7992 78.1201C72.4735 77.171 76.4031 74.145 76.4031 74.145C77.6009 74.9225 78.7643 75.7703 79.8889 76.6853C81.0543 77.7072 82.1547 78.8267 83.1815 80.0351C84.1648 81.1493 85.0771 82.3463 85.9109 83.6166Z" fill="#30AD4C"/>
<path opacity="0.6" d="M85.9109 83.6166C82.9047 87.3432 77.4314 86.8156 71.951 87.734C70.83 87.9123 69.7205 88.1781 68.6298 88.5296C67.9498 86.5114 66.4992 82.232 65.1011 78.0866C66.1676 78.5361 67.4679 78.4663 68.7992 78.1201C72.4735 77.171 76.4031 74.145 76.4031 74.145C77.6009 74.9225 78.7643 75.7703 79.8889 76.6853C81.0543 77.7072 82.1547 78.8267 83.1815 80.0351C84.1648 81.1493 85.0771 82.3463 85.9109 83.6166Z" fill="#F5F5F5"/>
<path d="M71.951 87.7341C70.83 87.9124 69.7205 88.1782 68.6298 88.5297C67.9498 86.5114 66.4992 82.232 65.1011 78.0867C66.1676 78.5361 67.4679 78.4663 68.7992 78.1202C70.6578 80.5571 72.7002 85.8554 71.951 87.7341Z" fill="#E4897B"/>
<path d="M86.0685 75.3509C84.9423 76.381 83.0551 78.4439 83.1839 80.0211C83.1839 80.0211 80.2612 80.1579 77.756 79.2813C77.379 76.4061 79.889 76.6852 79.889 76.6852C81.3205 77.5534 82.0363 76.4954 82.5516 75.323L86.0685 75.3509Z" fill="#E4897B"/>
<path d="M84.6346 75.3398L82.5517 75.323C82.4372 75.5987 82.3022 75.8621 82.1484 76.1102C82.6566 76.4898 83.6873 76.7076 84.1431 76.2023C84.3493 75.9511 84.5157 75.6591 84.6346 75.3398Z" fill="#CE6F64"/>
<path d="M88.4234 72.7688C86.9489 74.9016 86.3643 75.8395 84.7038 76.1856C82.2081 76.6993 80.2922 74.1144 81.1917 71.5099C82.0029 69.165 84.2791 66.0693 86.6793 66.7364C87.2109 66.8796 87.7024 67.1796 88.107 67.6079C88.5115 68.0362 88.8157 68.5784 88.9905 69.1831C89.1653 69.7877 89.205 70.4346 89.1057 71.0623C89.0064 71.6899 88.7716 72.2774 88.4234 72.7688Z" fill="#E4897B"/>
<path d="M87.6502 74.1199C87.6262 74.1198 87.6031 74.1088 87.5858 74.0892L85.6628 71.8923C85.6475 71.8715 85.6394 71.8446 85.6403 71.8172C85.6412 71.7898 85.6509 71.7637 85.6675 71.7443C85.6841 71.7249 85.7064 71.7135 85.7298 71.7125C85.7533 71.7115 85.7762 71.7208 85.794 71.7388L87.7147 73.9329C87.7235 73.9428 87.7306 73.9547 87.7354 73.9679C87.7403 73.9811 87.7427 73.9953 87.7427 74.0096C87.7427 74.024 87.7403 74.0382 87.7354 74.0514C87.7306 74.0646 87.7235 74.0765 87.7147 74.0864C87.6978 74.107 87.6746 74.119 87.6502 74.1199Z" fill="#263238"/>
<path d="M85.6677 67.0239C85.7464 67.6269 86.8606 70.1392 87.9796 70.798C87.5812 71.281 85.1309 73.2685 87.0563 74.614C88.9817 75.9595 91.3271 73.1736 90.597 71.2391C92.0595 69.2432 90.6566 67.3701 89.3563 66.3623C88.056 65.3546 85.3766 64.8186 85.6677 67.0239Z" fill="#263238"/>
<path d="M83.735 67.3813C83.735 67.3813 85.8394 67.0546 86.4311 67.7972C86.5599 67.2166 86.4311 66.3121 85.7535 66.3875C85.0759 66.4629 83.735 67.3813 83.735 67.3813Z" fill="#263238"/>
<path d="M90.8928 71.0298C90.8732 71.0302 90.854 71.0234 90.8379 71.0103C90.8167 70.9928 90.8023 70.9663 90.7979 70.9365C90.7934 70.9067 90.7992 70.876 90.814 70.8511C91.3198 70.0137 91.4511 69.1762 91.1934 68.3974C90.8951 67.5069 90.0839 66.7979 89.0771 66.5495C89.0523 66.5428 89.0307 66.525 89.0169 66.5C89.0031 66.475 88.9981 66.4447 89.0031 66.4155C89.0089 66.3863 89.0239 66.3608 89.0452 66.3442C89.0665 66.3275 89.0924 66.3211 89.1176 66.3261C90.1865 66.5913 91.0502 67.3534 91.3723 68.3165C91.5704 68.9055 91.661 69.8462 90.9715 70.9823C90.9628 70.9973 90.951 71.0095 90.9373 71.0177C90.9235 71.026 90.9082 71.0302 90.8928 71.0298Z" fill="#263238"/>
<path d="M87.7076 74.9266C87.3804 75.2943 86.9419 75.4951 86.4884 75.4849C85.8871 75.4654 85.7726 74.7871 86.0804 74.2316C86.3643 73.7347 87.0205 73.1429 87.5525 73.4332C87.6665 73.4998 87.7646 73.5984 87.838 73.7202C87.9114 73.842 87.9579 73.9832 87.9733 74.1311C87.9886 74.2791 87.9724 74.4292 87.926 74.568C87.8797 74.7069 87.8046 74.8301 87.7076 74.9266Z" fill="#E4897B"/>
<path d="M65.8455 80.3785C65.8455 80.3785 63.0349 79.2619 59.0528 78.1453L58.6162 85.1687C62.4599 87.4465 65.8503 90.5646 68.637 88.5185L65.8455 80.3785Z" fill="#30AD4C"/>
<path opacity="0.7" d="M65.8455 80.3785C65.8455 80.3785 63.0349 79.2619 59.0528 78.1453L58.6162 85.1687C62.4599 87.4465 65.8503 90.5646 68.637 88.5185L65.8455 80.3785Z" fill="black"/>
<path d="M58.5208 77.6875C58.7026 80.2757 58.5579 82.8811 58.0913 85.4199C58.5549 85.7052 59.0396 85.9406 59.5396 86.1234C60.1071 83.5063 60.3481 80.8069 60.2553 78.109C59.6927 77.8918 59.1108 77.7504 58.5208 77.6875Z" fill="#30AD4C"/>
<path opacity="0.6" d="M58.5208 77.6875C58.7026 80.2757 58.5579 82.8811 58.0913 85.4199C58.5549 85.7052 59.0396 85.9406 59.5396 86.1234C60.1071 83.5063 60.3481 80.8069 60.2553 78.109C59.6927 77.8918 59.1108 77.7504 58.5208 77.6875Z" fill="#F5F5F5"/>
<path d="M69.2073 88.443L68.4915 89.0571C68.4733 89.0648 68.4538 89.0679 68.4344 89.0662C68.415 89.0645 68.3962 89.0581 68.3791 89.0473C68.3619 89.0365 68.347 89.0216 68.3351 89.0036C68.3233 88.9855 68.3148 88.9648 68.3102 88.9427L64.5524 77.8409C64.519 77.746 64.5381 77.6315 64.6359 77.6343L65.5903 77.8297C65.6344 77.8351 65.6759 77.8566 65.7089 77.8911C65.7419 77.9257 65.7647 77.9717 65.774 78.0223L69.2288 88.242C69.2403 88.2749 69.2443 88.3106 69.2406 88.3458C69.2368 88.381 69.2253 88.4145 69.2073 88.443Z" fill="#30AD4C"/>
<path opacity="0.3" d="M69.2073 88.443L68.4915 89.0571C68.4733 89.0648 68.4538 89.0679 68.4344 89.0662C68.415 89.0645 68.3962 89.0581 68.3791 89.0473C68.3619 89.0365 68.347 89.0216 68.3351 89.0036C68.3233 88.9855 68.3148 88.9648 68.3102 88.9427L64.5524 77.8409C64.519 77.746 64.5381 77.6315 64.6359 77.6343L65.5903 77.8297C65.6344 77.8351 65.6759 77.8566 65.7089 77.8911C65.7419 77.9257 65.7647 77.9717 65.774 78.0223L69.2288 88.242C69.2403 88.2749 69.2443 88.3106 69.2406 88.3458C69.2368 88.381 69.2253 88.4145 69.2073 88.443Z" fill="black"/>
<path d="M67.7161 87.4884L67.8116 87.7675C67.8307 87.8233 67.8712 87.8541 67.8999 87.8373L68.8924 87.2232C68.921 87.2064 68.9306 87.145 68.9115 87.0892L68.8137 86.81C68.7946 86.7514 68.7564 86.7207 68.7278 86.7403L67.7352 87.3516C67.7193 87.3685 67.7088 87.3913 67.7053 87.4161C67.7019 87.4409 67.7057 87.4664 67.7161 87.4884Z" fill="#263238"/>
<path d="M64.7719 78.8739L64.8602 79.1531C64.8793 79.2061 64.9222 79.2452 64.9556 79.2368L66.1223 78.9577C66.1557 78.9577 66.17 78.8991 66.151 78.846L66.0627 78.5669C66.0436 78.5111 66.0006 78.4748 65.9672 78.4831L64.8005 78.7623C64.7719 78.7679 64.7552 78.8181 64.7719 78.8739Z" fill="#263238"/>
<path d="M66.2535 83.1869L66.3489 83.466C66.368 83.5218 66.4086 83.5581 66.4396 83.5442L67.4989 83.1031C67.53 83.0892 67.5419 83.0333 67.5228 82.9775L67.4274 82.6983C67.4083 82.6425 67.3677 82.6062 67.3367 82.6202L66.2774 83.0612C66.2463 83.0696 66.2368 83.1254 66.2535 83.1869Z" fill="#263238"/>
<path d="M85.9492 71.7415C85.806 71.9691 85.6093 72.1431 85.3831 72.2422C85.1568 72.3413 84.9109 72.3613 84.6751 72.2998C84.5386 72.2572 84.4111 72.1821 84.3005 72.0793C84.183 71.9597 84.0871 71.8139 84.0182 71.6505C83.9494 71.4871 83.909 71.3093 83.8994 71.1274C83.8899 70.9455 83.9113 70.7633 83.9626 70.5912C84.0138 70.4192 84.0938 70.2608 84.1979 70.1252L85.9492 71.7415Z" fill="#263238"/>
<path d="M84.1669 70.4436C84.145 70.4439 84.1239 70.435 84.1072 70.4185L83.8233 70.1393C83.8136 70.1304 83.8056 70.1193 83.7997 70.1066C83.7938 70.0939 83.7902 70.08 83.7891 70.0656C83.788 70.0512 83.7894 70.0367 83.7932 70.023C83.797 70.0093 83.8032 69.9966 83.8114 69.9858C83.8192 69.9748 83.8288 69.9657 83.8396 69.959C83.8505 69.9524 83.8623 69.9483 83.8745 69.947C83.8867 69.9457 83.899 69.9472 83.9107 69.9515C83.9223 69.9557 83.9332 69.9627 83.9426 69.9719L84.2265 70.251C84.2439 70.2714 84.2536 70.299 84.2536 70.3278C84.2536 70.3565 84.2439 70.3841 84.2265 70.4045C84.2113 70.4255 84.1901 70.4394 84.1669 70.4436Z" fill="#263238"/>
<path d="M85.1522 70.985C85.0425 71.1665 84.8707 71.2446 84.7705 71.1609C84.6703 71.0771 84.675 70.8594 84.7848 70.678C84.8945 70.4965 85.0687 70.4183 85.1689 70.5021C85.2691 70.5858 85.2644 70.8036 85.1522 70.985Z" fill="#263238"/>
<path d="M84.0642 70.0053C83.9216 70.2337 83.725 70.4083 83.4986 70.5075C83.2722 70.6068 83.0259 70.6262 82.7902 70.5636C82.658 70.5202 82.5347 70.4462 82.4275 70.3459C81.936 69.8965 81.8907 69.0367 82.3249 68.3918L84.0642 70.0053Z" fill="#263238"/>
<path d="M83.3987 69.5224C83.289 69.7038 83.1172 69.782 83.0146 69.6982C82.912 69.6145 82.9215 69.3968 83.0313 69.2153C83.141 69.0339 83.3128 68.9557 83.4154 69.0394C83.518 69.1232 83.5085 69.3409 83.3987 69.5224Z" fill="#263238"/>
<path d="M83.4535 69.0868L83.1577 68.6514C83.1577 68.6514 83.1434 69.151 83.4535 69.0868Z" fill="#263238"/>
<path d="M83.883 70.2285C83.4351 70.4519 82.963 70.6022 82.4801 70.6752C82.493 70.8138 82.5315 70.9475 82.5928 71.067C82.6542 71.1865 82.737 71.289 82.8356 71.3675L83.883 70.2285Z" fill="#DE5753"/>
<path d="M83.9808 73.0369C83.6314 73.0357 83.2914 72.9047 83.0097 72.6628C83.0046 72.6589 83.0002 72.6538 82.9968 72.6478C82.9934 72.6419 82.9911 72.6351 82.99 72.6281C82.9889 72.6211 82.989 72.6138 82.9904 72.6068C82.9917 72.5998 82.9942 72.5932 82.9978 72.5874C83.007 72.5778 83.0189 72.5725 83.0312 72.5725C83.0435 72.5725 83.0554 72.5778 83.0646 72.5874C83.2553 72.7556 83.4772 72.8685 83.7124 72.917C83.9475 72.9656 84.1891 72.9483 84.4174 72.8666C84.4231 72.8639 84.4291 72.8626 84.4352 72.8627C84.4412 72.8628 84.4472 72.8643 84.4528 72.8671C84.4584 72.87 84.4634 72.8741 84.4676 72.8793C84.4717 72.8845 84.475 72.8906 84.4771 72.8973C84.4818 72.911 84.4817 72.9263 84.4768 72.9399C84.4718 72.9535 84.4625 72.9643 84.4508 72.9699C84.2984 73.0226 84.1396 73.0452 83.9808 73.0369Z" fill="#263238"/>
<path d="M86.6196 70.2482C86.5967 70.249 86.5744 70.2397 86.5572 70.2221C86.5399 70.2045 86.529 70.1799 86.5266 70.1533C86.5135 69.9858 86.4667 69.8244 86.3899 69.6822C86.3132 69.54 86.2088 69.4212 86.0852 69.3354C86.0742 69.3289 86.0644 69.3201 86.0564 69.3092C86.0484 69.2984 86.0422 69.2858 86.0384 69.2722C86.0345 69.2586 86.0329 69.2442 86.0338 69.2299C86.0347 69.2156 86.0379 69.2016 86.0434 69.1888C86.0489 69.176 86.0565 69.1645 86.0658 69.1551C86.075 69.1457 86.0858 69.1386 86.0974 69.134C86.109 69.1295 86.1213 69.1277 86.1335 69.1287C86.1458 69.1297 86.1577 69.1335 86.1687 69.1399C86.3201 69.2417 86.4484 69.3846 86.5427 69.5566C86.6369 69.7286 86.6944 69.9247 86.7103 70.1281C86.712 70.1423 86.7111 70.1567 86.7079 70.1705C86.7047 70.1843 86.6992 70.1972 86.6916 70.2084C86.684 70.2196 86.6746 70.2289 86.6638 70.2357C86.6531 70.2426 86.6413 70.2468 86.6292 70.2482H86.6196Z" fill="#263238"/>
<path d="M83.9974 68.3526C83.9832 68.3527 83.9691 68.349 83.9563 68.3418C83.9434 68.3345 83.9322 68.3239 83.9235 68.3108C83.8274 68.1857 83.707 68.0894 83.5724 68.0302C83.4379 67.9709 83.2932 67.9503 83.1504 67.9702C83.1383 67.9721 83.1259 67.9711 83.1141 67.9672C83.1023 67.9632 83.0913 67.9564 83.0819 67.9472C83.0725 67.938 83.0648 67.9266 83.0593 67.9138C83.0539 67.9009 83.0508 67.8868 83.0502 67.8725C83.0489 67.8583 83.05 67.844 83.0536 67.8304C83.0571 67.8167 83.0629 67.8041 83.0707 67.7931C83.0785 67.7822 83.0881 67.7732 83.0989 67.7667C83.1097 67.7602 83.1216 67.7563 83.1337 67.7552C83.3074 67.7329 83.4832 67.7595 83.6463 67.8328C83.8094 67.9061 83.9552 68.0241 84.0714 68.1768C84.0861 68.1999 84.0926 68.2288 84.0895 68.2575C84.0863 68.2861 84.0739 68.3122 84.0547 68.3303C84.0379 68.3443 84.018 68.3521 83.9974 68.3526Z" fill="#263238"/>
<path d="M82.2582 80.8503C83.2388 80.0631 87.2949 81.4281 87.2949 81.4281L86.6817 87.1926C86.6817 87.1926 82.4229 86.0592 80.8935 86.1848C79.5956 86.2881 81.0104 81.8552 82.2582 80.8503Z" fill="#30AD4C"/>
<path opacity="0.6" d="M82.2582 80.8503C83.2388 80.0631 87.2949 81.4281 87.2949 81.4281L86.6817 87.1926C86.6817 87.1926 82.4229 86.0592 80.8935 86.1848C79.5956 86.2881 81.0104 81.8552 82.2582 80.8503Z" fill="#F5F5F5"/>
<path d="M35.9597 95.3715C35.6471 95.3715 35.0984 95.2877 34.9409 94.9946C34.915 94.941 34.9014 94.8804 34.9014 94.8188C34.9014 94.7571 34.915 94.6965 34.9409 94.6429C34.9517 94.6074 34.9705 94.5759 34.9952 94.5518C35.02 94.5278 35.0499 94.512 35.0817 94.5061C35.3752 94.4586 35.9406 95.1956 36.0026 95.2794C36.0073 95.2887 36.0097 95.2993 36.0097 95.3101C36.0097 95.3208 36.0073 95.3314 36.0026 95.3408C35.9984 95.3499 35.9923 95.3575 35.9847 95.3629C35.9772 95.3683 35.9685 95.3712 35.9597 95.3715ZM35.1103 94.6122H35.0888C35.0725 94.6148 35.0572 94.6228 35.0445 94.6351C35.0319 94.6475 35.0224 94.6637 35.0173 94.682C34.9989 94.7208 34.9892 94.7646 34.9892 94.809C34.9892 94.8534 34.9989 94.8971 35.0173 94.936C35.1079 95.1007 35.4133 95.2151 35.8476 95.2514C35.6638 95.0114 35.2964 94.6122 35.1103 94.6122Z" fill="#FAFAFA"/>
<path d="M35.9596 95.3716C35.9537 95.3718 35.9478 95.3704 35.9424 95.3675C35.937 95.3646 35.9323 95.3603 35.9286 95.3549C35.7473 95.1427 35.4705 94.4393 35.5922 94.1601C35.6111 94.1157 35.6426 94.0803 35.6813 94.0599C35.72 94.0395 35.7636 94.0355 35.8045 94.0485C35.8457 94.0557 35.8851 94.0732 35.9201 94.0997C35.955 94.1261 35.9848 94.161 36.0073 94.202C36.1911 94.5342 36.0073 95.299 36.0073 95.3186C36.0052 95.3279 36.0009 95.3365 35.9951 95.3433C35.9892 95.3502 35.9819 95.3551 35.9739 95.3577L35.9596 95.3716ZM35.7592 94.1545C35.7417 94.1524 35.7241 94.1567 35.7088 94.1667C35.6934 94.1766 35.681 94.1919 35.6733 94.2104C35.5922 94.4002 35.7735 94.9417 35.9382 95.1985C35.9787 94.9836 36.0551 94.4867 35.9382 94.2606C35.9232 94.2323 35.903 94.2083 35.8791 94.1904C35.8551 94.1725 35.828 94.1612 35.7998 94.1573L35.7592 94.1545Z" fill="#FAFAFA"/>
<path d="M85.2095 70.5495L84.9112 70.114C84.9112 70.114 84.8969 70.6249 85.2095 70.5495Z" fill="#263238"/>
</svg>
