<svg width="150" height="131" viewBox="0 0 150 131" fill="none" xmlns="http://www.w3.org/2000/svg">
<path d="M21.7123 94.9388C20.0145 95.7111 20.2219 97.8622 21.7123 98.8608C23.2028 99.8594 25.3867 99.9227 27.3211 99.6572C29.2554 99.3917 31.1315 98.8427 33.095 98.7793C38.6811 98.6013 43.0488 102.216 47.3517 104.982C58.1933 111.945 73.354 114.636 87.0113 112.03C100.669 109.423 112.495 101.567 117.948 91.4905C118.564 90.3501 119.073 88.9533 118.14 87.9517C117.125 86.8595 115.055 86.8957 113.334 87.0466C94.6613 88.7692 76.0401 91.5719 57.2439 91.234C51.2561 91.1254 44.9832 90.7332 39.5462 92.6852C38.1983 93.1679 36.8244 93.8044 35.3502 93.6868C34.2032 93.5933 33.2117 93.0532 32.1295 92.7455C28.0663 91.584 23.7958 93.7622 20.3741 95.8228" fill="#EBEBEB"/>
<path d="M18.6018 123.437C20.7727 126.254 24.311 127.989 27.9723 128.626C31.6337 129.262 35.4247 128.888 39.0569 128.122C39.8516 127.99 40.6177 127.739 41.325 127.377C41.6778 127.194 41.9839 126.943 42.2222 126.64C42.4605 126.337 42.6253 125.989 42.7053 125.621C42.8933 124.441 41.8435 123.328 40.6219 122.969C39.39 122.608 38.0549 122.717 36.9087 123.271C35.7205 123.833 34.3983 124.106 33.0659 124.064C30.234 124.064 27.8136 121.874 24.9946 121.617C22.6358 121.406 20.3709 122.417 18.2745 123.446" fill="#EBEBEB"/>
<path d="M43.5445 128.116C40.7688 128.592 38.0226 129.208 35.3178 129.959C35.1266 130.01 34.9063 130.095 34.8642 130.276C34.8058 130.514 35.1007 130.686 35.3502 130.762C37.1776 131.305 39.1541 130.816 41.001 130.33L44.1667 129.494C44.5749 129.386 45.0642 129.193 45.0901 128.798C45.0822 128.658 45.0272 128.525 44.9329 128.416C44.8386 128.308 44.7099 128.23 44.5652 128.194C44.2687 128.127 43.96 128.122 43.6612 128.179" fill="#EBEBEB"/>
<path d="M88.3235 113.055C84.7598 113.549 81.3074 114.585 78.1041 116.121C77.78 116.283 77.3977 116.495 77.3394 116.842C77.2454 117.385 77.9421 117.726 78.5188 117.843C81.2373 118.383 84.0562 117.87 86.7845 117.358C87.7565 117.173 88.7707 116.977 89.584 116.452C90.3972 115.928 90.961 114.944 90.6629 114.039C90.3648 113.134 88.9748 112.681 88.2976 113.363" fill="#EBEBEB"/>
<path d="M62.1787 8.37196H93.8481C93.8481 8.37196 91.0453 3.63844 82.8963 4.31724C75.1199 4.97794 74.7149 1.98216 70.7554 1.60203C66.7959 1.2219 63.5007 4.07287 62.1787 8.37196Z" fill="#F5F5F5"/>
<path d="M91.2721 33.9463L87.2219 50.313L88.936 50.31L92.9926 34.1001L91.2721 33.9463Z" fill="#E0E0E0"/>
<path d="M98.6565 33.9463L102.72 50.313H104.346L100.416 33.9463H98.6565Z" fill="#E0E0E0"/>
<path d="M88.5406 21.6523L90.8444 32.9205H93.4625L91.0032 21.6523H88.5406Z" fill="#E0E0E0"/>
<path d="M48.3886 33.9463L45.0869 50.313H46.7653L50.2161 33.9463H48.3886Z" fill="#E0E0E0"/>
<path d="M55.3323 33.9463L59.1071 50.2255H60.7693L57.1241 33.9463H55.3323Z" fill="#E0E0E0"/>
<path d="M45.6539 21.6523L47.9609 32.9205H50.579L48.1165 21.6523H45.6539Z" fill="#E0E0E0"/>
<path d="M40.4696 20.6296L40.9394 22.6781H93.5434L92.9278 20.6296H40.4696Z" fill="#EBEBEB"/>
<path d="M41.4741 24.6089L42.0282 26.6574H94.2758L93.7995 24.6089H41.4741Z" fill="#EBEBEB"/>
<path d="M42.511 28.7268L43.0294 30.7753H95.115L94.6225 28.7268H42.511Z" fill="#EBEBEB"/>
<path d="M102.658 32.9233H46.493V34.9718H102.658V32.9233Z" fill="#EBEBEB"/>
<path d="M93.6829 3.16469H108.439C108.439 3.16469 107.142 0.953296 103.335 1.2761C99.7096 1.57779 99.5249 0.187003 97.6812 0.0150399C95.8376 -0.156924 94.2985 1.16146 93.6829 3.16469Z" fill="#EBEBEB"/>
<path d="M121.817 7.31886C121.817 7.31886 119.193 7.46669 120.197 12.8669C121.201 18.2672 122.235 21.082 122.235 21.082C122.235 21.082 122.332 22.2887 121.295 22.1831C120.259 22.0776 118.211 21.1333 117.407 22.1258C116.604 23.1184 117.116 24.5031 118.629 25.9844C120.142 27.4657 123.337 30.8115 123.622 31.1283C123.907 31.445 124.088 32.0333 123.369 32.0605C122.65 32.0876 117.644 31.1735 117.32 33.4121C116.996 35.6506 121.943 39.1442 122.478 39.5213C123.013 39.8984 123.074 40.191 122.925 40.4867C122.776 40.7824 121.12 40.3268 119.685 40.1216C118.25 39.9165 116.549 39.9105 116.477 41.2168C116.406 42.5231 118.865 46.0106 126.638 49.0336L130.335 50.2132L133.339 47.857C139.437 42.4447 140.393 38.3688 139.819 37.1711C139.246 35.9734 137.661 36.5466 136.401 37.2194C135.141 37.8922 133.773 38.8636 133.517 38.6404C133.261 38.4171 133.216 38.1305 133.566 37.5875C133.916 37.0444 137.198 32.157 136.035 30.1659C134.872 28.1747 130.549 30.7059 129.879 30.9201C129.208 31.1343 129.137 30.5068 129.286 30.1327C129.435 29.7586 131.126 25.553 131.972 23.6644C132.817 21.7759 132.804 20.3458 131.632 19.655C130.459 18.9641 128.942 20.56 128.019 21.0035C127.095 21.447 126.723 20.2885 126.723 20.2885C126.723 20.2885 126.583 17.3199 125.459 11.9408C124.335 6.56162 121.772 7.3249 121.772 7.3249" fill="#EBEBEB"/>
<path d="M130.264 50.2223C129.454 46.2672 128.145 40.0825 126.988 34.0366C125.832 27.9908 124.779 22.5181 123.991 18.5599C123.596 16.5869 123.275 14.9849 123.055 13.8747C122.945 13.3256 122.86 12.8972 122.799 12.6015C122.773 12.4567 122.753 12.3481 122.737 12.2697C122.721 12.1912 122.721 12.155 122.721 12.155L122.75 12.2667C122.766 12.3451 122.792 12.4537 122.825 12.5955C122.89 12.8972 122.98 13.3196 123.1 13.8656C123.34 14.9698 123.67 16.5808 124.072 18.5448C124.879 22.5 125.948 27.9696 127.105 34.0155C128.262 40.0614 129.558 46.2491 130.345 50.2072" fill="#E0E0E0"/>
<path d="M120.223 23.5498C120.306 23.5899 120.386 23.6374 120.459 23.6916C120.608 23.7881 120.822 23.933 121.082 24.117C121.597 24.482 122.3 25.004 123.061 25.5953L125.005 27.1037L125.598 27.5593C125.675 27.6107 125.745 27.6693 125.809 27.7343C125.723 27.6982 125.642 27.6515 125.569 27.5955C125.42 27.4989 125.21 27.3511 124.954 27.1671C124.438 26.796 123.745 26.262 122.984 25.6767L121.039 24.1683L120.443 23.7127C120.362 23.6676 120.288 23.6128 120.223 23.5498Z" fill="#E0E0E0"/>
<path d="M126.139 27.5865C126.11 27.5684 127.205 26.1746 128.579 24.4761C129.953 22.7776 131.094 21.414 131.12 21.4321C131.146 21.4502 130.054 22.844 128.677 24.5425C127.299 26.241 126.165 27.6046 126.139 27.5865Z" fill="#E0E0E0"/>
<path d="M127.468 36.9481C127.468 36.9481 127.542 36.8787 127.688 36.7761L128.317 36.3387C128.848 35.9676 129.577 35.4547 130.361 34.8604C131.145 34.2661 131.836 33.7079 132.331 33.2976L132.921 32.8149C132.988 32.7509 133.063 32.6942 133.145 32.646C133.09 32.7205 133.026 32.7884 132.953 32.8481C132.824 32.9688 132.629 33.1498 132.39 33.358C131.907 33.7834 131.223 34.3536 130.446 34.9479C129.668 35.5422 128.919 36.0491 128.375 36.402C128.103 36.58 127.879 36.7188 127.727 36.8123C127.646 36.8653 127.559 36.9108 127.468 36.9481Z" fill="#E0E0E0"/>
<path d="M121.263 34.3867C121.351 34.402 121.437 34.4273 121.519 34.4621L122.193 34.7125C122.76 34.9267 123.541 35.2315 124.4 35.5724C125.258 35.9133 126.036 36.23 126.596 36.4774L127.244 36.761C127.328 36.7907 127.408 36.8302 127.481 36.8787C127.393 36.8612 127.307 36.8349 127.225 36.8002L126.551 36.5529C125.984 36.3387 125.203 36.034 124.344 35.69C123.486 35.3461 122.708 35.0354 122.148 34.8L121.5 34.5195C121.416 34.4835 121.336 34.439 121.263 34.3867Z" fill="#E0E0E0"/>
<path d="M121.295 42.7888C121.407 42.8122 121.515 42.8455 121.619 42.8884L122.485 43.2051C123.214 43.4767 124.218 43.8598 125.326 44.2882C126.434 44.7166 127.429 45.1088 128.152 45.3984L129.004 45.7484C129.109 45.7878 129.211 45.8352 129.308 45.8902C129.197 45.8687 129.088 45.8353 128.984 45.7906L128.119 45.4739C127.39 45.2023 126.386 44.8192 125.278 44.3908C124.169 43.9624 123.175 43.5702 122.452 43.2806L121.603 42.9306C121.496 42.8916 121.394 42.8441 121.295 42.7888Z" fill="#E0E0E0"/>
<path d="M129.14 45.7663C129.225 45.6847 129.317 45.61 129.415 45.543L130.19 44.9608C130.838 44.469 131.745 43.7872 132.717 43.0088C133.689 42.2305 134.551 41.5004 135.17 40.9754L135.905 40.3509C135.993 40.2707 136.086 40.1961 136.184 40.1277C136.111 40.2195 136.029 40.3044 135.938 40.3811C135.773 40.538 135.533 40.7612 135.231 41.0358C134.625 41.5788 133.773 42.3149 132.798 43.0933C131.823 43.8717 130.912 44.5474 130.245 45.0241C129.921 45.2625 129.636 45.4495 129.444 45.5792C129.349 45.6493 129.247 45.7119 129.14 45.7663Z" fill="#E0E0E0"/>
<path d="M32.6057 111.42C32.688 111.656 32.7296 111.902 32.7289 112.15C32.7292 112.645 32.5651 113.128 32.259 113.532C38.1302 118.275 37.9714 121.801 37.965 121.889C38.8231 120.892 39.5085 119.776 39.9965 118.582C39.9998 118.507 40.1521 112.033 32.6057 111.42Z" fill="#30AD4C"/>
<path d="M30.4997 114.525C30.3849 114.54 30.269 114.549 30.153 114.549C29.914 114.549 29.6762 114.517 29.4466 114.455C28.4512 117.172 26.6382 119.565 24.2235 121.349C26.4916 121.325 28.5718 122.52 30.7038 123.28C31.8995 120.447 31.2676 116.986 30.4997 114.525Z" fill="#30AD4C"/>
<path d="M33.5195 103.066C33.7787 103.187 34.0315 103.317 34.2777 103.45C34.0315 103.317 33.7787 103.196 33.5195 103.066Z" fill="#30AD4C"/>
<path d="M27.9108 110.907C28.1085 110.596 28.3788 110.33 28.7019 110.129C29.0249 109.928 29.3924 109.797 29.7771 109.746C29.9677 107.187 30.9377 104.732 32.5734 102.668C31.0886 102.106 29.5066 101.799 27.9043 101.763C24.6026 105.377 26.1902 108.799 27.9108 110.907Z" fill="#30AD4C"/>
<path d="M28.0242 113.499C27.9606 113.413 27.9043 113.322 27.8557 113.227C27.8363 113.194 27.8201 113.161 27.8039 113.128C27.7877 113.095 27.7715 113.055 27.7553 113.019C27.6252 112.733 27.558 112.425 27.5576 112.114C19.5803 108.965 18.3815 105.26 18.3588 105.175C17.0554 106.331 16.018 107.722 15.3095 109.263C14.601 110.804 14.2362 112.462 14.2373 114.139C14.2373 114.44 14.2535 114.76 14.2794 115.065C19.266 117.747 25.0044 115.264 28.0242 113.499Z" fill="#30AD4C"/>
<path d="M38.3959 106.952C37.6907 106.035 36.8559 105.211 35.9139 104.502C36.8519 105.215 37.6862 106.039 38.3959 106.952Z" fill="#30AD4C"/>
<path d="M31.381 110.02C31.7314 110.203 32.0311 110.459 32.2558 110.769C32.3077 110.838 32.3595 110.91 32.4049 110.986C34.0768 110.328 37.8095 109.254 40.5344 111.366C40.1486 109.803 39.4387 108.325 38.4445 107.016C35.1622 106.044 32.8067 108.09 31.381 110.02Z" fill="#30AD4C"/>
<path d="M34.3652 103.498C34.618 103.637 34.861 103.784 35.1008 103.935C34.861 103.799 34.618 103.637 34.3652 103.498Z" fill="#30AD4C"/>
<path d="M35.2174 104.014C35.4313 104.155 35.6451 104.315 35.8492 104.454C35.6451 104.303 35.4313 104.155 35.2174 104.014Z" fill="#30AD4C"/>
<path d="M14.4091 116.148C14.4091 116.066 14.3831 115.988 14.3734 115.912C14.3831 115.991 14.3961 116.069 14.4091 116.148Z" fill="#30AD4C"/>
<path d="M14.3378 115.565C14.3378 115.469 14.3151 115.384 14.3086 115.315L14.3378 115.565Z" fill="#30AD4C"/>
<path d="M32.6155 102.683C32.9071 102.795 33.189 102.913 33.4644 103.039C33.1857 102.913 32.9039 102.792 32.6155 102.683Z" fill="#30AD4C"/>
<path opacity="0.4" d="M35.1007 103.935L35.2174 104.014L35.1007 103.935Z" fill="white"/>
<path opacity="0.4" d="M27.9043 101.763C27.9043 101.763 22.1855 101.295 18.3556 105.193C20.829 102.983 24.1259 101.75 27.5544 101.754C27.6743 101.754 27.7877 101.76 27.9043 101.763Z" fill="white"/>
<path opacity="0.4" d="M14.3734 115.912C14.354 115.792 14.3378 115.674 14.3248 115.553C14.3378 115.659 14.3378 115.777 14.3734 115.912Z" fill="white"/>
<path opacity="0.4" d="M36.5653 123.292L36.7532 123.216C37.1952 122.807 37.6005 122.365 37.9651 121.895C37.5375 122.393 37.0696 122.86 36.5653 123.292Z" fill="white"/>
<path opacity="0.4" d="M40.5344 111.366C40.761 112.281 40.8762 113.217 40.8779 114.157C40.878 115.67 40.5792 117.17 39.9966 118.582C41.0006 116.29 41.1902 113.759 40.5377 111.36L40.5344 111.366Z" fill="white"/>
<path opacity="0.4" d="M38.4478 107.016L38.396 106.952L38.4446 107.016H38.4478Z" fill="white"/>
<path opacity="0.4" d="M14.4091 116.148C14.7039 117.879 15.6209 121.316 18.4236 123.328L18.537 123.28C16.3412 121.401 14.8874 118.889 14.4091 116.148Z" fill="white"/>
<path opacity="0.4" d="M35.8491 104.454L35.9139 104.503L35.8491 104.454Z" fill="white"/>
<path opacity="0.4" d="M32.5734 102.665L32.6155 102.681L32.5734 102.665Z" fill="white"/>
<path opacity="0.4" d="M33.4547 103.039L33.5098 103.067L33.4547 103.039Z" fill="white"/>
<path opacity="0.4" d="M34.2777 103.45L34.3652 103.498L34.2777 103.45Z" fill="white"/>
<path d="M32.259 113.532C32.054 113.801 31.7922 114.027 31.4896 114.198C31.187 114.369 30.8501 114.48 30.4996 114.525C31.2676 116.987 31.8994 120.447 30.72 123.274C31.8294 123.718 33.0321 123.925 34.2388 123.877C35.0433 123.8 35.829 123.601 36.5652 123.289C37.0697 122.855 37.5377 122.386 37.965 121.886C37.9714 121.802 38.1302 118.281 32.259 113.532Z" fill="#30AD4C"/>
<path opacity="0.4" d="M32.259 113.532C32.054 113.801 31.7922 114.027 31.4896 114.198C31.187 114.369 30.8501 114.48 30.4996 114.525C31.2676 116.987 31.8994 120.447 30.72 123.274C31.8294 123.718 33.0321 123.925 34.2388 123.877C35.0433 123.8 35.829 123.601 36.5652 123.289C37.0697 122.855 37.5377 122.386 37.965 121.886C37.9714 121.802 38.1302 118.281 32.259 113.532Z" fill="white"/>
<path d="M29.4466 114.455C28.8675 114.3 28.3645 113.962 28.0242 113.499C25.0043 115.252 19.2757 117.747 14.2794 115.083C14.2794 115.158 14.2794 115.231 14.2794 115.303C14.2794 115.376 14.2956 115.457 14.3086 115.554C14.3215 115.65 14.3377 115.792 14.3572 115.913C14.3766 116.033 14.3799 116.066 14.3928 116.148C14.879 118.892 16.3433 121.405 18.55 123.28C20.2932 122.529 21.9748 121.494 23.8768 121.361C23.9999 121.361 24.1198 121.361 24.2364 121.361C26.6484 119.572 28.457 117.175 29.4466 114.455Z" fill="#30AD4C"/>
<path opacity="0.4" d="M29.4466 114.455C28.8675 114.3 28.3645 113.962 28.0242 113.499C25.0043 115.252 19.2757 117.747 14.2794 115.083C14.2794 115.158 14.2794 115.231 14.2794 115.303C14.2794 115.376 14.2956 115.457 14.3086 115.554C14.3215 115.65 14.3377 115.792 14.3572 115.913C14.3766 116.033 14.3799 116.066 14.3928 116.148C14.879 118.892 16.3433 121.405 18.55 123.28C20.2932 122.529 21.9748 121.494 23.8768 121.361C23.9999 121.361 24.1198 121.361 24.2364 121.361C26.6484 119.572 28.457 117.175 29.4466 114.455Z" fill="white"/>
<path d="M40.5345 111.366C37.8095 109.254 34.0768 110.328 32.4049 110.986C32.487 111.124 32.5543 111.27 32.6058 111.42C40.1521 112.024 39.9998 118.507 39.9966 118.588C40.58 117.174 40.8788 115.672 40.8779 114.157C40.8762 113.217 40.761 112.281 40.5345 111.366Z" fill="#30AD4C"/>
<path opacity="0.4" d="M40.5345 111.366C37.8095 109.254 34.0768 110.328 32.4049 110.986C32.487 111.124 32.5543 111.27 32.6058 111.42C40.1521 112.024 39.9998 118.507 39.9966 118.588C40.58 117.174 40.8788 115.672 40.8779 114.157C40.8762 113.217 40.761 112.281 40.5345 111.366Z" fill="white"/>
<path d="M27.8557 113.227C27.8362 113.194 27.82 113.161 27.8038 113.128C27.82 113.152 27.8362 113.194 27.8557 113.227Z" fill="#30AD4C"/>
<path opacity="0.4" d="M27.8557 113.227C27.8362 113.194 27.82 113.161 27.8038 113.128C27.82 113.152 27.8362 113.194 27.8557 113.227Z" fill="white"/>
<path d="M27.5576 112.123C27.558 112.434 27.6252 112.742 27.7552 113.028C27.6377 112.752 27.5773 112.457 27.577 112.16C27.5756 111.65 27.7489 111.153 28.0717 110.741C28.3946 110.329 28.85 110.024 29.3719 109.87C29.8938 109.716 30.4548 109.721 30.9735 109.884C31.4922 110.047 31.9414 110.36 32.2558 110.778C32.031 110.468 31.7314 110.212 31.381 110.03C32.8001 108.099 35.1622 106.053 38.4445 107.013L38.3959 106.949C37.6862 106.036 36.8519 105.212 35.9139 104.5L35.8491 104.451C35.645 104.301 35.4312 104.15 35.2173 104.011L35.1007 103.932C34.8609 103.782 34.6179 103.631 34.3651 103.495L34.2777 103.447C34.0314 103.314 33.7787 103.184 33.5195 103.064L33.4644 103.036C33.189 102.91 32.9071 102.792 32.6155 102.68L32.5733 102.665C30.9376 104.729 29.9677 107.184 29.7771 109.743C29.3924 109.794 29.0249 109.925 28.7019 110.126C28.3788 110.327 28.1084 110.593 27.9107 110.904C26.1902 108.793 24.6025 105.375 27.9107 101.76C27.7941 101.76 27.6807 101.76 27.5641 101.76C24.1355 101.756 20.8386 102.989 18.3652 105.2C18.3814 105.269 19.5803 108.974 27.5576 112.123Z" fill="#30AD4C"/>
<path opacity="0.4" d="M27.5576 112.123C27.558 112.434 27.6252 112.742 27.7552 113.028C27.6377 112.752 27.5773 112.457 27.577 112.16C27.5756 111.65 27.7489 111.153 28.0717 110.741C28.3946 110.329 28.85 110.024 29.3719 109.87C29.8938 109.716 30.4548 109.721 30.9735 109.884C31.4922 110.047 31.9414 110.36 32.2558 110.778C32.031 110.468 31.7314 110.212 31.381 110.03C32.8001 108.099 35.1622 106.053 38.4445 107.013L38.3959 106.949C37.6862 106.036 36.8519 105.212 35.9139 104.5L35.8491 104.451C35.645 104.301 35.4312 104.15 35.2173 104.011L35.1007 103.932C34.8609 103.782 34.6179 103.631 34.3651 103.495L34.2777 103.447C34.0314 103.314 33.7787 103.184 33.5195 103.064L33.4644 103.036C33.189 102.91 32.9071 102.792 32.6155 102.68L32.5733 102.665C30.9376 104.729 29.9677 107.184 29.7771 109.743C29.3924 109.794 29.0249 109.925 28.7019 110.126C28.3788 110.327 28.1084 110.593 27.9107 110.904C26.1902 108.793 24.6025 105.375 27.9107 101.76C27.7941 101.76 27.6807 101.76 27.5641 101.76C24.1355 101.756 20.8386 102.989 18.3652 105.2C18.3814 105.269 19.5803 108.974 27.5576 112.123Z" fill="white"/>
<path d="M30.1529 109.752C29.4682 109.752 28.8114 110.004 28.3257 110.454C27.8401 110.903 27.5651 111.513 27.5608 112.15C27.5611 112.448 27.6215 112.743 27.739 113.019C27.739 113.055 27.7682 113.092 27.7876 113.128C27.807 113.164 27.82 113.194 27.8394 113.227C27.8881 113.322 27.9444 113.413 28.0079 113.499C28.3483 113.962 28.8512 114.3 29.4304 114.455C29.6599 114.517 29.8977 114.549 30.1367 114.549C30.2528 114.549 30.3686 114.54 30.4834 114.525C31.101 114.448 31.6676 114.165 32.0777 113.728C32.4878 113.291 32.7134 112.731 32.7126 112.15C32.7134 111.902 32.6718 111.656 32.5895 111.42C32.538 111.27 32.4707 111.124 32.3886 110.986C32.3433 110.91 32.2914 110.838 32.2396 110.769C32.004 110.457 31.6917 110.201 31.3287 110.025C30.9657 109.848 30.5626 109.754 30.1529 109.752Z" fill="#FAFAFA"/>
<path d="M51.9398 78.524C51.9137 78.5594 51.8832 78.5918 51.849 78.6206C51.7561 78.7134 51.6554 78.7992 51.5477 78.877C51.1385 79.1834 50.6616 79.4018 50.1512 79.5166C49.3431 79.6967 48.5041 79.7213 47.6854 79.589C47.1743 79.5181 46.6704 79.4081 46.1788 79.2601C45.6571 79.1033 45.1192 78.9072 44.5587 78.699C43.9981 78.4908 43.4084 78.2706 42.7831 78.0805C42.138 77.8739 41.4693 77.7382 40.7904 77.6763C40.064 77.6159 39.3319 77.6835 38.6324 77.8754C37.8908 78.0879 37.1725 78.3657 36.4874 78.705C35.7746 79.0399 35.0585 79.414 34.2938 79.7428C33.5161 80.0944 32.6842 80.3305 31.8281 80.4428C30.9331 80.5244 30.0297 80.4435 29.1679 80.2044C28.2908 79.9589 27.4333 79.6565 26.6017 79.2994C25.756 78.9554 24.9233 78.6085 24.0711 78.349C23.2388 78.0764 22.3613 77.9426 21.479 77.9538C20.632 77.9868 19.799 78.1669 19.023 78.4848C18.2518 78.7865 17.526 79.1334 16.8099 79.4683C16.1181 79.8057 15.4 80.0941 14.6617 80.3311C13.9543 80.5515 13.2105 80.6537 12.4649 80.6328C11.7785 80.5962 11.1006 80.4734 10.4495 80.2678C9.80147 80.0807 9.2312 79.8514 8.67065 79.6342C8.1101 79.417 7.58196 79.2058 7.07001 79.0308C6.58849 78.8701 6.0931 78.748 5.58926 78.6658C4.7855 78.5116 3.95642 78.5116 3.15266 78.6658C2.64751 78.7699 2.17302 78.9759 1.76263 79.2692C1.48398 79.4713 1.36409 79.6131 1.35437 79.6041C1.38175 79.5696 1.41209 79.5374 1.44509 79.5075C1.53409 79.4114 1.63283 79.3235 1.73995 79.245C2.14835 78.9375 2.62552 78.7189 3.13646 78.6055C3.94357 78.4412 4.77818 78.432 5.58926 78.5783C6.09874 78.6604 6.59961 78.7836 7.08621 78.9464C7.6014 79.1153 8.13603 79.3235 8.70629 79.5498C9.27656 79.776 9.85331 79.9872 10.4819 80.1712C11.1282 80.3722 11.8007 80.4909 12.4811 80.5242C13.2096 80.5427 13.9359 80.4405 14.6261 80.2225C15.3587 79.9832 16.0713 79.6938 16.7581 79.3567C17.4709 79.0218 18.1967 78.6628 18.9776 78.3641C19.7719 78.0378 20.6246 77.8526 21.492 77.8181C22.3886 77.8063 23.2804 77.9422 24.1262 78.2193C24.992 78.4976 25.842 78.8168 26.673 79.1757C27.4979 79.5304 28.3477 79.8328 29.2165 80.0807C30.056 80.315 30.9364 80.3949 31.8086 80.3161C32.648 80.2091 33.4638 79.979 34.2258 79.6342C34.984 79.3084 35.7001 78.9373 36.4194 78.6025C37.114 78.2612 37.842 77.9823 38.5935 77.7698C39.3104 77.5762 40.0598 77.5086 40.8033 77.5707C41.4913 77.6391 42.1687 77.7808 42.8219 77.993C43.4538 78.1891 44.0435 78.4124 44.604 78.6236C45.1646 78.8347 45.6992 79.0339 46.2241 79.1907C46.709 79.342 47.2064 79.456 47.7113 79.5317C48.5188 79.6676 49.3474 79.6511 50.1479 79.4834C50.6533 79.3772 51.1284 79.1714 51.5412 78.88C51.8102 78.6507 51.9236 78.515 51.9398 78.524Z" fill="black"/>
<path d="M146.212 80.4668C146.212 80.4668 146.183 80.5 146.118 80.5603C146.027 80.6533 145.927 80.7391 145.82 80.8168C145.411 81.1243 144.932 81.3428 144.42 81.4563C143.612 81.6361 142.774 81.6618 141.955 81.5318C141.444 81.4591 140.94 81.3482 140.448 81.1999C139.926 81.043 139.388 80.8469 138.828 80.6388C138.267 80.4306 137.674 80.2104 137.049 80.0354C136.405 79.8263 135.736 79.6896 135.056 79.6281C134.33 79.5673 133.597 79.6359 132.898 79.8302C132.157 80.0399 131.44 80.3168 130.757 80.6569C130.044 80.9917 129.325 81.3658 128.56 81.6947C127.782 82.0466 126.95 82.2828 126.094 82.3946C125.199 82.4763 124.296 82.3953 123.434 82.1563C122.557 81.9095 121.7 81.6071 120.868 81.2512C120.022 80.9042 119.189 80.5573 118.34 80.2978C117.508 80.0255 116.631 79.8918 115.748 79.9026C114.901 79.9356 114.068 80.1157 113.292 80.4336C112.521 80.7353 111.799 81.0822 111.079 81.4171C110.385 81.7568 109.665 82.0473 108.924 82.286C108.218 82.5062 107.475 82.6083 106.731 82.5877C106.038 82.5523 105.353 82.4285 104.696 82.2196C104.048 82.0326 103.475 81.8033 102.914 81.5861C102.353 81.3688 101.825 81.1577 101.317 80.9827C100.836 80.8196 100.342 80.6944 99.8391 80.6086C99.0364 80.4543 98.2084 80.4543 97.4057 80.6086C96.8994 80.7122 96.4237 80.9182 96.0124 81.212C95.7338 81.4171 95.6171 81.5559 95.6074 81.5468C95.5977 81.5378 95.6333 81.5106 95.6981 81.4503C95.7854 81.3527 95.8844 81.2646 95.993 81.1878C96.4006 80.879 96.878 80.6603 97.3895 80.5482C98.1998 80.3779 99.0391 80.3646 99.8553 80.509C100.365 80.5912 100.866 80.7143 101.352 80.8771C101.867 81.046 102.402 81.2542 102.972 81.4805C103.543 81.7067 104.116 81.9179 104.745 82.1019C105.391 82.3029 106.063 82.4216 106.744 82.4549C107.472 82.4722 108.198 82.3701 108.889 82.1532C109.621 81.9127 110.334 81.6223 111.021 81.2844C111.734 80.9495 112.463 80.5905 113.244 80.2918C114.037 79.9652 114.888 79.78 115.755 79.7457C116.652 79.7342 117.545 79.8701 118.392 80.147C119.254 80.4065 120.09 80.7504 120.936 81.1034C121.761 81.4581 122.61 81.7605 123.479 82.0084C124.319 82.242 125.199 82.3229 126.071 82.2468C126.911 82.1376 127.726 81.9065 128.489 81.5619C129.247 81.2361 129.966 80.865 130.682 80.5301C131.377 80.1889 132.105 79.91 132.856 79.6975C133.573 79.5035 134.323 79.4369 135.066 79.5014C135.755 79.5677 136.434 79.7084 137.088 79.9207C137.717 80.1168 138.306 80.3401 138.867 80.5513C139.427 80.7624 139.965 80.9616 140.487 81.1215C140.972 81.2707 141.47 81.3837 141.974 81.4594C142.781 81.5953 143.608 81.5788 144.407 81.4111C144.913 81.3056 145.388 81.0998 145.801 80.8077C146.066 80.5905 146.19 80.4577 146.212 80.4668Z" fill="black"/>
<path d="M141.585 110.775C141.563 110.804 141.537 110.832 141.508 110.856C141.431 110.936 141.347 111.009 141.255 111.073C140.909 111.334 140.505 111.52 140.072 111.616C139.389 111.771 138.679 111.794 137.986 111.683C137.554 111.621 137.128 111.528 136.712 111.405C136.268 111.272 135.815 111.104 135.338 110.932C134.389 110.588 133.342 110.168 132.153 110.066C131.54 110.016 130.922 110.074 130.332 110.238C129.706 110.417 129.099 110.651 128.521 110.938C127.922 111.221 127.312 111.541 126.668 111.815C126.009 112.116 125.304 112.32 124.578 112.419C123.815 112.489 123.044 112.419 122.31 112.214C121.568 112.004 120.843 111.748 120.139 111.447C119.423 111.146 118.72 110.859 118 110.642C117.302 110.412 116.566 110.298 115.826 110.307C115.111 110.336 114.408 110.488 113.752 110.754C113.104 111.004 112.489 111.303 111.883 111.586C111.295 111.874 110.685 112.12 110.059 112.322C109.46 112.511 108.83 112.599 108.199 112.585C106.967 112.53 105.911 112.093 104.959 111.734C104.131 111.368 103.261 111.092 102.366 110.91C101.689 110.781 100.99 110.781 100.312 110.91C99.8848 110.998 99.4833 111.172 99.136 111.42C98.8995 111.592 98.812 111.707 98.7893 111.701C98.7666 111.695 98.812 111.671 98.8671 111.616C98.9413 111.536 99.0238 111.462 99.1133 111.396C99.4569 111.132 99.8618 110.946 100.296 110.853C100.981 110.707 101.692 110.694 102.383 110.817C103.289 110.99 104.171 111.261 105.01 111.625C105.953 111.978 107.006 112.401 108.199 112.449C108.813 112.459 109.425 112.37 110.007 112.184C110.626 111.982 111.229 111.737 111.808 111.45C112.411 111.167 113.027 110.847 113.688 110.609C114.36 110.334 115.082 110.177 115.816 110.147C116.577 110.138 117.334 110.253 118.052 110.488C118.781 110.708 119.487 111.004 120.204 111.297C120.9 111.597 121.617 111.851 122.352 112.057C123.061 112.256 123.805 112.325 124.542 112.259C125.997 112.096 127.228 111.369 128.43 110.811C129.018 110.522 129.634 110.287 130.271 110.108C130.878 109.942 131.513 109.885 132.144 109.939C132.727 109.997 133.301 110.117 133.854 110.298C134.386 110.461 134.885 110.651 135.358 110.829C135.831 111.007 136.284 111.179 136.722 111.312C137.131 111.439 137.55 111.535 137.976 111.598C138.657 111.713 139.357 111.701 140.033 111.562C140.461 111.472 140.863 111.298 141.213 111.052C141.472 110.88 141.576 110.766 141.585 110.775Z" fill="black"/>
<path d="M54.5157 122.172C54.4869 122.206 54.4555 122.237 54.4217 122.266C54.3304 122.36 54.2307 122.447 54.1236 122.525C53.7128 122.831 53.235 123.048 52.7239 123.162C51.9161 123.343 51.077 123.369 50.2581 123.237C49.7471 123.165 49.2433 123.054 48.7515 122.906C48.2298 122.752 47.6952 122.553 47.1314 122.344C46.5676 122.136 45.9779 121.919 45.3525 121.741C44.7076 121.533 44.0389 121.397 43.3598 121.334C42.6343 121.274 41.9034 121.343 41.2051 121.536C40.4631 121.746 39.7448 122.023 39.0601 122.362C38.3473 122.697 37.628 123.071 36.8633 123.4C36.0859 123.753 35.2539 123.99 34.3976 124.103C33.5024 124.184 32.599 124.102 31.7374 123.862C30.8603 123.616 30.0028 123.314 29.1712 122.957C28.3255 122.61 27.4928 122.263 26.6439 122.003C25.8141 121.729 24.9389 121.592 24.0582 121.599C23.2103 121.634 22.3766 121.814 21.5989 122.13C20.8278 122.432 20.1052 122.782 19.3859 123.114C18.6922 123.453 17.9719 123.744 17.2312 123.983C16.5256 124.206 15.7824 124.308 15.0376 124.284C14.3446 124.25 13.66 124.127 13.0028 123.919C12.3547 123.729 11.7812 123.5 11.2239 123.283C10.6666 123.065 10.132 122.857 9.62329 122.679C9.14293 122.516 8.64868 122.391 8.14577 122.305C7.34295 122.152 6.51523 122.152 5.71241 122.305C5.20606 122.409 4.73038 122.615 4.31914 122.909C4.04049 123.111 3.92384 123.249 3.91412 123.24C3.93991 123.205 3.97039 123.172 4.00485 123.144C4.0947 123.049 4.19336 122.961 4.2997 122.881C4.70726 122.573 5.18475 122.354 5.69621 122.242C6.50681 122.073 7.34605 122.06 8.16197 122.206C8.67105 122.288 9.17179 122.41 9.65893 122.571C10.1741 122.743 10.7087 122.948 11.279 123.174C11.8493 123.4 12.4228 123.611 13.0514 123.796C13.6973 123.998 14.37 124.116 15.0506 124.148C15.779 124.166 16.5051 124.064 17.1955 123.847C17.9287 123.608 18.6414 123.317 19.3276 122.978C20.0404 122.643 20.7694 122.284 21.5503 121.985C22.3429 121.661 23.1932 121.476 24.0582 121.439C24.9559 121.428 25.8487 121.563 26.6957 121.841C27.5576 122.103 28.3935 122.444 29.2392 122.797C30.0636 123.153 30.9135 123.455 31.7827 123.702C32.622 123.937 33.5024 124.018 34.3749 123.94C35.2151 123.831 36.0318 123.6 36.7953 123.255C37.5502 122.93 38.2696 122.562 38.9856 122.224C39.6803 121.883 40.4084 121.606 41.1598 121.394C41.8764 121.199 42.6261 121.132 43.3696 121.195C44.0589 121.262 44.7375 121.403 45.3914 121.617C46.02 121.81 46.6097 122.037 47.1703 122.245C47.7308 122.453 48.2687 122.655 48.7903 122.815C49.2757 122.964 49.773 123.077 50.2776 123.153C51.0839 123.288 51.9111 123.273 52.7109 123.108C53.2164 123.002 53.6915 122.796 54.1042 122.504C54.3731 122.299 54.4963 122.163 54.5157 122.172Z" fill="black"/>
<path d="M149.209 55.3511C149.209 55.3934 115.803 55.4296 74.6079 55.4296C33.4125 55.4296 0 55.3934 0 55.3511C0 55.3089 33.3963 55.2727 74.6079 55.2727C115.82 55.2727 149.209 55.3059 149.209 55.3511Z" fill="black"/>
<path d="M149.209 50.5572C149.209 50.6025 115.803 50.6356 74.6079 50.6356C33.4125 50.6356 0 50.6025 0 50.5572C0 50.5119 33.3963 50.4788 74.6079 50.4788C115.82 50.4788 149.209 50.515 149.209 50.5572Z" fill="black"/>
<path d="M0.165243 55.4535C0.0817442 54.6415 0.0536063 53.8253 0.0809985 53.0099C0.053745 52.1944 0.0818826 51.3783 0.165243 50.5662C0.248603 51.3783 0.27674 52.1944 0.249487 53.0099C0.276879 53.8253 0.248741 54.6415 0.165243 55.4535Z" fill="black"/>
<path d="M25.0043 55.4535C24.9208 54.6415 24.8927 53.8253 24.92 53.0099C24.8928 52.1944 24.9209 51.3783 25.0043 50.5662C25.0896 51.3781 25.1177 52.1944 25.0885 53.0099C25.1179 53.8253 25.0897 54.6416 25.0043 55.4535Z" fill="black"/>
<path d="M49.8466 55.4535C49.7631 54.6415 49.7349 53.8253 49.7623 53.0099C49.7351 52.1944 49.7632 51.3783 49.8466 50.5662C49.9299 51.3783 49.9581 52.1944 49.9308 53.0099C49.9582 53.8253 49.9301 54.6415 49.8466 55.4535Z" fill="black"/>
<path d="M74.6857 55.4535C74.6022 54.6415 74.5741 53.8253 74.6014 53.0099C74.5742 52.1944 74.6023 51.3783 74.6857 50.5662C74.771 51.3781 74.7991 52.1944 74.7699 53.0099C74.7992 53.8253 74.7711 54.6416 74.6857 55.4535Z" fill="black"/>
<path d="M124.367 55.4535C124.284 54.6415 124.255 53.8253 124.283 53.0099C124.256 52.1944 124.284 51.3783 124.367 50.5662C124.452 51.3781 124.481 52.1944 124.451 53.0099C124.481 53.8253 124.452 54.6416 124.367 55.4535Z" fill="black"/>
<path d="M149.209 55.4535C149.124 54.6416 149.096 53.8253 149.125 53.0099C149.096 52.1944 149.124 51.3781 149.209 50.5662C149.293 51.3783 149.321 52.1944 149.294 53.0099C149.321 53.8253 149.293 54.6415 149.209 55.4535Z" fill="black"/>
<path d="M99.528 55.4535C99.4445 54.6415 99.4163 53.8253 99.4437 53.0099C99.4165 52.1944 99.4446 51.3783 99.528 50.5662C99.6113 51.3783 99.6395 52.1944 99.6122 53.0099C99.6396 53.8253 99.6115 54.6415 99.528 55.4535Z" fill="black"/>
<path d="M2.44954 78.5963C2.40418 78.5963 2.3653 73.5129 2.3653 67.2407C2.3653 60.9686 2.40418 55.8821 2.44954 55.8821C2.4949 55.8821 2.53378 60.9656 2.53378 67.2407C2.53378 73.5159 2.4949 78.5963 2.44954 78.5963Z" fill="#EBEBEB"/>
<path d="M15.4718 78.5963C15.4265 78.5963 15.3876 73.5129 15.3876 67.2407C15.3876 60.9686 15.4265 55.8821 15.4718 55.8821C15.5172 55.8821 15.5561 60.9656 15.5561 67.2407C15.5561 73.5159 15.5172 78.5963 15.4718 78.5963Z" fill="#EBEBEB"/>
<path d="M28.4939 78.5963C28.4486 78.5963 28.4097 73.5129 28.4097 67.2407C28.4097 60.9686 28.4486 55.8821 28.4939 55.8821C28.5393 55.8821 28.5944 60.9595 28.5944 67.2407C28.5944 73.5219 28.5393 78.5963 28.4939 78.5963Z" fill="#EBEBEB"/>
<path d="M41.5161 78.5963C41.4708 78.5963 41.4319 73.5129 41.4319 67.2407C41.4319 60.9686 41.4708 55.8821 41.5161 55.8821C41.5615 55.8821 41.6004 60.9656 41.6004 67.2407C41.6004 73.5159 41.555 78.5963 41.5161 78.5963Z" fill="#EBEBEB"/>
<path d="M54.5383 78.5963C54.493 78.5963 54.4541 73.5129 54.4541 67.2407C54.4541 60.9686 54.493 55.8821 54.5383 55.8821C54.5837 55.8821 54.6226 60.9656 54.6226 67.2407C54.6226 73.5159 54.5837 78.5963 54.5383 78.5963Z" fill="#EBEBEB"/>
<path d="M67.5606 78.5963C67.5152 78.5963 67.4763 73.5129 67.4763 67.2407C67.4763 60.9686 67.5152 55.8821 67.5606 55.8821C67.6059 55.8821 67.6448 60.9656 67.6448 67.2407C67.6448 73.5159 67.6059 78.5963 67.5606 78.5963Z" fill="#EBEBEB"/>
<path d="M80.5828 78.5963C80.5374 78.5963 80.4985 73.5129 80.4985 67.2407C80.4985 60.9686 80.5374 55.8821 80.5828 55.8821C80.6281 55.8821 80.667 60.9656 80.667 67.2407C80.667 73.5159 80.6281 78.5963 80.5828 78.5963Z" fill="#EBEBEB"/>
<path d="M93.605 78.5963C93.5596 78.5963 93.5208 73.5129 93.5208 67.2407C93.5208 60.9686 93.5596 55.8821 93.605 55.8821C93.6504 55.8821 93.6892 60.9656 93.6892 67.2407C93.6892 73.5159 93.6504 78.5963 93.605 78.5963Z" fill="#EBEBEB"/>
<path d="M106.627 78.5963C106.582 78.5963 106.543 73.5129 106.543 67.2407C106.543 60.9686 106.582 55.8821 106.627 55.8821C106.673 55.8821 106.711 60.9656 106.711 67.2407C106.711 73.5159 106.682 78.5963 106.627 78.5963Z" fill="#EBEBEB"/>
<path d="M119.643 78.5963C119.598 78.5963 119.559 73.5129 119.559 67.2407C119.559 60.9686 119.598 55.8821 119.643 55.8821C119.688 55.8821 119.727 60.9656 119.727 67.2407C119.727 73.5159 119.698 78.5963 119.643 78.5963Z" fill="#EBEBEB"/>
<path d="M132.672 78.5963C132.626 78.5963 132.587 73.5129 132.587 67.2407C132.587 60.9686 132.626 55.8821 132.672 55.8821C132.717 55.8821 132.756 60.9656 132.756 67.2407C132.756 73.5159 132.72 78.5963 132.672 78.5963Z" fill="#EBEBEB"/>
<path d="M145.694 78.5963C145.648 78.5963 145.61 73.5129 145.61 67.2407C145.61 60.9686 145.648 55.8821 145.694 55.8821C145.739 55.8821 145.778 60.9656 145.778 67.2407C145.778 73.5159 145.742 78.5963 145.694 78.5963Z" fill="#EBEBEB"/>
<path d="M150 68.369C150 68.4112 116.821 68.4474 75.9072 68.4474C34.9937 68.4474 1.80798 68.4112 1.80798 68.369C1.80798 68.3267 34.9775 68.2905 75.9007 68.2905C116.824 68.2905 150 68.3267 150 68.369Z" fill="#EBEBEB"/>
<path d="M76.0919 107.275C98.219 107.275 116.157 97.3392 116.157 85.0827C116.157 72.8262 98.219 62.8904 76.0919 62.8904C53.9649 62.8904 36.0273 72.8262 36.0273 85.0827C36.0273 97.3392 53.9649 107.275 76.0919 107.275Z" fill="#30AD4C"/>
<g opacity="0.3">
<path opacity="0.3" d="M36.2023 86.926C35.6288 88.1327 36.6948 89.608 38.0622 89.97C39.4295 90.3321 40.8973 89.8554 42.1156 89.1736C43.3339 88.4917 44.4129 87.5987 45.6798 87.0014C49.244 85.3119 53.5404 86.2351 57.4124 87.1884L68.8664 90.0183C73.6845 91.207 78.5609 92.4047 83.5443 92.5253C88.5277 92.646 93.7217 91.5961 97.6098 88.715C99.7808 87.107 101.77 84.8594 104.541 84.6844C105.979 84.5969 107.379 85.1068 108.714 85.6136C110.049 86.1205 111.445 86.6394 112.887 86.57C114.329 86.5006 115.836 85.6468 116.101 84.3254C116.474 82.4459 114.368 81.0068 112.537 80.1711C108.575 78.3368 104.304 76.7017 99.9006 76.931C93.5499 77.2628 88.1097 81.3507 81.8627 82.461C71.7922 84.253 61.8352 78.0744 51.5996 78.6597C48.5026 78.8525 45.4851 79.6567 42.7477 81.0191C40.0103 82.3814 37.6156 84.2705 35.7228 86.5609" fill="black"/>
</g>
<path d="M100.526 41.3919C100.208 41.0949 99.9865 40.7209 99.8857 40.3124C99.7849 39.9039 99.8091 39.4773 99.9556 39.081C100.111 38.6877 100.36 38.3323 100.685 38.0418C101.009 37.7512 101.4 37.533 101.828 37.4036C102.46 37.2075 103.316 37.2799 103.581 37.8471C104.117 37.3242 104.853 37.0207 105.629 37.0035C106.405 36.9862 107.156 37.2566 107.717 37.755C108.279 38.2535 108.605 38.9393 108.623 39.6615C108.642 40.3837 108.352 41.0832 107.816 41.6061C108.27 42.0707 107.972 42.8732 107.414 43.2292C107.15 43.4104 106.82 43.4893 106.494 43.4494C106.331 43.4262 106.181 43.3551 106.064 43.2466C105.948 43.1381 105.871 42.9978 105.846 42.8461" fill="black"/>
<path d="M99.9492 42.8248C100.021 42.4396 100.13 42.0611 100.273 41.6935C100.299 41.5997 100.351 41.5141 100.425 41.4456C100.499 41.3772 100.59 41.3284 100.691 41.3043C100.786 41.2943 100.883 41.2994 100.976 41.3194C102.554 41.5758 104.145 41.8353 105.626 42.4025C105.924 42.5141 106.248 42.677 106.323 42.9666C106.347 43.1125 106.332 43.2616 106.28 43.4011C106.18 43.7612 106.037 44.1102 105.856 44.4419C105.824 44.5151 105.772 44.5788 105.704 44.6259C105.631 44.6608 105.549 44.6764 105.467 44.6712C104.524 44.6837 103.591 44.4873 102.745 44.098" fill="#30AD4C"/>
<path d="M106.135 43.9745C106.037 44.0444 105.96 44.1368 105.912 44.2425C105.864 44.3482 105.845 44.4637 105.859 44.5779C105.896 44.8095 105.987 45.0308 106.125 45.2265C106.325 45.5714 106.611 45.8671 106.958 46.0893C107.554 46.4393 108.312 46.4182 109.015 46.391C108.944 46.0563 108.851 45.7258 108.736 45.4015C108.624 45.0373 108.45 44.692 108.221 44.3787C107.989 44.0621 107.645 43.8307 107.249 43.7241C107.053 43.6736 106.846 43.6718 106.649 43.7189C106.451 43.766 106.271 43.8603 106.125 43.9926" fill="#30AD4C"/>
<g opacity="0.3">
<path opacity="0.3" d="M106.135 43.9745C106.037 44.0444 105.96 44.1368 105.912 44.2425C105.864 44.3482 105.845 44.4637 105.859 44.5779C105.896 44.8095 105.987 45.0308 106.125 45.2265C106.325 45.5714 106.611 45.8671 106.958 46.0893C107.554 46.4393 108.312 46.4182 109.015 46.391C108.944 46.0563 108.851 45.7258 108.736 45.4015C108.624 45.0373 108.45 44.692 108.221 44.3787C107.989 44.0621 107.645 43.8307 107.249 43.7241C107.053 43.6736 106.846 43.6718 106.649 43.7189C106.451 43.766 106.271 43.8603 106.125 43.9926" fill="black"/>
</g>
<path d="M106.206 43.5099C106.289 43.3744 106.407 43.26 106.549 43.1768C106.69 43.0937 106.852 43.0444 107.019 43.0332C107.281 43.0335 107.539 43.086 107.777 43.1871C108.018 43.3174 108.285 43.4006 108.562 43.4314C108.836 43.427 109.107 43.3684 109.355 43.2595C109.406 43.4247 109.414 43.5987 109.379 43.7674C109.344 43.9362 109.267 44.0949 109.155 44.2309C108.967 44.4316 108.733 44.5903 108.471 44.6955C108.215 44.8214 107.933 44.8944 107.645 44.9097C107.281 44.8985 106.928 44.7941 106.624 44.608C106.426 44.5126 106.257 44.3726 106.131 44.2007C106.081 44.089 106.061 43.9672 106.074 43.8464C106.087 43.7257 106.132 43.61 106.206 43.5099Z" fill="#30AD4C"/>
<path d="M107.622 44.1494C107.599 44.1494 107.554 44.089 107.415 44.0136C107.26 43.8984 107.088 43.8067 106.903 43.7421C106.715 43.6925 106.517 43.6925 106.329 43.7421C106.183 43.7813 106.099 43.8326 106.083 43.8145C106.067 43.7964 106.128 43.7149 106.284 43.6395C106.485 43.5471 106.715 43.5246 106.932 43.5762C107.142 43.6437 107.33 43.7612 107.476 43.9171C107.615 44.0257 107.654 44.1463 107.622 44.1494Z" fill="black"/>
<path d="M107.917 43.6184C107.617 43.5292 107.301 43.4974 106.987 43.5249C106.674 43.5523 106.369 43.6385 106.093 43.7783C106.093 43.7632 106.148 43.6787 106.3 43.5822C106.502 43.4605 106.734 43.3869 106.974 43.368C107.213 43.3467 107.454 43.3787 107.677 43.4615C107.845 43.5279 107.93 43.6003 107.917 43.6184Z" fill="black"/>
<path d="M105.629 44.6202C105.613 44.6021 105.688 44.5266 105.775 44.3879C105.89 44.2068 105.983 44.0146 106.054 43.8146C106.245 43.338 106.342 42.9518 106.378 42.9488C106.413 42.9458 106.417 43.0574 106.378 43.2294C106.341 43.4462 106.282 43.6593 106.203 43.8659C106.128 44.08 106.011 44.2794 105.859 44.4542C105.749 44.5839 105.642 44.6352 105.629 44.6202Z" fill="black"/>
<path d="M100.814 42.6076C100.756 42.3909 100.769 42.163 100.85 41.9529C100.934 41.5939 101.087 41.3284 101.129 41.3496C101.077 41.7815 100.977 42.2072 100.831 42.6197L100.814 42.6076Z" fill="#FAFAFA"/>
<path d="M101.793 42.7224C101.757 42.5206 101.773 42.3136 101.841 42.1191C101.916 41.7932 102.01 41.5368 102.059 41.5428C102.107 41.5489 102.081 41.8204 102.007 42.1462C101.932 42.472 101.838 42.7315 101.793 42.7224Z" fill="#FAFAFA"/>
<path d="M102.551 42.837C102.506 42.8219 102.583 42.5625 102.694 42.2548C102.804 41.947 102.878 41.6996 102.924 41.7057C102.969 41.7117 102.969 41.9862 102.852 42.3091C102.736 42.6319 102.593 42.8581 102.551 42.837Z" fill="#FAFAFA"/>
<path d="M103.588 43.1599C103.584 42.7174 103.695 42.2807 103.912 41.8867C103.938 42.1078 103.911 42.3317 103.831 42.5414C103.803 42.7623 103.719 42.9741 103.588 43.1599Z" fill="#FAFAFA"/>
<path d="M104.349 43.5641C104.41 43.3105 104.501 43.0637 104.618 42.828C104.684 42.5748 104.782 42.3298 104.91 42.0979C104.926 42.6346 104.726 43.1575 104.349 43.5641Z" fill="#FAFAFA"/>
<path d="M105.091 44.4692C105.201 44.1453 105.332 43.828 105.483 43.5189C105.58 43.1908 105.698 42.8684 105.837 42.5535C105.833 43.2529 105.569 43.9297 105.091 44.4692Z" fill="#FAFAFA"/>
<path d="M97.9338 42.4388C97.331 42.1988 96.6546 42.1731 96.0329 42.3666C95.4111 42.5601 94.8873 42.9594 94.5607 43.4886C94.1557 44.2006 94.133 45.1057 93.5466 45.697C93.2388 45.9987 92.8143 46.1888 92.4903 46.4784C92.0079 46.9682 91.7307 47.6032 91.7094 48.2674C91.583 49.7608 92.9796 51.8877 94.1363 52.9134" fill="black"/>
<path d="M104.738 47.851L101.948 62.2477C101.753 63.0952 101.208 63.8377 100.432 64.3164C99.6556 64.7951 98.709 64.9719 97.7945 64.8091C96.8697 64.641 96.054 64.1389 95.5257 63.4124C94.9974 62.6859 94.7996 61.7942 94.9756 60.9323L95.9282 56.3436C95.9282 56.3436 93.5466 55.523 93.6601 52.4428C93.7119 50.9102 94.3081 48.4906 94.846 46.5206C95.3385 44.7527 97.0655 42.7253 99.6284 43.202C99.6349 43.1929 105.308 43.8174 104.738 47.851Z" fill="#FFBE9D"/>
<path d="M94.9918 48.6595C94.9804 48.7095 94.9798 48.761 94.99 48.8112C95.0002 48.8613 95.0209 48.9091 95.051 48.9518C95.0812 48.9944 95.1201 49.0311 95.1655 49.0596C95.211 49.0882 95.262 49.108 95.3158 49.1181C95.3673 49.1309 95.421 49.134 95.4738 49.1274C95.5266 49.1208 95.5774 49.1046 95.6235 49.0796C95.6695 49.0547 95.7099 49.0215 95.7421 48.9821C95.7744 48.9426 95.798 48.8976 95.8115 48.8496C95.8327 48.7489 95.8106 48.6445 95.75 48.5587C95.6895 48.473 95.5952 48.4128 95.4875 48.391C95.436 48.3779 95.3822 48.3744 95.3293 48.3808C95.2763 48.3872 95.2253 48.4034 95.1791 48.4284C95.133 48.4534 95.0926 48.4867 95.0605 48.5264C95.0283 48.5661 95.0049 48.6114 94.9918 48.6595Z" fill="black"/>
<path d="M94.9853 48.2493C95.0274 48.3066 95.3839 48.1497 95.8245 48.2282C96.2652 48.3066 96.5503 48.5751 96.6086 48.5299C96.667 48.4846 96.6086 48.4122 96.4823 48.2915C96.3157 48.1339 96.1005 48.0284 95.8666 47.9898C95.637 47.9472 95.3987 47.9736 95.1862 48.0653C95.0177 48.1407 94.9659 48.2221 94.9853 48.2493Z" fill="black"/>
<path d="M99.2752 49.4291C99.2639 49.479 99.2633 49.5306 99.2734 49.5807C99.2836 49.6309 99.3044 49.6787 99.3345 49.7213C99.3646 49.7639 99.4035 49.8006 99.449 49.8292C99.4944 49.8577 99.5455 49.8776 99.5992 49.8877C99.6507 49.9008 99.7045 49.9043 99.7575 49.8979C99.8104 49.8915 99.8615 49.8753 99.9076 49.8503C99.9538 49.8253 99.9941 49.792 100.026 49.7523C100.058 49.7126 100.082 49.6673 100.095 49.6191C100.106 49.5692 100.107 49.5177 100.097 49.4675C100.087 49.4174 100.066 49.3696 100.036 49.3269C100.006 49.2843 99.9667 49.2476 99.9212 49.2191C99.8758 49.1905 99.8247 49.1706 99.771 49.1606C99.7195 49.1465 99.6654 49.1424 99.6122 49.1484C99.5589 49.1545 99.5075 49.1705 99.4611 49.1957C99.4148 49.2208 99.3744 49.2544 99.3424 49.2946C99.3104 49.3347 99.2876 49.3805 99.2752 49.4291Z" fill="black"/>
<path d="M99.34 49.0307C99.3821 49.0881 99.7386 48.9312 100.179 49.0096C100.62 49.088 100.905 49.3566 100.963 49.3113C101.022 49.266 100.963 49.1936 100.837 49.073C100.67 48.916 100.455 48.8106 100.221 48.7713C99.9914 48.7278 99.7525 48.7554 99.5409 48.8497C99.3854 48.9221 99.3206 49.0036 99.34 49.0307Z" fill="black"/>
<path d="M97.1821 51.8576C96.9619 51.7499 96.7293 51.6659 96.4887 51.6072C96.3786 51.577 96.2749 51.5378 96.2716 51.4624C96.2835 51.3508 96.3322 51.2455 96.411 51.1607L96.9132 50.4185C97.6131 49.3596 98.1445 48.4817 98.0959 48.4575C98.0472 48.4334 97.4478 49.2661 96.7447 50.325C96.5762 50.5875 96.4207 50.8349 96.2587 51.0732C96.1588 51.1869 96.107 51.3307 96.1129 51.4775C96.1215 51.5177 96.14 51.5556 96.167 51.588C96.194 51.6205 96.2287 51.6467 96.2684 51.6645C96.3274 51.6908 96.3894 51.711 96.4531 51.7248C96.6888 51.7988 96.9339 51.8434 97.1821 51.8576Z" fill="black"/>
<path d="M95.9379 56.3437C97.4445 56.6337 99.008 56.5293 100.455 56.042C100.455 56.042 98.9869 57.9064 95.8342 57.0496L95.9379 56.3437Z" fill="#EB996E"/>
<path d="M97.0784 53.3086C97.0519 53.2386 97.0475 53.163 97.0659 53.0907C97.0843 53.0185 97.1246 52.9527 97.1821 52.9013C97.2414 52.8526 97.3146 52.821 97.3928 52.8103C97.4711 52.7996 97.551 52.8102 97.6228 52.841C97.6287 52.7658 97.6622 52.6948 97.7177 52.6399C97.7731 52.585 97.8472 52.5495 97.9274 52.5393C98.0054 52.5318 98.0842 52.5416 98.1573 52.5678C98.2305 52.594 98.296 52.6359 98.3486 52.6901C98.4502 52.7948 98.5121 52.9276 98.525 53.0681C98.5379 53.2087 98.501 53.3493 98.4199 53.4685C98.3332 53.5842 98.2112 53.6731 98.0697 53.7236C97.9282 53.7742 97.7736 53.7841 97.626 53.7521C97.4793 53.7158 97.3461 53.6429 97.2405 53.5414C97.1349 53.4399 97.0609 53.3135 97.0266 53.1759" fill="#EB996E"/>
<path d="M98.4264 52.3766C98.3551 52.3615 98.2611 52.808 97.7783 53.0524C97.2955 53.2967 96.8063 53.155 96.7836 53.2153C96.7609 53.2756 96.8808 53.3239 97.1076 53.3692C97.3886 53.4232 97.681 53.3837 97.9339 53.2575C98.1765 53.1355 98.3579 52.9296 98.4393 52.6843C98.4912 52.5124 98.462 52.3796 98.4264 52.3766Z" fill="black"/>
<path d="M99.1035 48.2373C99.1229 48.3579 99.5765 48.3851 100.076 48.5389C100.575 48.6928 100.973 48.898 101.064 48.8105C101.106 48.7682 101.064 48.6506 100.908 48.5088C100.71 48.3335 100.47 48.2042 100.208 48.1317C99.9491 48.0536 99.6735 48.0349 99.4048 48.0774C99.2104 48.1105 99.0937 48.1829 99.1035 48.2373Z" fill="black"/>
<path d="M95.212 47.4618C95.2704 47.5704 95.5976 47.5282 95.9638 47.5885C96.3299 47.6489 96.628 47.7756 96.7187 47.6881C96.7608 47.6459 96.7187 47.5433 96.615 47.4317C96.4552 47.2909 96.2527 47.1992 96.035 47.1692C95.8153 47.1292 95.5875 47.1578 95.387 47.2507C95.2509 47.3231 95.1861 47.4105 95.212 47.4618Z" fill="black"/>
<path d="M100.322 50.7565C100.308 50.7762 100.286 50.7903 100.262 50.7958C100.237 50.8014 100.211 50.7982 100.189 50.7866C100.168 50.7732 100.154 50.7528 100.149 50.7297C100.144 50.7066 100.149 50.6827 100.163 50.6629C100.17 50.6528 100.178 50.6441 100.189 50.6372C100.199 50.6303 100.211 50.6254 100.223 50.6229C100.236 50.6203 100.249 50.6202 100.261 50.6224C100.274 50.6246 100.285 50.6292 100.296 50.6358C100.316 50.6487 100.331 50.6686 100.336 50.6912C100.34 50.7138 100.335 50.7372 100.322 50.7565Z" fill="black"/>
<path d="M107.583 50.5C107.575 49.3766 107.274 48.2718 106.705 47.281C106.609 47.1021 106.529 46.9165 106.465 46.7259C106.333 46.2158 106.173 45.7123 105.986 45.2175C105.821 44.8512 105.547 44.537 105.195 44.3124C105.032 44.1038 104.843 43.9144 104.631 43.7482C103.682 43.0121 102.392 42.816 101.171 42.6501C99.9491 42.4841 97.5158 40.9666 96.7446 43.8297C96.8681 43.7411 97.0121 43.6808 97.1651 43.6534C97.3182 43.626 97.476 43.6323 97.6259 43.6719C97.7758 43.7115 97.9137 43.7832 98.0285 43.8813C98.1433 43.9795 98.2318 44.1013 98.2869 44.237C98.4699 44.6505 98.4699 45.1146 98.2869 45.5282C98.0958 45.9988 97.9208 46.5238 98.1152 46.9914C98.2337 47.2237 98.4159 47.4227 98.6435 47.5684C98.8711 47.7141 99.1359 47.8013 99.4113 47.821C99.9654 47.8504 100.521 47.787 101.051 47.634C101.051 47.634 101.051 49.598 102.308 50.2979L101.307 52.9196C101.203 53.3088 101.125 53.6527 101.073 53.9544C100.905 54.9138 102.078 57.2066 103.264 56.0662C103.264 56.0662 107.528 52.3977 107.564 50.6539L107.583 50.5Z" fill="black"/>
<path d="M93.579 44.1404C93.5621 44.079 93.5302 44.022 93.4858 43.9739C93.4414 43.9257 93.3857 43.8878 93.3231 43.8629C93.2516 43.8357 93.1731 43.8289 93.0975 43.8435C93.0219 43.858 92.9527 43.8931 92.8986 43.9444C92.8264 44.0111 92.7761 44.0957 92.7537 44.1882C92.7313 44.2806 92.7378 44.3771 92.7722 44.4663C92.8125 44.5762 92.8811 44.6752 92.972 44.7546C93.063 44.8341 93.1735 44.8915 93.2939 44.9218C93.4326 44.9589 93.5784 44.9668 93.7207 44.9448C93.8631 44.9229 93.9984 44.8718 94.1169 44.7951C94.2418 44.7038 94.3408 44.5854 94.4052 44.4502C94.4696 44.3151 94.4974 44.1673 94.4863 44.0198C94.4556 43.6754 94.4556 43.3293 94.4863 42.985C94.5533 42.6477 94.7059 42.3302 94.9314 42.0589C95.1568 41.7876 95.4485 41.5704 95.7823 41.4252C96.0577 41.313 96.3555 41.2565 96.656 41.2596C96.9566 41.2628 97.253 41.3254 97.5255 41.4433C97.8925 41.597 98.2073 41.8411 98.436 42.1493C98.4989 42.2307 98.5511 42.3188 98.5916 42.4118C98.6096 42.4428 98.6217 42.4765 98.6272 42.5113C98.611 42.5113 98.5494 42.3846 98.3842 42.1855C98.1451 41.904 97.8328 41.6839 97.4769 41.5459C97.2215 41.4419 96.9457 41.3882 96.6669 41.3882C96.3881 41.3882 96.1123 41.4419 95.8569 41.5459C95.547 41.6826 95.2763 41.8856 95.0669 42.1384C94.8574 42.3911 94.7151 42.6864 94.6515 43.0001C94.6239 43.3365 94.6239 43.6743 94.6515 44.0107C94.6532 44.1834 94.6179 44.3547 94.5478 44.5145C94.4773 44.6731 94.3578 44.8086 94.2044 44.9037C94.0654 44.9888 93.9083 45.0448 93.7438 45.0677C93.5793 45.0906 93.4114 45.08 93.2518 45.0365C93.1122 44.9971 92.9852 44.9265 92.8818 44.8307C92.7784 44.735 92.7019 44.6171 92.6588 44.4874C92.6226 44.3787 92.62 44.2627 92.6516 44.1527C92.6831 44.0427 92.7474 43.9433 92.837 43.8659C92.9046 43.8071 92.9898 43.769 93.0813 43.7566C93.1728 43.7442 93.2662 43.7581 93.349 43.7965C93.4007 43.8177 93.4471 43.8488 93.4851 43.8878C93.523 43.9268 93.5517 43.9728 93.5693 44.0228C93.592 44.1042 93.5823 44.1404 93.579 44.1404Z" fill="black"/>
<path d="M120.168 77.0064L111.721 66.034C110.789 64.8195 109.591 63.8034 108.205 63.0533C106.252 62.0375 104.235 61.1308 102.165 60.338L94.2109 58.196L87.9703 63.2313L89.2923 69.2077L100.983 72.7948C104.602 70.4085 106.248 71.1717 106.248 71.1717L112.923 77.2056L102.072 75.3683L101.517 79.7639L114.478 83.0402C115.969 83.4174 118.629 83.4445 120.084 81.8335C120.648 81.142 120.96 80.301 120.975 79.4328C120.99 78.5646 120.707 77.7146 120.168 77.0064Z" fill="#FFBE9D"/>
<path d="M58.6534 51.7942L71.6432 59.7256C71.6432 59.7256 88.8452 57.8431 89.8983 57.7858C91.427 57.7429 92.9545 57.9035 94.4345 58.2624L88.3106 63.9764C88.3106 63.9764 78.1106 61.9974 67.6513 63.3519L56.5862 55.2274L58.6534 51.7942Z" fill="#FFBE9D"/>
<path d="M102.072 75.3923L98.0602 77.3473L95.7144 84.0388L96.2879 84.3284L98.3713 81.4684L101.517 79.788L102.072 75.3923Z" fill="#FFBE9D"/>
<path d="M58.6534 51.7942C58.5192 51.6785 58.3714 51.5773 58.2127 51.4925L55.9608 49.3264C55.9608 49.3264 52.8308 49.1423 52.6656 49.1423C51.6708 49.1423 52.2476 50.0172 52.2476 50.0172C51.5056 50.2646 52.2994 51.055 52.2994 51.055C51.3987 51.4985 52.2476 52.1924 52.2476 52.1924C51.3598 52.5967 52.0629 53.2121 52.0629 53.2121L53.683 54.6271L53.9001 54.6844L54.4088 54.2711L56.975 55.5683L57.0754 55.4567" fill="#FFBE9D"/>
<path d="M52.4484 46.9189L51.6643 39.7266L55.7826 39.3374L56.5667 46.5297C56.6155 46.9864 56.4872 47.4444 56.2049 47.8207C55.9226 48.1969 55.505 48.4667 55.0276 48.5812L56.1066 58.4827C57.0559 58.4072 57.7947 58.4133 57.8044 58.5068C57.8141 58.6003 56.9328 58.7753 55.8312 58.8779C54.7295 58.9805 53.8287 58.9835 53.819 58.8779C53.8093 58.7723 54.5156 58.6456 55.4877 58.546L54.4087 48.6445C53.9142 48.6231 53.4443 48.4372 53.0846 48.1205C52.7248 47.8038 52.4991 47.3774 52.4484 46.9189Z" fill="#F5F5F5"/>
<path d="M52.4484 46.9189C52.4895 47.1482 52.5658 47.3707 52.6752 47.5796C52.8175 47.8288 53.0153 48.0468 53.2552 48.2192C53.5866 48.4512 53.9849 48.5857 54.399 48.6054H54.4314V48.6355C54.6776 50.8107 55.0794 54.2741 55.546 58.531V58.5973H55.4747C55.1928 58.6305 54.9077 58.6667 54.6226 58.712C54.4768 58.7361 54.3342 58.7633 54.1916 58.7934L53.9842 58.8508C53.9539 58.8589 53.9246 58.87 53.8968 58.884C53.8806 58.884 53.8741 58.899 53.8806 58.884C53.8845 58.877 53.8866 58.8692 53.8866 58.8613C53.8866 58.8534 53.8845 58.8457 53.8806 58.8387C53.8806 58.8206 53.8806 58.8387 53.8806 58.8387C54.0155 58.8676 54.1537 58.8807 54.2921 58.8779H54.7457C55.0503 58.8779 55.3581 58.8447 55.6691 58.8176C56.3019 58.7689 56.93 58.6771 57.5484 58.543C57.6117 58.5269 57.6726 58.5036 57.7299 58.4737C57.7137 58.4737 57.7299 58.5068 57.7299 58.5249C57.7299 58.543 57.7299 58.543 57.7299 58.543H57.6942C57.6579 58.5353 57.6211 58.5292 57.5841 58.5249C57.4253 58.5249 57.26 58.5249 57.098 58.5249C56.774 58.5249 56.45 58.5521 56.1066 58.5762H56.0255V58.5038C55.8279 56.6937 55.6205 54.8111 55.4099 52.8682C55.2511 51.4141 55.0859 49.9841 54.9466 48.6023V48.536L55.0179 48.5179C55.4727 48.4078 55.871 48.1512 56.1422 47.7938C56.4113 47.4438 56.5377 47.016 56.4986 46.5871C56.4057 45.7142 56.315 44.8634 56.2264 44.0348C56.0482 42.3785 55.8797 40.8097 55.7242 39.3525L55.7987 39.4098L51.6805 39.79L51.7323 39.7296C51.9656 41.9531 52.1503 43.7512 52.2799 45.0002C52.3415 45.6035 52.3868 46.0953 52.4225 46.4272C52.4225 46.5871 52.4452 46.7108 52.4517 46.8013C52.4553 46.8434 52.4553 46.8858 52.4517 46.928C52.4406 46.8863 52.433 46.844 52.429 46.8013C52.429 46.7108 52.403 46.5901 52.3804 46.4332C52.3415 46.0983 52.2832 45.6186 52.2086 45.0062C52.0661 43.7632 51.8587 41.9531 51.5995 39.7327V39.6783H51.6611L55.7761 39.2771H55.8441V39.3435C56.0029 40.8006 56.1681 42.3604 56.3625 44.0257C56.4532 44.8523 56.544 45.7061 56.6412 46.578C56.6813 47.0407 56.546 47.5019 56.2588 47.8813C55.9646 48.2688 55.5333 48.5475 55.0405 48.6687L55.1021 48.5842C55.2511 49.969 55.4067 51.396 55.5654 52.8532C55.7793 54.7961 55.9834 56.6907 56.1778 58.4857L56.0904 58.4194C56.4144 58.3922 56.7611 58.3741 57.0948 58.3681C57.2601 58.3681 57.4188 58.3681 57.597 58.3681L57.7299 58.3862C57.7567 58.3927 57.7828 58.4018 57.8076 58.4133C57.8335 58.4242 57.8543 58.4435 57.866 58.4676C57.8725 58.4848 57.8742 58.5033 57.8708 58.5213C57.8674 58.5393 57.859 58.5561 57.8465 58.5702C57.7704 58.626 57.6818 58.6651 57.5873 58.6848C56.9598 58.823 56.3217 58.9158 55.6788 58.9624C55.3548 58.9895 55.0535 59.0107 54.7457 59.0197C54.5902 59.0197 54.4217 59.0197 54.2823 59.0197C54.1189 59.0262 53.9554 59.0058 53.7996 58.9594C53.7996 58.9594 53.6991 58.89 53.7477 58.8236C53.7649 58.7984 53.7897 58.7784 53.819 58.7663C53.8563 58.7479 53.8954 58.7328 53.9356 58.721C54.0102 58.6969 54.0847 58.6788 54.156 58.6607L54.5966 58.5792C54.885 58.534 55.1734 58.4978 55.4585 58.4646L55.3937 58.54C54.9466 54.2802 54.5804 50.8137 54.3504 48.6355L54.386 48.6657C53.9193 48.6478 53.4733 48.4814 53.1224 48.1942C52.7715 47.9071 52.5371 47.5166 52.4581 47.0879C52.4516 46.9793 52.4484 46.9189 52.4484 46.9189Z" fill="black"/>
<path d="M57.7558 51.3839L54.1657 49.8755C54.094 50.0431 54.0655 50.2239 54.0824 50.4036C54.0992 50.5833 54.1611 50.7568 54.2629 50.9103C54.4715 51.2158 54.7436 51.4794 55.0632 51.6856C55.3813 51.8918 55.6834 52.1186 55.9672 52.3644C55.8379 52.6959 55.7903 53.0502 55.8279 53.4011C55.8655 53.752 55.9873 54.0906 56.1843 54.3918C56.3924 54.6865 56.7033 54.9053 57.0645 55.0114C57.4258 55.1174 57.8153 55.1043 58.1673 54.9741" fill="#FFBE9D"/>
<path d="M55.9089 43.0813C55.5201 42.9757 55.1248 43.2412 54.8558 43.5248C54.5869 43.8084 54.3374 44.1493 53.9518 44.2669C53.6814 44.3213 53.4027 44.3305 53.1288 44.2941C52.8534 44.2941 52.8048 44.1794 52.5845 44.3454C52.5845 44.3454 52.7627 46.8766 53.1223 47.5554C53.6602 48.566 55.964 48.4604 56.2005 47.0183C56.3398 46.1766 55.9089 43.0813 55.9089 43.0813Z" fill="#30AD4C"/>
<path d="M57.4318 51.2481C57.104 51.165 56.7851 51.0539 56.4792 50.9163C55.8927 50.687 55.0665 50.3551 54.1107 49.9599L54.2532 49.8936C54.2174 50.1265 54.2381 50.3639 54.3138 50.5884C54.3895 50.8129 54.5183 51.0188 54.6906 51.1908C54.9199 51.4221 55.1801 51.6249 55.465 51.7942C55.6011 51.8847 55.7405 51.9571 55.8863 52.0567C55.9609 52.1126 56.0236 52.1812 56.071 52.2588C56.1133 52.3403 56.1301 52.4313 56.1196 52.5213C56.1001 52.6902 56.0548 52.823 56.0353 52.9436C55.9925 53.2908 56.0353 53.6424 56.1605 53.9718C56.2857 54.3011 56.49 54.5996 56.7579 54.8443C56.8632 54.9247 56.9638 55.0103 57.0592 55.1007C56.9259 55.06 56.8041 54.9919 56.7028 54.9016C56.4066 54.6751 56.175 54.3838 56.0288 54.0539C55.9254 53.8254 55.862 53.583 55.8409 53.3358C55.828 53.1983 55.828 53.06 55.8409 52.9225C55.8409 52.7777 55.9025 52.6208 55.9154 52.5092C55.9608 52.2618 55.6206 52.1412 55.3387 51.9601C55.0357 51.7789 54.7609 51.5596 54.5222 51.3085C54.3273 51.1139 54.183 50.8802 54.1004 50.6255C54.0178 50.3707 53.9991 50.1018 54.0459 49.8393L54.075 49.7246L54.1884 49.7729C55.141 50.1802 55.9543 50.5362 56.5278 50.7956C56.8419 50.9232 57.1443 51.0746 57.4318 51.2481Z" fill="#EB996E"/>
<path d="M53.7186 54.5819C53.7186 54.5819 53.7801 54.6332 53.9065 54.6242C53.9478 54.6203 53.9877 54.6081 54.0234 54.5884C54.0591 54.5686 54.0897 54.5419 54.1132 54.51C54.1366 54.4781 54.1523 54.4418 54.1592 54.4037C54.166 54.3656 54.1638 54.3265 54.1527 54.2893C54.1203 54.0781 53.8903 53.9152 53.6052 53.7432L52.6914 53.1398L52.8146 52.98C53.0344 53.1278 53.2687 53.2561 53.5144 53.3631C53.722 53.4566 53.9391 53.5303 54.1625 53.5833C54.3634 53.6256 54.5286 53.4958 54.4606 53.3782C54.3446 53.2376 54.2083 53.1128 54.0555 53.0071L53.6505 52.6752C53.3713 52.4695 53.1151 52.2381 52.8858 51.9844C53.1953 52.1498 53.4852 52.345 53.751 52.5666L54.1689 52.8683L54.4022 53.0433C54.5003 53.1088 54.582 53.1932 54.642 53.2907C54.6762 53.3569 54.6848 53.432 54.6665 53.5034C54.6482 53.5748 54.6041 53.6382 54.5416 53.6829C54.4834 53.7235 54.4167 53.7523 54.3458 53.7674C54.2749 53.7825 54.2014 53.7835 54.1301 53.7704C53.8827 53.717 53.6425 53.638 53.414 53.5351C53.1547 53.424 52.9082 53.2885 52.6785 53.1308L52.8048 52.9709L53.7024 53.5743C53.8383 53.664 53.9652 53.7649 54.0815 53.876C54.1878 53.978 54.256 54.1091 54.2759 54.2501C54.2853 54.3105 54.2797 54.3721 54.2594 54.4302C54.2392 54.4882 54.2049 54.5412 54.1592 54.5849C54.124 54.615 54.0825 54.6379 54.0374 54.6525C53.9922 54.667 53.9444 54.6728 53.8968 54.6694C53.6894 54.6242 53.7088 54.5819 53.7186 54.5819Z" fill="#EB996E"/>
<path d="M54.0977 52.9769C54.0815 52.9437 54.2792 52.8984 54.4444 52.7355C54.4856 52.6899 54.5081 52.6322 54.5081 52.5726C54.5081 52.513 54.4856 52.4554 54.4444 52.4097C54.3239 52.2699 54.1845 52.1452 54.0297 52.0386C53.3817 51.5137 52.8827 51.0551 52.9216 51.0129C52.9604 50.9706 53.521 51.3628 54.1723 51.8848C54.343 52.0045 54.4918 52.1492 54.6129 52.3132C54.6738 52.4029 54.7001 52.5093 54.6874 52.6149C54.6746 52.704 54.6288 52.7861 54.5578 52.8472C54.4651 52.9206 54.3534 52.9705 54.2338 52.992C54.1496 52.992 54.1042 52.992 54.0977 52.9769Z" fill="#EB996E"/>
<path d="M54.2209 52.1502C54.2209 52.1231 54.3991 52.1502 54.5449 51.9994C54.6183 51.8835 54.6458 51.7474 54.6227 51.6146C54.5997 51.4818 54.5274 51.3607 54.4185 51.2723C53.9066 50.7474 53.4886 50.2888 53.5372 50.2496C53.5858 50.2103 54.0524 50.5965 54.587 51.1546C54.7228 51.2982 54.8076 51.4773 54.83 51.6675C54.8405 51.7493 54.8298 51.8323 54.7988 51.9094C54.7678 51.9866 54.7174 52.0557 54.6518 52.111C54.6086 52.1484 54.5574 52.1769 54.5016 52.1946C54.4457 52.2123 54.3865 52.2187 54.3278 52.2136C54.25 52.1924 54.2144 52.1593 54.2209 52.1502Z" fill="#EB996E"/>
<path d="M106.621 68.7522C106.155 68.9194 105.722 69.158 105.341 69.4582C104.995 69.7948 104.714 70.1834 104.508 70.6076C104.499 70.4636 104.532 70.3199 104.602 70.1913C104.741 69.8699 104.953 69.5805 105.224 69.3436C105.493 69.1055 105.815 68.9262 106.167 68.8186C106.309 68.7597 106.466 68.7368 106.621 68.7522Z" fill="#EB996E"/>
<path d="M115.408 78.8859C115.008 78.4676 114.552 78.0995 114.05 77.7908C113.522 77.524 112.959 77.3213 112.375 77.1874C112.556 77.1609 112.74 77.1701 112.916 77.2146C113.347 77.2927 113.761 77.4397 114.138 77.649C114.515 77.8591 114.85 78.1298 115.126 78.4485C115.254 78.5727 115.351 78.7222 115.408 78.8859Z" fill="#EB996E"/>
<path d="M94.4798 65.4517C93.99 65.5438 93.5251 65.7264 93.1124 65.9887C92.7318 66.2879 92.4181 66.6539 92.189 67.0657C92.1912 66.9214 92.2337 66.78 92.3121 66.6554C92.4753 66.3432 92.7152 66.0712 93.0125 65.8616C93.3098 65.6519 93.6559 65.5104 94.0229 65.4487C94.1726 65.4103 94.3307 65.4114 94.4798 65.4517Z" fill="#EB996E"/>
<path d="M70.8914 61.3788C70.803 61.0588 70.8211 60.7213 70.9431 60.411C71.0652 60.1007 71.2856 59.8323 71.5751 59.6411C71.3988 59.9066 71.2398 60.1816 71.0988 60.4647C71.0116 60.7657 70.9424 61.0708 70.8914 61.3788Z" fill="#EB996E"/>
<path d="M97.8723 85.4358L97.7913 85.4871L97.5418 85.6259L96.5697 86.1448L95.8699 86.5158C95.6106 86.6456 95.319 86.7662 95.0112 86.908C94.3859 87.1765 93.6957 87.5114 92.8792 87.798L91.6155 88.2626C91.1749 88.4195 90.6986 88.5402 90.2158 88.691C89.2437 88.9927 88.1907 89.225 87.0793 89.4845C82.2131 90.4893 77.1793 90.5714 72.2783 89.7258C71.1572 89.5056 70.0847 89.3185 69.1126 89.038C68.6233 88.9022 68.1406 88.7966 67.6999 88.6548L66.4038 88.2294C65.5808 87.9821 64.8745 87.6592 64.2427 87.4119C63.9186 87.2821 63.6303 87.1675 63.3678 87.0498L62.655 86.6999L61.6829 86.2141L61.4302 86.0814C61.3994 86.0698 61.3709 86.0535 61.3459 86.0331C61.3778 86.0412 61.4084 86.0534 61.4367 86.0693L61.6991 86.184L62.6971 86.6456L63.4132 86.9804C63.6789 87.0981 63.977 87.2037 64.2913 87.3304C64.9393 87.5718 65.6327 87.8855 66.4589 88.1269L67.755 88.5372C68.1989 88.679 68.6784 88.7815 69.1645 88.9113C70.1365 89.1888 71.2058 89.3668 72.3204 89.584C77.2036 90.4094 82.214 90.3274 87.0631 89.3427C88.1712 89.0893 89.2308 88.8751 90.1899 88.5673C90.6726 88.4195 91.1619 88.3018 91.5896 88.148L92.85 87.6924C93.6665 87.4269 94.3599 87.089 94.9853 86.8266C95.3093 86.6908 95.588 86.5732 95.8504 86.4495L96.5568 86.0905L97.5288 85.5987L97.7848 85.472C97.8119 85.456 97.8414 85.4438 97.8723 85.4358Z" fill="black"/>
<path d="M114.199 83.52C114.199 83.52 114.183 83.5954 114.148 83.7342C114.112 83.873 114.05 84.0872 113.976 84.3587C113.937 84.4975 113.901 84.6604 113.846 84.8173C113.791 84.9742 113.72 85.1642 113.649 85.3603C113.577 85.5564 113.5 85.7676 113.419 85.9939C113.338 86.2202 113.214 86.4494 113.095 86.6968C112.89 87.2006 112.576 87.7256 112.268 88.3109L111.714 89.1978C111.53 89.4995 111.29 89.8012 111.066 90.127C110.011 91.5535 108.792 92.8686 107.431 94.049C106.64 94.738 105.808 95.3847 104.939 95.9859C103.993 96.6327 103.006 97.2261 101.984 97.7628C100.89 98.3378 99.7593 98.8496 98.598 99.2954C97.3657 99.7652 96.1079 100.175 94.8297 100.523C92.083 101.262 89.2732 101.78 86.4312 102.071C84.9537 102.228 83.4471 102.342 81.9145 102.424C80.3819 102.505 78.8266 102.548 77.2519 102.566C74.1024 102.599 71.0243 102.566 68.0563 102.385C65.2021 102.224 62.3665 101.85 59.5768 101.265C58.2788 100.988 56.9981 100.645 55.7404 100.237C55.1216 100.053 54.5351 99.8173 53.9486 99.6122L53.1029 99.2743L52.6785 99.1023L52.2702 98.9092C50.2404 97.9888 48.343 96.8343 46.6226 95.473C43.4667 92.969 41.6263 90.2598 40.7353 88.2837L40.4112 87.5838C40.3205 87.3605 40.2492 87.1463 40.1779 86.9502C40.1067 86.7541 40.0419 86.5731 39.9803 86.4072C39.9187 86.2413 39.8928 86.0844 39.8507 85.9486C39.7794 85.6771 39.7243 85.4689 39.6887 85.3241C39.653 85.1793 39.6368 85.1099 39.6368 85.1099C39.6368 85.1099 39.6628 85.1793 39.7049 85.3211C39.747 85.4629 39.8053 85.6711 39.8863 85.9396C39.9252 86.0753 39.9641 86.2413 40.0224 86.3951L40.2233 86.9352C40.3011 87.1313 40.3724 87.3424 40.4631 87.5627C40.5538 87.7829 40.6737 88.0152 40.7871 88.2596C41.6911 90.2206 43.538 92.9056 46.6874 95.3885C48.4062 96.7368 50.2991 97.88 52.3221 98.7916L52.7303 98.9817L53.1515 99.1536L54.0037 99.5006C54.5869 99.7057 55.1734 99.938 55.789 100.122C57.0426 100.526 58.3189 100.865 59.6124 101.139C62.3947 101.719 65.2229 102.09 68.0693 102.246C71.0275 102.433 74.1024 102.457 77.2486 102.424C78.8233 102.406 80.3754 102.359 81.9047 102.282C83.4341 102.206 84.9365 102.089 86.4118 101.932C89.2456 101.645 92.0477 101.132 94.7876 100.4C96.0609 100.058 97.3144 99.6551 98.543 99.1928C99.6986 98.7531 100.825 98.2494 101.916 97.6844C102.935 97.1537 103.918 96.5663 104.861 95.9255C105.728 95.3286 106.558 94.688 107.35 94.0068C108.709 92.8329 109.929 91.5261 110.988 90.1089C111.209 89.7891 111.449 89.5056 111.636 89.1888L112.194 88.3109C112.518 87.7256 112.822 87.2067 113.033 86.7059L113.357 86.009C113.441 85.7827 113.522 85.5745 113.597 85.3784L113.811 84.7932C113.869 84.6302 113.908 84.4734 113.95 84.3376C114.031 84.0691 114.092 83.8639 114.135 83.7342C114.177 83.6045 114.199 83.52 114.199 83.52Z" fill="black"/>
<path d="M77.6634 107.118C77.659 107.081 77.659 107.044 77.6634 107.007C77.6536 106.897 77.6536 106.787 77.6634 106.678C77.7434 106.259 77.9476 105.869 78.2531 105.552C78.7362 105.055 79.3255 104.656 79.9833 104.382C80.7351 104.047 81.652 103.779 82.5172 103.248C82.9728 102.976 83.3482 102.603 83.6091 102.162C83.8716 101.674 83.9912 101.131 83.9558 100.587C83.86 99.3732 83.3255 98.2257 82.4394 97.3314C81.4823 96.3244 80.2371 95.5919 78.8493 95.2196C77.3629 94.8009 75.7706 94.8444 74.3131 95.3433C72.842 95.8713 71.546 96.7824 70.0101 97.0267C69.2662 97.1271 68.509 97.1025 67.7744 96.9543C67.0583 96.8306 66.3714 96.6677 65.691 96.5712C64.0105 96.3028 62.2833 96.6407 60.8609 97.5161C59.4385 98.3916 58.4278 99.7388 58.0345 101.284C57.7584 102.334 57.7662 103.432 58.0572 104.478C58.0961 104.617 58.1317 104.723 58.1544 104.78C58.1665 104.816 58.1752 104.852 58.1803 104.889C58.164 104.855 58.1499 104.821 58.1382 104.786C58.1123 104.717 58.0669 104.614 58.0248 104.485C57.8967 104.081 57.8152 103.667 57.7818 103.248C57.7245 102.582 57.778 101.913 57.9405 101.262C58.1524 100.396 58.5575 99.5811 59.1297 98.8701C59.893 97.9527 60.9061 97.2423 62.0639 96.8125C63.2217 96.3828 64.4819 96.2495 65.7137 96.4264C66.4038 96.5199 67.094 96.6828 67.8036 96.8035C68.5193 96.9457 69.2564 96.9692 69.981 96.8729C71.465 96.6376 72.7513 95.7355 74.2547 95.1925C75.7433 94.6814 77.3706 94.638 78.8882 95.0688C80.3047 95.4477 81.5752 96.1962 82.5496 97.2258C83.456 98.1449 83.9999 99.3237 84.0919 100.569C84.1222 101.136 83.9926 101.701 83.716 102.207C83.4441 102.663 83.0529 103.048 82.5787 103.326C81.6844 103.866 80.7642 104.122 80.0158 104.451C79.3651 104.713 78.7802 105.099 78.2985 105.583C77.9927 105.887 77.783 106.264 77.6926 106.672C77.6504 106.958 77.6796 107.118 77.6634 107.118Z" fill="#FAFAFA"/>
<path d="M105.979 99.6302C105.963 99.6302 105.979 99.3888 105.95 98.9574C105.897 98.3501 105.719 97.7579 105.425 97.2136C104.996 96.4006 104.286 95.7451 103.41 95.3522C102.883 95.1074 102.305 94.9748 101.716 94.9638C101.128 94.9529 100.544 95.0639 100.008 95.2888C99.4747 95.5196 99.0094 95.8666 98.6513 96.3004C98.2931 96.7342 98.0525 97.242 97.95 97.7808C97.8313 98.6774 98.0439 99.585 98.5527 100.354C98.8821 100.882 99.2792 101.37 99.7353 101.808C100.059 102.11 100.254 102.279 100.244 102.288C100.234 102.297 100.189 102.258 100.092 102.185C99.9946 102.113 99.8617 102.001 99.69 101.851C99.2093 101.423 98.792 100.938 98.449 100.409C97.912 99.6213 97.6832 98.6858 97.801 97.7597C97.963 96.8989 98.4585 96.1234 99.1937 95.5801C99.9288 95.0368 100.852 94.7636 101.79 94.8122C102.378 94.8397 102.955 94.9782 103.484 95.2194C104.384 95.6306 105.108 96.3132 105.538 97.1563C105.827 97.7174 105.993 98.3268 106.025 98.9483C106.036 99.1151 106.036 99.2824 106.025 99.4491C106.018 99.5111 106.003 99.572 105.979 99.6302Z" fill="#FAFAFA"/>
<path d="M106.87 81.1035C107.12 81.3525 107.337 81.6279 107.518 81.9241C108.052 82.7245 108.348 83.643 108.374 84.585C108.387 85.239 108.229 85.8861 107.913 86.4706C107.556 87.1488 106.993 87.7143 106.293 88.0967C105.912 88.2989 105.493 88.4311 105.059 88.4859C104.612 88.5343 104.161 88.5524 103.711 88.5402C103.254 88.5241 102.797 88.5534 102.347 88.6277C101.893 88.7165 101.468 88.9059 101.109 89.1798C100.37 89.7349 99.8811 90.5012 99.3335 91.177C98.7859 91.8527 98.1573 92.5014 97.3279 92.7578C96.5475 92.9813 95.7074 92.9407 94.9561 92.6432C94.3055 92.3996 93.7211 92.0245 93.2452 91.545C92.5805 90.8428 92.0401 90.0464 91.6446 89.1858C91.4988 88.8841 91.3919 88.6518 91.3206 88.4919C91.2808 88.4121 91.2483 88.3294 91.2234 88.2445C91.272 88.3203 91.3153 88.3989 91.353 88.4798C91.4405 88.6488 91.5604 88.8751 91.7062 89.1617C92.1195 90.0019 92.6656 90.7799 93.3262 91.4696C93.7967 91.9302 94.3695 92.2896 95.0047 92.5225C95.7248 92.8028 96.5282 92.837 97.2728 92.619C98.0536 92.3747 98.666 91.7562 99.1974 91.0864C99.7288 90.4167 100.228 89.6414 100.999 89.0561C101.376 88.7707 101.82 88.5713 102.295 88.4738C102.757 88.3988 103.226 88.3694 103.695 88.3863C104.137 88.3978 104.58 88.3817 105.02 88.3381C105.435 88.2874 105.835 88.1624 106.199 87.97C106.876 87.6057 107.422 87.0644 107.771 86.4133C108.082 85.8488 108.242 85.2226 108.237 84.588C108.222 83.6624 107.949 82.7562 107.447 81.9573C107.313 81.7384 107.167 81.526 107.009 81.3207C106.958 81.2515 106.911 81.1789 106.87 81.1035Z" fill="#FAFAFA"/>
<path d="M69.5209 88.869C69.5266 88.9262 69.5266 88.9838 69.5209 89.041C69.504 89.2074 69.4759 89.3726 69.4366 89.5358C69.3002 90.1382 69.0477 90.7126 68.6914 91.2313C68.1662 92.0137 67.4072 92.6365 66.5075 93.0233C65.3966 93.4995 64.1344 93.5716 62.9693 93.2254C62.3938 93.0404 61.8647 92.7484 61.4141 92.3673C60.9635 91.9861 60.6008 91.5237 60.348 91.008C60.1289 90.5583 60.0109 90.0717 60.0013 89.578C59.9969 89.149 60.0714 88.7225 60.2216 88.3169C60.4335 87.7289 60.8052 87.202 61.3006 86.7874C61.377 86.7228 61.4582 86.6633 61.5436 86.6094C61.6026 86.5653 61.6655 86.526 61.7315 86.4917C61.7834 86.4584 61.8387 86.4301 61.8968 86.4072C61.8968 86.4072 61.6797 86.54 61.346 86.8326C60.8809 87.2504 60.5337 87.7685 60.335 88.3411C60.1974 88.7354 60.1317 89.1484 60.1406 89.5629C60.1559 90.0379 60.2749 90.5049 60.4905 90.9356C60.7362 91.4299 61.0863 91.873 61.5199 92.2384C61.9536 92.6039 62.462 92.8841 63.0146 93.0625C64.1391 93.3987 65.3577 93.3331 66.433 92.8785C67.3115 92.5091 68.0572 91.9121 68.5812 91.1588C68.9392 90.6535 69.2032 90.0956 69.3621 89.5086C69.4788 89.1043 69.5047 88.866 69.5209 88.869Z" fill="#FAFAFA"/>
<path d="M45.9227 82.078L45.994 82.0569L46.2079 82.0056C46.3958 81.9664 46.6745 81.906 47.0374 81.8487C47.4787 81.7747 47.9275 81.7463 48.3755 81.7642C48.9791 81.7828 49.5655 81.9561 50.0701 82.265C50.364 82.4467 50.6145 82.6829 50.8057 82.9589C51.0144 83.2627 51.1194 83.6182 51.107 83.9786C51.107 84.7389 50.6177 85.4207 50.2808 86.1478C49.9106 86.9058 49.8462 87.7627 50.0993 88.5613C50.3975 89.4209 50.748 90.264 51.1491 91.0865C51.339 91.5169 51.4875 91.9621 51.593 92.4169C51.6891 92.8626 51.7132 93.3192 51.6643 93.7715C51.5655 94.6296 51.2307 95.4495 50.6923 96.1519C50.4417 96.4759 50.1513 96.7715 49.8271 97.0328C49.5159 97.2706 49.1755 97.4731 48.813 97.6362C48.1554 97.9257 47.4375 98.0771 46.7101 98.0797C45.6582 98.0926 44.6264 97.8109 43.7486 97.2711C43.4272 97.0793 43.1388 96.8433 42.8932 96.5712C43.1728 96.8074 43.4706 97.0242 43.7842 97.2198C44.6571 97.7286 45.6708 97.9887 46.7004 97.968C47.408 97.9594 48.1049 97.8059 48.7417 97.5185C49.0905 97.3544 49.4168 97.1518 49.7137 96.9151C50.0268 96.6592 50.3072 96.3707 50.5497 96.0553C51.0664 95.3712 51.3875 94.5759 51.4829 93.7444C51.5471 92.8478 51.3724 91.9503 50.9741 91.1317C50.5679 90.3047 50.2162 89.4554 49.9211 88.5885C49.7959 88.1645 49.7466 87.7241 49.7753 87.2852C49.8097 86.8668 49.9261 86.4578 50.1187 86.0784C50.4719 85.3423 50.932 84.6756 50.9482 83.9666C50.9478 83.6418 50.8583 83.3225 50.6882 83.039C50.5181 82.7555 50.273 82.5171 49.9762 82.3465C49.4953 82.0448 48.9352 81.8706 48.3561 81.8427C47.9134 81.8205 47.4694 81.8397 47.0309 81.9C46.668 81.9483 46.3828 81.9965 46.1982 82.0297C46.1077 82.0521 46.0157 82.0682 45.9227 82.078Z" fill="#FAFAFA"/>
<path d="M83.3953 63.2644C83.4158 63.3121 83.431 63.3616 83.4406 63.4122C83.4772 63.555 83.501 63.7003 83.5119 63.8467C83.5526 64.3887 83.4744 64.9327 83.2819 65.4456C82.9677 66.3036 82.3559 67.0399 81.5428 67.5386C80.7298 68.0373 79.7617 68.27 78.791 68.2001C77.7175 68.1492 76.6952 67.7573 75.8943 67.0898C75.2569 66.5382 74.7826 65.8432 74.5172 65.0715C74.3407 64.5541 74.2629 64.012 74.2872 63.4696C74.2939 63.3238 74.3112 63.1787 74.339 63.0351C74.3443 62.9837 74.3562 62.933 74.3747 62.8843C74.3941 62.8843 74.3552 63.0955 74.352 63.4877C74.3547 64.0191 74.4488 64.5467 74.6306 65.0504C74.9035 65.7949 75.3738 66.4631 75.998 66.9933C76.7763 67.6303 77.7626 68.0045 78.7975 68.0552C79.8322 68.1198 80.8581 67.842 81.6942 67.2709C82.2545 66.869 82.7053 66.3498 83.0098 65.7554C83.3144 65.161 83.4642 64.5081 83.4471 63.8497C83.4309 63.4726 83.3758 63.2674 83.3953 63.2644Z" fill="#FAFAFA"/>
<path d="M84.0692 72.7919C83.8412 72.5179 83.5827 72.2671 83.298 72.0437C82.9524 71.7811 82.5495 71.5917 82.1173 71.4886C81.6852 71.3856 81.2341 71.3713 80.7954 71.4468C80.3567 71.5223 79.941 71.6857 79.5769 71.9258C79.2129 72.1659 78.9093 72.4769 78.6873 72.8371C78.5075 73.1407 78.363 73.4613 78.2563 73.7935C78.251 73.6979 78.2619 73.6022 78.2887 73.5099C78.3482 73.2549 78.4487 73.0098 78.5868 72.7828C78.7886 72.4421 79.0593 72.1409 79.3839 71.8958C79.7825 71.5856 80.2604 71.3765 80.7713 71.2888C81.2822 71.201 81.8088 71.2376 82.3001 71.395C82.6969 71.516 83.0654 71.7065 83.3855 71.9562C83.6017 72.123 83.7896 72.3193 83.9428 72.5384C83.9993 72.616 84.042 72.7016 84.0692 72.7919Z" fill="#FAFAFA"/>
<path d="M53.3783 70.3663C52.9566 69.8237 52.4382 69.3523 51.8457 68.9725C51.224 68.6363 50.546 68.3997 49.8401 68.2726C50.0563 68.2428 50.2767 68.2541 50.4881 68.3057C51.5303 68.4885 52.4578 69.0358 53.0802 69.8353C53.2177 69.9914 53.3192 70.1721 53.3783 70.3663Z" fill="#FAFAFA"/>
<path d="M8.42761 62.2688L16.9298 70.6618C17.0614 70.778 17.2288 70.8527 17.4085 70.8754C17.5881 70.8982 17.7709 70.8678 17.931 70.7886L20.5231 69.5034L61.3524 86.033C61.3524 86.033 68.1243 89.4843 74.1608 89.9218L76.1049 76.4392L21.6118 65.9675L9.01408 61.6685L8.42761 62.2688Z" fill="#FFBE9D"/>
<path d="M61.7833 76.554L74.1607 89.9219C87.238 91.4967 94.4409 86.905 94.4409 86.905L71.0728 68.52C68.7498 66.6926 65.7444 65.7956 62.7132 66.025C60.6153 66.1851 58.6047 66.878 56.9004 68.0282L29.3947 84.5518L32.3659 88.0393L61.7833 76.554Z" fill="#FFBE9D"/>
<path d="M29.7641 84.3286L19.9367 86.3801L17.189 86.3439L17.0303 87.1011L30.3311 89.922C30.7238 90.0062 31.1362 89.9425 31.4786 89.7447C31.8209 89.5469 32.0654 89.231 32.1586 88.866L32.4567 87.7136L30.6714 85.1402" fill="#FFBE9D"/>
<path d="M54.8559 69.3194C54.8818 69.3556 49.2861 72.7466 42.3554 76.8888C35.4247 81.031 29.7868 84.3677 29.7641 84.3285C29.7414 84.2893 35.3339 80.9043 42.2646 76.7591C49.1954 72.6138 54.8397 69.2832 54.8559 69.3194Z" fill="#EB996E"/>
<path d="M74.1608 89.922L74.0992 89.8647L73.934 89.6897L73.3086 89.0169L71.0178 86.4978L63.4974 78.1561L61.8547 76.3218L61.9519 76.3429L52.8243 80.0567L50.1188 81.1428L49.3865 81.4294L49.1954 81.4988L49.1273 81.5199C49.1454 81.5053 49.1663 81.494 49.1889 81.4867L49.3736 81.4023L50.0929 81.1006L52.779 79.9722L61.8838 76.2102L61.9422 76.186L61.981 76.2313L63.627 78.0656L71.1021 86.4405C72.0482 87.5085 72.8129 88.3773 73.354 88.9898L73.9599 89.6897L74.1122 89.8737C74.1478 89.922 74.164 89.922 74.1608 89.922Z" fill="#EB996E"/>
<path d="M63.844 72.834C63.876 73.035 63.8661 73.2398 63.8149 73.4374C63.6416 74.4147 63.1308 75.3129 62.36 75.9957C62.2125 76.1462 62.0355 76.2691 61.8384 76.3577C62.3525 75.8789 62.797 75.3393 63.1604 74.7527C63.4764 74.1434 63.7062 73.4984 63.844 72.834Z" fill="#EB996E"/>
<path d="M80.9619 76.3036L85.4981 71.8265C85.4981 71.8265 84.5974 67.259 85.8222 65.2678C87.0081 63.3491 94.2142 58.2083 94.2142 58.2083C94.5926 58.2892 94.9658 58.39 95.332 58.5099C95.332 58.5099 86.7197 64.764 92.5358 67.259C96.5374 68.9786 101.456 65.8802 104.119 61.1316L105.036 61.5268L102.075 72.2127C102.075 72.2127 96.9942 78.0504 97.3701 79.6645C97.9436 82.1323 94.8363 87.0649 94.4539 86.905L80.9619 76.3036Z" fill="black"/>
<path d="M96.0513 83.6707C96.1136 83.4563 96.1136 83.2304 96.0513 83.016C95.974 82.7667 95.8289 82.5402 95.6301 82.3583C95.367 82.1241 95.045 81.955 94.6937 81.8666C94.2553 81.7632 93.809 81.6916 93.3587 81.6524C92.8267 81.6125 92.3071 81.4816 91.8261 81.2662C91.3215 80.9769 90.9175 80.5578 90.6629 80.0594C90.3648 79.5767 90.0732 79.0518 89.5548 78.732C89.0343 78.437 88.4401 78.2737 87.831 78.2584C87.2413 78.2191 86.6581 78.2584 86.104 78.2584C85.5719 78.2672 85.042 78.1938 84.5358 78.0411C84.0962 77.8965 83.6944 77.6673 83.3563 77.3684C82.8609 76.9441 82.5086 76.3948 82.3422 75.7875C82.2966 75.6245 82.2684 75.4578 82.2579 75.2897C82.2501 75.2316 82.2501 75.1728 82.2579 75.1147C82.2934 75.3361 82.3409 75.5556 82.4005 75.7724C82.5879 76.3549 82.9458 76.8772 83.4341 77.2809C83.7645 77.5624 84.1539 77.7771 84.5779 77.9114C85.0703 78.0549 85.585 78.1212 86.1008 78.1075C86.6516 78.1075 87.2316 78.0743 87.8407 78.1075C88.4788 78.1229 89.1013 78.2946 89.6455 78.6053C90.2093 78.9553 90.5106 79.5104 90.8022 79.987C91.0386 80.4665 91.419 80.872 91.8974 81.1546C92.36 81.3645 92.8594 81.4953 93.3717 81.5407C93.8295 81.5833 94.2826 81.662 94.7261 81.7761C95.0945 81.8738 95.4294 82.0589 95.6981 82.3131C95.9021 82.5086 96.0464 82.7513 96.1161 83.016C96.1596 83.1825 96.1596 83.3563 96.1161 83.5229C96.1022 83.5748 96.0804 83.6245 96.0513 83.6707Z" fill="#FAFAFA"/>
<path d="M97.1464 78.9976C97.1302 78.9976 97.0751 78.8106 96.9131 78.4877C96.6769 78.0381 96.359 77.6298 95.9735 77.281C95.4043 76.7576 94.695 76.3857 93.9192 76.204C93.0444 75.9988 92.0399 76.1044 91.0031 76.1708C90.0018 76.2593 88.9923 76.1248 88.0578 75.7786C87.2985 75.4949 86.6062 75.0758 86.0197 74.5447C85.6225 74.1902 85.283 73.7837 85.012 73.3379C84.9365 73.2179 84.8684 73.094 84.8079 72.9668C84.7851 72.9232 84.7667 72.8778 84.7528 72.8311C84.769 72.8311 84.8597 73.006 85.0768 73.3047C85.3651 73.7307 85.7126 74.1192 86.1104 74.4602C86.6969 74.9683 87.3805 75.3694 88.1258 75.6428C89.0414 75.9711 90.0263 76.0971 91.0031 76.0109C92.0432 75.9475 93.0703 75.8389 93.9808 76.0591C94.779 76.2543 95.505 76.6486 96.0804 77.1995C96.4549 77.5647 96.7537 77.9912 96.9617 78.4576C97.0205 78.5856 97.0682 78.7177 97.1043 78.8528C97.1285 78.898 97.1428 78.9472 97.1464 78.9976Z" fill="#FAFAFA"/>
<path d="M99.0096 75.1632C98.9578 75.1821 98.9031 75.1933 98.8476 75.1964C98.7406 75.2115 98.5819 75.2326 98.3777 75.2537C97.7997 75.3229 97.2155 75.336 96.6345 75.2929C96.2293 75.2634 95.8309 75.1791 95.4519 75.0425C95.014 74.88 94.6184 74.6321 94.2919 74.3155C93.942 73.9926 93.6439 73.6065 93.2972 73.2384C92.9534 72.855 92.5386 72.5321 92.0724 72.2851C91.1003 71.7752 90.0538 71.558 89.1271 71.3016C88.2853 71.1054 87.4825 70.7856 86.7488 70.3543C86.4682 70.182 86.2105 69.9794 85.9809 69.7509C85.8087 69.5789 85.6606 69.3873 85.5402 69.1807C85.4613 69.0516 85.3972 68.915 85.3491 68.7734C85.3271 68.7255 85.314 68.6745 85.3102 68.6226C85.3296 68.6226 85.3879 68.8247 85.5953 69.1505C85.7254 69.3451 85.8775 69.5261 86.0489 69.6905C86.2806 69.9044 86.5371 70.0936 86.8136 70.2547C87.5437 70.6682 88.3384 70.9735 89.1692 71.1598C90.0959 71.4072 91.1587 71.6214 92.1566 72.1433C92.6379 72.4004 93.0658 72.7355 93.4203 73.1328C93.767 73.5099 94.0683 73.8961 94.3924 74.2129C94.9907 74.7775 95.7883 75.1215 96.6378 75.1813C97.2113 75.2281 97.7881 75.2281 98.3615 75.1813L98.8346 75.1542C98.8931 75.1519 98.9517 75.155 99.0096 75.1632Z" fill="#FAFAFA"/>
<path d="M101.764 72.3605C101.744 72.3605 101.683 72.1192 101.469 71.721C101.161 71.161 100.717 70.6756 100.173 70.303C99.3657 69.7453 98.3686 69.4794 97.3668 69.5548C96.803 69.585 96.2133 69.6815 95.5879 69.7388C94.9365 69.8215 94.2736 69.7731 93.6438 69.5971C93.0273 69.3923 92.4554 69.0857 91.9557 68.692C91.4936 68.3361 91.0523 67.9575 90.6337 67.5576C89.8302 66.8094 89.0525 66.1729 88.2717 65.8501C87.6612 65.5779 86.9801 65.4733 86.3081 65.5484C86.0637 65.5883 85.8239 65.6499 85.592 65.7324C85.8064 65.6056 86.0471 65.5223 86.2984 65.488C86.9847 65.3878 87.6874 65.4803 88.317 65.7535C89.1303 66.0733 89.9371 66.7159 90.7439 67.4611C91.1612 67.8543 91.6003 68.2269 92.0594 68.5773C92.5453 68.9541 93.0994 69.2473 93.6957 69.4432C94.3011 69.6134 94.9386 69.6607 95.5653 69.582C96.1776 69.5277 96.7706 69.4341 97.3473 69.407C97.895 69.3729 98.4446 69.4354 98.9674 69.591C99.4224 69.7286 99.8487 69.9378 100.228 70.2095C100.783 70.5971 101.229 71.1058 101.524 71.6908C101.604 71.8481 101.669 72.0116 101.718 72.1795C101.739 72.2384 101.755 72.299 101.764 72.3605Z" fill="#FAFAFA"/>
<path d="M102.956 68.4294C102.748 68.4552 102.536 68.4355 102.337 68.3721C101.846 68.2499 101.391 68.0227 101.011 67.7085C100.63 67.3943 100.333 67.0017 100.144 66.562C100.054 66.3856 100.006 66.193 100.004 65.9978C100.097 66.1662 100.179 66.3394 100.251 66.5167C100.464 66.9237 100.761 67.2877 101.125 67.5877C101.489 67.8871 101.913 68.1159 102.373 68.2605C102.726 68.3781 102.959 68.4023 102.956 68.4294Z" fill="#FAFAFA"/>
<path d="M104.019 65.6961C103.745 65.4166 103.454 65.1517 103.147 64.9026C102.807 64.6943 102.455 64.502 102.094 64.3264C102.514 64.3818 102.912 64.5368 103.249 64.7767C103.586 65.0166 103.851 65.3332 104.019 65.6961Z" fill="#FAFAFA"/>
<path d="M90.8573 63.4033C90.5541 63.1541 90.229 62.929 89.8853 62.7305C89.5145 62.5762 89.1309 62.45 88.7383 62.3534C89.165 62.2962 89.5997 62.3806 89.9663 62.5917C90.3574 62.7551 90.6733 63.0428 90.8573 63.4033Z" fill="#FAFAFA"/>
<path d="M19.3632 44.3876C19.6095 43.4826 18.9841 42.5986 18.2778 41.953C17.5714 41.3074 16.7322 40.7251 16.3661 39.8683C15.7731 38.4835 16.5702 36.6885 15.5593 35.533C14.9631 34.8512 13.8938 34.6279 13.3657 33.8978C13.1218 33.4967 12.9603 33.0568 12.8894 32.6006C12.3272 30.2973 11.1108 28.1769 9.36733 26.4612C9.2471 28.5139 9.72396 30.5589 10.7476 32.3803C11.1591 33.1074 11.6614 33.8164 11.7975 34.6279C12.0178 35.9433 11.2272 37.3009 11.5771 38.5952C11.9724 40.0765 13.7577 41.066 13.8452 42.5895C13.9165 43.8778 12.7112 45.0031 12.7987 46.2943C12.8712 46.8414 13.0822 47.3646 13.4143 47.8209C14.4835 49.4771 16.055 50.6175 18.4365 50.5783L21.3527 50.6748L19.3632 44.3876Z" fill="#30AD4C"/>
<g opacity="0.3">
<path opacity="0.3" d="M19.3632 44.3876C19.6095 43.4826 18.9841 42.5986 18.2778 41.953C17.5714 41.3074 16.7322 40.7251 16.3661 39.8683C15.7731 38.4835 16.5702 36.6885 15.5593 35.533C14.9631 34.8512 13.8938 34.6279 13.3657 33.8978C13.1218 33.4967 12.9603 33.0568 12.8894 32.6006C12.3272 30.2973 11.1108 28.1769 9.36733 26.4612C9.2471 28.5139 9.72396 30.5589 10.7476 32.3803C11.1591 33.1074 11.6614 33.8164 11.7975 34.6279C12.0178 35.9433 11.2272 37.3009 11.5771 38.5952C11.9724 40.0765 13.7577 41.066 13.8452 42.5895C13.9165 43.8778 12.7112 45.0031 12.7987 46.2943C12.8712 46.8414 13.0822 47.3646 13.4143 47.8209C14.4835 49.4771 16.055 50.6175 18.4365 50.5783L21.3527 50.6748L19.3632 44.3876Z" fill="black"/>
</g>
<path d="M21.9423 50.7413C22.2082 50.7844 22.48 50.7844 22.7459 50.7413C23.0697 50.697 23.3877 50.6222 23.6953 50.518C24.119 50.3799 24.5145 50.1758 24.865 49.9146C25.0765 49.7533 25.2422 49.5461 25.3477 49.3112C25.4349 49.0483 25.4807 48.7749 25.4838 48.4997C25.4893 48.2061 25.5121 47.913 25.5519 47.6218C25.6077 47.3111 25.7288 47.0138 25.9083 46.7469C26.2517 46.1857 26.822 45.6517 27.0067 44.8885C27.1914 44.1252 27.065 43.3257 26.9289 42.5081C26.7929 41.6905 26.66 40.8066 26.997 39.9558C27.334 39.1051 27.9464 38.3327 28.2704 37.3824C28.5944 36.4321 28.4421 35.3762 28.5101 34.3655C28.5296 33.8445 28.6584 33.332 28.8892 32.8571C29.1258 32.3774 29.453 31.9248 29.709 31.418C30.2242 30.3953 30.3181 29.2368 30.4575 28.0994C30.5288 27.5262 30.5968 26.95 30.6681 26.3647C30.711 25.7765 30.8196 25.1941 30.9921 24.6269C31.1892 24.0547 31.4218 23.4936 31.6887 22.9465C31.8222 22.6626 31.9306 22.369 32.0128 22.0686C32.0678 21.7488 32.084 21.4501 32.1067 21.1364C32.1375 20.509 32.1115 19.8802 32.029 19.2569C31.948 18.6293 31.8281 18.0079 31.7535 17.3803C31.7555 17.3442 31.7555 17.3079 31.7535 17.2717V17.145L31.6337 17.2023C31.0112 17.4888 30.4688 17.9061 30.0492 18.4212C29.6421 18.9262 29.3147 19.483 29.0772 20.0744C28.5879 21.242 28.4291 22.4638 28.1667 23.6314C27.984 24.7851 27.5778 25.8983 26.9678 26.9168C26.6438 27.3995 26.2647 27.8399 25.9245 28.3136C25.5628 28.7729 25.3159 29.3017 25.2019 29.8613C25.027 31.0107 25.7074 32.0184 25.5681 33.0351C25.4987 33.535 25.3153 34.0154 25.0302 34.4439C24.7678 34.8784 24.4567 35.2796 24.1586 35.6839C23.8584 36.0795 23.597 36.4996 23.3777 36.9389C23.1722 37.369 23.0504 37.8297 23.0181 38.2995C22.9468 39.2046 23.0861 40.0856 23.0181 40.9031C22.9376 41.684 22.6932 42.4425 22.2988 43.1356C21.9456 43.8054 21.5535 44.4088 21.2263 44.9941C21.0653 45.2805 20.9204 45.5746 20.7921 45.875C20.6766 46.152 20.5909 46.439 20.5361 46.7318C20.4497 47.2451 20.4421 47.7672 20.5134 48.2825C20.5916 49.0002 20.8808 49.684 21.3494 50.2586C21.4201 50.3447 21.4993 50.4245 21.5859 50.4969C21.6433 50.5538 21.7074 50.6044 21.7771 50.6477C21.884 50.7232 21.9423 50.7563 21.9423 50.7563C21.7335 50.6043 21.5443 50.4301 21.3785 50.2374C20.9284 49.6617 20.6551 48.9828 20.5879 48.2734C20.523 47.7655 20.535 47.2517 20.6236 46.7469C20.6787 46.4597 20.7655 46.1787 20.8828 45.9082C21.0059 45.6276 21.1615 45.344 21.3267 45.0544C21.6507 44.4751 22.0557 43.8718 22.4154 43.199C22.8211 42.4956 23.0743 41.7247 23.1606 40.9303C23.2384 40.0916 23.1023 39.2197 23.1606 38.3267C23.1924 37.8714 23.3109 37.425 23.5106 37.0083C23.729 36.5784 23.9882 36.1675 24.285 35.7804C24.5798 35.3792 24.8941 34.9749 25.1663 34.5345C25.4627 34.0874 25.6528 33.5864 25.7236 33.0652C25.8629 31.9821 25.189 30.9534 25.3639 29.9005C25.476 29.3644 25.7151 28.8583 26.0638 28.4192C26.3878 27.9576 26.7864 27.5141 27.1136 27.0193C27.7364 25.9844 28.1525 24.8528 28.3417 23.6796C28.5879 22.5061 28.7661 21.2963 29.2424 20.1529C29.4741 19.578 29.7903 19.0358 30.1821 18.5418C30.5794 18.0457 31.0937 17.6411 31.6855 17.3592L31.5527 17.2898V17.3984C31.6272 18.035 31.7471 18.6565 31.8248 19.275C31.9087 19.8891 31.9348 20.5089 31.9026 21.1273C31.8831 21.429 31.8637 21.7488 31.8151 22.0324C31.7312 22.3225 31.6229 22.6059 31.4911 22.8802C31.2187 23.4321 30.9839 23.9993 30.788 24.5787C30.6142 25.1549 30.5057 25.7464 30.464 26.3436C30.3959 26.9288 30.3246 27.5081 30.2566 28.0813C30.1173 29.2217 30.0265 30.3621 29.5275 31.3516C29.2813 31.8404 28.954 32.2959 28.711 32.7937C28.4745 33.2864 28.3424 33.8171 28.3222 34.3565C28.2574 35.4033 28.4032 36.4291 28.0986 37.3583C27.7941 38.2875 27.1622 39.0508 26.8415 39.9287C26.5207 40.8066 26.6373 41.7388 26.7767 42.5413C26.916 43.3438 27.0585 44.1554 26.8706 44.8764C26.6827 45.5974 26.1481 46.1344 25.7981 46.7137C25.6161 46.991 25.4929 47.2982 25.4352 47.6188C25.3979 47.9132 25.3774 48.2093 25.3737 48.5057C25.3744 48.7734 25.3329 49.0397 25.2505 49.2962C25.1538 49.519 24.9977 49.7153 24.7969 49.8664C24.4559 50.1258 24.0703 50.3298 23.6564 50.4697C23.3531 50.5767 23.0395 50.6565 22.72 50.7081C22.5241 50.7398 22.3258 50.7569 22.127 50.7594L21.9423 50.7413Z" fill="black"/>
<path d="M31.1574 18.7529C31.1455 18.7791 31.1368 18.8064 31.1315 18.8344C31.112 18.8977 31.0926 18.9792 31.0667 19.0788C31.0084 19.293 30.9403 19.6158 30.8301 20.017C30.72 20.4183 30.451 20.8768 30.2242 21.438C29.9974 21.9991 29.7512 22.6447 29.5308 23.3628C29.3105 24.0808 29.1129 24.8923 28.9055 25.7521C28.7292 26.6724 28.4151 27.5651 27.9723 28.404C27.7326 28.8445 27.4636 29.291 27.2498 29.7797C27.0408 30.2813 26.9004 30.8053 26.8318 31.3395C26.6826 32.4439 26.4728 33.5404 26.2032 34.6249C25.6167 36.8483 25.0594 38.9692 24.554 40.9C24.0485 42.8308 23.5819 44.5565 23.1704 46.0287C22.7589 47.501 22.4738 48.6535 22.2534 49.4831C22.153 49.8813 22.072 50.1951 22.0137 50.4244C21.991 50.5239 21.9715 50.6054 21.9586 50.6687C21.9552 50.6968 21.9552 50.7252 21.9586 50.7532C21.9586 50.7532 21.9586 50.7291 21.991 50.6748C22.0234 50.6205 22.0363 50.53 22.0687 50.4334C22.1336 50.2041 22.2243 49.8934 22.3409 49.4982C22.5742 48.6716 22.9079 47.501 23.313 46.0589C23.718 44.6168 24.1846 42.858 24.7062 40.9392C25.2279 39.0205 25.782 36.8875 26.3717 34.6611C26.6429 33.5729 26.8527 32.4722 27.0003 31.3636C27.0665 30.8472 27.2014 30.3405 27.4021 29.8551C27.6094 29.3785 27.8751 28.935 28.1149 28.4885C28.5577 27.6361 28.8707 26.7303 29.0448 25.7974C29.2457 24.9315 29.4336 24.1291 29.6475 23.408C29.8613 22.687 30.0849 22.0414 30.2955 21.4832C30.5061 20.9251 30.7686 20.4635 30.8755 20.0472C30.9824 19.6308 31.031 19.3141 31.0764 19.0969C31.0958 18.9973 31.112 18.9158 31.1218 18.8495C31.1394 18.8194 31.1515 18.7868 31.1574 18.7529Z" fill="black"/>
<path d="M22.4575 50.7502C24.3628 49.6973 24.9103 46.4964 24.1165 44.5716C23.3227 42.6468 21.9294 40.885 21.7155 38.8395C21.5503 37.2617 22.1044 35.6416 21.7155 34.0969C21.1809 32.0153 18.9971 30.4012 19.023 28.2622C19.023 27.0555 19.7715 25.9302 19.7131 24.7295C19.6418 23.2602 18.4171 22.0927 17.6751 20.8075C16.5248 18.8224 16.4503 16.4752 16.055 14.2518C15.6597 12.0283 14.7589 9.64192 12.6334 8.5498C12.3094 10.4384 11.7845 11.7326 11.9529 14.2819C12.0145 15.2021 13.1583 16.9609 13.3171 18.9762C13.4078 20.183 13.4726 21.3897 13.5536 22.5965C13.6346 23.8033 13.7124 24.9618 14.1627 26.0599C14.5094 26.8986 15.0635 27.6619 15.3195 28.5308C15.8055 30.1629 15.1704 31.9308 15.5592 33.5871C15.8833 34.9869 16.9298 36.1937 17.1437 37.6146C17.4418 39.6118 16.055 41.6845 16.7646 43.5881C17.1178 44.5354 17.9537 45.2927 18.1903 46.2701C18.3749 47.0274 18.1903 47.8269 18.3393 48.5871C18.6082 49.812 21.1194 50.7653 22.4575 50.699" fill="#30AD4C"/>
<path d="M13.1584 10.4053C13.1526 10.4403 13.1526 10.4759 13.1584 10.5109C13.1584 10.5893 13.1843 10.6919 13.2005 10.8126C13.2458 11.0841 13.2944 11.4853 13.3949 12.0193C13.4953 12.5533 13.7869 13.1265 14.017 13.8295C14.247 14.5324 14.503 15.3379 14.7169 16.243C14.9307 17.1481 15.1154 18.1617 15.3066 19.2599C15.4977 20.358 15.7051 21.5256 16.2786 22.6539C16.5443 23.2211 16.8457 23.7883 17.0692 24.3916C17.2886 25.0131 17.4235 25.6577 17.471 26.3104C17.5776 27.6955 17.7647 29.0742 18.0316 30.4405L19.6873 38.3327C20.2219 40.7463 20.7014 42.9275 21.1065 44.7618C21.5115 46.596 21.8452 48.0562 22.0785 49.091C22.1952 49.5918 22.2859 49.9961 22.3507 50.2676C22.3831 50.3943 22.409 50.4939 22.4252 50.5693C22.4332 50.6042 22.444 50.6385 22.4576 50.6719C22.4626 50.6368 22.4626 50.6013 22.4576 50.5663C22.4576 50.4848 22.4252 50.3853 22.4025 50.2646C22.3442 49.984 22.2632 49.5888 22.1628 49.085C21.9424 48.0472 21.6314 46.5659 21.249 44.7437C20.8667 42.9215 20.3742 40.7191 19.846 38.2965C19.3179 35.874 18.806 33.204 18.226 30.4073C17.9607 29.0448 17.7725 27.6702 17.6622 26.2893C17.6159 25.6241 17.4787 24.9672 17.2539 24.3343C17.0239 23.7309 16.7193 23.1487 16.4504 22.5845C15.8768 21.4743 15.676 20.3128 15.4783 19.2327C15.2807 18.1527 15.0895 17.142 14.8627 16.2158C14.6359 15.2896 14.3767 14.4992 14.1239 13.7963C13.8712 13.0933 13.5861 12.505 13.4759 11.9861C13.3657 11.4672 13.3042 11.0811 13.2491 10.8035L13.1875 10.5018C13.1809 10.4689 13.1712 10.4366 13.1584 10.4053Z" fill="black"/>
<path d="M126.214 50.4938C122.141 48.1557 121.046 43.1748 120.942 38.9179C120.923 38.2059 120.793 37.4638 121.117 36.8212C121.441 36.1786 122.261 35.7079 122.964 35.9704C123.544 36.1906 123.829 36.788 124.176 37.2797C124.638 37.938 125.291 38.461 126.058 38.7882C126.561 38.9964 127.17 39.108 127.633 38.8365C128.281 38.4654 128.281 37.6146 128.246 36.9087C128.157 35.5953 128.068 34.2809 127.98 32.9656C127.891 32.2612 127.925 31.548 128.08 30.8537C128.159 30.5089 128.327 30.187 128.568 29.9155C128.81 29.6439 129.118 29.4307 129.467 29.294C130.177 29.0677 131.087 29.4086 131.285 30.0905C131.331 30.3812 131.356 30.6745 131.359 30.9684C131.364 31.1145 131.415 31.2562 131.506 31.3757C131.596 31.4953 131.722 31.5876 131.868 31.6412C132.026 31.6505 132.184 31.6215 132.327 31.557C132.469 31.4924 132.592 31.3946 132.681 31.2731C133.385 30.4839 133.943 29.592 134.334 28.6333C134.727 27.6751 135.24 26.7637 135.863 25.9181C136.511 25.1035 137.467 24.4338 138.549 24.3191C139.632 24.2045 140.817 24.7686 141.161 25.7461C141.504 26.7236 140.934 27.7674 140.305 28.6092C139.374 29.86 138.252 30.9779 136.975 31.9278C136.726 32.076 136.533 32.2934 136.424 32.5492C136.288 33.0289 136.793 33.4694 137.302 33.5991C137.879 33.7439 138.488 33.6564 139.084 33.6896C139.68 33.7228 140.331 33.931 140.587 34.4408C140.944 35.1438 140.341 35.9342 139.735 36.4622C138.519 37.5221 137.116 38.3793 135.588 38.9964C135.022 39.1744 134.496 39.4474 134.036 39.8019C133.611 40.1911 133.388 40.8397 133.679 41.3103C133.971 41.781 134.687 41.9137 135.267 41.784C135.827 41.6013 136.37 41.3732 136.887 41.1022C137.905 40.6828 139.256 40.6768 139.972 41.4793C140.193 41.7568 140.342 42.0784 140.407 42.4186C140.472 42.7589 140.452 43.1086 140.348 43.4403C140.135 44.1025 139.781 44.718 139.308 45.2504C137.77 47.1834 135.709 48.7022 133.336 49.6521C132.608 49.9419 131.847 50.1534 131.068 50.2826C129.458 50.4906 127.831 50.5633 126.208 50.4998" fill="#30AD4C"/>
<path d="M126.522 50.4939C126.522 50.4939 126.765 49.6492 127.312 47.477C127.925 45.1256 128.683 42.8088 129.581 40.5381C129.817 39.9347 130.047 39.3313 130.277 38.743C130.507 38.1547 130.737 37.5725 131 37.0144C131.502 35.9447 132.069 34.9022 132.698 33.8919C133.291 32.9204 133.89 32.0214 134.457 31.1767C135.024 30.3319 135.572 29.5686 136.103 28.8868C136.934 27.8058 137.856 26.788 138.86 25.8428C139.217 25.5079 139.508 25.2575 139.696 25.0885L139.917 24.8985C139.942 24.876 139.969 24.8558 139.998 24.8381C139.976 24.8643 139.953 24.8885 139.926 24.9105L139.713 25.1066C139.525 25.2816 139.249 25.5381 138.899 25.879C137.913 26.835 137.006 27.8586 136.184 28.9411C135.659 29.626 135.118 30.3953 134.564 31.234C134.01 32.0727 133.407 32.9747 132.817 33.9492C132.197 34.9586 131.635 35.9978 131.133 37.0626C130.873 37.6177 130.65 38.197 130.417 38.7853C130.183 39.3736 129.956 39.9739 129.72 40.5773C128.822 42.8493 128.059 45.1658 127.436 47.5162C126.888 49.6854 126.788 50.4818 126.788 50.4818" fill="black"/>
<path d="M131.048 36.9902C131.006 36.893 130.974 36.7919 130.954 36.6885C130.903 36.4955 130.838 36.2149 130.763 35.8679C130.614 35.171 130.439 34.1996 130.255 33.1316C130.07 32.0636 129.885 31.0982 129.723 30.4164C129.642 30.0725 129.577 29.7919 129.525 29.5988C129.495 29.5005 129.475 29.3993 129.467 29.2971C129.516 29.3939 129.554 29.495 129.581 29.5988C129.645 29.7889 129.726 30.0664 129.82 30.4104C130.005 31.1012 130.209 32.0666 130.394 33.1256C130.579 34.1845 130.737 35.1348 130.86 35.8649C130.919 36.1938 130.967 36.4683 131.009 36.6946C131.033 36.7917 131.046 36.8907 131.048 36.9902Z" fill="black"/>
<path d="M140.704 34.7758C140.578 34.8094 140.449 34.8306 140.318 34.8392C140.069 34.8754 139.709 34.9206 139.265 34.993C138.378 35.1318 137.159 35.3611 135.828 35.6688C134.496 35.9766 133.304 36.3054 132.448 36.5739C132.02 36.7006 131.677 36.8122 131.44 36.8756C131.319 36.9213 131.193 36.9576 131.065 36.9842C131.178 36.9216 131.297 36.8691 131.421 36.8273C131.651 36.7368 131.991 36.6131 132.419 36.4713C133.268 36.1877 134.46 35.8438 135.795 35.5331C136.934 35.2655 138.087 35.053 139.249 34.8965C139.696 34.8362 140.059 34.803 140.312 34.7849C140.442 34.7705 140.573 34.7675 140.704 34.7758Z" fill="black"/>
<path d="M127.419 47.296C127.419 47.296 127.387 47.2598 127.345 47.1874L127.157 46.8857C126.998 46.6051 126.775 46.1978 126.509 45.6789C125.974 44.6652 125.284 43.2413 124.545 41.6634C123.807 40.0856 123.133 38.6465 122.624 37.6328L122.015 36.4261L121.849 36.0942C121.814 36.0188 121.798 35.9766 121.804 35.9766C121.833 36.0082 121.858 36.0438 121.875 36.0822L122.063 36.4019C122.222 36.6795 122.446 37.0868 122.711 37.6087C123.246 38.6224 123.936 40.0433 124.675 41.6242C125.414 43.2051 126.088 44.6411 126.596 45.6548C126.849 46.1526 127.053 46.5599 127.205 46.8616C127.27 46.9943 127.325 47.1029 127.371 47.1904C127.391 47.224 127.407 47.2594 127.419 47.296Z" fill="black"/>
<path d="M140.131 42.7224C140.092 42.7472 140.049 42.7665 140.004 42.7797L139.635 42.9155L138.274 43.4073C137.127 43.8236 135.546 44.4149 133.802 45.0696C132.059 45.7242 130.468 46.3035 129.312 46.6987C128.732 46.8948 128.262 47.0486 127.935 47.1512L127.555 47.2659C127.513 47.2805 127.468 47.2906 127.423 47.296C127.423 47.296 127.461 47.2719 127.546 47.2387L127.915 47.103L129.276 46.6112C130.426 46.1949 132.004 45.6036 133.751 44.9489C135.497 44.2942 137.082 43.715 138.241 43.3198C138.818 43.1237 139.291 42.9698 139.619 42.8672L139.994 42.7556C140.038 42.7388 140.084 42.7276 140.131 42.7224Z" fill="black"/>
</svg>
