<svg width="33" height="33" viewBox="0 0 33 33" fill="none" xmlns="http://www.w3.org/2000/svg">
<path d="M15.7697 8.41637C13.6703 8.41637 11.9625 6.74349 11.9625 4.68724C11.9625 4.11849 12.0936 3.57937 12.3271 3.09662C10.8411 3.60499 9.77173 4.99087 9.77173 6.61749C9.77173 8.67374 11.4797 10.3466 13.579 10.3466C15.0977 10.3466 16.4111 9.47087 17.0217 8.20812C16.6293 8.34249 16.2082 8.41637 15.7697 8.41637Z" fill="#FA8231"/>
<path d="M14.5427 9.97599C12.4434 9.97599 10.7355 8.30312 10.7355 6.24687C10.7355 5.03499 11.3292 3.95712 12.2464 3.27574C12.2717 3.21524 12.2986 3.15549 12.3271 3.09662C10.8411 3.60499 9.77173 4.99087 9.77173 6.61749C9.77173 8.67374 11.4797 10.3466 13.579 10.3466C14.2529 10.3466 14.8862 10.1739 15.4357 9.87174C15.1492 9.93949 14.8502 9.97599 14.5427 9.97599Z" fill="#FFD551"/>
<path d="M27.0694 27.7286H24.7893C24.6511 27.7286 24.5389 27.6165 24.5389 27.4783V10.4679H27.3198V27.4781C27.3199 27.6165 27.2078 27.7286 27.0694 27.7286Z" fill="#192A56"/>
<path d="M26.0156 27.4238V10.4679H24.5389V27.4238C24.5389 27.5921 24.6311 27.7285 24.7447 27.7285H26.2213C26.1077 27.7286 26.0156 27.5921 26.0156 27.4238Z" fill="#192A56"/>
<path d="M29.7836 16.3666H29.7717H29.2158H29.1093H27.5482H27.5363H26.9805H26.874H25.1708H24.6031H24.4966H22.9355H22.3677C22.3015 16.3666 22.2411 16.4189 22.2117 16.5023C21.9668 17.1958 20.9162 20.3006 20.473 21.6121C20.3807 21.8851 20.5226 22.1998 20.738 22.1998H22.2613H22.5097H24.4966H24.8868H25.0287H27.1221H27.264H27.536H29.6412H29.7713H31.4006C31.619 22.1998 31.7607 21.8769 31.6625 21.6033L29.7836 16.3666Z" fill="#30AD4C"/>
<path d="M24.2429 10.7938L27.1244 4.7016L26.4024 2.9661C26.2714 2.6511 25.8904 2.64897 25.7568 2.96247L25.0205 4.68997L22.1335 10.7938C22.0525 10.9652 22.1536 11.1797 22.3156 11.1797H24.425C24.263 11.1797 24.1619 10.9652 24.2429 10.7938Z" fill="#FCDA4F"/>
<path d="M22.5826 21.6121C23.0258 20.3006 24.0766 17.1958 24.3213 16.5023C24.3507 16.419 24.4111 16.3666 24.4773 16.3666H22.9357H22.368C22.3017 16.3666 22.2413 16.4189 22.212 16.5023C21.9671 17.1958 20.9165 20.3006 20.4732 21.6121C20.381 21.8851 20.5228 22.1998 20.7382 22.1998H22.2616H22.51H22.8476C22.6323 22.1998 22.4903 21.8851 22.5826 21.6121Z" fill="#30AD4C"/>
<path d="M28.8602 10.7691H28.8475H28.25H28.1356H23.9025H23.2924C23.2211 10.7691 23.1562 10.8214 23.1246 10.9047C22.8615 11.5982 21.7321 14.7031 21.2557 16.0146C21.1566 16.2876 21.3091 16.6022 21.5406 16.6022H23.178H26H26.1525H28.8475H30.5986C30.8334 16.6022 30.9857 16.2794 30.8801 16.0057L28.8602 10.7691Z" fill="#30AD4C"/>
<path d="M23.3651 16.0146C23.8416 14.7031 24.9709 11.5982 25.234 10.9047C25.2656 10.8215 25.3305 10.7691 25.4017 10.7691H23.9025H23.2922C23.221 10.7691 23.1561 10.8214 23.1245 10.9047C22.8614 11.5982 21.732 14.7031 21.2556 16.0146C21.1565 16.2876 21.309 16.6022 21.5405 16.6022H23.1779H23.6499C23.4185 16.6022 23.2659 16.2876 23.3651 16.0146Z" fill="#30AD4C"/>
<path d="M30.0058 10.7938L27.1263 4.70597L26.4024 2.9661C26.2714 2.6511 25.8904 2.64897 25.7568 2.96247L25.0206 4.68997L22.1336 10.7938C22.0524 10.9652 22.1537 11.1797 22.3157 11.1797H29.8237C29.9857 11.1797 30.0869 10.9652 30.0058 10.7938Z" fill="#30AD4C"/>
<path d="M24.2429 10.7938L27.1244 4.7016L26.4024 2.9661C26.2714 2.6511 25.8904 2.64897 25.7568 2.96247L25.0205 4.68997L22.1335 10.7938C22.0525 10.9652 22.1536 11.1797 22.3156 11.1797H24.425C24.263 11.1797 24.1619 10.9652 24.2429 10.7938Z" fill="#30AD4C"/>
<path d="M8.80542 30.2714V17.2714H22.0554L29.5554 30.2714H8.80542Z" fill="#0097E6"/>
<path d="M10.5554 20.2714H23.7862L22.0554 17.2714H8.80542V30.2714H10.5554V20.2714Z" fill="#192A56"/>
<path d="M16.3054 30.2714H1.30542L8.80542 17.2714L16.3054 30.2714Z" fill="#0097E6"/>
<path d="M8.80542 17.2714L1.30542 30.2714H4.80542L10.5554 20.3047L8.80542 17.2714Z" fill="#0097E6"/>
<path d="M8.80542 19.2714L6.24292 30.2714H8.80542H11.3679L8.80542 19.2714Z" fill="#192A56"/>
<path d="M13.0609 29.9786C13.6822 29.9786 14.1859 29.475 14.1859 28.8536C14.1859 28.2323 13.6822 27.7286 13.0609 27.7286C12.4396 27.7286 11.9359 28.2323 11.9359 28.8536C11.9359 29.475 12.4396 29.9786 13.0609 29.9786Z" fill="#0097E6"/>
<path d="M26.5051 10.649C27.1264 10.649 27.6301 10.1453 27.6301 9.52399C27.6301 8.90267 27.1264 8.39899 26.5051 8.39899C25.8838 8.39899 25.3801 8.90267 25.3801 9.52399C25.3801 10.1453 25.8838 10.649 26.5051 10.649Z" fill="white"/>
<path d="M28.0508 29.7715C27.9212 29.7715 27.7951 29.7041 27.7256 29.5837L24.3433 23.7214C24.2398 23.542 24.3014 23.3126 24.4808 23.2091C24.6602 23.1055 24.8896 23.1671 24.9931 23.3466L28.3753 29.209C28.4788 29.3884 28.4172 29.6177 28.2378 29.7212C28.1788 29.7552 28.1144 29.7715 28.0508 29.7715Z" fill="white"/>
</svg>
