<svg width="33" height="33" viewBox="0 0 33 33" fill="none" xmlns="http://www.w3.org/2000/svg">
<g clip-path="url(#clip0)">
<path d="M11.328 16.9395C11.142 16.6645 10.832 16.5 10.5 16.5H5.49998C5.09098 16.5 4.72348 16.749 4.57148 17.1285L0.571482 27.1285C0.447982 27.4365 0.485982 27.7855 0.671982 28.0605C0.857982 28.3355 1.16798 28.5 1.49998 28.5H6.49998C6.90898 28.5 7.27648 28.251 7.42848 27.8715L11.4285 17.8715C11.552 17.563 11.514 17.214 11.328 16.9395Z" fill="#0097E6"/>
<path d="M32.4285 27.1285L28.4285 17.1285C28.2765 16.749 27.909 16.5 27.5 16.5H22.5C22.168 16.5 21.858 16.6645 21.672 16.9395C21.486 17.214 21.4485 17.5635 21.5715 17.8715L25.5715 27.8715C25.7235 28.251 26.091 28.5 26.5 28.5H31.5C31.832 28.5 32.142 28.3355 32.328 28.0605C32.514 27.786 32.552 27.437 32.4285 27.1285Z" fill="#192A56"/>
<path d="M10.5 16.5L6.5 28.5H26.5L22.5 16.5H10.5Z" fill="#192A56"/>
<path d="M16.5 28.5H26.5L22.5 16.5H16.5V28.5Z" fill="#0097E6"/>
<path d="M16.5 4.5C12.089 4.5 8.5 8.089 8.5 12.5C8.5 18.9405 15.616 24.0975 15.9185 24.3135C16.0925 24.438 16.2965 24.5 16.5 24.5C16.7035 24.5 16.9075 24.438 17.0815 24.3135C17.384 24.0975 24.5 18.9405 24.5 12.5C24.5 8.089 20.911 4.5 16.5 4.5ZM16.5 8.5C17.603 8.5 18.5 9.397 18.5 10.5C18.5 11.603 17.603 12.5 16.5 12.5C15.397 12.5 14.5 11.603 14.5 10.5C14.5 9.397 15.397 8.5 16.5 8.5Z" fill="#30AD4C"/>
<path d="M16.5 4.5V8.5C17.603 8.5 18.5 9.397 18.5 10.5C18.5 11.603 17.603 12.5 16.5 12.5V24.5C16.7035 24.5 16.9075 24.438 17.0815 24.3135C17.384 24.0975 24.5 18.9405 24.5 12.5C24.5 8.089 20.911 4.5 16.5 4.5Z" fill="#30AD4C"/>
</g>
<defs>
<clipPath id="clip0">
<rect width="32" height="32" fill="white" transform="translate(0.5 0.5)"/>
</clipPath>
</defs>
</svg>
