<svg width="33" height="33" viewBox="0 0 33 33" fill="none" xmlns="http://www.w3.org/2000/svg">
<path d="M9.36657 16.2331L1.83313 27.8331H19.1669L11.636 16.2331C11.5105 16.0477 11.3414 15.8958 11.1436 15.7908C10.9458 15.6859 10.7252 15.631 10.5013 15.631C10.2773 15.631 10.0568 15.6859 9.859 15.7908C9.66118 15.8958 9.4921 16.0477 9.36657 16.2331Z" fill="#30AD4C"/>
<path d="M6.43345 20.7003L1.83313 27.8331H19.1669L14.5666 20.7003H6.43345Z" fill="#30AD4C" fill-opacity="0.5"/>
<path d="M20.0334 12.5L11.1669 27.8331H31.1669L22.2997 12.5C21.8331 11.636 20.5 11.636 20.0334 12.5Z" fill="#0097E6"/>
<path d="M14.6331 21.8331L11.1669 27.8331H31.1669L27.7 21.8331H14.6331Z" fill="#0097E6"/>
<path d="M20.4999 16.5C21.9668 17.2335 23.1668 17.1669 24.4334 16.1L22.3668 12.5C22.2438 12.3013 22.0721 12.1372 21.8679 12.0235C21.6637 11.9098 21.4338 11.8501 21.2001 11.8501C20.9664 11.8501 20.7365 11.9098 20.5323 12.0235C20.3282 12.1372 20.1564 12.3013 20.0334 12.5L17.9003 16.1666C18.4999 16.5 19.1668 15.8331 20.4999 16.5Z" fill="#EBECF0"/>
<path d="M9.8331 19.1669C11.0331 19.7672 12.5 19.8338 13.1662 18.6338L11.6302 16.2338C11.5046 16.0488 11.3356 15.8975 11.1381 15.7928C10.9405 15.6882 10.7203 15.6335 10.4968 15.6335C10.2732 15.6335 10.0531 15.6882 9.8555 15.7928C9.65793 15.8975 9.48897 16.0488 9.36334 16.2338L7.69934 18.8335C7.89966 18.9 8.49998 18.5 9.8331 19.1669Z" fill="#EBECF0"/>
<path d="M13.1669 10.5C13.9031 10.5 14.5 9.90314 14.5 9.16688C14.5 8.43061 13.9031 7.83376 13.1669 7.83376C12.4306 7.83376 11.8337 8.43061 11.8337 9.16688C11.8337 9.90314 12.4306 10.5 13.1669 10.5Z" fill="#F7B731"/>
<path d="M13.1669 6.5C13.5669 6.5 13.8338 6.23312 13.8338 5.83312V5.16688C13.8338 4.76688 13.5669 4.5 13.1669 4.5C12.7669 4.5 12.5 4.76688 12.5 5.16688V5.83312C12.5 6.23312 12.7669 6.5 13.1669 6.5Z" fill="#F7B731"/>
<path d="M10.8334 5.90032C10.7093 5.7765 10.5411 5.70703 10.3658 5.70721C10.1905 5.70739 10.0225 5.7772 9.89867 5.90128C9.77485 6.02536 9.70539 6.19355 9.70557 6.36884C9.70575 6.54414 9.77555 6.71218 9.89963 6.83601L10.3662 7.30257C10.4264 7.36573 10.4988 7.41601 10.579 7.45037C10.6592 7.48473 10.7455 7.50244 10.8327 7.50244C10.92 7.50244 11.0063 7.48473 11.0865 7.45037C11.1667 7.41601 11.2391 7.36573 11.2993 7.30257C11.3625 7.24238 11.4127 7.16999 11.4471 7.08979C11.4815 7.00959 11.4992 6.92325 11.4992 6.83601C11.4992 6.74876 11.4815 6.66242 11.4471 6.58222C11.4127 6.50202 11.3625 6.42963 11.2993 6.36944L10.8334 5.90032Z" fill="#F7B731"/>
<path d="M10.5 9.16688C10.5 8.76688 10.2331 8.5 9.83312 8.5H9.16688C8.76688 8.5 8.5 8.76688 8.5 9.16688C8.5 9.56688 8.76688 9.83376 9.16688 9.83376H9.83376C10.2331 9.83312 10.5 9.56688 10.5 9.16688Z" fill="#F7B731"/>
<path d="M10.3669 11.0331L9.90031 11.4997C9.83715 11.5599 9.78687 11.6323 9.75251 11.7125C9.71815 11.7927 9.70044 11.879 9.70044 11.9662C9.70044 12.0535 9.71815 12.1398 9.75251 12.22C9.78687 12.3002 9.83715 12.3726 9.90031 12.4328C9.9605 12.496 10.0329 12.5462 10.1131 12.5806C10.1933 12.615 10.2796 12.6327 10.3669 12.6327C10.4541 12.6327 10.5405 12.615 10.6207 12.5806C10.7009 12.5462 10.7732 12.496 10.8334 12.4328L11.3 11.9662C11.3632 11.906 11.4134 11.8337 11.4478 11.7535C11.4821 11.6733 11.4999 11.5869 11.4999 11.4997C11.4999 11.4124 11.4821 11.3261 11.4478 11.2459C11.4134 11.1657 11.3632 11.0933 11.3 11.0331C11.0331 10.7669 10.5666 10.7669 10.3669 11.0331Z" fill="#F7B731"/>
<path d="M13.1669 11.8331C12.7669 11.8331 12.5 12.1 12.5 12.5V13.1669C12.5 13.5669 12.7669 13.8338 13.1669 13.8338C13.5669 13.8338 13.8338 13.5669 13.8338 13.1669V12.5C13.8331 12.1 13.5669 11.8331 13.1669 11.8331Z" fill="#F7B731"/>
<path d="M15.9669 11.0331C15.8427 10.9111 15.6755 10.8431 15.5015 10.8439C15.3275 10.8446 15.1608 10.9141 15.0377 11.0371C14.9147 11.1602 14.8452 11.3269 14.8445 11.5009C14.8437 11.6749 14.9118 11.8421 15.0337 11.9663L15.5003 12.4328C15.5605 12.496 15.6329 12.5463 15.7131 12.5806C15.7933 12.615 15.8796 12.6327 15.9669 12.6327C16.0541 12.6327 16.1404 12.615 16.2206 12.5806C16.3008 12.5463 16.3732 12.496 16.4334 12.4328C16.4966 12.3726 16.5468 12.3002 16.5812 12.22C16.6156 12.1398 16.6333 12.0535 16.6333 11.9663C16.6333 11.879 16.6156 11.7927 16.5812 11.7125C16.5468 11.6323 16.4966 11.5599 16.4334 11.4997L15.9669 11.0331Z" fill="#F7B731"/>
<path d="M17.1669 8.5H16.5C16.1 8.5 15.8331 8.76688 15.8331 9.16688C15.8331 9.56688 16.1 9.83376 16.5 9.83376H17.1669C17.5669 9.83376 17.8337 9.56688 17.8337 9.16688C17.8337 8.76688 17.5669 8.5 17.1669 8.5Z" fill="#F7B731"/>
<path d="M15.4997 7.50031C15.5872 7.50277 15.6743 7.48619 15.7549 7.45172C15.8354 7.41724 15.9075 7.3657 15.9662 7.30063L16.436 6.836C16.5579 6.71189 16.626 6.54463 16.6252 6.37062C16.6245 6.1966 16.555 6.02993 16.432 5.90688C16.3089 5.78384 16.1422 5.71438 15.9682 5.71363C15.7942 5.71288 15.627 5.7809 15.5029 5.90288L15.0363 6.36944C14.9731 6.42963 14.9229 6.50201 14.8885 6.58221C14.8541 6.66241 14.8364 6.74875 14.8364 6.836C14.8364 6.92324 14.8541 7.00958 14.8885 7.08978C14.9229 7.16998 14.9731 7.24236 15.0363 7.30255C15.1619 7.42212 15.3264 7.49234 15.4997 7.50031Z" fill="#F7B731"/>
</svg>
