<svg width="33" height="33" viewBox="0 0 33 33" fill="none" xmlns="http://www.w3.org/2000/svg">
<path d="M31 20C31 20.7956 30.6839 21.5587 30.1213 22.1213C29.5587 22.6839 28.7956 23 28 23C27.2044 23 26.4413 22.6839 25.8787 22.1213C25.3161 21.5587 25 20.7956 25 20V12.5C25 11.7044 25.3161 10.9413 25.8787 10.3787C26.4413 9.81607 27.2044 9.5 28 9.5C28.7956 9.5 29.5587 9.81607 30.1213 10.3787C30.6839 10.9413 31 11.7044 31 12.5V20Z" fill="#F7B731"/>
<path d="M31 17.75V20C31 20.7956 30.6839 21.5587 30.1213 22.1213C29.5587 22.6839 28.7956 23 28 23C27.2044 23 26.4413 22.6839 25.8787 22.1213C25.3161 21.5587 25 20.7956 25 20V17.75C25 18.5456 25.3161 19.3087 25.8787 19.8713C26.4413 20.4339 27.2044 20.75 28 20.75C28.7956 20.75 29.5587 20.4339 30.1213 19.8713C30.6839 19.3087 31 18.5456 31 17.75Z" fill="#FA8231"/>
<path d="M12.5 12.5C12.5 13.5609 12.9214 14.5783 13.6716 15.3284C14.4217 16.0786 15.4391 16.5 16.5 16.5C17.5609 16.5 18.5783 16.0786 19.3284 15.3284C20.0786 14.5783 20.5 13.5609 20.5 12.5V6C20.5 4.93913 20.0786 3.92172 19.3284 3.17157C18.5783 2.42143 17.5609 2 16.5 2C15.4391 2 14.4217 2.42143 13.6716 3.17157C12.9214 3.92172 12.5 4.93913 12.5 6V12.5Z" fill="#30AD4C"/>
<path d="M12.5 12.5V10.75C12.5 11.8109 12.9214 12.8283 13.6716 13.5784C14.4217 14.3286 15.4391 14.75 16.5 14.75C17.5609 14.75 18.5783 14.3286 19.3284 13.5784C20.0786 12.8283 20.5 11.8109 20.5 10.75V12.5C20.5 13.5609 20.0786 14.5783 19.3284 15.3284C18.5783 16.0786 17.5609 16.5 16.5 16.5C15.4391 16.5 14.4217 16.0786 13.6716 15.3284C12.9214 14.5783 12.5 13.5609 12.5 12.5Z" fill="#30AD4C"/>
<path d="M18.8536 9.10356C18.9 9.05713 18.9368 9.00201 18.9619 8.94135C18.9871 8.88068 19 8.81566 19 8.75V6.75H18V8.54288L17 9.54288V3.75H16V7.29287L15 6.29287V5.5H14V6.5C14 6.56566 14.0129 6.63068 14.0381 6.69135C14.0632 6.75201 14.1 6.80713 14.1464 6.85356L16 8.70712V11.5429L14.8536 10.3964L14.1464 11.1036L16 12.9571V25H17V14.7071L18.8536 12.8536C18.9 12.8071 18.9368 12.752 18.9619 12.6913C18.9871 12.6307 19 12.5657 19 12.5V11.5H18V12.2929L17 13.2929V10.9571L18.8536 9.10356Z" fill="#192A56"/>
<path d="M29.1464 19.1464L28.4999 19.7929V17.2071L30.1035 15.6036L29.3964 14.8964L28.4999 15.7929V11.25H27.4999V13.5429L26.8535 12.8964L26.1464 13.6036L27.4999 14.9571V18.0429L26.8535 17.3964L26.1464 18.1036L27.4999 19.4571V30.5H28.4999V21.2071L29.8535 19.8536L29.1464 19.1464Z" fill="#192A56"/>
<path d="M10 13.5C10 12.4391 9.57857 11.4217 8.82843 10.6716C8.07828 9.92143 7.06087 9.5 6 9.5C4.93913 9.5 3.92172 9.92143 3.17157 10.6716C2.42143 11.4217 2 12.4391 2 13.5V19C2 20.0609 2.42143 21.0783 3.17157 21.8284C3.92172 22.5786 4.93913 23 6 23C7.06087 23 8.07828 22.5786 8.82843 21.8284C9.57857 21.0783 10 20.0609 10 19V13.5Z" fill="#F7B731"/>
<path d="M10 17V19C10 20.0609 9.57857 21.0783 8.82843 21.8284C8.07828 22.5786 7.06087 23 6 23C4.93913 23 3.92172 22.5786 3.17157 21.8284C2.42143 21.0783 2 20.0609 2 19V17C2 18.0609 2.42143 19.0783 3.17157 19.8284C3.92172 20.5786 4.93913 21 6 21C7.06087 21 8.07828 20.5786 8.82843 19.8284C9.57857 19.0783 10 18.0609 10 17Z" fill="#FA8231"/>
<path d="M7.5 13.75V15.5429L6.5 16.5429V11.25H5.5V13.5429L4.35356 12.3964L3.64644 13.1036L5.5 14.9571V18.5429L4.5 17.5429V15.75H3.5V17.75C3.5 17.8157 3.51293 17.8807 3.53805 17.9413C3.56318 18.002 3.60001 18.0571 3.64644 18.1036L5.5 19.9571V31.5H6.5V20.9571L8.35356 19.1036L7.64644 18.3964L6.5 19.5429V17.9571L8.35356 16.1036C8.39999 16.0571 8.43682 16.002 8.46195 15.9413C8.48707 15.8807 8.5 15.8157 8.5 15.75V13.75H7.5Z" fill="#192A56"/>
<path d="M25 21.5C25 22.2956 24.6839 23.0587 24.1213 23.6213C23.5587 24.1839 22.7956 24.5 22 24.5C21.2044 24.5 20.4413 24.1839 19.8787 23.6213C19.3161 23.0587 19 22.2956 19 21.5V18.9988C19 18.2032 19.3161 17.4401 19.8787 16.8775C20.4413 16.3149 21.2044 15.9988 22 15.9988C22.7956 15.9988 23.5587 16.3149 24.1213 16.8775C24.6839 17.4401 25 18.2032 25 18.9988V21.5Z" fill="#30AD4C"/>
<path d="M25 19.25V21.5C25 22.2956 24.6839 23.0587 24.1213 23.6213C23.5587 24.1839 22.7956 24.5 22 24.5C21.2044 24.5 20.4413 24.1839 19.8787 23.6213C19.3161 23.0587 19 22.2956 19 21.5V19.25C19 20.0456 19.3161 20.8087 19.8787 21.3713C20.4413 21.9339 21.2044 22.25 22 22.25C22.7956 22.25 23.5587 21.9339 24.1213 21.3713C24.6839 20.8087 25 20.0456 25 19.25Z" fill="#30AD4C"/>
<path d="M23.8535 21.1036L23.1464 20.3964L22.4999 21.0429V17.75H21.4999V19.2929L20.8535 18.6464L20.1464 19.3536L21.4999 20.7071V29.5H22.4999V22.4571L23.8535 21.1036Z" fill="#192A56"/>
<path d="M11.5 24C11.5 24.7956 11.8161 25.5587 12.3787 26.1213C12.9413 26.6839 13.7044 27 14.5 27C15.2956 27 16.0587 26.6839 16.6213 26.1213C17.1839 25.5587 17.5 24.7956 17.5 24V21.4988C17.5 20.7032 17.1839 19.9401 16.6213 19.3775C16.0587 18.8149 15.2956 18.4988 14.5 18.4988C13.7044 18.4988 12.9413 18.8149 12.3787 19.3775C11.8161 19.9401 11.5 20.7032 11.5 21.4988V24Z" fill="#F7B731"/>
<path d="M11.5 21.75V24C11.5 24.7956 11.8161 25.5587 12.3787 26.1213C12.9413 26.6839 13.7044 27 14.5 27C15.2956 27 16.0587 26.6839 16.6213 26.1213C17.1839 25.5587 17.5 24.7956 17.5 24V21.75C17.5 22.5456 17.1839 23.3087 16.6213 23.8713C16.0587 24.4339 15.2956 24.75 14.5 24.75C13.7044 24.75 12.9413 24.4339 12.3787 23.8713C11.8161 23.3087 11.5 22.5456 11.5 21.75Z" fill="#FA8231"/>
<path d="M16.3535 21.8536L15.6464 21.1464L14.9999 21.7929V20.25H13.9999V23.5429L13.3535 22.8964L12.6464 23.6036L13.9999 24.9571V31.5H14.9999V23.2071L16.3535 21.8536Z" fill="#192A56"/>
</svg>
