<svg width="33" height="33" viewBox="0 0 33 33" fill="none" xmlns="http://www.w3.org/2000/svg">
<g clip-path="url(#clip0)">
<path d="M32.5 25.9562C32.5 25.0937 31.6625 24.4688 30.8375 24.725C29.6437 25.0938 29.125 25.7875 27.1625 25.7875C24.4937 25.7875 24.4937 24.5 21.8312 24.5C19.1625 24.5 19.1625 25.7875 16.5 25.7875C13.8313 25.7875 13.8312 24.5 11.1687 24.5C8.5 24.5 8.5 25.7875 5.8375 25.7875C3.88125 25.7875 3.35625 25.0938 2.1625 24.725C1.3375 24.4688 0.5 25.0937 0.5 25.9562V30.5688C0.5 31.6375 1.3625 32.5 2.43125 32.5H30.5688C31.6375 32.5 32.5 31.6375 32.5 30.5688V25.9562Z" fill="#EBECF0"/>
<path d="M27.1625 11.3H5.84375V21.6H27.1625V11.3Z" fill="#0097E6"/>
<path d="M9.3875 11.3H5.84375V21.6H9.3875V11.3Z" fill="#0097E6"/>
<path d="M16.5 15.1625C15.075 15.1625 13.925 16.3125 13.925 17.7375V21.6H19.075V17.7375C19.075 16.3188 17.925 15.1625 16.5 15.1625Z" fill="white"/>
<path d="M6.80625 30.4938H4.875V17.85C4.875 17.3188 5.30625 16.8813 5.84375 16.8813C6.375 16.8813 6.8125 17.3125 6.8125 17.85V30.4938H6.80625Z" fill="#192A56"/>
<path d="M11.3126 30.4938H9.38135V17.85C9.38135 17.3188 9.8126 16.8813 10.3501 16.8813C10.8813 16.8813 11.3188 17.3125 11.3188 17.85V30.4938H11.3126ZM26.1938 30.4938H28.1251V17.85C28.1251 17.3188 27.6938 16.8813 27.1563 16.8813C26.6251 16.8813 26.1876 17.3125 26.1876 17.85V30.4938H26.1938ZM21.6876 30.4938H23.6188V17.85C23.6188 17.3188 23.1876 16.8813 22.6501 16.8813C22.1188 16.8813 21.6813 17.3125 21.6813 17.85V30.4938H21.6876Z" fill="#192A56"/>
<path d="M30.3438 22.5688H2.65625C2.125 22.5688 1.6875 22.1375 1.6875 21.6C1.6875 21.0688 2.11875 20.6313 2.65625 20.6313H30.3438C30.875 20.6313 31.3125 21.0625 31.3125 21.6C31.3062 22.1375 30.875 22.5688 30.3438 22.5688Z" fill="#192A56"/>
<path d="M8.41875 21.6C8.41875 21.0688 8.85 20.6313 9.3875 20.6313H2.65625C2.125 20.6313 1.6875 21.0625 1.6875 21.6C1.6875 22.1313 2.11875 22.5688 2.65625 22.5688H9.38125C8.85 22.5688 8.41875 22.1375 8.41875 21.6Z" fill="#192A56"/>
<path d="M21.8313 28.0437C19.1625 28.0437 19.1625 29.3312 16.5 29.3312C13.8313 29.3312 13.8313 28.0437 11.1688 28.0437C8.50002 28.0437 8.50002 29.3312 5.83752 29.3312C3.16876 29.3312 3.16876 28.0437 0.506259 28.0437V30.5687C0.500009 31.6375 1.36251 32.5 2.43126 32.5H30.5688C31.6375 32.5 32.5 31.6375 32.5 30.5687V28.0437C29.8313 28.0437 29.8313 29.3312 27.1688 29.3312C24.5 29.3312 24.5 28.0437 21.8313 28.0437Z" fill="#0097E6"/>
<path d="M16.5063 0.5H16.4875C15.7688 0.5 15.1 0.84375 14.6812 1.425C13.275 3.375 9.49375 7.90625 3.36875 10.05C2.71875 10.2812 2.28125 10.9 2.28125 11.5875C4.0625 11.5875 4.0625 13.375 5.84375 13.375C7.61875 13.375 7.61875 11.5875 9.39375 11.5875C11.1687 11.5875 11.1688 13.375 12.9438 13.375C14.7188 13.375 14.7188 11.5875 16.4937 11.5875C18.2687 11.5875 18.2688 13.375 20.0438 13.375C21.8188 13.375 21.8188 11.5875 23.5938 11.5875C25.3687 11.5875 25.3687 13.375 27.1437 13.375C28.9187 13.375 28.9188 11.5875 30.6938 11.5875C30.6938 10.8937 30.2625 10.275 29.6063 10.05C23.4875 7.90625 19.7 3.38125 18.2938 1.425C17.8938 0.84375 17.225 0.5 16.5063 0.5Z" fill="#30AD4C"/>
<path d="M9.3938 11.5875C11.1688 11.5875 11.1688 13.375 12.9438 13.375C14.7188 13.375 14.7188 11.5875 16.4938 11.5875V0.5C16.5 0.5 12.8063 8.60625 9.3938 11.5875ZM27.1563 13.375C28.9313 13.375 28.9313 11.5875 30.7063 11.5875C30.7063 10.8937 30.275 10.275 29.6188 10.05C23.5063 7.90625 19.7188 3.375 18.3125 1.425C17.8938 0.84375 17.225 0.5 16.5063 0.5H16.5C16.5 0.5 20.1938 8.60625 23.6063 11.5875C25.3813 11.5875 25.3813 13.375 27.1563 13.375Z" fill="#30AD4C"/>
</g>
<defs>
<clipPath id="clip0">
<rect width="32" height="32" fill="white" transform="translate(0.5 0.5)"/>
</clipPath>
</defs>
</svg>
