<svg width="33" height="33" viewBox="0 0 33 33" fill="none" xmlns="http://www.w3.org/2000/svg">
<path d="M1.13721 24.4375V31.859H26.7379C18.8032 28.7959 10.3924 26.2011 1.13721 24.4375Z" fill="#0097E6"/>
<path d="M31.8627 23.9212C20.7806 24.6862 11.568 27.7701 3.16553 31.859H31.8627V23.9212Z" fill="#0097E6"/>
<path d="M25.6268 31.859H11.4272C11.0919 31.859 10.8246 31.6501 10.878 31.4217C11.9307 27.0169 25.1232 27.0161 26.176 31.4217C26.2294 31.6501 25.9621 31.859 25.6268 31.859Z" fill="#778CA3"/>
<path d="M14.0662 23.2064C14.8089 25.4415 15.9643 27.5364 17.3723 29.4288C18.7146 29.9186 19.9924 29.9477 21.1934 29.4288C19.0948 27.3984 17.5145 25.2374 16.2379 22.3572C13.471 16.0113 14.7857 10.2332 14.7752 9.37322L13.8299 9.15907C12.6772 14.4621 12.2852 17.9326 14.0662 23.2064Z" fill="black"/>
<path d="M15.1246 5.82429C20.9882 10.2052 18.524 15.6709 18.524 15.6709C18.1945 11.9104 14.4058 9.50116 14.4058 9.50116C11.7502 9.64657 9.69038 14.6759 9.69038 14.6759C9.47713 11.0608 11.1871 8.90583 11.1871 8.90583C8.08564 9.19658 4.88731 11.2513 4.88731 11.2513C5.26523 7.89783 9.80123 4.76727 9.80123 4.76727C8.35707 2.33457 3.60974 3.45937 3.60974 3.45937C8.28136 -1.2607 14.8586 2.68759 14.8586 2.68759C19.0746 0.0223098 24.0776 5.36823 24.0776 5.36823C19.9875 2.22794 15.1246 5.82429 15.1246 5.82429Z" fill="#30AD4C"/>
<path d="M23.2655 29.4226C22.7536 29.6094 22.2663 29.6205 21.8082 29.4226C23.3468 27.934 24.1997 26.0119 24.3264 24.3186C24.477 23.4245 24.2673 21.9438 24.256 21.7737L24.6165 21.6921C24.6796 21.982 25.0485 23.2917 24.9894 24.3548C25.0087 25.9715 24.4451 27.8373 23.2655 29.4226Z" fill="black"/>
<path d="M23.8428 20.4005C21.6065 22.0713 22.8263 24.2115 22.8263 24.2115C22.9167 23.1805 24.1106 21.525 24.9905 22.0631C25.7661 22.5376 26.3859 23.7236 26.3859 23.7236C26.4673 22.3448 25.6244 21.6314 25.6244 21.6314C26.8073 21.7423 28.0271 22.5259 28.0271 22.5259C27.883 21.247 26.1531 20.053 26.1531 20.053C26.7039 19.1252 28.5144 19.5542 28.5144 19.5542C26.7327 17.7541 24.2243 19.2599 24.2243 19.2599C22.1337 18.0156 20.6127 20.5203 20.6127 20.5203C22.1336 19.7699 23.8428 20.4005 23.8428 20.4005Z" fill="#30AD4C"/>
</svg>
