<svg width="33" height="33" viewBox="0 0 33 33" fill="none" xmlns="http://www.w3.org/2000/svg">
<g clip-path="url(#clip0)">
<path d="M17.5 3.65V2.05C17.5 2.05 16.9 1.65 16.75 0.5H16.5H16.25C16.1 1.7 15.5 2.05 15.5 2.05V3.6H17.5V3.65Z" fill="#F7B731"/>
<path d="M31.85 30.6H1.15002V32.5H31.85V30.6Z" fill="#FA8231"/>
<path d="M18.1 22.25H31.85V30.65H1.15002V22.25H14.9H18.1Z" fill="#F7B731"/>
<path d="M31.85 22.25H1.15002L1.65002 17.9H31.35L31.85 22.25Z" fill="#FA8231"/>
<path d="M31.35 13.6V17.9H24.35V13.6L25 12.3H30.7L31.35 13.6Z" fill="#FA8231"/>
<path d="M30.7 12.3V10.55L29.65 9.54999H27.85H26.05L25 10.55V12.3H30.7Z" fill="#F7B731"/>
<path d="M29.6501 9.55001V8.10001L29.0001 7.45001H27.8501H26.7001L26.05 8.10001V9.55001H29.6501Z" fill="#FA8231"/>
<path d="M28.9999 7.44999V5.74999C28.9999 5.74999 28.2999 5.34999 28.1499 4.04999H27.8499H27.5499C27.3999 5.29999 26.7 5.74999 26.7 5.74999V7.44999H28.9999Z" fill="#F7B731"/>
<path d="M29.15 14.6H26.5V17.9H29.15V14.6Z" fill="#192A56"/>
<path d="M8.65002 13.6V17.9H1.65002V13.6L2.30002 12.3H8.00002L8.65002 13.6Z" fill="#FA8231"/>
<path d="M8.00005 12.3V10.55L6.95005 9.54999H5.15005H3.35005L2.30005 10.55V12.3H8.00005Z" fill="#F7B731"/>
<path d="M6.94997 9.55001V8.10001L6.29998 7.45001H5.14998H3.99998L3.34998 8.10001V9.55001H6.94997Z" fill="#FA8231"/>
<path d="M6.3 7.44999V5.74999C6.3 5.74999 5.6 5.34999 5.45 4.04999H5.15H4.85C4.7 5.34999 4 5.79999 4 5.79999V7.49999H6.3V7.44999Z" fill="#F7B731"/>
<path d="M6.45005 14.6H3.80005V17.9H6.45005V14.6Z" fill="#192A56"/>
<path d="M21.35 12.7V17.9H11.65V12.7L12.6 11.1H20.4L21.35 12.7Z" fill="#F7B731"/>
<path d="M20.4 11.1V8.95001L19 7.70001H16.5H14L12.6 8.95001V11.1H20.4Z" fill="#FA8231"/>
<path d="M19 7.70001V5.95001L18.1 5.15001H16.5H14.9L14 5.95001V7.70001H19Z" fill="#F7B731"/>
<path d="M18.1 5.14999V4.04999L17.5 3.54999H16.5H15.5L14.9 4.04999V5.14999H18.1Z" fill="#FA8231"/>
<path d="M18.35 13.85H14.65V17.85H18.35V13.85Z" fill="#192A56"/>
<path d="M24.35 14.5H21.35V17.9H24.35V14.5Z" fill="#F7B731"/>
<path d="M11.65 14.5H8.65002V17.9H11.65V14.5Z" fill="#F7B731"/>
<path d="M16.5 28.2H19.2V23.35L18.05 22.25V21.5C18.05 21.3 17.95 21.15 17.8 21.05L16.65 20.2C16.55 20.1 16.35 20.1 16.25 20.2L15.1 21.05C14.95 21.15 14.85 21.35 14.85 21.5V22.25L13.7 23.35V28.2H16.5ZM3.40005 28.85C3.20005 28.85 3.05005 28.7 3.05005 28.5V24.2C3.05005 24 3.20005 23.85 3.40005 23.85C3.60005 23.85 3.75005 24 3.75005 24.2V28.5C3.75005 28.7 3.60005 28.85 3.40005 28.85ZM6.10005 28.85C5.90005 28.85 5.75005 28.7 5.75005 28.5V24.2C5.75005 24 5.90005 23.85 6.10005 23.85C6.30005 23.85 6.45005 24 6.45005 24.2V28.5C6.50005 28.7 6.30005 28.85 6.10005 28.85ZM8.80005 28.85C8.60005 28.85 8.45005 28.7 8.45005 28.5V24.2C8.45005 24 8.60005 23.85 8.80005 23.85C9.00005 23.85 9.15005 24 9.15005 24.2V28.5C9.20005 28.7 9.00005 28.85 8.80005 28.85ZM11.5 28.85C11.3 28.85 11.15 28.7 11.15 28.5V24.2C11.15 24 11.3 23.85 11.5 23.85C11.7 23.85 11.85 24 11.85 24.2V28.5C11.9 28.7 11.75 28.85 11.5 28.85ZM21.5 28.85C21.3 28.85 21.15 28.7 21.15 28.5V24.2C21.15 24 21.3 23.85 21.5 23.85C21.7 23.85 21.85 24 21.85 24.2V28.5C21.85 28.7 21.7 28.85 21.5 28.85ZM24.2 28.85C24 28.85 23.85 28.7 23.85 28.5V24.2C23.85 24 24 23.85 24.2 23.85C24.4 23.85 24.55 24 24.55 24.2V28.5C24.55 28.7 24.4 28.85 24.2 28.85ZM26.9 28.85C26.7 28.85 26.55 28.7 26.55 28.5V24.2C26.55 24 26.7 23.85 26.9 23.85C27.1 23.85 27.25 24 27.25 24.2V28.5C27.25 28.7 27.1 28.85 26.9 28.85ZM29.6 28.85C29.4 28.85 29.25 28.7 29.25 28.5V24.2C29.25 24 29.4 23.85 29.6 23.85C29.8 23.85 29.95 24 29.95 24.2V28.5C29.95 28.7 29.8 28.85 29.6 28.85Z" fill="#192A56"/>
<path d="M13.15 20.45H3.25002C3.05002 20.45 2.90002 20.3 2.90002 20.1C2.90002 19.9 3.05002 19.75 3.25002 19.75H13.15C13.35 19.75 13.5 19.9 13.5 20.1C13.5 20.3 13.35 20.45 13.15 20.45ZM29.75 20.45H19.85C19.65 20.45 19.5 20.3 19.5 20.1C19.5 19.9 19.65 19.75 19.85 19.75H29.75C29.95 19.75 30.1 19.9 30.1 20.1C30.1 20.3 29.95 20.45 29.75 20.45Z" fill="#F7B731"/>
</g>
<defs>
<clipPath id="clip0">
<rect width="32" height="32" fill="white" transform="translate(0.5 0.5)"/>
</clipPath>
</defs>
</svg>
