<svg width="33" height="33" viewBox="0 0 33 33" fill="none" xmlns="http://www.w3.org/2000/svg">
<g clip-path="url(#clip0)">
<path d="M21.8334 14.3851C21.8334 15.6532 22.325 16.8694 23.2002 17.7662C24.0754 18.6629 25.2624 19.1667 26.5 19.1667C27.7377 19.1667 28.9247 18.6629 29.7999 17.7662C30.675 16.8694 31.1667 15.6532 31.1667 14.3851V6.61494C31.1667 5.34678 30.675 4.13055 29.7999 3.23383C28.9247 2.3371 27.7377 1.83333 26.5 1.83333C25.2624 1.83333 24.0754 2.3371 23.2002 3.23383C22.325 4.13055 21.8334 5.34678 21.8334 6.61494V14.3851Z" fill="#30AD4C"/>
<path d="M21.8334 14.529V12.5C21.8334 13.73 22.325 14.9096 23.2002 15.7793C24.0754 16.6491 25.2624 17.1377 26.5 17.1377C27.7377 17.1377 28.9247 16.6491 29.7999 15.7793C30.675 14.9096 31.1667 13.73 31.1667 12.5V14.529C31.1667 15.759 30.675 16.9386 29.7999 17.8083C28.9247 18.6781 27.7377 19.1667 26.5 19.1667C25.2624 19.1667 24.0754 18.6781 23.2002 17.8083C22.325 16.9386 21.8334 15.759 21.8334 14.529Z" fill="#30AD4C"/>
<path d="M29.6771 10.5464C29.7267 10.4939 29.7659 10.4317 29.7927 10.3632C29.8195 10.2947 29.8333 10.2212 29.8333 10.1471V7.88824H28.7667V9.91313L27.7 11.0425V4.5H26.6333V8.50136L25.5667 7.37195V6.47647H24.5V7.60588C24.5 7.68004 24.5138 7.75348 24.5406 7.82199C24.5674 7.89051 24.6067 7.95276 24.6562 8.0052L26.6333 10.0986V13.3014L25.4105 12.0066L24.6562 12.8052L26.6333 14.8986V28.5H27.7V16.8751L29.6771 14.7817C29.7267 14.7292 29.7659 14.667 29.7927 14.5985C29.8195 14.5299 29.8333 14.4565 29.8333 14.3824V13.2529H28.7667V14.1485L27.7 15.2779V12.6398L29.6771 10.5464Z" fill="#192A56"/>
<path d="M15.9955 9.98653C16.3164 9.98653 16.5492 9.98653 16.6935 9.98653C16.8379 9.98653 16.9346 9.99484 16.9825 10.0106C17.6081 10.1709 18.1701 10.3875 18.6678 10.6598C18.9405 10.8523 19.3096 10.9488 19.7753 10.9488C19.9354 10.965 20.0842 10.977 20.2207 10.9849C20.3567 10.9928 20.4976 11.0208 20.642 11.0689C20.9629 11.1813 21.2396 11.2938 21.4726 11.406C21.7051 11.5182 21.9337 11.6626 22.1588 11.8387C22.8971 12.4805 23.5632 13.4345 24.1573 14.701C24.3172 15.0381 24.7186 16.0564 25.3611 17.7559C25.4409 17.9484 25.6741 18.0726 26.0591 18.1286C26.4443 18.1851 26.8133 18.2371 27.1666 18.2848C27.1181 18.4935 26.9337 18.6298 26.6128 18.6937C26.0027 18.8223 25.6739 18.8945 25.6258 18.9102C25.8021 19.7443 25.9303 20.4097 26.011 20.9065C26.2835 22.4301 26.4601 23.6571 26.5406 24.5868C26.7007 25.9822 26.7814 27.3288 26.7814 28.6277C26.7814 28.7879 26.7972 28.9161 26.8298 29.0123C26.8617 29.1088 26.8936 29.1888 26.9258 29.2529C26.8936 29.1888 26.7488 29.205 26.4927 29.3013C26.2356 29.3973 26.0834 29.4133 26.035 29.3496C26.0191 29.2689 26.0269 29.1488 26.0591 28.9882C26.091 28.8281 26.1072 28.7157 26.1072 28.6511C26.1072 28.106 26.0388 27.4596 25.9025 26.7132C25.766 25.9673 25.5533 25.0879 25.2646 24.0771C24.9756 23.0658 24.6783 22.0066 24.3736 20.8993C24.0044 19.6796 23.587 18.8129 23.1217 18.299C22.9931 18.1544 22.8004 18.0424 22.544 17.9619C22.287 17.8819 22.1021 17.8259 21.9901 17.7935C21.6532 17.6334 21.38 17.5128 21.1716 17.4323C20.7702 17.2558 20.5295 17.1998 20.4493 17.2637C20.4171 17.2961 20.4132 17.4043 20.4372 17.5887C20.4613 17.7736 20.4735 17.8981 20.4735 17.9619C20.4735 18.0746 20.3688 18.1507 20.1603 18.1907C19.9516 18.231 19.7589 18.2671 19.5823 18.299C19.4056 18.3314 19.2453 18.3393 19.1009 18.3231C18.9405 18.2912 18.7837 18.2629 18.6314 18.2389C18.4785 18.2148 18.3064 18.2028 18.1139 18.2028C17.8568 18.2028 17.6683 18.2389 17.548 18.3111C17.4277 18.3832 17.3393 18.5156 17.2831 18.7083C17.2266 18.9008 17.1988 19.2141 17.1988 19.6472C17.1665 19.9202 17.2308 20.3054 17.3916 20.8026C17.6322 21.5571 17.7648 21.9985 17.7886 22.1271C17.8127 22.2558 18.2497 23.2747 19.1007 25.1846C19.4216 25.9067 19.5821 26.5411 19.5821 27.0866C19.5821 27.2789 19.658 27.4439 19.8109 27.5801C19.9632 27.7169 20.1198 27.849 20.2804 27.9774C20.3764 28.0577 20.5171 28.206 20.7017 28.4226C20.8861 28.6391 21.0106 28.7802 21.0749 28.8439C20.8017 29.1331 20.5691 29.3441 20.3766 29.4787C20.1841 29.6132 19.959 29.6804 19.7027 29.6804C19.5738 29.6804 19.3174 29.6655 18.9324 29.6355C18.547 29.6051 18.2178 29.5902 17.945 29.5902C17.945 29.0442 17.9048 28.5755 17.8247 28.1817C17.7444 27.7891 17.5919 27.3511 17.3673 26.8701C17.3192 26.7419 17.2467 26.6052 17.1505 26.4608C17.0545 26.316 16.958 26.1721 16.8618 26.0277C16.4763 25.3052 16.2517 24.8959 16.1878 24.7998C16.0589 24.5914 15.8905 24.3906 15.6818 24.1978C15.5215 24.5986 15.369 25.0232 15.2244 25.4723C14.9838 26.2097 14.811 26.6745 14.7068 26.8672C14.6023 27.0595 14.5343 27.1958 14.5021 27.2761C14.3735 27.5167 14.2855 27.7571 14.2374 27.9973C14.2052 28.1417 14.2855 28.3101 14.478 28.5024C14.6384 28.7271 14.807 28.9438 14.984 29.1523L15.1284 29.5364C14.6786 29.6329 14.1409 29.6808 13.5153 29.6808C13.0496 29.6808 12.6565 29.6491 12.3354 29.5867C12.1586 29.5082 11.9902 29.429 11.8298 29.3501C11.8618 29.2693 11.9539 29.1215 12.1068 28.9045C12.259 28.6879 12.3511 28.5234 12.3837 28.411C12.4959 28.0739 12.6003 27.6086 12.6968 27.0147C12.9214 25.6663 13.0496 24.928 13.082 24.7998C13.0977 24.6233 13.106 24.4866 13.106 24.3906C13.106 24.2619 13.0977 24.1659 13.082 24.1014C13.0177 23.6203 12.9533 23.1384 12.8895 22.6567C12.8895 22.2879 12.9214 21.8382 12.9857 21.3088C13.0015 21.1318 13.0417 20.8752 13.106 20.5386C13.0255 20.5543 12.8973 20.5543 12.7208 20.5386C12.5438 20.5228 12.3995 20.5228 12.2875 20.5386C11.8379 20.6189 11.2359 20.7954 10.4817 21.068C9.55069 21.4051 8.93272 21.6059 8.628 21.67C8.53153 21.6862 8.40291 21.6938 8.24278 21.6938C8.11394 21.6938 7.93741 21.6781 7.71275 21.6459C7.4881 21.6137 7.33541 21.5976 7.25535 21.5976C7.06284 21.5976 6.91016 21.6258 6.79794 21.6818C6.6855 21.7382 6.57722 21.8664 6.47288 22.0672C6.36853 22.268 6.28431 22.3918 6.22044 22.4402C6.15591 22.4885 6.02772 22.5286 5.83522 22.5607C5.64228 22.5927 5.52197 22.6491 5.47406 22.7291C5.32947 22.9702 5.23694 23.2191 5.19713 23.4755C5.15666 23.7328 5.13697 24.0537 5.13697 24.4385C5.13697 25.0643 5.19297 25.6344 5.30541 26.1478C5.41784 26.6618 5.62653 27.2553 5.93147 27.9295C5.97959 27.994 6.08372 28.0979 6.2445 28.2423C6.40463 28.3871 6.48534 28.4674 6.48534 28.4834C6.56563 28.5958 6.61375 28.668 6.62994 28.6999C6.71 28.8286 6.72597 28.941 6.67806 29.037C6.53347 29.2781 6.28453 29.398 5.93169 29.398C5.80306 29.398 5.48216 29.366 4.96853 29.3019C4.45491 29.2378 3.9975 29.2059 3.59653 29.2059C3.59653 29.0449 3.59653 28.8366 3.59653 28.5801C3.59653 28.3235 3.59653 28.1465 3.59653 28.0502C3.59653 27.8092 3.5845 27.6333 3.56131 27.5204C3.53791 27.408 3.45938 27.1475 3.32616 26.7382C3.19316 26.3289 3.11069 25.9798 3.07984 25.6906L2.82084 24.8241C2.69528 25.0164 2.59356 25.2214 2.51547 25.4381C2.43738 25.6549 2.3665 25.8595 2.30416 26.0522C2.17838 26.3409 2.05325 26.6299 1.92791 26.9186C1.72381 27.4163 1.62253 27.8094 1.62253 28.0984C1.65447 28.3235 1.68641 28.5402 1.71856 28.7487C1.68641 28.7811 1.65009 28.8128 1.61028 28.8447C1.57003 28.8771 1.502 28.9012 1.40553 28.9169C1.08441 28.9012 0.859751 28.8931 0.731563 28.8931C0.474532 28.8931 0.137438 28.8447 -0.279718 28.7487C-0.408343 28.7168 -0.592749 28.6684 -0.833374 28.6043C-0.20753 27.4806 0.290126 26.4536 0.659376 25.5226C1.02819 24.592 1.29309 23.661 1.45388 22.7296C1.48581 22.6014 1.52213 22.3126 1.56216 21.8627C1.60197 21.414 1.65425 21.0286 1.71856 20.7075C1.76669 20.4511 1.71856 20.17 1.57419 19.8646C1.54203 19.8165 1.51775 19.7443 1.502 19.6481C1.43769 19.3433 1.40575 19.1828 1.40575 19.1666C1.34144 19.0544 1.27713 18.9419 1.21325 18.8295C1.16491 19.1828 1.0645 20.0013 0.912251 21.2856C0.759563 22.5695 0.627001 23.4762 0.515001 24.006C0.466876 24.2306 0.410439 24.4238 0.346563 24.5837C0.137657 25.1135 0.0173447 25.4668 -0.0145928 25.6433C-0.0145928 25.0978 0.00946969 24.6765 0.0575947 24.3796C0.10572 24.0828 0.197814 23.7216 0.334532 23.2962C0.470595 22.8711 0.578876 22.2969 0.659595 21.5744C0.739657 20.8523 0.779907 20.1059 0.779907 19.3355C0.779907 18.854 0.783845 18.3846 0.791938 17.9272C0.799813 17.4697 0.852095 16.9684 0.948563 16.4226C1.28566 14.7052 1.87147 13.3649 2.706 12.402C3.71706 11.2463 5.06544 10.6686 6.75069 10.6686C7.31222 10.6686 7.85822 10.7167 8.38759 10.813C9.72 11.0538 10.3938 11.1741 10.4099 11.1741C11.8546 11.1741 13.0343 11.0048 13.9491 10.666C14.0935 10.6178 14.2418 10.5531 14.3945 10.4726C14.5467 10.3921 14.7033 10.3112 14.8639 10.2302C15.1205 10.1497 15.3292 10.0896 15.4898 10.0489C15.6501 10.0069 15.8185 9.98653 15.9955 9.98653Z" fill="#192A56"/>
<path d="M23.1411 9.83333H22.999C24.186 9.94064 25.2079 10.3478 26.0653 11.0543C26.9224 11.761 27.3512 12.5703 27.3512 13.4826C27.3512 13.769 27.3982 14.0192 27.4926 14.2338C27.5868 14.4486 27.7282 14.6544 27.9166 14.8509C28.934 15.5129 29.9606 16.1658 30.9973 16.8098C31.1288 16.9352 31.1669 17.0512 31.1101 17.1587C31.0911 17.2841 31.082 17.4 31.082 17.5075L30.8841 17.5881C30.9408 17.624 30.9971 17.655 31.0536 17.6818C31.1101 17.7085 31.1476 17.7314 31.1667 17.7489C30.9792 17.8206 30.8106 17.8562 30.6608 17.8562C30.4922 17.8562 30.1645 17.8295 29.6779 17.7758C29.1912 17.722 28.8076 17.6952 28.5265 17.6952C28.2827 17.6952 28.0956 17.7085 27.9649 17.7356C27.8337 17.7624 27.7024 17.8295 27.5719 17.9368C27.1973 18.2589 27.0009 18.4291 26.9825 18.4468C26.6827 18.5364 26.4578 18.6076 26.308 18.6614C26.1584 18.7151 26.0461 18.8404 25.971 19.037C25.7274 19.717 25.4748 20.3341 25.2128 20.8884C24.8944 21.5503 24.5577 22.1051 24.2022 22.5521C23.5277 23.1605 23.0456 23.6388 22.7554 23.9875C22.4653 24.3363 22.3204 24.7164 22.3204 25.1277C22.3204 25.5033 22.3204 26.1031 22.3204 26.9255C22.3204 27.7484 22.3204 28.3837 22.3204 28.8307C22.339 29.0813 22.3579 29.2959 22.3771 29.4747C22.3957 29.6536 22.4429 29.8907 22.5185 30.1857C22.5933 30.4809 22.6457 30.6955 22.6737 30.8298C22.702 30.9638 22.7488 31.0805 22.8152 31.1788C22.8811 31.2772 22.9939 31.4113 23.1541 31.5809C23.314 31.7513 23.5732 31.9525 23.9316 32.1848L22.9706 32.0775C22.782 32.0063 22.6783 31.9165 22.6597 31.809C22.6405 31.7019 22.6032 31.6125 22.5466 31.5407C22.4901 31.4696 22.4146 31.4425 22.3206 31.4602C22.2262 31.4784 22.1512 31.4201 22.0945 31.2859C22.038 31.1517 21.9858 30.9013 21.9391 30.5346C21.8918 30.1682 21.8494 29.7522 21.8119 29.2868L21.4161 27.06C21.3773 27.3101 21.3428 27.5245 21.3137 27.703C21.2845 27.8817 21.2307 28.0873 21.153 28.3191C20.8997 29.1415 20.7381 29.6865 20.6702 29.9541C20.6024 30.2222 20.5684 30.4811 20.5684 30.7313L20.6813 30.8117L20.5684 30.9991C20.5492 31.0888 20.554 31.1869 20.5824 31.2944C20.6106 31.4016 20.6249 31.4818 20.6249 31.5354C20.6814 31.6785 20.7945 31.8345 20.964 32.0042C21.1334 32.1743 21.3029 32.339 21.4727 32.5C21.0392 32.4463 20.6059 32.3925 20.1726 32.339C20.1726 32.2678 20.1959 32.1873 20.2431 32.098C20.2901 32.0086 20.314 31.9463 20.314 31.91C20.314 31.8565 20.2618 31.7851 20.1584 31.696C20.0547 31.6064 20.0031 31.5351 20.0031 31.4811C20.0031 31.1237 20.1346 30.3552 20.3987 29.1753C20.5302 28.586 20.5966 28.0853 20.5966 27.674C20.5966 27.3343 20.5871 26.6777 20.5686 25.7034C20.5494 24.7295 20.5402 24.1617 20.5402 24.0008C20.0279 24.0008 19.4967 24.0277 18.9464 24.0813C17.6376 24.2065 16.8785 24.269 16.67 24.269C15.8545 24.269 14.9913 24.0994 14.0807 23.7592C13.8343 24.1175 13.5972 24.4752 13.3695 24.8327C13.2363 24.9763 13.075 25.119 12.8855 25.2621C12.6954 25.4056 12.5723 25.5129 12.5154 25.5841C12.4014 25.7813 12.3259 25.9956 12.288 26.2283C12.2502 26.4608 12.2311 26.7204 12.2311 27.0064L12.316 27.6772C12.4289 27.9454 12.5514 28.2049 12.6833 28.4553C12.7965 28.8491 12.9237 29.2064 13.0649 29.5287C13.2061 29.8507 13.3708 30.1372 13.5594 30.3872L14.0962 30.8436L14.4354 31.219L15.0008 31.6215C14.9441 31.6215 14.798 31.6481 14.5626 31.7021C14.3267 31.7559 14.2094 31.8092 14.2094 31.863C14.1338 31.8273 14.0631 31.7153 13.9973 31.5275C13.9311 31.3398 13.8511 31.2011 13.7569 31.1115C13.5875 31.0759 13.4646 31.0401 13.3894 31.0044C13.3139 30.9149 13.2574 30.8526 13.2199 30.8165C13.0688 30.6378 12.909 30.3603 12.7394 29.9845C12.5701 29.609 12.4096 29.2428 12.2591 28.8845C12.2401 28.8309 12.0232 28.4551 11.6091 27.7576C11.3263 27.2745 11.1851 26.8991 11.1851 26.6306C11.2877 26.3983 11.3536 26.2193 11.3832 26.0941C11.4019 25.9869 11.4065 25.8975 11.3972 25.8258C11.3875 25.7542 11.3832 25.7096 11.3832 25.6914C11.0078 25.9421 10.6329 26.1925 10.258 26.4426C9.76442 26.8185 9.51765 27.1496 9.51765 27.4355C9.51765 27.6325 9.51765 27.972 9.51765 28.4551C9.51765 28.9382 9.51765 29.1887 9.51765 29.2063C9.51765 29.4035 9.51765 29.5822 9.51765 29.7432C9.51765 29.904 9.54656 30.1053 9.6042 30.3469C9.66165 30.5882 9.71965 30.8163 9.77729 31.0309C9.85432 31.1919 9.99813 31.344 10.21 31.4871C10.4215 31.6305 10.6526 31.7465 10.9026 31.8358C10.8643 31.854 10.8503 31.9123 10.86 32.0104C10.8694 32.1088 10.8317 32.1933 10.747 32.2652C10.6621 32.336 10.601 32.3723 10.5633 32.3723C10.4504 32.336 10.2524 32.3183 9.96996 32.3183C9.91326 32.3183 9.8754 32.2556 9.85675 32.1306C9.83772 32.0058 9.81888 31.9342 9.80023 31.916C9.70567 31.7552 9.63068 31.6473 9.57417 31.5942L9.15021 31.0573C9.15021 30.8609 9.12633 30.6642 9.0797 30.4671C9.03233 30.2705 8.99913 29.9619 8.98066 29.5413C8.96182 29.1213 8.9525 28.8036 8.9525 28.5888C8.9525 28.303 8.93347 28.0209 8.8958 27.7438C8.85793 27.4666 8.82025 27.131 8.78295 26.7376C8.78295 26.4872 9.08884 26.0891 9.70156 25.5433C10.3135 24.9981 10.6198 24.5821 10.6198 24.2958C10.6198 23.7769 10.5349 23.2315 10.3656 22.6588C10.271 22.373 10.177 22.0867 10.0828 21.8004C10.0449 21.8719 10.0166 21.9255 9.99794 21.9613C9.8851 22.1402 9.81441 22.279 9.78624 22.3773C9.75789 22.4757 9.74372 22.6052 9.74372 22.7662C9.74372 22.9452 9.73402 23.0704 9.71536 23.1419C9.4893 24.0004 9.16867 24.7785 8.75441 25.4764C8.66022 25.6374 8.57535 25.7982 8.5 25.9593C8.5567 25.8343 8.59401 25.6823 8.61303 25.5031C8.63168 25.3245 8.65071 25.1993 8.66955 25.1275C8.6882 25.0564 8.78705 24.7029 8.9663 24.0679C9.14517 23.4332 9.27257 22.9099 9.34792 22.4981C9.44174 21.7467 9.53146 21.1074 9.61632 20.5797C9.70119 20.0522 9.8657 19.6183 10.1108 19.2782C10.9207 18.1514 12.3153 17.5879 14.2937 17.5879C14.463 17.5879 15.047 17.7043 16.0459 17.9366C16.4982 18.0439 16.8749 18.0976 17.1765 18.0976C18.4201 18.0976 19.4515 18.111 20.2713 18.1379C21.091 18.1649 21.689 18.2318 22.066 18.3393C22.141 18.3573 22.3202 18.4197 22.603 18.5272C22.8855 18.6345 23.0644 18.6881 23.14 18.6881C23.6298 18.6881 24.0254 18.4379 24.327 17.9368C24.5338 17.4537 24.7506 16.9708 24.977 16.4879C25.1277 16.3629 25.2879 16.2288 25.4573 16.0854C25.4383 15.9961 25.4194 15.9067 25.4008 15.8171C25.3816 15.7277 25.3252 15.6204 25.231 15.4952C25.0615 15.2805 24.9013 15.0657 24.7506 14.8511L24.6942 14.368C24.9044 14.4042 25.0283 14.3907 25.0665 14.3277C25.1044 14.2652 25.1141 14.1936 25.0951 14.113C25.0757 14.0325 25.0757 13.9655 25.0951 13.9117C25.1525 13.9117 25.2193 13.9299 25.2954 13.9655C25.372 14.0015 25.4481 14.0371 25.5246 14.0727C25.5821 14.2517 25.6916 14.4307 25.8542 14.6094C26.0165 14.7884 26.1745 14.9581 26.3272 15.1192C26.4029 15.1373 26.4893 15.146 26.5846 15.146C26.6799 15.146 26.7469 15.1283 26.7853 15.0923C26.823 15.0565 26.837 15.0029 26.8278 14.9312C26.8181 14.8602 26.804 14.7796 26.7853 14.6898C26.5574 13.7955 26.3388 12.8921 26.1304 11.9797C25.6565 11.0139 24.6599 10.2987 23.1411 9.83333Z" fill="#FA8231"/>
</g>
<defs>
<clipPath id="clip0">
<rect width="32" height="32" fill="white" transform="translate(0.5 0.5)"/>
</clipPath>
</defs>
</svg>
